%TF.GenerationSoftware,KiCad,Pcbnew,(6.99.0)*%
%TF.CreationDate,2023-03-13T13:34:33-07:00*%
%TF.ProjectId,emg-analog-front-end,656d672d-616e-4616-9c6f-672d66726f6e,rev?*%
%TF.SameCoordinates,Original*%
%TF.FileFunction,Copper,L1,Top*%
%TF.FilePolarity,Positive*%
%FSLAX46Y46*%
G04 Gerber Fmt 4.6, Leading zero omitted, Abs format (unit mm)*
G04 Created by KiCad (PCBNEW (6.99.0)) date 2023-03-13 13:34:33*
%MOMM*%
%LPD*%
G01*
G04 APERTURE LIST*
G04 Aperture macros list*
%AMRoundRect*
0 Rectangle with rounded corners*
0 $1 Rounding radius*
0 $2 $3 $4 $5 $6 $7 $8 $9 X,Y pos of 4 corners*
0 Add a 4 corners polygon primitive as box body*
4,1,4,$2,$3,$4,$5,$6,$7,$8,$9,$2,$3,0*
0 Add four circle primitives for the rounded corners*
1,1,$1+$1,$2,$3*
1,1,$1+$1,$4,$5*
1,1,$1+$1,$6,$7*
1,1,$1+$1,$8,$9*
0 Add four rect primitives between the rounded corners*
20,1,$1+$1,$2,$3,$4,$5,0*
20,1,$1+$1,$4,$5,$6,$7,0*
20,1,$1+$1,$6,$7,$8,$9,0*
20,1,$1+$1,$8,$9,$2,$3,0*%
G04 Aperture macros list end*
%TA.AperFunction,SMDPad,CuDef*%
%ADD10RoundRect,0.140000X-0.140000X-0.170000X0.140000X-0.170000X0.140000X0.170000X-0.140000X0.170000X0*%
%TD*%
%TA.AperFunction,SMDPad,CuDef*%
%ADD11R,1.000000X1.000000*%
%TD*%
%TA.AperFunction,SMDPad,CuDef*%
%ADD12RoundRect,0.200000X-0.200000X-0.275000X0.200000X-0.275000X0.200000X0.275000X-0.200000X0.275000X0*%
%TD*%
%TA.AperFunction,SMDPad,CuDef*%
%ADD13RoundRect,0.140000X-0.170000X0.140000X-0.170000X-0.140000X0.170000X-0.140000X0.170000X0.140000X0*%
%TD*%
%TA.AperFunction,SMDPad,CuDef*%
%ADD14RoundRect,0.150000X-0.825000X-0.150000X0.825000X-0.150000X0.825000X0.150000X-0.825000X0.150000X0*%
%TD*%
%TA.AperFunction,ComponentPad*%
%ADD15R,1.700000X1.700000*%
%TD*%
%TA.AperFunction,ComponentPad*%
%ADD16O,1.700000X1.700000*%
%TD*%
%TA.AperFunction,SMDPad,CuDef*%
%ADD17RoundRect,0.140000X0.170000X-0.140000X0.170000X0.140000X-0.170000X0.140000X-0.170000X-0.140000X0*%
%TD*%
%TA.AperFunction,SMDPad,CuDef*%
%ADD18RoundRect,0.135000X-0.135000X-0.185000X0.135000X-0.185000X0.135000X0.185000X-0.135000X0.185000X0*%
%TD*%
%TA.AperFunction,SMDPad,CuDef*%
%ADD19RoundRect,0.135000X0.135000X0.185000X-0.135000X0.185000X-0.135000X-0.185000X0.135000X-0.185000X0*%
%TD*%
%TA.AperFunction,ComponentPad*%
%ADD20R,1.000000X1.000000*%
%TD*%
%TA.AperFunction,ComponentPad*%
%ADD21O,1.000000X1.000000*%
%TD*%
%TA.AperFunction,SMDPad,CuDef*%
%ADD22RoundRect,0.140000X0.140000X0.170000X-0.140000X0.170000X-0.140000X-0.170000X0.140000X-0.170000X0*%
%TD*%
%TA.AperFunction,SMDPad,CuDef*%
%ADD23RoundRect,0.135000X-0.185000X0.135000X-0.185000X-0.135000X0.185000X-0.135000X0.185000X0.135000X0*%
%TD*%
%TA.AperFunction,ViaPad*%
%ADD24C,0.800000*%
%TD*%
%TA.AperFunction,Conductor*%
%ADD25C,0.203200*%
%TD*%
%TA.AperFunction,Conductor*%
%ADD26C,0.250000*%
%TD*%
%TA.AperFunction,Conductor*%
%ADD27C,0.254000*%
%TD*%
%TA.AperFunction,Conductor*%
%ADD28C,0.355600*%
%TD*%
G04 APERTURE END LIST*
D10*
%TO.P,C11,1*%
%TO.N,Net-(C11-Pad1)*%
X21237000Y-1524000D03*
%TO.P,C11,2*%
%TO.N,NOTCH_OUT_CH0*%
X22197000Y-1524000D03*
%TD*%
D11*
%TO.P,TP2,1,1*%
%TO.N,GND*%
X8382000Y-18288000D03*
%TD*%
D12*
%TO.P,R4,1*%
%TO.N,Net-(R4-Pad1)*%
X10605000Y-1778000D03*
%TO.P,R4,2*%
%TO.N,Net-(R4-Pad2)*%
X12255000Y-1778000D03*
%TD*%
D13*
%TO.P,C5,1*%
%TO.N,/IA_OUT_CH0*%
X13716000Y-9489500D03*
%TO.P,C5,2*%
%TO.N,/HPF_OUT_CH0*%
X13716000Y-10449500D03*
%TD*%
D14*
%TO.P,U3,1*%
%TO.N,/AMP_IN+_CH0*%
X27624000Y-11557000D03*
%TO.P,U3,2,-*%
X27624000Y-12827000D03*
%TO.P,U3,3,+*%
%TO.N,/LPF_IN-_CH0*%
X27624000Y-14097000D03*
%TO.P,U3,4,V-*%
%TO.N,-5V*%
X27624000Y-15367000D03*
%TO.P,U3,5,+*%
%TO.N,/AMP_IN+_CH0*%
X32574000Y-15367000D03*
%TO.P,U3,6,-*%
%TO.N,/AMP_IN-_CH0*%
X32574000Y-14097000D03*
%TO.P,U3,7*%
%TO.N,/AMP_OUT_CH0*%
X32574000Y-12827000D03*
%TO.P,U3,8,V+*%
%TO.N,VDD*%
X32574000Y-11557000D03*
%TD*%
D15*
%TO.P,J5,1,Pin_1*%
%TO.N,SK11*%
X21448000Y-14478000D03*
D16*
%TO.P,J5,2,Pin_2*%
%TO.N,unconnected-(J5-Pad2)*%
X18908000Y-14478000D03*
%TO.P,J5,3,Pin_3*%
%TO.N,SK01*%
X16368000Y-14478000D03*
%TD*%
D15*
%TO.P,J7,1,Pin_1*%
%TO.N,/AMP_IN-_CH0*%
X38989000Y-7508000D03*
D16*
%TO.P,J7,2,Pin_2*%
%TO.N,unconnected-(J7-Pad2)*%
X38989000Y-10048000D03*
%TO.P,J7,3,Pin_3*%
%TO.N,GND*%
X38989000Y-12588000D03*
%TD*%
D17*
%TO.P,C2,1*%
%TO.N,SK01*%
X24384000Y-16355000D03*
%TO.P,C2,2*%
%TO.N,/LPF_IN-_CH0*%
X24384000Y-15395000D03*
%TD*%
D18*
%TO.P,R10,1*%
%TO.N,AOUT_CH0*%
X33018000Y-1141000D03*
%TO.P,R10,2*%
%TO.N,/AMP_OUT_CH0*%
X34038000Y-1141000D03*
%TD*%
D19*
%TO.P,R9,1*%
%TO.N,Net-(C10-Pad2)*%
X18925000Y-2667000D03*
%TO.P,R9,2*%
%TO.N,/NOTCH_IN_CH0*%
X17905000Y-2667000D03*
%TD*%
D10*
%TO.P,C9,1*%
%TO.N,/NOTCH_IN_CH0*%
X17935000Y-3810000D03*
%TO.P,C9,2*%
%TO.N,Net-(C11-Pad1)*%
X18895000Y-3810000D03*
%TD*%
D13*
%TO.P,C7,1*%
%TO.N,/IA_OUT_CH0*%
X11430000Y-9489500D03*
%TO.P,C7,2*%
%TO.N,/HPF_OUT_CH0*%
X11430000Y-10449500D03*
%TD*%
D20*
%TO.P,J2,1,Pin_1*%
%TO.N,GND*%
X27000000Y-2000000D03*
D21*
%TO.P,J2,2,Pin_2*%
%TO.N,-5V*%
X28270000Y-2000000D03*
%TO.P,J2,3,Pin_3*%
%TO.N,AOUT_CH0*%
X29540000Y-2000000D03*
%TO.P,J2,4,Pin_4*%
%TO.N,VDD*%
X30810000Y-2000000D03*
%TD*%
D17*
%TO.P,C16,1*%
%TO.N,GND*%
X35814000Y-6068000D03*
%TO.P,C16,2*%
%TO.N,VDD*%
X35814000Y-5108000D03*
%TD*%
D22*
%TO.P,C1,1*%
%TO.N,GND*%
X22705000Y-12065000D03*
%TO.P,C1,2*%
%TO.N,SK11*%
X21745000Y-12065000D03*
%TD*%
D14*
%TO.P,U2,1*%
%TO.N,/NOTCH_IN_CH0*%
X18226000Y-5461000D03*
%TO.P,U2,2,-*%
X18226000Y-6731000D03*
%TO.P,U2,3,+*%
%TO.N,/HPF_OUT_CH0*%
X18226000Y-8001000D03*
%TO.P,U2,4,V-*%
%TO.N,-5V*%
X18226000Y-9271000D03*
%TO.P,U2,5,+*%
%TO.N,SK11*%
X23176000Y-9271000D03*
%TO.P,U2,6,-*%
%TO.N,/LPF_IN-_CH0*%
X23176000Y-8001000D03*
%TO.P,U2,7*%
X23176000Y-6731000D03*
%TO.P,U2,8,V+*%
%TO.N,VDD*%
X23176000Y-5461000D03*
%TD*%
D19*
%TO.P,R13,1*%
%TO.N,NOTCH_OUT_CH0*%
X24259000Y-1524000D03*
%TO.P,R13,2*%
%TO.N,Net-(C10-Pad2)*%
X23239000Y-1524000D03*
%TD*%
D23*
%TO.P,R12,1*%
%TO.N,Net-(C11-Pad1)*%
X21336000Y-2792000D03*
%TO.P,R12,2*%
%TO.N,GND*%
X21336000Y-3812000D03*
%TD*%
D17*
%TO.P,C13,1*%
%TO.N,GND*%
X25527000Y-16355000D03*
%TO.P,C13,2*%
%TO.N,-5V*%
X25527000Y-15395000D03*
%TD*%
D22*
%TO.P,C12,1*%
%TO.N,GND*%
X35532000Y-11811000D03*
%TO.P,C12,2*%
%TO.N,VDD*%
X34572000Y-11811000D03*
%TD*%
%TO.P,C15,1*%
%TO.N,GND*%
X19911000Y-10795000D03*
%TO.P,C15,2*%
%TO.N,-5V*%
X18951000Y-10795000D03*
%TD*%
D20*
%TO.P,J1,1,Pin_1*%
%TO.N,GND*%
X2000000Y-11000000D03*
D21*
%TO.P,J1,2,Pin_2*%
%TO.N,E1_CH0*%
X2000000Y-9730000D03*
%TO.P,J1,3,Pin_3*%
%TO.N,E2_CH0*%
X2000000Y-8460000D03*
%TD*%
D18*
%TO.P,R11,1*%
%TO.N,AOUT_CH0*%
X33018000Y-2284000D03*
%TO.P,R11,2*%
%TO.N,VDD*%
X34038000Y-2284000D03*
%TD*%
%TO.P,R1,1*%
%TO.N,E1_CH0*%
X5713000Y-6350000D03*
%TO.P,R1,2*%
%TO.N,/IA_IN+_CH0*%
X6733000Y-6350000D03*
%TD*%
%TO.P,R2,1*%
%TO.N,E2_CH0*%
X5713000Y-5080000D03*
%TO.P,R2,2*%
%TO.N,/IA_IN-_CH0*%
X6733000Y-5080000D03*
%TD*%
D15*
%TO.P,J4,1,Pin_1*%
%TO.N,SK01*%
X16398000Y-18161000D03*
D16*
%TO.P,J4,2,Pin_2*%
%TO.N,unconnected-(J4-Pad2)*%
X18938000Y-18161000D03*
%TO.P,J4,3,Pin_3*%
%TO.N,SK00*%
X21478000Y-18161000D03*
%TD*%
D11*
%TO.P,TP1,1,1*%
%TO.N,GND*%
X35179000Y-17780000D03*
%TD*%
D14*
%TO.P,U1,1,Rg*%
%TO.N,Net-(R4-Pad1)*%
X8955000Y-3810000D03*
%TO.P,U1,2,-*%
%TO.N,/IA_IN-_CH0*%
X8955000Y-5080000D03*
%TO.P,U1,3,+*%
%TO.N,/IA_IN+_CH0*%
X8955000Y-6350000D03*
%TO.P,U1,4,Vs-*%
%TO.N,-5V*%
X8955000Y-7620000D03*
%TO.P,U1,5,Ref*%
%TO.N,GND*%
X13905000Y-7620000D03*
%TO.P,U1,6*%
%TO.N,/IA_OUT_CH0*%
X13905000Y-6350000D03*
%TO.P,U1,7,Vs+*%
%TO.N,VDD*%
X13905000Y-5080000D03*
%TO.P,U1,8,Rg*%
%TO.N,Net-(R4-Pad2)*%
X13905000Y-3810000D03*
%TD*%
D15*
%TO.P,J6,1,Pin_1*%
%TO.N,/HPF_OUT_CH0*%
X12573000Y-13081000D03*
D16*
%TO.P,J6,2,Pin_2*%
%TO.N,unconnected-(J6-Pad2)*%
X12573000Y-15621000D03*
%TO.P,J6,3,Pin_3*%
%TO.N,GND*%
X12573000Y-18161000D03*
%TD*%
D20*
%TO.P,J3,1,Pin_1*%
%TO.N,GND*%
X27000000Y-18500000D03*
D21*
%TO.P,J3,2,Pin_2*%
%TO.N,-5V*%
X28270000Y-18500000D03*
%TO.P,J3,3,Pin_3*%
%TO.N,AOUT_CH0*%
X29540000Y-18500000D03*
%TO.P,J3,4,Pin_4*%
%TO.N,VDD*%
X30810000Y-18500000D03*
%TD*%
D13*
%TO.P,C14,1*%
%TO.N,GND*%
X25273000Y-4092000D03*
%TO.P,C14,2*%
%TO.N,VDD*%
X25273000Y-5052000D03*
%TD*%
%TO.P,C8,1*%
%TO.N,/IA_OUT_CH0*%
X10287000Y-9489500D03*
%TO.P,C8,2*%
%TO.N,/HPF_OUT_CH0*%
X10287000Y-10449500D03*
%TD*%
D17*
%TO.P,C17,1*%
%TO.N,GND*%
X26670000Y-9878000D03*
%TO.P,C17,2*%
%TO.N,-5V*%
X26670000Y-8918000D03*
%TD*%
D13*
%TO.P,C4,1*%
%TO.N,GND*%
X16002000Y-4064000D03*
%TO.P,C4,2*%
%TO.N,VDD*%
X16002000Y-5024000D03*
%TD*%
D10*
%TO.P,C3,1*%
%TO.N,GND*%
X7676000Y-9306500D03*
%TO.P,C3,2*%
%TO.N,-5V*%
X8636000Y-9306500D03*
%TD*%
D23*
%TO.P,R8,1*%
%TO.N,/AMP_OUT_CH0*%
X35179000Y-1139000D03*
%TO.P,R8,2*%
%TO.N,/AMP_IN-_CH0*%
X35179000Y-2159000D03*
%TD*%
D13*
%TO.P,C6,1*%
%TO.N,/IA_OUT_CH0*%
X12573000Y-9489500D03*
%TO.P,C6,2*%
%TO.N,/HPF_OUT_CH0*%
X12573000Y-10449500D03*
%TD*%
D14*
%TO.P,U4,1*%
%TO.N,SK00*%
X28767000Y-5080000D03*
%TO.P,U4,2,-*%
X28767000Y-6350000D03*
%TO.P,U4,3,+*%
%TO.N,NOTCH_OUT_CH0*%
X28767000Y-7620000D03*
%TO.P,U4,4,V-*%
%TO.N,-5V*%
X28767000Y-8890000D03*
%TO.P,U4,5,+*%
%TO.N,unconnected-(U4-Pad5)*%
X33717000Y-8890000D03*
%TO.P,U4,6,-*%
%TO.N,unconnected-(U4-Pad6)*%
X33717000Y-7620000D03*
%TO.P,U4,7*%
%TO.N,unconnected-(U4-Pad7)*%
X33717000Y-6350000D03*
%TO.P,U4,8,V+*%
%TO.N,VDD*%
X33717000Y-5080000D03*
%TD*%
D17*
%TO.P,C10,1*%
%TO.N,GND*%
X22479000Y-3782000D03*
%TO.P,C10,2*%
%TO.N,Net-(C10-Pad2)*%
X22479000Y-2822000D03*
%TD*%
D24*
%TO.N,GND*%
X11938000Y-7874000D03*
X24257000Y-3810000D03*
X21209000Y-10795000D03*
X35560000Y-16129000D03*
X26035000Y-10668000D03*
X23495000Y-11303000D03*
X25146000Y-17272000D03*
%TO.N,/LPF_IN-_CH0*%
X26035000Y-14097000D03*
X23622000Y-14224000D03*
%TO.N,VDD*%
X33909000Y-3683000D03*
X31623000Y-8763000D03*
X25273000Y-6096000D03*
X31750000Y-10668000D03*
X16002000Y-6322000D03*
X26924000Y-4318000D03*
%TO.N,Net-(C10-Pad2)*%
X19939000Y-2667000D03*
X24003000Y-2667000D03*
%TO.N,AOUT_CH0*%
X30607000Y-16764000D03*
%TO.N,/AMP_IN-_CH0*%
X35306000Y-13970000D03*
X35433000Y-3810000D03*
%TO.N,/AMP_OUT_CH0*%
X35052000Y-12827000D03*
X36322000Y-1524000D03*
%TO.N,-5V*%
X17526000Y-10795000D03*
X10795000Y-6604000D03*
X31115000Y-4699000D03*
X25400000Y-8890000D03*
%TO.N,SK00*%
X27051000Y-5461000D03*
%TD*%
D25*
%TO.N,GND*%
X24991000Y-3810000D02*
X24257000Y-3810000D01*
X26698000Y-9906000D02*
X26670000Y-9878000D01*
X35814000Y-9144000D02*
X35052000Y-9906000D01*
D26*
X26035000Y-10668000D02*
X26670000Y-10033000D01*
X26670000Y-10033000D02*
X26670000Y-9878000D01*
D27*
X22705000Y-12065000D02*
X22733000Y-12065000D01*
D26*
X25273000Y-17272000D02*
X25146000Y-17272000D01*
X35179000Y-16510000D02*
X35179000Y-17780000D01*
D27*
X22733000Y-12065000D02*
X23495000Y-11303000D01*
D25*
X24257000Y-3810000D02*
X24229000Y-3782000D01*
X13905000Y-7620000D02*
X12192000Y-7620000D01*
D26*
X21336000Y-3812000D02*
X22449000Y-3812000D01*
X25527000Y-17018000D02*
X25273000Y-17272000D01*
D25*
X35052000Y-9906000D02*
X26698000Y-9906000D01*
X25273000Y-4092000D02*
X24991000Y-3810000D01*
D26*
X35560000Y-16129000D02*
X35179000Y-16510000D01*
X22449000Y-3812000D02*
X22479000Y-3782000D01*
D25*
X2000000Y-11000000D02*
X2049000Y-11049000D01*
X35814000Y-6068000D02*
X35814000Y-9144000D01*
D26*
X19911000Y-10795000D02*
X21209000Y-10795000D01*
D25*
X12192000Y-7620000D02*
X11938000Y-7874000D01*
D26*
X25527000Y-16355000D02*
X25527000Y-17018000D01*
D25*
X25273000Y-4191000D02*
X25273000Y-4092000D01*
X24229000Y-3782000D02*
X22479000Y-3782000D01*
D26*
%TO.N,/LPF_IN-_CH0*%
X23176000Y-6731000D02*
X23176000Y-8001000D01*
X24257000Y-8001000D02*
X24638000Y-8382000D01*
X23622000Y-14605000D02*
X23622000Y-14224000D01*
X23176000Y-8001000D02*
X24257000Y-8001000D01*
X24384000Y-15367000D02*
X23622000Y-14605000D01*
X24384000Y-15395000D02*
X24384000Y-15367000D01*
D25*
X27624000Y-14097000D02*
X26035000Y-14097000D01*
D26*
X24638000Y-10033000D02*
X24384000Y-10287000D01*
X24638000Y-8382000D02*
X24638000Y-10033000D01*
X24384000Y-10287000D02*
X24384000Y-15395000D01*
D25*
%TO.N,VDD*%
X34572000Y-11811000D02*
X34318000Y-11557000D01*
D26*
X31623000Y-6096000D02*
X32639000Y-5080000D01*
X40386000Y-5588000D02*
X37536000Y-5588000D01*
D25*
X16002000Y-5024000D02*
X16002000Y-6068000D01*
D26*
X36195000Y-14351000D02*
X40513000Y-14351000D01*
X35786000Y-5080000D02*
X35814000Y-5108000D01*
X32046000Y-18500000D02*
X36195000Y-14351000D01*
D25*
X34318000Y-11557000D02*
X32574000Y-11557000D01*
D26*
X37536000Y-5588000D02*
X37056000Y-5108000D01*
X37056000Y-5108000D02*
X35814000Y-5108000D01*
X30810000Y-18500000D02*
X32046000Y-18500000D01*
D25*
X25273000Y-5052000D02*
X25273000Y-6096000D01*
D26*
X40894000Y-13970000D02*
X40894000Y-6096000D01*
D25*
X33909000Y-3683000D02*
X33909000Y-2413000D01*
X24864000Y-5461000D02*
X25273000Y-5052000D01*
D26*
X33717000Y-3875000D02*
X33717000Y-5080000D01*
D25*
X23176000Y-5461000D02*
X24864000Y-5461000D01*
D27*
X15946000Y-5080000D02*
X16002000Y-5024000D01*
D26*
X32639000Y-5080000D02*
X33717000Y-5080000D01*
D25*
X31750000Y-10733000D02*
X32574000Y-11557000D01*
D26*
X40894000Y-6096000D02*
X40386000Y-5588000D01*
D25*
X31750000Y-10668000D02*
X31750000Y-10733000D01*
X33909000Y-2413000D02*
X34038000Y-2284000D01*
X33655000Y-3937000D02*
X33909000Y-3683000D01*
D27*
X13905000Y-5080000D02*
X15946000Y-5080000D01*
D26*
X33717000Y-5080000D02*
X35786000Y-5080000D01*
X31623000Y-8763000D02*
X31623000Y-6096000D01*
D25*
X16002000Y-6068000D02*
X16002000Y-6322000D01*
D26*
X40513000Y-14351000D02*
X40894000Y-13970000D01*
D25*
X26924000Y-4318000D02*
X27305000Y-3937000D01*
X27305000Y-3937000D02*
X33655000Y-3937000D01*
D26*
X33909000Y-3683000D02*
X33717000Y-3875000D01*
%TO.N,/IA_OUT_CH0*%
X13716000Y-9489500D02*
X12573000Y-9489500D01*
X10287000Y-9489500D02*
X10287000Y-8290500D01*
X11430000Y-9489500D02*
X10287000Y-9489500D01*
X12573000Y-9489500D02*
X11430000Y-9489500D01*
X10287000Y-8255000D02*
X12192000Y-6350000D01*
X12192000Y-6350000D02*
X13905000Y-6350000D01*
D27*
%TO.N,/HPF_OUT_CH0*%
X17272000Y-8001000D02*
X14823500Y-10449500D01*
X18226000Y-8001000D02*
X17272000Y-8001000D01*
D26*
X11430000Y-10449500D02*
X12573000Y-10449500D01*
D27*
X14823500Y-10449500D02*
X13716000Y-10449500D01*
D26*
X10287000Y-10449500D02*
X11430000Y-10449500D01*
D27*
X12573000Y-13081000D02*
X12573000Y-10449500D01*
D26*
X12573000Y-10449500D02*
X13716000Y-10449500D01*
%TO.N,/NOTCH_IN_CH0*%
X17935000Y-5170000D02*
X18226000Y-5461000D01*
X17935000Y-3810000D02*
X17935000Y-5170000D01*
X18226000Y-5461000D02*
X18226000Y-6731000D01*
X17935000Y-3810000D02*
X17935000Y-2697000D01*
%TO.N,Net-(C11-Pad1)*%
X21336000Y-1623000D02*
X21237000Y-1524000D01*
X21336000Y-2792000D02*
X21336000Y-1623000D01*
X19939000Y-3810000D02*
X20957000Y-2792000D01*
X18895000Y-3810000D02*
X19939000Y-3810000D01*
X20957000Y-2792000D02*
X21336000Y-2792000D01*
%TO.N,Net-(C10-Pad2)*%
X24003000Y-2667000D02*
X23368000Y-2667000D01*
X22479000Y-2822000D02*
X22959000Y-2822000D01*
X23241000Y-1526000D02*
X23239000Y-1524000D01*
X22959000Y-2822000D02*
X23241000Y-2540000D01*
X23368000Y-2667000D02*
X23241000Y-2540000D01*
X23241000Y-2540000D02*
X23241000Y-1526000D01*
X19812000Y-2667000D02*
X19939000Y-2667000D01*
X18925000Y-2667000D02*
X19812000Y-2667000D01*
%TO.N,NOTCH_OUT_CH0*%
X22352000Y-762000D02*
X24130000Y-762000D01*
X24259000Y-891000D02*
X24259000Y-1524000D01*
X24130000Y-762000D02*
X24259000Y-891000D01*
X22197000Y-1524000D02*
X22197000Y-917000D01*
X22197000Y-917000D02*
X22352000Y-762000D01*
X27305000Y-7620000D02*
X28767000Y-7620000D01*
X24259000Y-1524000D02*
X26162000Y-3427000D01*
X26162000Y-3427000D02*
X26162000Y-6477000D01*
X26162000Y-6477000D02*
X27305000Y-7620000D01*
D27*
%TO.N,/IA_IN-_CH0*%
X6733000Y-5080000D02*
X8955000Y-5080000D01*
%TO.N,/IA_IN+_CH0*%
X6733000Y-6350000D02*
X8955000Y-6350000D01*
%TO.N,E1_CH0*%
X5713000Y-6352000D02*
X2335000Y-9730000D01*
X2335000Y-9730000D02*
X2000000Y-9730000D01*
X5713000Y-6350000D02*
X5713000Y-6352000D01*
%TO.N,E2_CH0*%
X4953000Y-5080000D02*
X2000000Y-8033000D01*
X5713000Y-5080000D02*
X4953000Y-5080000D01*
X2000000Y-8033000D02*
X2000000Y-8460000D01*
D26*
%TO.N,AOUT_CH0*%
X33018000Y-2669000D02*
X32639000Y-3048000D01*
X32258000Y-3429000D02*
X32637000Y-3050000D01*
X30226000Y-3429000D02*
X32131000Y-3429000D01*
X33018000Y-2284000D02*
X33018000Y-2669000D01*
X33018000Y-1141000D02*
X33018000Y-2284000D01*
X29540000Y-18500000D02*
X29540000Y-17831000D01*
X29540000Y-17831000D02*
X30607000Y-16764000D01*
X29540000Y-2000000D02*
X29540000Y-2743000D01*
X29540000Y-2743000D02*
X30226000Y-3429000D01*
%TO.N,Net-(R4-Pad1)*%
X8955000Y-2729000D02*
X9906000Y-1778000D01*
X8955000Y-3810000D02*
X8955000Y-2729000D01*
X9906000Y-1778000D02*
X10605000Y-1778000D01*
%TO.N,Net-(R4-Pad2)*%
X13905000Y-3810000D02*
X13905000Y-2856000D01*
X13905000Y-2856000D02*
X12827000Y-1778000D01*
X12255000Y-1778000D02*
X12827000Y-1778000D01*
%TO.N,/AMP_IN-_CH0*%
X35433000Y-3810000D02*
X35433000Y-2798000D01*
X32574000Y-14097000D02*
X35179000Y-14097000D01*
X35433000Y-2413000D02*
X35179000Y-2159000D01*
X35179000Y-14097000D02*
X35306000Y-13970000D01*
X35433000Y-2796000D02*
X35433000Y-2413000D01*
%TO.N,/AMP_OUT_CH0*%
X35937000Y-1139000D02*
X35179000Y-1139000D01*
X35177000Y-1141000D02*
X35179000Y-1139000D01*
X36322000Y-1524000D02*
X35937000Y-1139000D01*
X34038000Y-1141000D02*
X35177000Y-1141000D01*
D25*
X35052000Y-12827000D02*
X32574000Y-12827000D01*
D26*
%TO.N,/AMP_IN+_CH0*%
X27624000Y-12827000D02*
X27624000Y-11557000D01*
X28829000Y-12827000D02*
X31369000Y-15367000D01*
X31369000Y-15367000D02*
X32574000Y-15367000D01*
X27624000Y-12827000D02*
X28829000Y-12827000D01*
%TO.N,-5V*%
X28270000Y-16013000D02*
X27624000Y-15367000D01*
X18951000Y-10795000D02*
X17526000Y-10795000D01*
D27*
X25273000Y-15141000D02*
X25527000Y-15395000D01*
D25*
X8636000Y-9306500D02*
X8636000Y-7974500D01*
D27*
X18226000Y-9271000D02*
X18226000Y-10095000D01*
D25*
X8636000Y-7939000D02*
X8955000Y-7620000D01*
D27*
X18226000Y-10095000D02*
X17526000Y-10795000D01*
D26*
X28270000Y-18500000D02*
X28270000Y-16013000D01*
D25*
X8955000Y-7620000D02*
X9779000Y-7620000D01*
D27*
X25273000Y-9017000D02*
X25273000Y-15141000D01*
X25527000Y-15395000D02*
X27596000Y-15395000D01*
X31115000Y-7493000D02*
X29718000Y-8890000D01*
X28739000Y-8918000D02*
X28767000Y-8890000D01*
D25*
X9779000Y-7620000D02*
X10795000Y-6604000D01*
D27*
X31115000Y-4699000D02*
X31115000Y-7493000D01*
X25400000Y-8890000D02*
X25273000Y-9017000D01*
X27596000Y-15395000D02*
X27624000Y-15367000D01*
X29718000Y-8890000D02*
X28767000Y-8890000D01*
D25*
X25400000Y-8890000D02*
X25428000Y-8918000D01*
D27*
X26670000Y-8918000D02*
X28739000Y-8918000D01*
D25*
X25428000Y-8918000D02*
X26670000Y-8918000D01*
D28*
%TO.N,SK11*%
X21448000Y-14478000D02*
X21448000Y-12362000D01*
D27*
X23176000Y-9271000D02*
X23176000Y-10352000D01*
X21745000Y-11783000D02*
X21745000Y-12065000D01*
X23176000Y-10352000D02*
X21745000Y-11783000D01*
D28*
X21448000Y-12362000D02*
X21745000Y-12065000D01*
%TO.N,SK01*%
X16398000Y-14508000D02*
X16368000Y-14478000D01*
D27*
X18245000Y-16355000D02*
X16368000Y-14478000D01*
X24384000Y-16355000D02*
X18245000Y-16355000D01*
D28*
X16398000Y-18161000D02*
X16398000Y-14508000D01*
D26*
%TO.N,SK00*%
X28767000Y-5080000D02*
X27432000Y-5080000D01*
X28767000Y-6350000D02*
X28767000Y-5080000D01*
X27432000Y-5080000D02*
X27051000Y-5461000D01*
%TD*%
%TA.AperFunction,Conductor*%
%TO.N,GND*%
G36*
X26476963Y-16091586D02*
G01*
X26535399Y-16126145D01*
X26543010Y-16128356D01*
X26543012Y-16128357D01*
X26573127Y-16137106D01*
X26695169Y-16172562D01*
X26701574Y-16173066D01*
X26701579Y-16173067D01*
X26730042Y-16175307D01*
X26730050Y-16175307D01*
X26732498Y-16175500D01*
X27484405Y-16175500D01*
X27552526Y-16195502D01*
X27573500Y-16212405D01*
X27599595Y-16238500D01*
X27633621Y-16300812D01*
X27636500Y-16327595D01*
X27636500Y-17366000D01*
X27616498Y-17434121D01*
X27562842Y-17480614D01*
X27510500Y-17492000D01*
X27272115Y-17492000D01*
X27256876Y-17496475D01*
X27255671Y-17497865D01*
X27254000Y-17505548D01*
X27254000Y-18628000D01*
X27233998Y-18696121D01*
X27180342Y-18742614D01*
X27128000Y-18754000D01*
X26010116Y-18754000D01*
X25994877Y-18758475D01*
X25993672Y-18759865D01*
X25992001Y-18767548D01*
X25992001Y-19044669D01*
X25992371Y-19051490D01*
X25997895Y-19102352D01*
X26001521Y-19117604D01*
X26046676Y-19238054D01*
X26055214Y-19253648D01*
X26082784Y-19290435D01*
X26107632Y-19356941D01*
X26092579Y-19426324D01*
X26042405Y-19476554D01*
X25981958Y-19492000D01*
X22345161Y-19492000D01*
X22277040Y-19471998D01*
X22230547Y-19418342D01*
X22220443Y-19348068D01*
X22249937Y-19283488D01*
X22271993Y-19263421D01*
X22274555Y-19261593D01*
X22357860Y-19202173D01*
X22516096Y-19044489D01*
X22523947Y-19033564D01*
X22643435Y-18867277D01*
X22646453Y-18863077D01*
X22658111Y-18839490D01*
X22743136Y-18667453D01*
X22743137Y-18667451D01*
X22745430Y-18662811D01*
X22784062Y-18535660D01*
X22808865Y-18454023D01*
X22808865Y-18454021D01*
X22810370Y-18449069D01*
X22839490Y-18227885D01*
X25992000Y-18227885D01*
X25996475Y-18243124D01*
X25997865Y-18244329D01*
X26005548Y-18246000D01*
X26727885Y-18246000D01*
X26743124Y-18241525D01*
X26744329Y-18240135D01*
X26746000Y-18232452D01*
X26746000Y-17510116D01*
X26741525Y-17494877D01*
X26740135Y-17493672D01*
X26732452Y-17492001D01*
X26455331Y-17492001D01*
X26448510Y-17492371D01*
X26397648Y-17497895D01*
X26382396Y-17501521D01*
X26261946Y-17546676D01*
X26246351Y-17555214D01*
X26144276Y-17631715D01*
X26131715Y-17644276D01*
X26055214Y-17746351D01*
X26046676Y-17761946D01*
X26001522Y-17882394D01*
X25997895Y-17897649D01*
X25992369Y-17948514D01*
X25992000Y-17955328D01*
X25992000Y-18227885D01*
X22839490Y-18227885D01*
X22839529Y-18227590D01*
X22841156Y-18161000D01*
X22822852Y-17938361D01*
X22768431Y-17721702D01*
X22679354Y-17516840D01*
X22597349Y-17390079D01*
X22560822Y-17333617D01*
X22560820Y-17333614D01*
X22558014Y-17329277D01*
X22441564Y-17201300D01*
X22410513Y-17137454D01*
X22418908Y-17066955D01*
X22464084Y-17012187D01*
X22534758Y-16990500D01*
X23744795Y-16990500D01*
X23812164Y-17010281D01*
X23813371Y-17011488D01*
X23954403Y-17094894D01*
X23962014Y-17097105D01*
X23962016Y-17097106D01*
X24012995Y-17111916D01*
X24111746Y-17140606D01*
X24118151Y-17141110D01*
X24118156Y-17141111D01*
X24146060Y-17143307D01*
X24146068Y-17143307D01*
X24148516Y-17143500D01*
X24619484Y-17143500D01*
X24621932Y-17143307D01*
X24621940Y-17143307D01*
X24649844Y-17141111D01*
X24649849Y-17141110D01*
X24656254Y-17140606D01*
X24755005Y-17111916D01*
X24805984Y-17097106D01*
X24805986Y-17097105D01*
X24813597Y-17094894D01*
X24820422Y-17090858D01*
X24820426Y-17090856D01*
X24891852Y-17048615D01*
X24960668Y-17031155D01*
X25020130Y-17048614D01*
X25090780Y-17090396D01*
X25105216Y-17096643D01*
X25248641Y-17138312D01*
X25256609Y-17139768D01*
X25270031Y-17136948D01*
X25273000Y-17125487D01*
X25273000Y-17123424D01*
X25781000Y-17123424D01*
X25785344Y-17138219D01*
X25795775Y-17140063D01*
X25805359Y-17138312D01*
X25948784Y-17096643D01*
X25963220Y-17090396D01*
X26090499Y-17015124D01*
X26102926Y-17005484D01*
X26207484Y-16900926D01*
X26217124Y-16888499D01*
X26292396Y-16761220D01*
X26298643Y-16746784D01*
X26333619Y-16626395D01*
X26333579Y-16612295D01*
X26326309Y-16609000D01*
X25799115Y-16609000D01*
X25783876Y-16613475D01*
X25782671Y-16614865D01*
X25781000Y-16622548D01*
X25781000Y-17123424D01*
X25273000Y-17123424D01*
X25273000Y-16309500D01*
X25293002Y-16241379D01*
X25346658Y-16194886D01*
X25399000Y-16183500D01*
X25762484Y-16183500D01*
X25764932Y-16183307D01*
X25764940Y-16183307D01*
X25792844Y-16181111D01*
X25792849Y-16181110D01*
X25799254Y-16180606D01*
X25909324Y-16148628D01*
X25948984Y-16137106D01*
X25948986Y-16137105D01*
X25956597Y-16134894D01*
X25967651Y-16128357D01*
X25984240Y-16118546D01*
X26048379Y-16101000D01*
X26320558Y-16101000D01*
X26362461Y-16088696D01*
X26377326Y-16079143D01*
X26448322Y-16079143D01*
X26476963Y-16091586D01*
G37*
%TD.AperFunction*%
%TA.AperFunction,Conductor*%
G36*
X41410032Y-14454038D02*
G01*
X41466868Y-14496585D01*
X41491679Y-14563105D01*
X41492000Y-14572094D01*
X41492000Y-19366000D01*
X41471998Y-19434121D01*
X41418342Y-19480614D01*
X41366000Y-19492000D01*
X31544374Y-19492000D01*
X31476253Y-19471998D01*
X31429760Y-19418342D01*
X31419656Y-19348068D01*
X31449150Y-19283488D01*
X31466801Y-19266711D01*
X31503986Y-19237659D01*
X31503987Y-19237658D01*
X31508847Y-19233861D01*
X31557782Y-19177169D01*
X31617435Y-19138672D01*
X31653164Y-19133500D01*
X31967233Y-19133500D01*
X31978416Y-19134027D01*
X31985909Y-19135702D01*
X31993835Y-19135453D01*
X31993836Y-19135453D01*
X32053986Y-19133562D01*
X32057945Y-19133500D01*
X32085856Y-19133500D01*
X32089791Y-19133003D01*
X32089856Y-19132995D01*
X32101693Y-19132062D01*
X32134502Y-19131031D01*
X32137970Y-19130922D01*
X32145889Y-19130673D01*
X32165343Y-19125021D01*
X32184700Y-19121013D01*
X32196930Y-19119468D01*
X32196931Y-19119468D01*
X32204797Y-19118474D01*
X32212168Y-19115555D01*
X32212170Y-19115555D01*
X32245912Y-19102196D01*
X32257142Y-19098351D01*
X32291983Y-19088229D01*
X32291984Y-19088229D01*
X32299593Y-19086018D01*
X32306412Y-19081985D01*
X32306417Y-19081983D01*
X32317028Y-19075707D01*
X32334776Y-19067012D01*
X32353617Y-19059552D01*
X32368202Y-19048956D01*
X32389387Y-19033564D01*
X32399307Y-19027048D01*
X32430535Y-19008580D01*
X32430538Y-19008578D01*
X32437362Y-19004542D01*
X32451683Y-18990221D01*
X32466717Y-18977380D01*
X32476694Y-18970131D01*
X32483107Y-18965472D01*
X32511298Y-18931395D01*
X32519288Y-18922616D01*
X33117235Y-18324669D01*
X34171001Y-18324669D01*
X34171371Y-18331490D01*
X34176895Y-18382352D01*
X34180521Y-18397604D01*
X34225676Y-18518054D01*
X34234214Y-18533649D01*
X34310715Y-18635724D01*
X34323276Y-18648285D01*
X34425351Y-18724786D01*
X34440946Y-18733324D01*
X34561394Y-18778478D01*
X34576649Y-18782105D01*
X34627514Y-18787631D01*
X34634328Y-18788000D01*
X34906885Y-18788000D01*
X34922124Y-18783525D01*
X34923329Y-18782135D01*
X34925000Y-18774452D01*
X34925000Y-18769884D01*
X35433000Y-18769884D01*
X35437475Y-18785123D01*
X35438865Y-18786328D01*
X35446548Y-18787999D01*
X35723669Y-18787999D01*
X35730490Y-18787629D01*
X35781352Y-18782105D01*
X35796604Y-18778479D01*
X35917054Y-18733324D01*
X35932649Y-18724786D01*
X36034724Y-18648285D01*
X36047285Y-18635724D01*
X36123786Y-18533649D01*
X36132324Y-18518054D01*
X36177478Y-18397606D01*
X36181105Y-18382351D01*
X36186631Y-18331486D01*
X36187000Y-18324672D01*
X36187000Y-18052115D01*
X36182525Y-18036876D01*
X36181135Y-18035671D01*
X36173452Y-18034000D01*
X35451115Y-18034000D01*
X35435876Y-18038475D01*
X35434671Y-18039865D01*
X35433000Y-18047548D01*
X35433000Y-18769884D01*
X34925000Y-18769884D01*
X34925000Y-18052115D01*
X34920525Y-18036876D01*
X34919135Y-18035671D01*
X34911452Y-18034000D01*
X34189116Y-18034000D01*
X34173877Y-18038475D01*
X34172672Y-18039865D01*
X34171001Y-18047548D01*
X34171001Y-18324669D01*
X33117235Y-18324669D01*
X33967048Y-17474856D01*
X34029360Y-17440830D01*
X34100175Y-17445895D01*
X34157011Y-17488442D01*
X34173527Y-17521436D01*
X34176865Y-17524329D01*
X34184548Y-17526000D01*
X34906885Y-17526000D01*
X34922124Y-17521525D01*
X34923329Y-17520135D01*
X34925000Y-17512452D01*
X34925000Y-17507885D01*
X35433000Y-17507885D01*
X35437475Y-17523124D01*
X35438865Y-17524329D01*
X35446548Y-17526000D01*
X36168884Y-17526000D01*
X36184123Y-17521525D01*
X36185328Y-17520135D01*
X36186999Y-17512452D01*
X36186999Y-17235331D01*
X36186629Y-17228510D01*
X36181105Y-17177648D01*
X36177479Y-17162396D01*
X36132324Y-17041946D01*
X36123786Y-17026351D01*
X36104037Y-17000000D01*
X37386526Y-17000000D01*
X37406391Y-17252403D01*
X37407545Y-17257210D01*
X37407546Y-17257216D01*
X37433663Y-17366000D01*
X37465495Y-17498591D01*
X37467388Y-17503162D01*
X37467389Y-17503164D01*
X37555944Y-17716954D01*
X37562384Y-17732502D01*
X37694672Y-17948376D01*
X37859102Y-18140898D01*
X38051624Y-18305328D01*
X38202208Y-18397606D01*
X38253383Y-18428966D01*
X38267498Y-18437616D01*
X38272068Y-18439509D01*
X38272072Y-18439511D01*
X38496836Y-18532611D01*
X38501409Y-18534505D01*
X38557058Y-18547865D01*
X38742784Y-18592454D01*
X38742790Y-18592455D01*
X38747597Y-18593609D01*
X38847416Y-18601465D01*
X38934345Y-18608307D01*
X38934352Y-18608307D01*
X38936801Y-18608500D01*
X39063199Y-18608500D01*
X39065648Y-18608307D01*
X39065655Y-18608307D01*
X39152584Y-18601465D01*
X39252403Y-18593609D01*
X39257210Y-18592455D01*
X39257216Y-18592454D01*
X39442942Y-18547865D01*
X39498591Y-18534505D01*
X39503164Y-18532611D01*
X39727928Y-18439511D01*
X39727932Y-18439509D01*
X39732502Y-18437616D01*
X39746618Y-18428966D01*
X39797792Y-18397606D01*
X39948376Y-18305328D01*
X40140898Y-18140898D01*
X40305328Y-17948376D01*
X40437616Y-17732502D01*
X40444057Y-17716954D01*
X40532611Y-17503164D01*
X40532612Y-17503162D01*
X40534505Y-17498591D01*
X40566337Y-17366000D01*
X40592454Y-17257216D01*
X40592455Y-17257210D01*
X40593609Y-17252403D01*
X40613474Y-17000000D01*
X40593609Y-16747597D01*
X40591844Y-16740242D01*
X40549934Y-16565677D01*
X40534505Y-16501409D01*
X40532611Y-16496836D01*
X40439511Y-16272072D01*
X40439509Y-16272068D01*
X40437616Y-16267498D01*
X40305328Y-16051624D01*
X40140898Y-15859102D01*
X39948376Y-15694672D01*
X39732502Y-15562384D01*
X39727932Y-15560491D01*
X39727928Y-15560489D01*
X39503164Y-15467389D01*
X39503162Y-15467388D01*
X39498591Y-15465495D01*
X39410744Y-15444405D01*
X39257216Y-15407546D01*
X39257210Y-15407545D01*
X39252403Y-15406391D01*
X39150374Y-15398361D01*
X39065655Y-15391693D01*
X39065648Y-15391693D01*
X39063199Y-15391500D01*
X38936801Y-15391500D01*
X38934352Y-15391693D01*
X38934345Y-15391693D01*
X38849626Y-15398361D01*
X38747597Y-15406391D01*
X38742790Y-15407545D01*
X38742784Y-15407546D01*
X38589256Y-15444405D01*
X38501409Y-15465495D01*
X38496838Y-15467388D01*
X38496836Y-15467389D01*
X38272072Y-15560489D01*
X38272068Y-15560491D01*
X38267498Y-15562384D01*
X38051624Y-15694672D01*
X37859102Y-15859102D01*
X37694672Y-16051624D01*
X37562384Y-16267498D01*
X37560491Y-16272068D01*
X37560489Y-16272072D01*
X37467389Y-16496836D01*
X37465495Y-16501409D01*
X37450066Y-16565677D01*
X37408157Y-16740242D01*
X37406391Y-16747597D01*
X37386526Y-17000000D01*
X36104037Y-17000000D01*
X36047285Y-16924276D01*
X36034724Y-16911715D01*
X35932649Y-16835214D01*
X35917054Y-16826676D01*
X35796606Y-16781522D01*
X35781351Y-16777895D01*
X35730486Y-16772369D01*
X35723672Y-16772000D01*
X35451115Y-16772000D01*
X35435876Y-16776475D01*
X35434671Y-16777865D01*
X35433000Y-16785548D01*
X35433000Y-17507885D01*
X34925000Y-17507885D01*
X34925000Y-16790116D01*
X34920525Y-16774877D01*
X34899238Y-16756431D01*
X34876225Y-16743864D01*
X34842202Y-16681551D01*
X34847269Y-16610736D01*
X34876228Y-16565677D01*
X36420500Y-15021405D01*
X36482812Y-14987379D01*
X36509595Y-14984500D01*
X40434233Y-14984500D01*
X40445416Y-14985027D01*
X40452909Y-14986702D01*
X40460835Y-14986453D01*
X40460836Y-14986453D01*
X40520986Y-14984562D01*
X40524945Y-14984500D01*
X40552856Y-14984500D01*
X40556791Y-14984003D01*
X40556856Y-14983995D01*
X40568693Y-14983062D01*
X40600951Y-14982048D01*
X40604970Y-14981922D01*
X40612889Y-14981673D01*
X40632343Y-14976021D01*
X40651700Y-14972013D01*
X40663930Y-14970468D01*
X40663931Y-14970468D01*
X40671797Y-14969474D01*
X40679168Y-14966555D01*
X40679170Y-14966555D01*
X40712912Y-14953196D01*
X40724142Y-14949351D01*
X40758983Y-14939229D01*
X40758984Y-14939229D01*
X40766593Y-14937018D01*
X40773412Y-14932985D01*
X40773417Y-14932983D01*
X40784028Y-14926707D01*
X40801776Y-14918012D01*
X40820617Y-14910552D01*
X40856387Y-14884564D01*
X40866307Y-14878048D01*
X40897535Y-14859580D01*
X40897538Y-14859578D01*
X40904362Y-14855542D01*
X40918683Y-14841221D01*
X40933717Y-14828380D01*
X40943694Y-14821131D01*
X40950107Y-14816472D01*
X40978298Y-14782395D01*
X40986288Y-14773616D01*
X41276905Y-14482999D01*
X41339217Y-14448973D01*
X41410032Y-14454038D01*
G37*
%TD.AperFunction*%
%TA.AperFunction,Conductor*%
G36*
X20868312Y-528002D02*
G01*
X20914805Y-581658D01*
X20924909Y-651932D01*
X20895415Y-716512D01*
X20850230Y-749638D01*
X20845016Y-751894D01*
X20837403Y-754106D01*
X20830581Y-758141D01*
X20830580Y-758141D01*
X20761430Y-799036D01*
X20696371Y-837512D01*
X20580512Y-953371D01*
X20576478Y-960192D01*
X20504794Y-1081404D01*
X20497106Y-1094403D01*
X20451394Y-1251746D01*
X20450890Y-1258151D01*
X20450889Y-1258156D01*
X20449012Y-1282009D01*
X20448500Y-1288516D01*
X20448500Y-1705344D01*
X20428498Y-1773465D01*
X20374842Y-1819958D01*
X20304568Y-1830062D01*
X20271251Y-1820451D01*
X20227319Y-1800891D01*
X20227318Y-1800891D01*
X20221288Y-1798206D01*
X20119824Y-1776639D01*
X20040944Y-1759872D01*
X20040939Y-1759872D01*
X20034487Y-1758500D01*
X19843513Y-1758500D01*
X19837061Y-1759872D01*
X19837056Y-1759872D01*
X19758176Y-1776639D01*
X19656712Y-1798206D01*
X19650682Y-1800891D01*
X19650681Y-1800891D01*
X19488278Y-1873197D01*
X19488276Y-1873198D01*
X19482248Y-1875882D01*
X19476908Y-1879761D01*
X19476904Y-1879764D01*
X19467094Y-1886892D01*
X19400227Y-1910752D01*
X19328891Y-1893411D01*
X19317596Y-1886731D01*
X19309985Y-1884520D01*
X19309983Y-1884519D01*
X19211454Y-1855894D01*
X19161466Y-1841371D01*
X19155059Y-1840867D01*
X19155055Y-1840866D01*
X19127444Y-1838693D01*
X19127438Y-1838693D01*
X19124989Y-1838500D01*
X18925122Y-1838500D01*
X18725012Y-1838501D01*
X18688534Y-1841371D01*
X18591730Y-1869495D01*
X18540017Y-1884519D01*
X18540015Y-1884520D01*
X18532404Y-1886731D01*
X18525579Y-1890767D01*
X18525575Y-1890769D01*
X18479139Y-1918231D01*
X18410323Y-1935691D01*
X18350861Y-1918231D01*
X18304425Y-1890769D01*
X18304421Y-1890767D01*
X18297596Y-1886731D01*
X18289985Y-1884520D01*
X18289983Y-1884519D01*
X18191454Y-1855894D01*
X18141466Y-1841371D01*
X18135059Y-1840867D01*
X18135055Y-1840866D01*
X18107444Y-1838693D01*
X18107438Y-1838693D01*
X18104989Y-1838500D01*
X17905122Y-1838500D01*
X17705012Y-1838501D01*
X17668534Y-1841371D01*
X17571730Y-1869495D01*
X17520017Y-1884519D01*
X17520015Y-1884520D01*
X17512404Y-1886731D01*
X17505582Y-1890766D01*
X17505581Y-1890766D01*
X17379280Y-1965460D01*
X17372459Y-1969494D01*
X17257494Y-2084459D01*
X17253460Y-2091280D01*
X17187469Y-2202866D01*
X17174731Y-2224404D01*
X17172520Y-2232015D01*
X17172519Y-2232017D01*
X17156232Y-2288079D01*
X17129371Y-2380534D01*
X17128867Y-2386941D01*
X17128866Y-2386945D01*
X17126693Y-2414556D01*
X17126500Y-2417011D01*
X17126501Y-2916988D01*
X17129371Y-2953466D01*
X17174731Y-3109596D01*
X17178766Y-3116418D01*
X17178766Y-3116419D01*
X17190078Y-3135547D01*
X17223339Y-3191787D01*
X17227065Y-3198088D01*
X17244524Y-3266904D01*
X17227065Y-3326363D01*
X17195106Y-3380403D01*
X17192895Y-3388014D01*
X17192894Y-3388016D01*
X17185486Y-3413516D01*
X17149394Y-3537746D01*
X17148890Y-3544151D01*
X17148889Y-3544156D01*
X17146831Y-3570305D01*
X17146500Y-3574516D01*
X17146500Y-4045484D01*
X17146693Y-4047932D01*
X17146693Y-4047940D01*
X17148467Y-4070475D01*
X17149394Y-4082254D01*
X17166432Y-4140898D01*
X17190340Y-4223191D01*
X17195106Y-4239597D01*
X17199141Y-4246419D01*
X17199141Y-4246420D01*
X17270755Y-4367512D01*
X17277229Y-4378460D01*
X17278512Y-4380629D01*
X17277644Y-4381143D01*
X17301006Y-4440635D01*
X17301500Y-4451783D01*
X17301500Y-4559576D01*
X17281498Y-4627697D01*
X17227842Y-4674190D01*
X17210652Y-4680573D01*
X17145014Y-4699642D01*
X17145009Y-4699644D01*
X17137399Y-4701855D01*
X17130572Y-4705892D01*
X17130573Y-4705892D01*
X17001020Y-4782509D01*
X17001017Y-4782511D01*
X16995235Y-4785931D01*
X16995232Y-4785932D01*
X16994193Y-4786547D01*
X16994094Y-4786379D01*
X16931932Y-4810786D01*
X16862309Y-4796886D01*
X16811254Y-4747552D01*
X16799793Y-4720433D01*
X16774106Y-4632016D01*
X16774105Y-4632014D01*
X16771894Y-4624403D01*
X16761985Y-4607647D01*
X16744526Y-4538830D01*
X16761984Y-4479372D01*
X16767395Y-4470222D01*
X16773643Y-4455784D01*
X16808619Y-4335395D01*
X16808579Y-4321295D01*
X16801309Y-4318000D01*
X16523379Y-4318000D01*
X16459240Y-4300454D01*
X16438420Y-4288141D01*
X16438419Y-4288141D01*
X16431597Y-4284106D01*
X16423986Y-4281895D01*
X16423984Y-4281894D01*
X16360670Y-4263500D01*
X16274254Y-4238394D01*
X16267849Y-4237890D01*
X16267844Y-4237889D01*
X16239940Y-4235693D01*
X16239932Y-4235693D01*
X16237484Y-4235500D01*
X15874000Y-4235500D01*
X15805879Y-4215498D01*
X15759386Y-4161842D01*
X15748000Y-4109500D01*
X15748000Y-3791885D01*
X16256000Y-3791885D01*
X16260475Y-3807124D01*
X16261865Y-3808329D01*
X16269548Y-3810000D01*
X16795558Y-3810000D01*
X16809089Y-3806027D01*
X16810224Y-3798129D01*
X16773643Y-3672216D01*
X16767396Y-3657780D01*
X16692124Y-3530501D01*
X16682484Y-3518074D01*
X16577926Y-3413516D01*
X16565499Y-3403876D01*
X16438220Y-3328604D01*
X16423784Y-3322357D01*
X16280359Y-3280688D01*
X16272391Y-3279232D01*
X16258969Y-3282052D01*
X16256000Y-3293513D01*
X16256000Y-3791885D01*
X15748000Y-3791885D01*
X15748000Y-3295576D01*
X15743656Y-3280781D01*
X15733225Y-3278937D01*
X15723641Y-3280688D01*
X15580216Y-3322357D01*
X15565780Y-3328604D01*
X15476619Y-3381333D01*
X15407802Y-3398792D01*
X15340471Y-3376275D01*
X15304027Y-3337018D01*
X15258491Y-3260020D01*
X15258489Y-3260017D01*
X15254453Y-3253193D01*
X15136807Y-3135547D01*
X15129983Y-3131511D01*
X15129980Y-3131509D01*
X15000427Y-3054892D01*
X15000428Y-3054892D01*
X14993601Y-3050855D01*
X14985990Y-3048644D01*
X14985988Y-3048643D01*
X14896218Y-3022563D01*
X14833831Y-3004438D01*
X14827426Y-3003934D01*
X14827421Y-3003933D01*
X14798958Y-3001693D01*
X14798950Y-3001693D01*
X14796502Y-3001500D01*
X14665488Y-3001500D01*
X14597367Y-2981498D01*
X14550874Y-2927842D01*
X14539550Y-2879457D01*
X14539419Y-2875269D01*
X14538562Y-2848012D01*
X14538500Y-2844055D01*
X14538500Y-2816144D01*
X14537995Y-2812144D01*
X14537062Y-2800301D01*
X14536283Y-2775498D01*
X14535673Y-2756110D01*
X14530022Y-2736658D01*
X14526014Y-2717306D01*
X14524957Y-2708943D01*
X14523474Y-2697203D01*
X14518541Y-2684743D01*
X14507200Y-2656097D01*
X14503355Y-2644870D01*
X14502315Y-2641289D01*
X14491018Y-2602407D01*
X14486984Y-2595585D01*
X14486981Y-2595579D01*
X14480706Y-2584968D01*
X14472010Y-2567218D01*
X14467472Y-2555756D01*
X14467469Y-2555751D01*
X14464552Y-2548383D01*
X14443288Y-2519115D01*
X14438573Y-2512625D01*
X14432057Y-2502707D01*
X14420368Y-2482942D01*
X14409542Y-2464637D01*
X14395218Y-2450313D01*
X14382376Y-2435278D01*
X14379361Y-2431128D01*
X14370472Y-2418893D01*
X14336406Y-2390711D01*
X14327627Y-2382722D01*
X13330652Y-1385747D01*
X13323112Y-1377461D01*
X13319000Y-1370982D01*
X13293034Y-1346598D01*
X13269349Y-1324357D01*
X13266507Y-1321602D01*
X13246770Y-1301865D01*
X13243573Y-1299385D01*
X13234551Y-1291680D01*
X13228566Y-1286060D01*
X13202321Y-1261414D01*
X13195375Y-1257595D01*
X13195372Y-1257593D01*
X13184566Y-1251652D01*
X13168047Y-1240801D01*
X13163835Y-1237534D01*
X13152041Y-1228386D01*
X13144775Y-1225242D01*
X13144772Y-1225240D01*
X13142982Y-1224466D01*
X13141504Y-1223826D01*
X13139660Y-1222217D01*
X13137943Y-1221202D01*
X13138131Y-1220884D01*
X13083765Y-1173459D01*
X13080000Y-1167241D01*
X13016639Y-1062619D01*
X12895381Y-941361D01*
X12748699Y-852528D01*
X12741452Y-850257D01*
X12741450Y-850256D01*
X12675164Y-829483D01*
X12585062Y-801247D01*
X12511635Y-794500D01*
X12508737Y-794500D01*
X12254335Y-794501D01*
X11998366Y-794501D01*
X11995508Y-794764D01*
X11995499Y-794764D01*
X11959996Y-798026D01*
X11924938Y-801247D01*
X11918560Y-803246D01*
X11918559Y-803246D01*
X11768550Y-850256D01*
X11768548Y-850257D01*
X11761301Y-852528D01*
X11614619Y-941361D01*
X11519095Y-1036885D01*
X11456783Y-1070911D01*
X11385968Y-1065846D01*
X11340905Y-1036885D01*
X11245381Y-941361D01*
X11098699Y-852528D01*
X11091452Y-850257D01*
X11091450Y-850256D01*
X11025164Y-829483D01*
X10935062Y-801247D01*
X10861635Y-794500D01*
X10858737Y-794500D01*
X10604335Y-794501D01*
X10348366Y-794501D01*
X10345508Y-794764D01*
X10345499Y-794764D01*
X10309996Y-798026D01*
X10274938Y-801247D01*
X10268560Y-803246D01*
X10268559Y-803246D01*
X10118550Y-850256D01*
X10118548Y-850257D01*
X10111301Y-852528D01*
X9964619Y-941361D01*
X9843361Y-1062619D01*
X9839426Y-1069117D01*
X9839421Y-1069123D01*
X9817473Y-1105365D01*
X9765076Y-1153272D01*
X9748585Y-1159351D01*
X9747203Y-1159526D01*
X9739833Y-1162444D01*
X9739829Y-1162445D01*
X9706097Y-1175800D01*
X9694869Y-1179645D01*
X9652407Y-1191982D01*
X9645584Y-1196017D01*
X9645582Y-1196018D01*
X9634972Y-1202293D01*
X9617224Y-1210988D01*
X9598383Y-1218448D01*
X9591967Y-1223110D01*
X9591966Y-1223110D01*
X9562613Y-1244436D01*
X9552693Y-1250952D01*
X9521465Y-1269420D01*
X9521462Y-1269422D01*
X9514638Y-1273458D01*
X9500317Y-1287779D01*
X9485284Y-1300619D01*
X9468893Y-1312528D01*
X9463843Y-1318632D01*
X9463838Y-1318637D01*
X9440707Y-1346598D01*
X9432717Y-1355379D01*
X8562742Y-2225353D01*
X8554463Y-2232887D01*
X8547982Y-2237000D01*
X8515007Y-2272115D01*
X8501357Y-2286651D01*
X8498602Y-2289493D01*
X8478865Y-2309230D01*
X8476385Y-2312427D01*
X8468682Y-2321447D01*
X8438414Y-2353679D01*
X8434595Y-2360625D01*
X8434593Y-2360628D01*
X8428652Y-2371434D01*
X8417801Y-2387953D01*
X8405386Y-2403959D01*
X8402241Y-2411228D01*
X8402238Y-2411232D01*
X8387826Y-2444537D01*
X8382609Y-2455187D01*
X8361305Y-2493940D01*
X8356508Y-2512625D01*
X8356267Y-2513562D01*
X8349863Y-2532266D01*
X8341819Y-2550855D01*
X8340580Y-2558678D01*
X8340577Y-2558688D01*
X8334901Y-2594524D01*
X8332495Y-2606144D01*
X8326825Y-2628230D01*
X8321500Y-2648970D01*
X8321500Y-2669224D01*
X8319949Y-2688934D01*
X8316780Y-2708943D01*
X8317526Y-2716835D01*
X8320941Y-2752961D01*
X8321500Y-2764819D01*
X8321500Y-2875500D01*
X8301498Y-2943621D01*
X8247842Y-2990114D01*
X8195500Y-3001500D01*
X8063498Y-3001500D01*
X8061050Y-3001693D01*
X8061042Y-3001693D01*
X8032579Y-3003933D01*
X8032574Y-3003934D01*
X8026169Y-3004438D01*
X7963782Y-3022563D01*
X7874012Y-3048643D01*
X7874010Y-3048644D01*
X7866399Y-3050855D01*
X7859572Y-3054892D01*
X7859573Y-3054892D01*
X7730020Y-3131509D01*
X7730017Y-3131511D01*
X7723193Y-3135547D01*
X7605547Y-3253193D01*
X7601511Y-3260017D01*
X7601509Y-3260020D01*
X7551673Y-3344289D01*
X7520855Y-3396399D01*
X7518644Y-3404010D01*
X7518643Y-3404012D01*
X7504051Y-3454240D01*
X7474438Y-3556169D01*
X7473934Y-3562574D01*
X7473933Y-3562579D01*
X7472414Y-3581886D01*
X7471500Y-3593498D01*
X7471500Y-4026502D01*
X7471693Y-4028950D01*
X7471693Y-4028958D01*
X7473617Y-4053395D01*
X7474438Y-4063831D01*
X7520855Y-4223601D01*
X7524891Y-4230425D01*
X7539047Y-4254362D01*
X7556506Y-4323178D01*
X7533989Y-4390509D01*
X7478644Y-4434978D01*
X7430593Y-4444500D01*
X7379737Y-4444500D01*
X7311616Y-4424498D01*
X7290642Y-4407595D01*
X7265541Y-4382494D01*
X7243657Y-4369552D01*
X7132419Y-4303766D01*
X7132418Y-4303766D01*
X7125596Y-4299731D01*
X7117985Y-4297520D01*
X7117983Y-4297519D01*
X7006309Y-4265075D01*
X6969466Y-4254371D01*
X6963059Y-4253867D01*
X6963055Y-4253866D01*
X6935444Y-4251693D01*
X6935438Y-4251693D01*
X6932989Y-4251500D01*
X6733122Y-4251500D01*
X6533012Y-4251501D01*
X6496534Y-4254371D01*
X6444928Y-4269364D01*
X6348017Y-4297519D01*
X6348015Y-4297520D01*
X6340404Y-4299731D01*
X6333579Y-4303767D01*
X6333575Y-4303769D01*
X6287139Y-4331231D01*
X6218323Y-4348691D01*
X6158861Y-4331231D01*
X6112425Y-4303769D01*
X6112421Y-4303767D01*
X6105596Y-4299731D01*
X6097985Y-4297520D01*
X6097983Y-4297519D01*
X5986309Y-4265075D01*
X5949466Y-4254371D01*
X5943059Y-4253867D01*
X5943055Y-4253866D01*
X5915444Y-4251693D01*
X5915438Y-4251693D01*
X5912989Y-4251500D01*
X5713122Y-4251500D01*
X5513012Y-4251501D01*
X5476534Y-4254371D01*
X5424928Y-4269364D01*
X5328017Y-4297519D01*
X5328015Y-4297520D01*
X5320404Y-4299731D01*
X5313582Y-4303766D01*
X5313581Y-4303766D01*
X5202343Y-4369552D01*
X5180459Y-4382494D01*
X5155358Y-4407595D01*
X5093046Y-4441621D01*
X5066263Y-4444500D01*
X5032032Y-4444500D01*
X5020793Y-4443970D01*
X5013281Y-4442291D01*
X5005356Y-4442540D01*
X5005355Y-4442540D01*
X4944970Y-4444438D01*
X4941012Y-4444500D01*
X4913017Y-4444500D01*
X4909083Y-4444997D01*
X4909081Y-4444997D01*
X4908994Y-4445008D01*
X4897160Y-4445940D01*
X4852795Y-4447335D01*
X4845182Y-4449547D01*
X4845181Y-4449547D01*
X4833252Y-4453013D01*
X4813888Y-4457023D01*
X4801560Y-4458580D01*
X4801558Y-4458580D01*
X4793701Y-4459573D01*
X4786337Y-4462489D01*
X4786332Y-4462490D01*
X4752444Y-4475907D01*
X4741215Y-4479752D01*
X4738968Y-4480405D01*
X4698607Y-4492131D01*
X4691781Y-4496168D01*
X4681091Y-4502490D01*
X4663341Y-4511187D01*
X4644412Y-4518681D01*
X4637998Y-4523341D01*
X4608514Y-4544762D01*
X4598594Y-4551278D01*
X4567229Y-4569827D01*
X4567226Y-4569829D01*
X4560402Y-4573865D01*
X4546014Y-4588253D01*
X4530980Y-4601094D01*
X4521976Y-4607636D01*
X4514513Y-4613058D01*
X4495445Y-4636108D01*
X4486228Y-4647249D01*
X4478238Y-4656029D01*
X1620344Y-7513923D01*
X1589630Y-7536486D01*
X1445110Y-7612040D01*
X1290975Y-7735968D01*
X1163846Y-7887474D01*
X1160879Y-7892872D01*
X1160875Y-7892877D01*
X1083513Y-8033601D01*
X1068567Y-8060787D01*
X1066706Y-8066654D01*
X1066705Y-8066656D01*
X1033929Y-8169978D01*
X1008765Y-8249306D01*
X986719Y-8445851D01*
X987235Y-8451995D01*
X1002686Y-8636000D01*
X1003268Y-8642934D01*
X1015974Y-8687244D01*
X1054944Y-8823149D01*
X1057783Y-8833050D01*
X1074209Y-8865012D01*
X1102544Y-8920144D01*
X1148187Y-9008956D01*
X1152016Y-9013787D01*
X1153839Y-9016088D01*
X1154414Y-9017509D01*
X1155353Y-9018966D01*
X1155076Y-9019144D01*
X1180474Y-9081898D01*
X1167301Y-9151662D01*
X1163846Y-9157474D01*
X1068567Y-9330787D01*
X1066706Y-9336654D01*
X1066705Y-9336656D01*
X1032866Y-9443330D01*
X1008765Y-9519306D01*
X986719Y-9715851D01*
X987235Y-9721995D01*
X1001840Y-9895922D01*
X1003268Y-9912934D01*
X1012593Y-9945453D01*
X1050774Y-10078606D01*
X1057783Y-10103050D01*
X1060602Y-10108535D01*
X1064402Y-10115929D01*
X1077750Y-10185660D01*
X1057667Y-10237468D01*
X1059521Y-10238483D01*
X1046677Y-10261942D01*
X1001522Y-10382394D01*
X997895Y-10397649D01*
X992369Y-10448514D01*
X992000Y-10455328D01*
X992000Y-10727885D01*
X996475Y-10743124D01*
X997865Y-10744329D01*
X1005548Y-10746000D01*
X2989884Y-10746000D01*
X3005123Y-10741525D01*
X3006328Y-10740135D01*
X3007999Y-10732452D01*
X3007999Y-10455331D01*
X3007629Y-10448510D01*
X3002105Y-10397648D01*
X2998479Y-10382396D01*
X2953324Y-10261946D01*
X2940478Y-10238483D01*
X2942602Y-10237320D01*
X2922313Y-10183007D01*
X2928429Y-10134183D01*
X2968317Y-10014275D01*
X2998780Y-9964952D01*
X3388457Y-9575275D01*
X6890937Y-9575275D01*
X6892688Y-9584859D01*
X6934357Y-9728284D01*
X6940604Y-9742720D01*
X7015876Y-9869999D01*
X7025516Y-9882426D01*
X7130074Y-9986984D01*
X7142501Y-9996624D01*
X7269780Y-10071896D01*
X7284216Y-10078143D01*
X7404605Y-10113119D01*
X7418705Y-10113079D01*
X7422000Y-10105809D01*
X7422000Y-9578615D01*
X7417525Y-9563376D01*
X7416135Y-9562171D01*
X7408452Y-9560500D01*
X6907576Y-9560500D01*
X6892781Y-9564844D01*
X6890937Y-9575275D01*
X3388457Y-9575275D01*
X3927623Y-9036109D01*
X6891232Y-9036109D01*
X6894052Y-9049531D01*
X6905513Y-9052500D01*
X7403885Y-9052500D01*
X7419124Y-9048025D01*
X7420329Y-9046635D01*
X7422000Y-9038952D01*
X7422000Y-8512942D01*
X7418027Y-8499411D01*
X7410129Y-8498276D01*
X7284216Y-8534857D01*
X7269780Y-8541104D01*
X7142501Y-8616376D01*
X7130074Y-8626016D01*
X7025516Y-8730574D01*
X7015876Y-8743001D01*
X6940604Y-8870280D01*
X6934357Y-8884716D01*
X6892688Y-9028141D01*
X6891232Y-9036109D01*
X3927623Y-9036109D01*
X5748328Y-7215404D01*
X5810640Y-7181378D01*
X5837423Y-7178499D01*
X5912988Y-7178499D01*
X5949466Y-7175629D01*
X6056265Y-7144601D01*
X6097983Y-7132481D01*
X6097985Y-7132480D01*
X6105596Y-7130269D01*
X6112421Y-7126233D01*
X6112425Y-7126231D01*
X6158861Y-7098769D01*
X6227677Y-7081309D01*
X6287139Y-7098769D01*
X6333575Y-7126231D01*
X6333579Y-7126233D01*
X6340404Y-7130269D01*
X6348015Y-7132480D01*
X6348017Y-7132481D01*
X6389735Y-7144601D01*
X6496534Y-7175629D01*
X6502941Y-7176133D01*
X6502945Y-7176134D01*
X6530556Y-7178307D01*
X6530562Y-7178307D01*
X6533011Y-7178500D01*
X6732878Y-7178500D01*
X6932988Y-7178499D01*
X6969466Y-7175629D01*
X7076265Y-7144601D01*
X7117983Y-7132481D01*
X7117985Y-7132480D01*
X7125596Y-7130269D01*
X7227469Y-7070022D01*
X7258720Y-7051540D01*
X7265541Y-7047506D01*
X7290642Y-7022405D01*
X7352954Y-6988379D01*
X7379737Y-6985500D01*
X7430593Y-6985500D01*
X7498714Y-7005502D01*
X7545207Y-7059158D01*
X7555311Y-7129432D01*
X7539047Y-7175638D01*
X7520855Y-7206399D01*
X7518644Y-7214009D01*
X7518643Y-7214012D01*
X7503472Y-7266231D01*
X7474438Y-7366169D01*
X7473934Y-7372574D01*
X7473933Y-7372579D01*
X7471987Y-7397305D01*
X7471500Y-7403498D01*
X7471500Y-7836502D01*
X7474438Y-7873831D01*
X7484575Y-7908722D01*
X7518586Y-8025790D01*
X7520855Y-8033601D01*
X7524892Y-8040427D01*
X7601509Y-8169980D01*
X7601511Y-8169983D01*
X7605547Y-8176807D01*
X7723193Y-8294453D01*
X7730017Y-8298489D01*
X7730020Y-8298491D01*
X7866399Y-8379145D01*
X7864943Y-8381608D01*
X7909061Y-8418324D01*
X7930416Y-8486033D01*
X7930132Y-8497361D01*
X7930000Y-8499242D01*
X7930000Y-8785121D01*
X7912454Y-8849260D01*
X7911678Y-8850573D01*
X7896106Y-8876903D01*
X7893895Y-8884514D01*
X7893894Y-8884516D01*
X7890797Y-8895176D01*
X7850394Y-9034246D01*
X7849890Y-9040651D01*
X7849889Y-9040656D01*
X7848558Y-9057568D01*
X7847500Y-9071016D01*
X7847500Y-9541984D01*
X7847693Y-9544432D01*
X7847693Y-9544440D01*
X7849872Y-9572121D01*
X7850394Y-9578754D01*
X7870844Y-9649145D01*
X7888445Y-9709726D01*
X7896106Y-9736097D01*
X7900141Y-9742919D01*
X7900141Y-9742920D01*
X7912454Y-9763740D01*
X7930000Y-9827879D01*
X7930000Y-10100058D01*
X7933973Y-10113589D01*
X7941871Y-10114724D01*
X8067784Y-10078143D01*
X8082222Y-10071895D01*
X8091372Y-10066484D01*
X8160188Y-10049026D01*
X8219647Y-10066485D01*
X8227531Y-10071147D01*
X8236403Y-10076394D01*
X8244014Y-10078605D01*
X8244016Y-10078606D01*
X8278991Y-10088767D01*
X8393746Y-10122106D01*
X8400151Y-10122610D01*
X8400156Y-10122611D01*
X8428060Y-10124807D01*
X8428068Y-10124807D01*
X8430516Y-10125000D01*
X8841484Y-10125000D01*
X8843932Y-10124807D01*
X8843940Y-10124807D01*
X8871844Y-10122611D01*
X8871849Y-10122610D01*
X8878254Y-10122106D01*
X8993009Y-10088767D01*
X9027984Y-10078606D01*
X9027986Y-10078605D01*
X9035597Y-10076394D01*
X9043205Y-10071895D01*
X9169808Y-9997022D01*
X9176629Y-9992988D01*
X9292488Y-9877129D01*
X9296522Y-9870308D01*
X9301385Y-9864039D01*
X9303535Y-9865707D01*
X9345846Y-9826203D01*
X9415696Y-9813499D01*
X9481327Y-9840576D01*
X9516370Y-9886565D01*
X9517106Y-9889097D01*
X9521141Y-9895920D01*
X9521142Y-9895922D01*
X9526725Y-9905363D01*
X9544183Y-9974180D01*
X9526725Y-10033637D01*
X9523147Y-10039688D01*
X9517106Y-10049903D01*
X9514895Y-10057514D01*
X9514894Y-10057516D01*
X9508767Y-10078606D01*
X9471394Y-10207246D01*
X9470890Y-10213651D01*
X9470889Y-10213656D01*
X9469027Y-10237320D01*
X9468500Y-10244016D01*
X9468500Y-10654984D01*
X9468693Y-10657432D01*
X9468693Y-10657440D01*
X9470317Y-10678066D01*
X9471394Y-10691754D01*
X9517106Y-10849097D01*
X9521141Y-10855919D01*
X9521141Y-10855920D01*
X9534500Y-10878509D01*
X9600512Y-10990129D01*
X9716371Y-11105988D01*
X9723192Y-11110022D01*
X9808159Y-11160271D01*
X9857403Y-11189394D01*
X9865014Y-11191605D01*
X9865016Y-11191606D01*
X9867357Y-11192286D01*
X10014746Y-11235106D01*
X10021151Y-11235610D01*
X10021156Y-11235611D01*
X10049060Y-11237807D01*
X10049068Y-11237807D01*
X10051516Y-11238000D01*
X10522484Y-11238000D01*
X10524932Y-11237807D01*
X10524940Y-11237807D01*
X10552844Y-11235611D01*
X10552849Y-11235610D01*
X10559254Y-11235106D01*
X10706643Y-11192286D01*
X10708984Y-11191606D01*
X10708986Y-11191605D01*
X10716597Y-11189394D01*
X10755214Y-11166556D01*
X10794361Y-11143405D01*
X10863178Y-11125946D01*
X10922639Y-11143405D01*
X10961786Y-11166556D01*
X11000403Y-11189394D01*
X11008014Y-11191605D01*
X11008016Y-11191606D01*
X11010357Y-11192286D01*
X11157746Y-11235106D01*
X11164151Y-11235610D01*
X11164156Y-11235611D01*
X11192060Y-11237807D01*
X11192068Y-11237807D01*
X11194516Y-11238000D01*
X11665484Y-11238000D01*
X11667932Y-11237807D01*
X11667940Y-11237807D01*
X11695844Y-11235611D01*
X11695849Y-11235610D01*
X11702254Y-11235106D01*
X11708426Y-11233313D01*
X11708431Y-11233312D01*
X11765319Y-11216784D01*
X11776348Y-11213580D01*
X11847343Y-11213783D01*
X11906960Y-11252337D01*
X11936268Y-11317002D01*
X11937500Y-11334577D01*
X11937500Y-11596500D01*
X11917498Y-11664621D01*
X11863842Y-11711114D01*
X11811500Y-11722500D01*
X11674866Y-11722500D01*
X11612684Y-11729255D01*
X11476295Y-11780385D01*
X11359739Y-11867739D01*
X11272385Y-11984295D01*
X11221255Y-12120684D01*
X11214500Y-12182866D01*
X11214500Y-13979134D01*
X11221255Y-14041316D01*
X11272385Y-14177705D01*
X11359739Y-14294261D01*
X11476295Y-14381615D01*
X11484704Y-14384767D01*
X11484705Y-14384768D01*
X11593451Y-14425535D01*
X11650216Y-14468176D01*
X11674916Y-14534738D01*
X11659709Y-14604087D01*
X11640316Y-14630568D01*
X11532741Y-14743139D01*
X11513629Y-14763138D01*
X11510715Y-14767410D01*
X11510714Y-14767411D01*
X11481530Y-14810193D01*
X11387743Y-14947680D01*
X11293688Y-15150305D01*
X11233989Y-15365570D01*
X11210251Y-15587695D01*
X11210548Y-15592848D01*
X11210548Y-15592851D01*
X11216011Y-15687590D01*
X11223110Y-15810715D01*
X11224247Y-15815761D01*
X11224248Y-15815767D01*
X11244119Y-15903939D01*
X11272222Y-16028639D01*
X11316266Y-16137106D01*
X11339978Y-16195502D01*
X11356266Y-16235616D01*
X11358965Y-16240020D01*
X11455299Y-16397223D01*
X11472987Y-16426088D01*
X11619250Y-16594938D01*
X11791126Y-16737632D01*
X11857598Y-16776475D01*
X11864955Y-16780774D01*
X11913679Y-16832412D01*
X11926750Y-16902195D01*
X11900019Y-16967967D01*
X11859562Y-17001327D01*
X11851457Y-17005546D01*
X11842738Y-17011036D01*
X11672433Y-17138905D01*
X11664726Y-17145748D01*
X11517590Y-17299717D01*
X11511104Y-17307727D01*
X11391098Y-17483649D01*
X11386000Y-17492623D01*
X11296338Y-17685783D01*
X11292775Y-17695470D01*
X11237389Y-17895183D01*
X11238912Y-17903607D01*
X11251292Y-17907000D01*
X13891344Y-17907000D01*
X13904875Y-17903027D01*
X13906180Y-17893947D01*
X13864214Y-17726875D01*
X13860894Y-17717124D01*
X13775972Y-17521814D01*
X13771105Y-17512739D01*
X13655426Y-17333926D01*
X13649136Y-17325757D01*
X13505806Y-17168240D01*
X13498273Y-17161215D01*
X13331139Y-17029222D01*
X13322556Y-17023520D01*
X13285602Y-17003120D01*
X13235631Y-16952687D01*
X13220859Y-16883245D01*
X13245975Y-16816839D01*
X13273327Y-16790232D01*
X13323063Y-16754756D01*
X13452860Y-16662173D01*
X13501729Y-16613475D01*
X13607435Y-16508137D01*
X13611096Y-16504489D01*
X13670594Y-16421689D01*
X13737483Y-16328602D01*
X13741453Y-16323077D01*
X13751871Y-16301999D01*
X13838136Y-16127453D01*
X13838137Y-16127451D01*
X13840430Y-16122811D01*
X13881381Y-15988026D01*
X13903865Y-15914023D01*
X13903865Y-15914021D01*
X13905370Y-15909069D01*
X13934529Y-15687590D01*
X13934655Y-15682446D01*
X13936074Y-15624365D01*
X13936074Y-15624361D01*
X13936156Y-15621000D01*
X13917852Y-15398361D01*
X13863431Y-15181702D01*
X13774354Y-14976840D01*
X13728454Y-14905890D01*
X13655822Y-14793617D01*
X13655820Y-14793614D01*
X13653014Y-14789277D01*
X13646752Y-14782395D01*
X13505798Y-14627488D01*
X13474746Y-14563642D01*
X13483141Y-14493143D01*
X13528317Y-14438375D01*
X13554761Y-14424706D01*
X13661297Y-14384767D01*
X13669705Y-14381615D01*
X13786261Y-14294261D01*
X13873615Y-14177705D01*
X13924745Y-14041316D01*
X13931500Y-13979134D01*
X13931500Y-12182866D01*
X13924745Y-12120684D01*
X13873615Y-11984295D01*
X13786261Y-11867739D01*
X13669705Y-11780385D01*
X13533316Y-11729255D01*
X13471134Y-11722500D01*
X13334500Y-11722500D01*
X13266379Y-11702498D01*
X13219886Y-11648842D01*
X13208500Y-11596500D01*
X13208500Y-11334577D01*
X13228502Y-11266456D01*
X13282158Y-11219963D01*
X13352432Y-11209859D01*
X13369651Y-11213580D01*
X13380681Y-11216784D01*
X13437569Y-11233312D01*
X13437574Y-11233313D01*
X13443746Y-11235106D01*
X13450151Y-11235610D01*
X13450156Y-11235611D01*
X13478060Y-11237807D01*
X13478068Y-11237807D01*
X13480516Y-11238000D01*
X13951484Y-11238000D01*
X13953932Y-11237807D01*
X13953940Y-11237807D01*
X13981844Y-11235611D01*
X13981849Y-11235610D01*
X13988254Y-11235106D01*
X14135643Y-11192286D01*
X14137984Y-11191606D01*
X14137986Y-11191605D01*
X14145597Y-11189394D01*
X14210498Y-11151012D01*
X14286629Y-11105988D01*
X14287616Y-11107658D01*
X14344059Y-11085494D01*
X14355205Y-11085000D01*
X14744480Y-11085000D01*
X14755714Y-11085530D01*
X14763219Y-11087208D01*
X14831512Y-11085062D01*
X14835469Y-11085000D01*
X14863483Y-11085000D01*
X14867408Y-11084504D01*
X14867409Y-11084504D01*
X14867504Y-11084492D01*
X14879349Y-11083559D01*
X14909170Y-11082622D01*
X14915782Y-11082414D01*
X14915783Y-11082414D01*
X14923705Y-11082165D01*
X14943249Y-11076487D01*
X14962612Y-11072477D01*
X14974940Y-11070920D01*
X14974942Y-11070920D01*
X14982799Y-11069927D01*
X14990163Y-11067011D01*
X14990168Y-11067010D01*
X15024056Y-11053593D01*
X15035285Y-11049748D01*
X15051965Y-11044902D01*
X15077893Y-11037369D01*
X15084720Y-11033331D01*
X15084723Y-11033330D01*
X15095406Y-11027012D01*
X15113164Y-11018312D01*
X15124715Y-11013739D01*
X15124721Y-11013735D01*
X15132088Y-11010819D01*
X15140950Y-11004381D01*
X15167301Y-10985235D01*
X15167991Y-10984734D01*
X15177910Y-10978219D01*
X15209268Y-10959674D01*
X15209272Y-10959671D01*
X15216098Y-10955634D01*
X15230482Y-10941250D01*
X15245516Y-10928409D01*
X15255573Y-10921102D01*
X15261987Y-10916442D01*
X15290278Y-10882244D01*
X15298267Y-10873465D01*
X16572603Y-9599130D01*
X16634915Y-9565104D01*
X16705731Y-9570169D01*
X16762566Y-9612716D01*
X16782695Y-9653072D01*
X16788963Y-9674645D01*
X16791855Y-9684601D01*
X16795892Y-9691427D01*
X16872509Y-9820980D01*
X16872511Y-9820983D01*
X16876547Y-9827807D01*
X16955301Y-9906561D01*
X16989327Y-9968873D01*
X16984262Y-10039688D01*
X16940269Y-10097591D01*
X16914747Y-10116134D01*
X16910326Y-10121044D01*
X16910325Y-10121045D01*
X16797378Y-10246486D01*
X16786960Y-10258056D01*
X16691473Y-10423444D01*
X16632458Y-10605072D01*
X16631768Y-10611633D01*
X16631768Y-10611635D01*
X16617128Y-10750933D01*
X16612496Y-10795000D01*
X16613186Y-10801565D01*
X16630849Y-10969616D01*
X16632458Y-10984928D01*
X16691473Y-11166556D01*
X16694776Y-11172278D01*
X16694777Y-11172279D01*
X16705936Y-11191606D01*
X16786960Y-11331944D01*
X16791378Y-11336851D01*
X16791379Y-11336852D01*
X16891909Y-11448502D01*
X16914747Y-11473866D01*
X16995644Y-11532641D01*
X17054656Y-11575516D01*
X17069248Y-11586118D01*
X17075276Y-11588802D01*
X17075278Y-11588803D01*
X17210129Y-11648842D01*
X17243712Y-11663794D01*
X17337113Y-11683647D01*
X17424056Y-11702128D01*
X17424061Y-11702128D01*
X17430513Y-11703500D01*
X17621487Y-11703500D01*
X17627939Y-11702128D01*
X17627944Y-11702128D01*
X17714887Y-11683647D01*
X17808288Y-11663794D01*
X17841871Y-11648842D01*
X17976722Y-11588803D01*
X17976724Y-11588802D01*
X17982752Y-11586118D01*
X17997345Y-11575516D01*
X18126762Y-11481488D01*
X18137253Y-11473866D01*
X18141668Y-11468963D01*
X18146580Y-11464540D01*
X18147705Y-11465789D01*
X18201014Y-11432949D01*
X18234200Y-11428500D01*
X18305193Y-11428500D01*
X18373314Y-11448502D01*
X18394288Y-11465405D01*
X18410371Y-11481488D01*
X18417192Y-11485522D01*
X18543796Y-11560395D01*
X18551403Y-11564894D01*
X18559014Y-11567105D01*
X18559016Y-11567106D01*
X18587964Y-11575516D01*
X18708746Y-11610606D01*
X18715151Y-11611110D01*
X18715156Y-11611111D01*
X18743060Y-11613307D01*
X18743068Y-11613307D01*
X18745516Y-11613500D01*
X19156484Y-11613500D01*
X19158932Y-11613307D01*
X19158940Y-11613307D01*
X19186844Y-11611111D01*
X19186849Y-11611110D01*
X19193254Y-11610606D01*
X19314036Y-11575516D01*
X19342984Y-11567106D01*
X19342986Y-11567105D01*
X19350597Y-11564894D01*
X19366771Y-11555329D01*
X19367353Y-11554985D01*
X19436170Y-11537526D01*
X19495628Y-11554984D01*
X19504778Y-11560395D01*
X19519216Y-11566643D01*
X19639605Y-11601619D01*
X19653705Y-11601579D01*
X19657000Y-11594309D01*
X19657000Y-11588558D01*
X20165000Y-11588558D01*
X20168973Y-11602089D01*
X20176871Y-11603224D01*
X20302784Y-11566643D01*
X20317220Y-11560396D01*
X20444499Y-11485124D01*
X20456926Y-11475484D01*
X20561484Y-11370926D01*
X20571124Y-11358499D01*
X20646396Y-11231220D01*
X20652643Y-11216784D01*
X20694312Y-11073359D01*
X20695768Y-11065391D01*
X20692948Y-11051969D01*
X20681487Y-11049000D01*
X20183115Y-11049000D01*
X20167876Y-11053475D01*
X20166671Y-11054865D01*
X20165000Y-11062548D01*
X20165000Y-11588558D01*
X19657000Y-11588558D01*
X19657000Y-11316379D01*
X19674546Y-11252240D01*
X19686859Y-11231420D01*
X19686859Y-11231419D01*
X19690894Y-11224597D01*
X19695782Y-11207774D01*
X19718227Y-11130516D01*
X19736606Y-11067254D01*
X19737582Y-11054865D01*
X19739307Y-11032940D01*
X19739307Y-11032932D01*
X19739500Y-11030484D01*
X19739500Y-10559516D01*
X19739307Y-10557060D01*
X19737111Y-10529156D01*
X19737110Y-10529151D01*
X19736617Y-10522885D01*
X20165000Y-10522885D01*
X20169475Y-10538124D01*
X20170865Y-10539329D01*
X20178548Y-10541000D01*
X20679424Y-10541000D01*
X20694219Y-10536656D01*
X20696063Y-10526225D01*
X20694312Y-10516641D01*
X20652643Y-10373216D01*
X20646396Y-10358780D01*
X20571124Y-10231501D01*
X20561484Y-10219074D01*
X20456926Y-10114516D01*
X20444499Y-10104876D01*
X20317220Y-10029604D01*
X20302784Y-10023357D01*
X20182395Y-9988381D01*
X20168295Y-9988421D01*
X20165000Y-9995691D01*
X20165000Y-10522885D01*
X19736617Y-10522885D01*
X19736606Y-10522746D01*
X19690894Y-10365403D01*
X19674546Y-10337760D01*
X19657000Y-10273621D01*
X19657000Y-10001442D01*
X19652525Y-9986203D01*
X19635058Y-9971067D01*
X19616049Y-9962386D01*
X19577666Y-9902659D01*
X19577668Y-9831662D01*
X19590107Y-9803028D01*
X19660145Y-9684601D01*
X19663038Y-9674645D01*
X19684976Y-9599130D01*
X19706562Y-9524831D01*
X19709500Y-9487502D01*
X19709500Y-9054498D01*
X19708411Y-9040656D01*
X19707067Y-9023579D01*
X19707066Y-9023574D01*
X19706562Y-9017169D01*
X19666694Y-8879940D01*
X19662357Y-8865012D01*
X19662356Y-8865010D01*
X19660145Y-8857399D01*
X19575453Y-8714193D01*
X19572771Y-8711511D01*
X19547498Y-8647139D01*
X19561400Y-8577516D01*
X19571572Y-8561688D01*
X19575453Y-8557807D01*
X19660145Y-8414601D01*
X19706562Y-8254831D01*
X19709500Y-8217502D01*
X19709500Y-7784498D01*
X19706562Y-7747169D01*
X19677528Y-7647231D01*
X19662357Y-7595012D01*
X19662356Y-7595010D01*
X19660145Y-7587399D01*
X19575453Y-7444193D01*
X19572771Y-7441511D01*
X19547498Y-7377139D01*
X19561400Y-7307516D01*
X19571572Y-7291688D01*
X19575453Y-7287807D01*
X19660145Y-7144601D01*
X19706562Y-6984831D01*
X19708351Y-6962109D01*
X19709307Y-6949958D01*
X19709307Y-6949950D01*
X19709500Y-6947502D01*
X19709500Y-6514498D01*
X19706562Y-6477169D01*
X19666821Y-6340377D01*
X19662357Y-6325012D01*
X19662356Y-6325010D01*
X19660145Y-6317399D01*
X19575453Y-6174193D01*
X19572771Y-6171511D01*
X19547498Y-6107139D01*
X19561400Y-6037516D01*
X19571572Y-6021688D01*
X19575453Y-6017807D01*
X19660145Y-5874601D01*
X19662414Y-5866793D01*
X19689287Y-5774293D01*
X19706562Y-5714831D01*
X19707181Y-5706978D01*
X19709307Y-5679958D01*
X19709307Y-5679950D01*
X19709500Y-5677502D01*
X19709500Y-5244498D01*
X19706562Y-5207169D01*
X19660145Y-5047399D01*
X19625766Y-4989267D01*
X19579491Y-4911020D01*
X19579489Y-4911017D01*
X19575453Y-4904193D01*
X19457807Y-4786547D01*
X19384868Y-4743411D01*
X19336418Y-4691521D01*
X19323713Y-4621670D01*
X19350788Y-4556039D01*
X19384871Y-4526506D01*
X19398103Y-4518681D01*
X19423799Y-4503484D01*
X19428808Y-4500522D01*
X19435629Y-4496488D01*
X19451712Y-4480405D01*
X19514024Y-4446379D01*
X19540807Y-4443500D01*
X19860233Y-4443500D01*
X19871416Y-4444027D01*
X19878909Y-4445702D01*
X19886835Y-4445453D01*
X19886836Y-4445453D01*
X19946986Y-4443562D01*
X19950945Y-4443500D01*
X19978856Y-4443500D01*
X19982791Y-4443003D01*
X19982856Y-4442995D01*
X19994693Y-4442062D01*
X20026951Y-4441048D01*
X20030970Y-4440922D01*
X20038889Y-4440673D01*
X20058343Y-4435021D01*
X20077700Y-4431013D01*
X20089930Y-4429468D01*
X20089931Y-4429468D01*
X20097797Y-4428474D01*
X20105168Y-4425555D01*
X20105170Y-4425555D01*
X20138912Y-4412196D01*
X20150142Y-4408351D01*
X20184983Y-4398229D01*
X20184984Y-4398229D01*
X20192593Y-4396018D01*
X20199412Y-4391985D01*
X20199417Y-4391983D01*
X20210028Y-4385707D01*
X20227776Y-4377012D01*
X20246617Y-4369552D01*
X20282387Y-4343564D01*
X20292307Y-4337048D01*
X20323535Y-4318580D01*
X20323538Y-4318578D01*
X20330362Y-4314542D01*
X20344683Y-4300221D01*
X20359717Y-4287380D01*
X20369694Y-4280131D01*
X20376107Y-4275472D01*
X20381156Y-4269368D01*
X20381161Y-4269364D01*
X20391358Y-4257038D01*
X20450193Y-4217302D01*
X20521171Y-4215681D01*
X20581757Y-4252692D01*
X20596895Y-4273217D01*
X20634859Y-4337410D01*
X20644501Y-4349841D01*
X20748159Y-4453499D01*
X20760595Y-4463146D01*
X20886778Y-4537770D01*
X20901217Y-4544019D01*
X21043436Y-4585338D01*
X21056023Y-4587637D01*
X21063943Y-4588260D01*
X21079030Y-4585090D01*
X21082000Y-4573626D01*
X21082000Y-3696500D01*
X21102002Y-3628379D01*
X21155658Y-3581886D01*
X21208000Y-3570500D01*
X21576058Y-3570499D01*
X21585988Y-3570499D01*
X21622466Y-3567629D01*
X21725324Y-3537746D01*
X21741650Y-3533003D01*
X21776803Y-3528000D01*
X21957621Y-3528000D01*
X22021760Y-3545546D01*
X22039723Y-3556169D01*
X22049403Y-3561894D01*
X22057014Y-3564105D01*
X22057016Y-3564106D01*
X22101350Y-3576986D01*
X22206746Y-3607606D01*
X22213151Y-3608110D01*
X22213156Y-3608111D01*
X22241060Y-3610307D01*
X22241068Y-3610307D01*
X22243516Y-3610500D01*
X22714484Y-3610500D01*
X22716932Y-3610307D01*
X22716940Y-3610307D01*
X22744844Y-3608111D01*
X22744849Y-3608110D01*
X22751254Y-3607606D01*
X22856650Y-3576986D01*
X22900984Y-3564106D01*
X22900986Y-3564105D01*
X22908597Y-3561894D01*
X22918278Y-3556169D01*
X22936240Y-3545546D01*
X23000379Y-3528000D01*
X23272558Y-3528000D01*
X23286089Y-3524027D01*
X23289539Y-3500032D01*
X23319032Y-3435451D01*
X23378758Y-3397068D01*
X23449755Y-3397068D01*
X23488313Y-3416025D01*
X23546248Y-3458118D01*
X23552276Y-3460802D01*
X23552278Y-3460803D01*
X23711222Y-3531569D01*
X23720712Y-3535794D01*
X23814113Y-3555647D01*
X23901056Y-3574128D01*
X23901061Y-3574128D01*
X23907513Y-3575500D01*
X24098487Y-3575500D01*
X24104939Y-3574128D01*
X24104944Y-3574128D01*
X24191887Y-3555647D01*
X24285288Y-3535794D01*
X24297177Y-3530501D01*
X24325088Y-3518074D01*
X24346792Y-3508411D01*
X24417158Y-3498977D01*
X24481455Y-3529083D01*
X24519269Y-3589172D01*
X24518593Y-3660165D01*
X24510559Y-3678419D01*
X24510753Y-3678503D01*
X24501357Y-3700216D01*
X24466381Y-3820605D01*
X24466421Y-3834705D01*
X24473691Y-3838000D01*
X25401000Y-3838000D01*
X25469121Y-3858002D01*
X25515614Y-3911658D01*
X25527000Y-3964000D01*
X25527000Y-4137500D01*
X25506998Y-4205621D01*
X25453342Y-4252114D01*
X25401000Y-4263500D01*
X25037516Y-4263500D01*
X25035068Y-4263693D01*
X25035060Y-4263693D01*
X25007156Y-4265889D01*
X25007151Y-4265890D01*
X25000746Y-4266394D01*
X24925892Y-4288141D01*
X24851016Y-4309894D01*
X24851014Y-4309895D01*
X24843403Y-4312106D01*
X24836581Y-4316141D01*
X24836580Y-4316141D01*
X24815760Y-4328454D01*
X24751621Y-4346000D01*
X24479442Y-4346000D01*
X24465911Y-4349973D01*
X24464776Y-4357871D01*
X24501357Y-4483784D01*
X24507605Y-4498222D01*
X24513016Y-4507372D01*
X24530474Y-4576188D01*
X24513015Y-4635647D01*
X24508353Y-4643531D01*
X24503106Y-4652403D01*
X24500894Y-4660017D01*
X24497746Y-4667291D01*
X24496293Y-4666662D01*
X24462974Y-4718827D01*
X24398476Y-4748500D01*
X24328174Y-4738592D01*
X24316057Y-4732286D01*
X24271427Y-4705892D01*
X24271428Y-4705892D01*
X24264601Y-4701855D01*
X24256990Y-4699644D01*
X24256988Y-4699643D01*
X24169376Y-4674190D01*
X24104831Y-4655438D01*
X24098426Y-4654934D01*
X24098421Y-4654933D01*
X24069958Y-4652693D01*
X24069950Y-4652693D01*
X24067502Y-4652500D01*
X23139100Y-4652500D01*
X23070979Y-4632498D01*
X23024486Y-4578842D01*
X23014382Y-4508568D01*
X23043876Y-4443988D01*
X23050005Y-4437405D01*
X23159484Y-4327926D01*
X23169124Y-4315499D01*
X23244396Y-4188220D01*
X23250643Y-4173784D01*
X23285619Y-4053395D01*
X23285579Y-4039295D01*
X23278309Y-4036000D01*
X22222115Y-4036000D01*
X22184071Y-4047171D01*
X22162716Y-4060895D01*
X22127216Y-4066000D01*
X21608115Y-4066000D01*
X21592876Y-4070475D01*
X21591671Y-4071865D01*
X21590000Y-4079548D01*
X21590000Y-4571566D01*
X21594344Y-4586361D01*
X21606003Y-4588421D01*
X21615977Y-4587637D01*
X21628564Y-4585338D01*
X21770783Y-4544019D01*
X21785222Y-4537770D01*
X21867087Y-4489355D01*
X21935903Y-4471895D01*
X21995364Y-4489354D01*
X22037656Y-4514365D01*
X22086109Y-4566258D01*
X22098815Y-4636108D01*
X22071740Y-4701739D01*
X22037659Y-4731271D01*
X21944193Y-4786547D01*
X21826547Y-4904193D01*
X21822511Y-4911017D01*
X21822509Y-4911020D01*
X21776234Y-4989267D01*
X21741855Y-5047399D01*
X21695438Y-5207169D01*
X21692500Y-5244498D01*
X21692500Y-5677502D01*
X21692693Y-5679950D01*
X21692693Y-5679958D01*
X21694820Y-5706978D01*
X21695438Y-5714831D01*
X21712713Y-5774293D01*
X21739587Y-5866793D01*
X21741855Y-5874601D01*
X21826547Y-6017807D01*
X21829229Y-6020489D01*
X21854502Y-6084861D01*
X21840600Y-6154484D01*
X21830428Y-6170312D01*
X21826547Y-6174193D01*
X21741855Y-6317399D01*
X21739644Y-6325010D01*
X21739643Y-6325012D01*
X21735179Y-6340377D01*
X21695438Y-6477169D01*
X21692500Y-6514498D01*
X21692500Y-6947502D01*
X21692693Y-6949950D01*
X21692693Y-6949958D01*
X21693650Y-6962109D01*
X21695438Y-6984831D01*
X21741855Y-7144601D01*
X21826547Y-7287807D01*
X21829229Y-7290489D01*
X21854502Y-7354861D01*
X21840600Y-7424484D01*
X21830428Y-7440312D01*
X21826547Y-7444193D01*
X21741855Y-7587399D01*
X21739644Y-7595010D01*
X21739643Y-7595012D01*
X21724472Y-7647231D01*
X21695438Y-7747169D01*
X21692500Y-7784498D01*
X21692500Y-8217502D01*
X21695438Y-8254831D01*
X21741855Y-8414601D01*
X21826547Y-8557807D01*
X21829229Y-8560489D01*
X21854502Y-8624861D01*
X21840600Y-8694484D01*
X21830428Y-8710312D01*
X21826547Y-8714193D01*
X21741855Y-8857399D01*
X21739644Y-8865010D01*
X21739643Y-8865012D01*
X21735306Y-8879940D01*
X21695438Y-9017169D01*
X21694934Y-9023574D01*
X21694933Y-9023579D01*
X21693589Y-9040656D01*
X21692500Y-9054498D01*
X21692500Y-9487502D01*
X21695438Y-9524831D01*
X21717024Y-9599130D01*
X21738963Y-9674645D01*
X21741855Y-9684601D01*
X21745892Y-9691427D01*
X21822509Y-9820980D01*
X21822511Y-9820983D01*
X21826547Y-9827807D01*
X21944193Y-9945453D01*
X21951017Y-9949489D01*
X21951020Y-9949491D01*
X22030718Y-9996624D01*
X22087399Y-10030145D01*
X22095010Y-10032356D01*
X22095012Y-10032357D01*
X22131915Y-10043078D01*
X22247169Y-10076562D01*
X22253582Y-10077067D01*
X22253589Y-10077068D01*
X22257943Y-10077411D01*
X22324284Y-10102697D01*
X22366423Y-10159836D01*
X22370981Y-10230686D01*
X22337150Y-10292117D01*
X21351517Y-11277750D01*
X21343191Y-11285326D01*
X21336697Y-11289447D01*
X21331275Y-11295220D01*
X21331271Y-11295224D01*
X21326143Y-11300685D01*
X21298437Y-11322881D01*
X21204371Y-11378512D01*
X21088512Y-11494371D01*
X21084478Y-11501192D01*
X21018174Y-11613307D01*
X21005106Y-11635403D01*
X21002895Y-11643014D01*
X21002894Y-11643016D01*
X20997638Y-11661109D01*
X20959394Y-11792746D01*
X20956500Y-11829516D01*
X20956500Y-11831984D01*
X20956471Y-11832721D01*
X20933655Y-11900225D01*
X20898709Y-11949949D01*
X20894776Y-11955246D01*
X20856652Y-12003867D01*
X20853525Y-12010792D01*
X20851053Y-12014874D01*
X20845342Y-12024886D01*
X20843088Y-12029090D01*
X20838719Y-12035306D01*
X20835960Y-12042382D01*
X20835958Y-12042386D01*
X20816278Y-12092863D01*
X20813722Y-12098944D01*
X20788294Y-12155261D01*
X20786909Y-12162735D01*
X20785479Y-12167298D01*
X20782328Y-12178356D01*
X20781136Y-12182998D01*
X20778379Y-12190070D01*
X20772234Y-12236742D01*
X20770315Y-12251321D01*
X20769285Y-12257824D01*
X20758023Y-12318590D01*
X20758460Y-12326170D01*
X20758460Y-12326171D01*
X20761491Y-12378736D01*
X20761700Y-12385989D01*
X20761700Y-12993500D01*
X20741698Y-13061621D01*
X20688042Y-13108114D01*
X20635700Y-13119500D01*
X20549866Y-13119500D01*
X20487684Y-13126255D01*
X20351295Y-13177385D01*
X20234739Y-13264739D01*
X20147385Y-13381295D01*
X20144233Y-13389703D01*
X20102919Y-13499907D01*
X20060277Y-13556671D01*
X19993716Y-13581371D01*
X19924367Y-13566163D01*
X19891743Y-13540476D01*
X19841151Y-13484875D01*
X19841142Y-13484866D01*
X19837670Y-13481051D01*
X19833619Y-13477852D01*
X19833615Y-13477848D01*
X19666414Y-13345800D01*
X19666410Y-13345798D01*
X19662359Y-13342598D01*
X19466789Y-13234638D01*
X19461920Y-13232914D01*
X19461916Y-13232912D01*
X19261087Y-13161795D01*
X19261083Y-13161794D01*
X19256212Y-13160069D01*
X19251119Y-13159162D01*
X19251116Y-13159161D01*
X19041373Y-13121800D01*
X19041367Y-13121799D01*
X19036284Y-13120894D01*
X18962452Y-13119992D01*
X18818081Y-13118228D01*
X18818079Y-13118228D01*
X18812911Y-13118165D01*
X18592091Y-13151955D01*
X18379756Y-13221357D01*
X18349443Y-13237137D01*
X18196274Y-13316872D01*
X18181607Y-13324507D01*
X18177474Y-13327610D01*
X18177471Y-13327612D01*
X18029417Y-13438774D01*
X18002965Y-13458635D01*
X17955520Y-13508283D01*
X17882921Y-13584254D01*
X17848629Y-13620138D01*
X17741201Y-13777621D01*
X17686293Y-13822621D01*
X17615768Y-13830792D01*
X17552021Y-13799538D01*
X17531324Y-13775054D01*
X17450822Y-13650617D01*
X17450820Y-13650614D01*
X17448014Y-13646277D01*
X17297670Y-13481051D01*
X17293619Y-13477852D01*
X17293615Y-13477848D01*
X17126414Y-13345800D01*
X17126410Y-13345798D01*
X17122359Y-13342598D01*
X16926789Y-13234638D01*
X16921920Y-13232914D01*
X16921916Y-13232912D01*
X16721087Y-13161795D01*
X16721083Y-13161794D01*
X16716212Y-13160069D01*
X16711119Y-13159162D01*
X16711116Y-13159161D01*
X16501373Y-13121800D01*
X16501367Y-13121799D01*
X16496284Y-13120894D01*
X16422452Y-13119992D01*
X16278081Y-13118228D01*
X16278079Y-13118228D01*
X16272911Y-13118165D01*
X16052091Y-13151955D01*
X15839756Y-13221357D01*
X15809443Y-13237137D01*
X15656274Y-13316872D01*
X15641607Y-13324507D01*
X15637474Y-13327610D01*
X15637471Y-13327612D01*
X15489417Y-13438774D01*
X15462965Y-13458635D01*
X15415520Y-13508283D01*
X15342921Y-13584254D01*
X15308629Y-13620138D01*
X15305720Y-13624403D01*
X15305714Y-13624411D01*
X15270132Y-13676573D01*
X15182743Y-13804680D01*
X15164877Y-13843169D01*
X15100188Y-13982531D01*
X15088688Y-14007305D01*
X15028989Y-14222570D01*
X15005251Y-14444695D01*
X15005548Y-14449848D01*
X15005548Y-14449851D01*
X15010443Y-14534738D01*
X15018110Y-14667715D01*
X15019247Y-14672761D01*
X15019248Y-14672767D01*
X15039615Y-14763138D01*
X15067222Y-14885639D01*
X15117997Y-15010683D01*
X15142200Y-15070288D01*
X15151266Y-15092616D01*
X15267987Y-15283088D01*
X15414250Y-15451938D01*
X15586126Y-15594632D01*
X15649270Y-15631530D01*
X15697994Y-15683168D01*
X15711700Y-15740318D01*
X15711700Y-16676500D01*
X15691698Y-16744621D01*
X15638042Y-16791114D01*
X15585700Y-16802500D01*
X15499866Y-16802500D01*
X15437684Y-16809255D01*
X15301295Y-16860385D01*
X15184739Y-16947739D01*
X15097385Y-17064295D01*
X15046255Y-17200684D01*
X15039500Y-17262866D01*
X15039500Y-19059134D01*
X15046255Y-19121316D01*
X15097385Y-19257705D01*
X15116965Y-19283830D01*
X15121915Y-19290435D01*
X15146763Y-19356941D01*
X15131710Y-19426323D01*
X15081536Y-19476554D01*
X15021089Y-19492000D01*
X13439300Y-19492000D01*
X13371179Y-19471998D01*
X13324686Y-19418342D01*
X13314582Y-19348068D01*
X13344076Y-19283488D01*
X13366132Y-19263421D01*
X13448328Y-19204792D01*
X13456200Y-19198139D01*
X13607052Y-19047812D01*
X13613730Y-19039965D01*
X13738003Y-18867020D01*
X13743313Y-18858183D01*
X13837670Y-18667267D01*
X13841469Y-18657672D01*
X13903377Y-18453910D01*
X13905555Y-18443837D01*
X13906986Y-18432962D01*
X13904775Y-18418778D01*
X13891617Y-18415000D01*
X11256225Y-18415000D01*
X11242694Y-18418973D01*
X11241257Y-18428966D01*
X11271565Y-18563446D01*
X11274645Y-18573275D01*
X11354770Y-18770603D01*
X11359413Y-18779794D01*
X11470694Y-18961388D01*
X11476777Y-18969699D01*
X11616213Y-19130667D01*
X11623580Y-19137883D01*
X11781579Y-19269056D01*
X11821214Y-19327959D01*
X11822712Y-19398939D01*
X11785597Y-19459462D01*
X11721653Y-19490311D01*
X11701094Y-19492000D01*
X9146428Y-19492000D01*
X9078307Y-19471998D01*
X9031814Y-19418342D01*
X9021710Y-19348068D01*
X9051204Y-19283488D01*
X9102198Y-19248018D01*
X9120054Y-19241324D01*
X9135649Y-19232786D01*
X9237724Y-19156285D01*
X9250285Y-19143724D01*
X9326786Y-19041649D01*
X9335324Y-19026054D01*
X9380478Y-18905606D01*
X9384105Y-18890351D01*
X9389631Y-18839486D01*
X9390000Y-18832672D01*
X9390000Y-18560115D01*
X9385525Y-18544876D01*
X9384135Y-18543671D01*
X9376452Y-18542000D01*
X7392116Y-18542000D01*
X7376877Y-18546475D01*
X7375672Y-18547865D01*
X7374001Y-18555548D01*
X7374001Y-18832669D01*
X7374371Y-18839490D01*
X7379895Y-18890352D01*
X7383521Y-18905604D01*
X7428676Y-19026054D01*
X7437214Y-19041649D01*
X7513715Y-19143724D01*
X7526276Y-19156285D01*
X7628351Y-19232786D01*
X7643946Y-19241324D01*
X7661802Y-19248018D01*
X7718566Y-19290660D01*
X7743266Y-19357221D01*
X7728058Y-19426570D01*
X7677772Y-19476688D01*
X7617572Y-19492000D01*
X634000Y-19492000D01*
X565879Y-19471998D01*
X519386Y-19418342D01*
X508000Y-19366000D01*
X508000Y-17000000D01*
X1386526Y-17000000D01*
X1406391Y-17252403D01*
X1407545Y-17257210D01*
X1407546Y-17257216D01*
X1433663Y-17366000D01*
X1465495Y-17498591D01*
X1467388Y-17503162D01*
X1467389Y-17503164D01*
X1555944Y-17716954D01*
X1562384Y-17732502D01*
X1694672Y-17948376D01*
X1859102Y-18140898D01*
X2051624Y-18305328D01*
X2202208Y-18397606D01*
X2253383Y-18428966D01*
X2267498Y-18437616D01*
X2272068Y-18439509D01*
X2272072Y-18439511D01*
X2496836Y-18532611D01*
X2501409Y-18534505D01*
X2557058Y-18547865D01*
X2742784Y-18592454D01*
X2742790Y-18592455D01*
X2747597Y-18593609D01*
X2847416Y-18601465D01*
X2934345Y-18608307D01*
X2934352Y-18608307D01*
X2936801Y-18608500D01*
X3063199Y-18608500D01*
X3065648Y-18608307D01*
X3065655Y-18608307D01*
X3152584Y-18601465D01*
X3252403Y-18593609D01*
X3257210Y-18592455D01*
X3257216Y-18592454D01*
X3442942Y-18547865D01*
X3498591Y-18534505D01*
X3503164Y-18532611D01*
X3727928Y-18439511D01*
X3727932Y-18439509D01*
X3732502Y-18437616D01*
X3746618Y-18428966D01*
X3797792Y-18397606D01*
X3948376Y-18305328D01*
X4140898Y-18140898D01*
X4247670Y-18015885D01*
X7374000Y-18015885D01*
X7378475Y-18031124D01*
X7379865Y-18032329D01*
X7387548Y-18034000D01*
X8109885Y-18034000D01*
X8125124Y-18029525D01*
X8126329Y-18028135D01*
X8128000Y-18020452D01*
X8128000Y-18015885D01*
X8636000Y-18015885D01*
X8640475Y-18031124D01*
X8641865Y-18032329D01*
X8649548Y-18034000D01*
X9371884Y-18034000D01*
X9387123Y-18029525D01*
X9388328Y-18028135D01*
X9389999Y-18020452D01*
X9389999Y-17743331D01*
X9389629Y-17736510D01*
X9384105Y-17685648D01*
X9380479Y-17670396D01*
X9335324Y-17549946D01*
X9326786Y-17534351D01*
X9250285Y-17432276D01*
X9237724Y-17419715D01*
X9135649Y-17343214D01*
X9120054Y-17334676D01*
X8999606Y-17289522D01*
X8984351Y-17285895D01*
X8933486Y-17280369D01*
X8926672Y-17280000D01*
X8654115Y-17280000D01*
X8638876Y-17284475D01*
X8637671Y-17285865D01*
X8636000Y-17293548D01*
X8636000Y-18015885D01*
X8128000Y-18015885D01*
X8128000Y-17298116D01*
X8123525Y-17282877D01*
X8122135Y-17281672D01*
X8114452Y-17280001D01*
X7837331Y-17280001D01*
X7830510Y-17280371D01*
X7779648Y-17285895D01*
X7764396Y-17289521D01*
X7643946Y-17334676D01*
X7628351Y-17343214D01*
X7526276Y-17419715D01*
X7513715Y-17432276D01*
X7437214Y-17534351D01*
X7428676Y-17549946D01*
X7383522Y-17670394D01*
X7379895Y-17685649D01*
X7374369Y-17736514D01*
X7374000Y-17743328D01*
X7374000Y-18015885D01*
X4247670Y-18015885D01*
X4305328Y-17948376D01*
X4437616Y-17732502D01*
X4444057Y-17716954D01*
X4532611Y-17503164D01*
X4532612Y-17503162D01*
X4534505Y-17498591D01*
X4566337Y-17366000D01*
X4592454Y-17257216D01*
X4592455Y-17257210D01*
X4593609Y-17252403D01*
X4613474Y-17000000D01*
X4593609Y-16747597D01*
X4591844Y-16740242D01*
X4549934Y-16565677D01*
X4534505Y-16501409D01*
X4532611Y-16496836D01*
X4439511Y-16272072D01*
X4439509Y-16272068D01*
X4437616Y-16267498D01*
X4305328Y-16051624D01*
X4140898Y-15859102D01*
X3948376Y-15694672D01*
X3732502Y-15562384D01*
X3727932Y-15560491D01*
X3727928Y-15560489D01*
X3503164Y-15467389D01*
X3503162Y-15467388D01*
X3498591Y-15465495D01*
X3410744Y-15444405D01*
X3257216Y-15407546D01*
X3257210Y-15407545D01*
X3252403Y-15406391D01*
X3150374Y-15398361D01*
X3065655Y-15391693D01*
X3065648Y-15391693D01*
X3063199Y-15391500D01*
X2936801Y-15391500D01*
X2934352Y-15391693D01*
X2934345Y-15391693D01*
X2849626Y-15398361D01*
X2747597Y-15406391D01*
X2742790Y-15407545D01*
X2742784Y-15407546D01*
X2589256Y-15444405D01*
X2501409Y-15465495D01*
X2496838Y-15467388D01*
X2496836Y-15467389D01*
X2272072Y-15560489D01*
X2272068Y-15560491D01*
X2267498Y-15562384D01*
X2051624Y-15694672D01*
X1859102Y-15859102D01*
X1694672Y-16051624D01*
X1562384Y-16267498D01*
X1560491Y-16272068D01*
X1560489Y-16272072D01*
X1467389Y-16496836D01*
X1465495Y-16501409D01*
X1450066Y-16565677D01*
X1408157Y-16740242D01*
X1406391Y-16747597D01*
X1386526Y-17000000D01*
X508000Y-17000000D01*
X508000Y-11544669D01*
X992001Y-11544669D01*
X992371Y-11551490D01*
X997895Y-11602352D01*
X1001521Y-11617604D01*
X1046676Y-11738054D01*
X1055214Y-11753649D01*
X1131715Y-11855724D01*
X1144276Y-11868285D01*
X1246351Y-11944786D01*
X1261946Y-11953324D01*
X1382394Y-11998478D01*
X1397649Y-12002105D01*
X1448514Y-12007631D01*
X1455328Y-12008000D01*
X1727885Y-12008000D01*
X1743124Y-12003525D01*
X1744329Y-12002135D01*
X1746000Y-11994452D01*
X1746000Y-11989884D01*
X2254000Y-11989884D01*
X2258475Y-12005123D01*
X2259865Y-12006328D01*
X2267548Y-12007999D01*
X2544669Y-12007999D01*
X2551490Y-12007629D01*
X2602352Y-12002105D01*
X2617604Y-11998479D01*
X2738054Y-11953324D01*
X2753649Y-11944786D01*
X2855724Y-11868285D01*
X2868285Y-11855724D01*
X2944786Y-11753649D01*
X2953324Y-11738054D01*
X2998478Y-11617606D01*
X3002105Y-11602351D01*
X3007631Y-11551486D01*
X3008000Y-11544672D01*
X3008000Y-11272115D01*
X3003525Y-11256876D01*
X3002135Y-11255671D01*
X2994452Y-11254000D01*
X2272115Y-11254000D01*
X2256876Y-11258475D01*
X2255671Y-11259865D01*
X2254000Y-11267548D01*
X2254000Y-11989884D01*
X1746000Y-11989884D01*
X1746000Y-11272115D01*
X1741525Y-11256876D01*
X1740135Y-11255671D01*
X1732452Y-11254000D01*
X1010116Y-11254000D01*
X994877Y-11258475D01*
X993672Y-11259865D01*
X992001Y-11267548D01*
X992001Y-11544669D01*
X508000Y-11544669D01*
X508000Y-3000000D01*
X1386526Y-3000000D01*
X1406391Y-3252403D01*
X1407545Y-3257210D01*
X1407546Y-3257216D01*
X1441536Y-3398792D01*
X1465495Y-3498591D01*
X1467388Y-3503162D01*
X1467389Y-3503164D01*
X1549011Y-3700216D01*
X1562384Y-3732502D01*
X1694672Y-3948376D01*
X1859102Y-4140898D01*
X2051624Y-4305328D01*
X2267498Y-4437616D01*
X2272068Y-4439509D01*
X2272072Y-4439511D01*
X2490586Y-4530022D01*
X2501409Y-4534505D01*
X2558674Y-4548253D01*
X2742784Y-4592454D01*
X2742790Y-4592455D01*
X2747597Y-4593609D01*
X2842701Y-4601094D01*
X2934345Y-4608307D01*
X2934352Y-4608307D01*
X2936801Y-4608500D01*
X3063199Y-4608500D01*
X3065648Y-4608307D01*
X3065655Y-4608307D01*
X3157299Y-4601094D01*
X3252403Y-4593609D01*
X3257210Y-4592455D01*
X3257216Y-4592454D01*
X3441326Y-4548253D01*
X3498591Y-4534505D01*
X3509414Y-4530022D01*
X3727928Y-4439511D01*
X3727932Y-4439509D01*
X3732502Y-4437616D01*
X3948376Y-4305328D01*
X4140898Y-4140898D01*
X4305328Y-3948376D01*
X4437616Y-3732502D01*
X4450990Y-3700216D01*
X4532611Y-3503164D01*
X4532612Y-3503162D01*
X4534505Y-3498591D01*
X4558464Y-3398792D01*
X4592454Y-3257216D01*
X4592455Y-3257210D01*
X4593609Y-3252403D01*
X4613474Y-3000000D01*
X4593609Y-2747597D01*
X4590312Y-2733861D01*
X4547552Y-2555756D01*
X4534505Y-2501409D01*
X4526856Y-2482942D01*
X4439511Y-2272072D01*
X4439509Y-2272068D01*
X4437616Y-2267498D01*
X4305328Y-2051624D01*
X4140898Y-1859102D01*
X3948376Y-1694672D01*
X3732502Y-1562384D01*
X3727932Y-1560491D01*
X3727928Y-1560489D01*
X3503164Y-1467389D01*
X3503162Y-1467388D01*
X3498591Y-1465495D01*
X3369187Y-1434428D01*
X3257216Y-1407546D01*
X3257210Y-1407545D01*
X3252403Y-1406391D01*
X3141328Y-1397649D01*
X3065655Y-1391693D01*
X3065648Y-1391693D01*
X3063199Y-1391500D01*
X2936801Y-1391500D01*
X2934352Y-1391693D01*
X2934345Y-1391693D01*
X2858672Y-1397649D01*
X2747597Y-1406391D01*
X2742790Y-1407545D01*
X2742784Y-1407546D01*
X2630813Y-1434428D01*
X2501409Y-1465495D01*
X2496838Y-1467388D01*
X2496836Y-1467389D01*
X2272072Y-1560489D01*
X2272068Y-1560491D01*
X2267498Y-1562384D01*
X2051624Y-1694672D01*
X1859102Y-1859102D01*
X1694672Y-2051624D01*
X1562384Y-2267498D01*
X1560491Y-2272068D01*
X1560489Y-2272072D01*
X1473144Y-2482942D01*
X1465495Y-2501409D01*
X1452448Y-2555756D01*
X1409689Y-2733861D01*
X1406391Y-2747597D01*
X1386526Y-3000000D01*
X508000Y-3000000D01*
X508000Y-634000D01*
X528002Y-565879D01*
X581658Y-519386D01*
X634000Y-508000D01*
X20800191Y-508000D01*
X20868312Y-528002D01*
G37*
%TD.AperFunction*%
%TA.AperFunction,Conductor*%
G36*
X30674118Y-8936780D02*
G01*
X30730954Y-8979327D01*
X30749919Y-9015900D01*
X30788473Y-9134556D01*
X30883960Y-9299944D01*
X30888378Y-9304851D01*
X30888379Y-9304852D01*
X30955480Y-9379375D01*
X31011747Y-9441866D01*
X31077940Y-9489958D01*
X31140729Y-9535577D01*
X31166248Y-9554118D01*
X31172276Y-9556802D01*
X31172278Y-9556803D01*
X31333684Y-9628665D01*
X31387780Y-9674645D01*
X31408429Y-9742572D01*
X31389077Y-9810880D01*
X31333683Y-9858879D01*
X31299281Y-9874195D01*
X31299274Y-9874199D01*
X31293248Y-9876882D01*
X31287907Y-9880762D01*
X31287906Y-9880763D01*
X31252079Y-9906793D01*
X31138747Y-9989134D01*
X31134326Y-9994044D01*
X31134325Y-9994045D01*
X31016587Y-10124807D01*
X31010960Y-10131056D01*
X31007659Y-10136774D01*
X30922531Y-10284220D01*
X30915473Y-10296444D01*
X30856458Y-10478072D01*
X30855768Y-10484633D01*
X30855768Y-10484635D01*
X30850146Y-10538124D01*
X30836496Y-10668000D01*
X30837186Y-10674565D01*
X30854730Y-10841484D01*
X30856458Y-10857928D01*
X30915473Y-11039556D01*
X30918776Y-11045278D01*
X30918777Y-11045279D01*
X30931464Y-11067254D01*
X31010960Y-11204944D01*
X31058137Y-11257340D01*
X31088853Y-11321345D01*
X31090500Y-11341648D01*
X31090500Y-11773502D01*
X31090693Y-11775950D01*
X31090693Y-11775958D01*
X31092015Y-11792746D01*
X31093438Y-11810831D01*
X31119170Y-11899403D01*
X31134836Y-11953324D01*
X31139855Y-11970601D01*
X31224547Y-12113807D01*
X31227229Y-12116489D01*
X31252502Y-12180861D01*
X31238600Y-12250484D01*
X31228428Y-12266312D01*
X31224547Y-12270193D01*
X31139855Y-12413399D01*
X31093438Y-12573169D01*
X31092934Y-12579574D01*
X31092933Y-12579579D01*
X31090693Y-12608042D01*
X31090500Y-12610498D01*
X31090500Y-13043502D01*
X31093438Y-13080831D01*
X31106387Y-13125402D01*
X31134959Y-13223747D01*
X31139855Y-13240601D01*
X31224547Y-13383807D01*
X31227229Y-13386489D01*
X31252502Y-13450861D01*
X31238600Y-13520484D01*
X31228428Y-13536312D01*
X31224547Y-13540193D01*
X31139855Y-13683399D01*
X31137644Y-13691010D01*
X31137643Y-13691012D01*
X31129948Y-13717500D01*
X31093438Y-13843169D01*
X31090500Y-13880498D01*
X31090500Y-13888405D01*
X31070498Y-13956526D01*
X31016842Y-14003019D01*
X30946568Y-14013123D01*
X30881988Y-13983629D01*
X30875405Y-13977500D01*
X29332652Y-12434747D01*
X29325112Y-12426461D01*
X29321000Y-12419982D01*
X29271348Y-12373356D01*
X29268507Y-12370602D01*
X29248770Y-12350865D01*
X29245573Y-12348385D01*
X29236551Y-12340680D01*
X29230919Y-12335391D01*
X29204321Y-12310414D01*
X29197375Y-12306595D01*
X29197372Y-12306593D01*
X29186566Y-12300652D01*
X29170047Y-12289801D01*
X29169583Y-12289441D01*
X29154041Y-12277386D01*
X29146772Y-12274241D01*
X29146768Y-12274238D01*
X29113463Y-12259826D01*
X29102813Y-12254609D01*
X29064060Y-12233305D01*
X29064059Y-12233305D01*
X29064532Y-12232444D01*
X29014065Y-12193070D01*
X28990586Y-12126068D01*
X29007966Y-12055449D01*
X29039496Y-12002135D01*
X29058145Y-11970601D01*
X29063165Y-11953324D01*
X29078830Y-11899403D01*
X29104562Y-11810831D01*
X29105986Y-11792746D01*
X29107307Y-11775958D01*
X29107307Y-11775950D01*
X29107500Y-11773502D01*
X29107500Y-11340498D01*
X29106827Y-11331944D01*
X29105067Y-11309579D01*
X29105066Y-11309574D01*
X29104562Y-11303169D01*
X29058145Y-11143399D01*
X29024914Y-11087208D01*
X28977491Y-11007020D01*
X28977489Y-11007017D01*
X28973453Y-11000193D01*
X28855807Y-10882547D01*
X28848983Y-10878511D01*
X28848980Y-10878509D01*
X28719427Y-10801892D01*
X28719428Y-10801892D01*
X28712601Y-10797855D01*
X28704990Y-10795644D01*
X28704988Y-10795643D01*
X28627372Y-10773094D01*
X28552831Y-10751438D01*
X28546426Y-10750934D01*
X28546421Y-10750933D01*
X28517958Y-10748693D01*
X28517950Y-10748693D01*
X28515502Y-10748500D01*
X27330100Y-10748500D01*
X27261979Y-10728498D01*
X27215486Y-10674842D01*
X27205382Y-10604568D01*
X27234876Y-10539988D01*
X27241005Y-10533405D01*
X27350484Y-10423926D01*
X27360124Y-10411499D01*
X27435396Y-10284220D01*
X27441643Y-10269784D01*
X27476619Y-10149395D01*
X27476579Y-10135295D01*
X27469309Y-10132000D01*
X26542000Y-10132000D01*
X26473879Y-10111998D01*
X26427386Y-10058342D01*
X26416000Y-10006000D01*
X26416000Y-9832500D01*
X26436002Y-9764379D01*
X26489658Y-9717886D01*
X26542000Y-9706500D01*
X26905484Y-9706500D01*
X26907932Y-9706307D01*
X26907940Y-9706307D01*
X26935844Y-9704111D01*
X26935849Y-9704110D01*
X26942254Y-9703606D01*
X27041939Y-9674645D01*
X27091984Y-9660106D01*
X27091986Y-9660105D01*
X27099597Y-9657894D01*
X27110651Y-9651357D01*
X27127240Y-9641546D01*
X27191379Y-9624000D01*
X27463558Y-9624000D01*
X27505461Y-9611696D01*
X27520326Y-9602143D01*
X27591322Y-9602143D01*
X27619963Y-9614586D01*
X27678399Y-9649145D01*
X27686010Y-9651356D01*
X27686012Y-9651357D01*
X27711281Y-9658698D01*
X27838169Y-9695562D01*
X27844574Y-9696066D01*
X27844579Y-9696067D01*
X27873042Y-9698307D01*
X27873050Y-9698307D01*
X27875498Y-9698500D01*
X29658502Y-9698500D01*
X29660950Y-9698307D01*
X29660958Y-9698307D01*
X29689421Y-9696067D01*
X29689426Y-9696066D01*
X29695831Y-9695562D01*
X29822719Y-9658698D01*
X29847988Y-9651357D01*
X29847990Y-9651356D01*
X29855601Y-9649145D01*
X29890231Y-9628665D01*
X29991980Y-9568491D01*
X29991983Y-9568489D01*
X29998807Y-9564453D01*
X30116453Y-9446807D01*
X30190171Y-9322158D01*
X30209527Y-9297205D01*
X30540991Y-8965741D01*
X30603303Y-8931715D01*
X30674118Y-8936780D01*
G37*
%TD.AperFunction*%
%TA.AperFunction,Conductor*%
G36*
X36809527Y-5761502D02*
G01*
X36830501Y-5778405D01*
X37032343Y-5980247D01*
X37039887Y-5988537D01*
X37044000Y-5995018D01*
X37049777Y-6000443D01*
X37093667Y-6041658D01*
X37096509Y-6044413D01*
X37116231Y-6064135D01*
X37119355Y-6066558D01*
X37119359Y-6066562D01*
X37119424Y-6066612D01*
X37128445Y-6074317D01*
X37160679Y-6104586D01*
X37167627Y-6108405D01*
X37167629Y-6108407D01*
X37178432Y-6114346D01*
X37194959Y-6125202D01*
X37204698Y-6132757D01*
X37204700Y-6132758D01*
X37210960Y-6137614D01*
X37251540Y-6155174D01*
X37262188Y-6160391D01*
X37300940Y-6181695D01*
X37308616Y-6183666D01*
X37308619Y-6183667D01*
X37320562Y-6186733D01*
X37339267Y-6193137D01*
X37357855Y-6201181D01*
X37365678Y-6202420D01*
X37365688Y-6202423D01*
X37401524Y-6208099D01*
X37413144Y-6210505D01*
X37448289Y-6219528D01*
X37455970Y-6221500D01*
X37476224Y-6221500D01*
X37495934Y-6223051D01*
X37515943Y-6226220D01*
X37523835Y-6225474D01*
X37559961Y-6222059D01*
X37571819Y-6221500D01*
X37581115Y-6221500D01*
X37649236Y-6241502D01*
X37695729Y-6295158D01*
X37705833Y-6365432D01*
X37692265Y-6406118D01*
X37688385Y-6411295D01*
X37637255Y-6547684D01*
X37630500Y-6609866D01*
X37630500Y-8406134D01*
X37637255Y-8468316D01*
X37688385Y-8604705D01*
X37775739Y-8721261D01*
X37892295Y-8808615D01*
X37900704Y-8811767D01*
X37900705Y-8811768D01*
X38009451Y-8852535D01*
X38066216Y-8895176D01*
X38090916Y-8961738D01*
X38075709Y-9031087D01*
X38056316Y-9057568D01*
X37933750Y-9185826D01*
X37929629Y-9190138D01*
X37926715Y-9194410D01*
X37926714Y-9194411D01*
X37886300Y-9253656D01*
X37803743Y-9374680D01*
X37767659Y-9452416D01*
X37711991Y-9572344D01*
X37709688Y-9577305D01*
X37649989Y-9792570D01*
X37626251Y-10014695D01*
X37626548Y-10019848D01*
X37626548Y-10019851D01*
X37634620Y-10159836D01*
X37639110Y-10237715D01*
X37640247Y-10242761D01*
X37640248Y-10242767D01*
X37651370Y-10292117D01*
X37688222Y-10455639D01*
X37746351Y-10598794D01*
X37763788Y-10641736D01*
X37772266Y-10662616D01*
X37779731Y-10674798D01*
X37884370Y-10845553D01*
X37888987Y-10853088D01*
X38035250Y-11021938D01*
X38207126Y-11164632D01*
X38266327Y-11199226D01*
X38280955Y-11207774D01*
X38329679Y-11259412D01*
X38342750Y-11329195D01*
X38316019Y-11394967D01*
X38275562Y-11428327D01*
X38267457Y-11432546D01*
X38258738Y-11438036D01*
X38088433Y-11565905D01*
X38080726Y-11572748D01*
X37933590Y-11726717D01*
X37927104Y-11734727D01*
X37807098Y-11910649D01*
X37802000Y-11919623D01*
X37712338Y-12112783D01*
X37708775Y-12122470D01*
X37653389Y-12322183D01*
X37654912Y-12330607D01*
X37667292Y-12334000D01*
X39117000Y-12334000D01*
X39185121Y-12354002D01*
X39231614Y-12407658D01*
X39243000Y-12460000D01*
X39243000Y-12716000D01*
X39222998Y-12784121D01*
X39169342Y-12830614D01*
X39117000Y-12842000D01*
X37672225Y-12842000D01*
X37658694Y-12845973D01*
X37657257Y-12855966D01*
X37687565Y-12990446D01*
X37690645Y-13000275D01*
X37770770Y-13197603D01*
X37775413Y-13206794D01*
X37886694Y-13388388D01*
X37892771Y-13396691D01*
X37990059Y-13509003D01*
X38019541Y-13573588D01*
X38009426Y-13643860D01*
X37962925Y-13697509D01*
X37894821Y-13717500D01*
X36273767Y-13717500D01*
X36262580Y-13716972D01*
X36255832Y-13715464D01*
X36192859Y-13690318D01*
X36150826Y-13630141D01*
X36142570Y-13604731D01*
X36142569Y-13604729D01*
X36140527Y-13598444D01*
X36132335Y-13584254D01*
X36084989Y-13502250D01*
X36045040Y-13433056D01*
X36033203Y-13419909D01*
X35945151Y-13322118D01*
X35921247Y-13295570D01*
X35890530Y-13231563D01*
X35895050Y-13172326D01*
X35945542Y-13016928D01*
X35948005Y-12993500D01*
X35964814Y-12833565D01*
X35965504Y-12827000D01*
X35957950Y-12755124D01*
X35947565Y-12656317D01*
X35960337Y-12586479D01*
X36008736Y-12534693D01*
X36065500Y-12501124D01*
X36077926Y-12491484D01*
X36182484Y-12386926D01*
X36192124Y-12374499D01*
X36267396Y-12247220D01*
X36273643Y-12232784D01*
X36315312Y-12089359D01*
X36316768Y-12081391D01*
X36313948Y-12067969D01*
X36302487Y-12065000D01*
X35589770Y-12065000D01*
X35521649Y-12044998D01*
X35515707Y-12040935D01*
X35514091Y-12039761D01*
X35508752Y-12035882D01*
X35474053Y-12020433D01*
X35435251Y-12003157D01*
X35381155Y-11957176D01*
X35360500Y-11888050D01*
X35360500Y-11575516D01*
X35359664Y-11564894D01*
X35358111Y-11545156D01*
X35358110Y-11545151D01*
X35357617Y-11538885D01*
X35786000Y-11538885D01*
X35790475Y-11554124D01*
X35791865Y-11555329D01*
X35799548Y-11557000D01*
X36300424Y-11557000D01*
X36315219Y-11552656D01*
X36317063Y-11542225D01*
X36315312Y-11532641D01*
X36273643Y-11389216D01*
X36267396Y-11374780D01*
X36192124Y-11247501D01*
X36182484Y-11235074D01*
X36077926Y-11130516D01*
X36065499Y-11120876D01*
X35938220Y-11045604D01*
X35923784Y-11039357D01*
X35803395Y-11004381D01*
X35789295Y-11004421D01*
X35786000Y-11011691D01*
X35786000Y-11538885D01*
X35357617Y-11538885D01*
X35357606Y-11538746D01*
X35326752Y-11432546D01*
X35314106Y-11389016D01*
X35314105Y-11389014D01*
X35311894Y-11381403D01*
X35295546Y-11353760D01*
X35278000Y-11289621D01*
X35278000Y-11017442D01*
X35274027Y-11003911D01*
X35266129Y-11002776D01*
X35140216Y-11039357D01*
X35125778Y-11045605D01*
X35116628Y-11051016D01*
X35047812Y-11068474D01*
X34988353Y-11051015D01*
X34978423Y-11045143D01*
X34978424Y-11045143D01*
X34971597Y-11041106D01*
X34963986Y-11038895D01*
X34963984Y-11038894D01*
X34893139Y-11018312D01*
X34814254Y-10995394D01*
X34807849Y-10994890D01*
X34807844Y-10994889D01*
X34779940Y-10992693D01*
X34779932Y-10992693D01*
X34777484Y-10992500D01*
X34584064Y-10992500D01*
X34544452Y-10984945D01*
X34544377Y-10985235D01*
X34525838Y-10980475D01*
X34507141Y-10974074D01*
X34489565Y-10966468D01*
X34447722Y-10959841D01*
X34436103Y-10957435D01*
X34395074Y-10946900D01*
X34375936Y-10946900D01*
X34356225Y-10945349D01*
X34337316Y-10942354D01*
X34324199Y-10943594D01*
X34295139Y-10946341D01*
X34283281Y-10946900D01*
X33922350Y-10946900D01*
X33854229Y-10926898D01*
X33833255Y-10909995D01*
X33805807Y-10882547D01*
X33798983Y-10878511D01*
X33798980Y-10878509D01*
X33669427Y-10801892D01*
X33669428Y-10801892D01*
X33662601Y-10797855D01*
X33654990Y-10795644D01*
X33654988Y-10795643D01*
X33577372Y-10773094D01*
X33502831Y-10751438D01*
X33496426Y-10750934D01*
X33496421Y-10750933D01*
X33467958Y-10748693D01*
X33467950Y-10748693D01*
X33465502Y-10748500D01*
X32785416Y-10748500D01*
X32717295Y-10728498D01*
X32670802Y-10674842D01*
X32660106Y-10635670D01*
X32644232Y-10484635D01*
X32644232Y-10484633D01*
X32643542Y-10478072D01*
X32584527Y-10296444D01*
X32577470Y-10284220D01*
X32492341Y-10136774D01*
X32489040Y-10131056D01*
X32483414Y-10124807D01*
X32365675Y-9994045D01*
X32365674Y-9994044D01*
X32361253Y-9989134D01*
X32247921Y-9906793D01*
X32212094Y-9880763D01*
X32212093Y-9880762D01*
X32206752Y-9876882D01*
X32200724Y-9874198D01*
X32200722Y-9874197D01*
X32039316Y-9802335D01*
X31985220Y-9756355D01*
X31964571Y-9688428D01*
X31983923Y-9620120D01*
X32039317Y-9572121D01*
X32073719Y-9556805D01*
X32073726Y-9556801D01*
X32079752Y-9554118D01*
X32096453Y-9541984D01*
X32221533Y-9451108D01*
X32288401Y-9427249D01*
X32357552Y-9443330D01*
X32384689Y-9463949D01*
X32485193Y-9564453D01*
X32492017Y-9568489D01*
X32492020Y-9568491D01*
X32593769Y-9628665D01*
X32628399Y-9649145D01*
X32636010Y-9651356D01*
X32636012Y-9651357D01*
X32661281Y-9658698D01*
X32788169Y-9695562D01*
X32794574Y-9696066D01*
X32794579Y-9696067D01*
X32823042Y-9698307D01*
X32823050Y-9698307D01*
X32825498Y-9698500D01*
X34608502Y-9698500D01*
X34610950Y-9698307D01*
X34610958Y-9698307D01*
X34639421Y-9696067D01*
X34639426Y-9696066D01*
X34645831Y-9695562D01*
X34772719Y-9658698D01*
X34797988Y-9651357D01*
X34797990Y-9651356D01*
X34805601Y-9649145D01*
X34840231Y-9628665D01*
X34941980Y-9568491D01*
X34941983Y-9568489D01*
X34948807Y-9564453D01*
X35066453Y-9446807D01*
X35070489Y-9439983D01*
X35070491Y-9439980D01*
X35147108Y-9310427D01*
X35151145Y-9303601D01*
X35156118Y-9286486D01*
X35182867Y-9194411D01*
X35197562Y-9143831D01*
X35200500Y-9106502D01*
X35200500Y-8673498D01*
X35200307Y-8671042D01*
X35198067Y-8642579D01*
X35198066Y-8642574D01*
X35197562Y-8636169D01*
X35157831Y-8499411D01*
X35153357Y-8484012D01*
X35153356Y-8484010D01*
X35151145Y-8476399D01*
X35066453Y-8333193D01*
X35063771Y-8330511D01*
X35038498Y-8266139D01*
X35052400Y-8196516D01*
X35062572Y-8180688D01*
X35066453Y-8176807D01*
X35151145Y-8033601D01*
X35153415Y-8025790D01*
X35187425Y-7908722D01*
X35197562Y-7873831D01*
X35200500Y-7836502D01*
X35200500Y-7403498D01*
X35200013Y-7397305D01*
X35198067Y-7372579D01*
X35198066Y-7372574D01*
X35197562Y-7366169D01*
X35168528Y-7266231D01*
X35153357Y-7214012D01*
X35153356Y-7214009D01*
X35151145Y-7206399D01*
X35066453Y-7063193D01*
X35063771Y-7060511D01*
X35038498Y-6996139D01*
X35052400Y-6926516D01*
X35062572Y-6910688D01*
X35066453Y-6906807D01*
X35128297Y-6802235D01*
X35180189Y-6753784D01*
X35250039Y-6741079D01*
X35300888Y-6757923D01*
X35377774Y-6803393D01*
X35392216Y-6809643D01*
X35535641Y-6851312D01*
X35543609Y-6852768D01*
X35557031Y-6849948D01*
X35560000Y-6838487D01*
X35560000Y-6836424D01*
X36068000Y-6836424D01*
X36072344Y-6851219D01*
X36082775Y-6853063D01*
X36092359Y-6851312D01*
X36235784Y-6809643D01*
X36250220Y-6803396D01*
X36377499Y-6728124D01*
X36389926Y-6718484D01*
X36494484Y-6613926D01*
X36504124Y-6601499D01*
X36579396Y-6474220D01*
X36585643Y-6459784D01*
X36620619Y-6339395D01*
X36620579Y-6325295D01*
X36613309Y-6322000D01*
X36086115Y-6322000D01*
X36070876Y-6326475D01*
X36069671Y-6327865D01*
X36068000Y-6335548D01*
X36068000Y-6836424D01*
X35560000Y-6836424D01*
X35560000Y-6022500D01*
X35580002Y-5954379D01*
X35633658Y-5907886D01*
X35686000Y-5896500D01*
X36049484Y-5896500D01*
X36051932Y-5896307D01*
X36051940Y-5896307D01*
X36079844Y-5894111D01*
X36079849Y-5894110D01*
X36086254Y-5893606D01*
X36185005Y-5864916D01*
X36235984Y-5850106D01*
X36235986Y-5850105D01*
X36243597Y-5847894D01*
X36271240Y-5831546D01*
X36335379Y-5814000D01*
X36607558Y-5814000D01*
X36622797Y-5809525D01*
X36644060Y-5784987D01*
X36703786Y-5746604D01*
X36739284Y-5741500D01*
X36741406Y-5741500D01*
X36809527Y-5761502D01*
G37*
%TD.AperFunction*%
%TA.AperFunction,Conductor*%
G36*
X23668532Y-10862367D02*
G01*
X23725368Y-10904914D01*
X23750179Y-10971434D01*
X23750500Y-10980423D01*
X23750500Y-13189500D01*
X23730498Y-13257621D01*
X23676842Y-13304114D01*
X23624500Y-13315500D01*
X23526513Y-13315500D01*
X23520061Y-13316872D01*
X23520056Y-13316872D01*
X23433112Y-13335353D01*
X23339712Y-13355206D01*
X23333682Y-13357891D01*
X23333681Y-13357891D01*
X23171278Y-13430197D01*
X23171276Y-13430198D01*
X23165248Y-13432882D01*
X23010747Y-13545134D01*
X23006325Y-13550046D01*
X23001423Y-13554459D01*
X23000182Y-13553081D01*
X22947399Y-13585602D01*
X22876416Y-13584254D01*
X22817429Y-13544744D01*
X22796221Y-13508283D01*
X22751768Y-13389705D01*
X22751767Y-13389703D01*
X22748615Y-13381295D01*
X22661261Y-13264739D01*
X22544705Y-13177385D01*
X22408316Y-13126255D01*
X22346134Y-13119500D01*
X22260300Y-13119500D01*
X22192179Y-13099498D01*
X22145686Y-13045842D01*
X22134300Y-12993500D01*
X22134300Y-12951036D01*
X22154302Y-12882915D01*
X22207958Y-12836422D01*
X22278232Y-12826318D01*
X22310338Y-12835398D01*
X22313212Y-12836642D01*
X22433605Y-12871619D01*
X22447705Y-12871579D01*
X22451000Y-12864309D01*
X22451000Y-12858558D01*
X22959000Y-12858558D01*
X22962973Y-12872089D01*
X22970871Y-12873224D01*
X23096784Y-12836643D01*
X23111220Y-12830396D01*
X23238499Y-12755124D01*
X23250926Y-12745484D01*
X23355484Y-12640926D01*
X23365124Y-12628499D01*
X23440396Y-12501220D01*
X23446643Y-12486784D01*
X23488312Y-12343359D01*
X23489768Y-12335391D01*
X23486948Y-12321969D01*
X23475487Y-12319000D01*
X22977115Y-12319000D01*
X22961876Y-12323475D01*
X22960671Y-12324865D01*
X22959000Y-12332548D01*
X22959000Y-12858558D01*
X22451000Y-12858558D01*
X22451000Y-12586379D01*
X22468546Y-12522240D01*
X22480859Y-12501420D01*
X22480859Y-12501419D01*
X22484894Y-12494597D01*
X22530606Y-12337254D01*
X22531130Y-12330607D01*
X22533307Y-12302940D01*
X22533307Y-12302932D01*
X22533500Y-12300484D01*
X22533500Y-11945422D01*
X22553502Y-11877301D01*
X22570405Y-11856327D01*
X22578827Y-11847905D01*
X22641139Y-11813879D01*
X22667922Y-11811000D01*
X23473424Y-11811000D01*
X23488219Y-11806656D01*
X23490063Y-11796225D01*
X23488312Y-11786641D01*
X23446643Y-11643216D01*
X23440396Y-11628780D01*
X23365124Y-11501501D01*
X23355484Y-11489074D01*
X23250926Y-11384516D01*
X23246316Y-11380940D01*
X23204749Y-11323384D01*
X23200899Y-11252492D01*
X23234447Y-11192286D01*
X23535405Y-10891328D01*
X23597717Y-10857302D01*
X23668532Y-10862367D01*
G37*
%TD.AperFunction*%
%TA.AperFunction,Conductor*%
G36*
X26098270Y-10536475D02*
G01*
X26099680Y-10534090D01*
X26233780Y-10613396D01*
X26248216Y-10619643D01*
X26363259Y-10653066D01*
X26423094Y-10691279D01*
X26452772Y-10755775D01*
X26442869Y-10826078D01*
X26402988Y-10870697D01*
X26405281Y-10873653D01*
X26399020Y-10878509D01*
X26392193Y-10882547D01*
X26274547Y-11000193D01*
X26270511Y-11007017D01*
X26270509Y-11007020D01*
X26223086Y-11087208D01*
X26189855Y-11143399D01*
X26187644Y-11151010D01*
X26187643Y-11151012D01*
X26155497Y-11261661D01*
X26117284Y-11321496D01*
X26052788Y-11351174D01*
X25982486Y-11341271D01*
X25928697Y-11294931D01*
X25908500Y-11226508D01*
X25908500Y-10641736D01*
X25928502Y-10573615D01*
X25982158Y-10527122D01*
X26052432Y-10517018D01*
X26098270Y-10536475D01*
G37*
%TD.AperFunction*%
%TA.AperFunction,Conductor*%
G36*
X16717224Y-7016372D02*
G01*
X16766704Y-7067286D01*
X16776263Y-7090933D01*
X16791855Y-7144601D01*
X16876547Y-7287807D01*
X16879229Y-7290489D01*
X16904502Y-7354861D01*
X16890600Y-7424484D01*
X16880428Y-7440312D01*
X16876547Y-7444193D01*
X16849551Y-7489841D01*
X16807174Y-7561496D01*
X16787816Y-7586452D01*
X14749595Y-9624672D01*
X14687283Y-9658698D01*
X14616467Y-9653633D01*
X14559632Y-9611086D01*
X14534821Y-9544566D01*
X14534500Y-9535577D01*
X14534500Y-9284016D01*
X14531606Y-9247246D01*
X14501561Y-9143831D01*
X14488106Y-9097516D01*
X14488105Y-9097514D01*
X14485894Y-9089903D01*
X14461128Y-9048025D01*
X14406522Y-8955692D01*
X14402488Y-8948871D01*
X14286629Y-8833012D01*
X14223360Y-8795595D01*
X14152420Y-8753641D01*
X14152419Y-8753641D01*
X14145597Y-8749606D01*
X14137986Y-8747395D01*
X14137984Y-8747394D01*
X14079024Y-8730265D01*
X13988254Y-8703894D01*
X13981849Y-8703390D01*
X13981844Y-8703389D01*
X13953940Y-8701193D01*
X13953932Y-8701193D01*
X13951484Y-8701000D01*
X13480516Y-8701000D01*
X13478068Y-8701193D01*
X13478060Y-8701193D01*
X13450156Y-8703389D01*
X13450151Y-8703390D01*
X13443746Y-8703894D01*
X13352976Y-8730265D01*
X13294016Y-8747394D01*
X13294014Y-8747395D01*
X13286403Y-8749606D01*
X13279581Y-8753641D01*
X13279580Y-8753641D01*
X13208639Y-8795595D01*
X13139822Y-8813054D01*
X13080361Y-8795595D01*
X13009420Y-8753641D01*
X13009419Y-8753641D01*
X13002597Y-8749606D01*
X12994986Y-8747395D01*
X12994984Y-8747394D01*
X12936024Y-8730265D01*
X12845254Y-8703894D01*
X12838849Y-8703390D01*
X12838844Y-8703389D01*
X12810940Y-8701193D01*
X12810932Y-8701193D01*
X12808484Y-8701000D01*
X12337516Y-8701000D01*
X12335068Y-8701193D01*
X12335060Y-8701193D01*
X12307156Y-8703389D01*
X12307151Y-8703390D01*
X12300746Y-8703894D01*
X12209976Y-8730265D01*
X12151016Y-8747394D01*
X12151014Y-8747395D01*
X12143403Y-8749606D01*
X12136581Y-8753641D01*
X12136580Y-8753641D01*
X12065639Y-8795595D01*
X11996822Y-8813054D01*
X11937361Y-8795595D01*
X11866420Y-8753641D01*
X11866419Y-8753641D01*
X11859597Y-8749606D01*
X11851986Y-8747395D01*
X11851984Y-8747394D01*
X11793024Y-8730265D01*
X11702254Y-8703894D01*
X11695849Y-8703390D01*
X11695844Y-8703389D01*
X11667940Y-8701193D01*
X11667932Y-8701193D01*
X11665484Y-8701000D01*
X11194516Y-8701000D01*
X11192068Y-8701193D01*
X11192060Y-8701193D01*
X11164156Y-8703389D01*
X11164151Y-8703390D01*
X11157746Y-8703894D01*
X11081653Y-8726001D01*
X11010656Y-8725798D01*
X10951040Y-8687244D01*
X10921732Y-8622579D01*
X10920500Y-8605004D01*
X10920500Y-8569594D01*
X10940502Y-8501473D01*
X10957405Y-8480499D01*
X11552033Y-7885871D01*
X12428456Y-7885871D01*
X12469107Y-8025790D01*
X12475352Y-8040221D01*
X12551911Y-8169678D01*
X12561551Y-8182104D01*
X12667896Y-8288449D01*
X12680322Y-8298089D01*
X12809779Y-8374648D01*
X12824210Y-8380893D01*
X12970065Y-8423269D01*
X12982667Y-8425570D01*
X13011084Y-8427807D01*
X13016014Y-8428000D01*
X13632885Y-8428000D01*
X13648124Y-8423525D01*
X13649329Y-8422135D01*
X13651000Y-8414452D01*
X13651000Y-8409884D01*
X14159000Y-8409884D01*
X14163475Y-8425123D01*
X14164865Y-8426328D01*
X14172548Y-8427999D01*
X14793984Y-8427999D01*
X14798920Y-8427805D01*
X14827336Y-8425570D01*
X14839931Y-8423270D01*
X14985790Y-8380893D01*
X15000221Y-8374648D01*
X15129678Y-8298089D01*
X15142104Y-8288449D01*
X15248449Y-8182104D01*
X15258089Y-8169678D01*
X15334648Y-8040221D01*
X15340893Y-8025790D01*
X15379939Y-7891395D01*
X15379899Y-7877294D01*
X15372630Y-7874000D01*
X14177115Y-7874000D01*
X14161876Y-7878475D01*
X14160671Y-7879865D01*
X14159000Y-7887548D01*
X14159000Y-8409884D01*
X13651000Y-8409884D01*
X13651000Y-7892115D01*
X13646525Y-7876876D01*
X13645135Y-7875671D01*
X13637452Y-7874000D01*
X12443122Y-7874000D01*
X12429591Y-7877973D01*
X12428456Y-7885871D01*
X11552033Y-7885871D01*
X12222598Y-7215307D01*
X12284910Y-7181281D01*
X12355726Y-7186346D01*
X12412561Y-7228893D01*
X12437372Y-7295413D01*
X12432690Y-7339556D01*
X12430061Y-7348605D01*
X12430101Y-7362706D01*
X12437370Y-7366000D01*
X15366878Y-7366000D01*
X15380409Y-7362027D01*
X15381544Y-7354129D01*
X15351586Y-7251013D01*
X15351789Y-7180017D01*
X15390342Y-7120401D01*
X15455007Y-7091092D01*
X15525252Y-7101396D01*
X15535585Y-7106742D01*
X15539907Y-7109237D01*
X15545248Y-7113118D01*
X15551276Y-7115802D01*
X15551278Y-7115803D01*
X15713681Y-7188109D01*
X15719712Y-7190794D01*
X15813112Y-7210647D01*
X15900056Y-7229128D01*
X15900061Y-7229128D01*
X15906513Y-7230500D01*
X16097487Y-7230500D01*
X16103939Y-7229128D01*
X16103944Y-7229128D01*
X16190888Y-7210647D01*
X16284288Y-7190794D01*
X16290319Y-7188109D01*
X16452722Y-7115803D01*
X16452724Y-7115802D01*
X16458752Y-7113118D01*
X16464221Y-7109145D01*
X16521834Y-7067286D01*
X16581206Y-7024150D01*
X16648072Y-7000292D01*
X16717224Y-7016372D01*
G37*
%TD.AperFunction*%
%TA.AperFunction,Conductor*%
G36*
X32247555Y-528002D02*
G01*
X32294048Y-581658D01*
X32304152Y-651932D01*
X32293030Y-683488D01*
X32294915Y-684304D01*
X32291766Y-691582D01*
X32287731Y-698404D01*
X32285520Y-706015D01*
X32285519Y-706017D01*
X32284023Y-711166D01*
X32242371Y-854534D01*
X32241867Y-860941D01*
X32241866Y-860945D01*
X32240131Y-882991D01*
X32239500Y-891011D01*
X32239501Y-1390988D01*
X32242371Y-1427466D01*
X32253970Y-1467389D01*
X32282320Y-1564970D01*
X32287731Y-1583596D01*
X32291767Y-1590421D01*
X32291769Y-1590425D01*
X32326032Y-1648361D01*
X32343492Y-1717177D01*
X32326032Y-1776639D01*
X32291769Y-1834575D01*
X32291767Y-1834579D01*
X32287731Y-1841404D01*
X32285520Y-1849015D01*
X32285519Y-1849017D01*
X32265411Y-1918231D01*
X32242371Y-1997534D01*
X32239500Y-2034011D01*
X32239501Y-2272115D01*
X32239501Y-2499404D01*
X32219499Y-2567525D01*
X32202596Y-2588499D01*
X32032499Y-2758596D01*
X31970187Y-2792621D01*
X31943404Y-2795500D01*
X31730849Y-2795500D01*
X31662728Y-2775498D01*
X31616235Y-2721842D01*
X31606131Y-2651568D01*
X31631956Y-2594873D01*
X31630499Y-2593845D01*
X31634048Y-2588814D01*
X31638078Y-2584145D01*
X31735769Y-2412179D01*
X31798197Y-2224513D01*
X31822985Y-2028295D01*
X31823380Y-2000000D01*
X31804080Y-1803167D01*
X31795113Y-1773465D01*
X31748697Y-1619731D01*
X31746916Y-1613831D01*
X31654066Y-1439204D01*
X31583709Y-1352938D01*
X31532960Y-1290713D01*
X31532957Y-1290710D01*
X31529065Y-1285938D01*
X31517637Y-1276484D01*
X31381425Y-1163799D01*
X31381421Y-1163797D01*
X31376675Y-1159870D01*
X31202701Y-1065802D01*
X31013768Y-1007318D01*
X31007643Y-1006674D01*
X31007642Y-1006674D01*
X30823204Y-987289D01*
X30823202Y-987289D01*
X30817075Y-986645D01*
X30739861Y-993672D01*
X30626251Y-1004011D01*
X30626248Y-1004012D01*
X30620112Y-1004570D01*
X30614206Y-1006308D01*
X30614202Y-1006309D01*
X30510313Y-1036885D01*
X30430381Y-1060410D01*
X30424923Y-1063263D01*
X30424919Y-1063265D01*
X30329135Y-1113340D01*
X30255110Y-1152040D01*
X30250310Y-1155900D01*
X30245153Y-1159274D01*
X30243769Y-1157158D01*
X30188365Y-1180027D01*
X30118512Y-1167334D01*
X30108898Y-1161709D01*
X30106675Y-1159870D01*
X29932701Y-1065802D01*
X29743768Y-1007318D01*
X29737643Y-1006674D01*
X29737642Y-1006674D01*
X29553204Y-987289D01*
X29553202Y-987289D01*
X29547075Y-986645D01*
X29469861Y-993672D01*
X29356251Y-1004011D01*
X29356248Y-1004012D01*
X29350112Y-1004570D01*
X29344206Y-1006308D01*
X29344202Y-1006309D01*
X29240313Y-1036885D01*
X29160381Y-1060410D01*
X29154923Y-1063263D01*
X29154919Y-1063265D01*
X29059135Y-1113340D01*
X28985110Y-1152040D01*
X28980310Y-1155900D01*
X28975153Y-1159274D01*
X28973769Y-1157158D01*
X28918365Y-1180027D01*
X28848512Y-1167334D01*
X28838898Y-1161709D01*
X28836675Y-1159870D01*
X28662701Y-1065802D01*
X28473768Y-1007318D01*
X28467643Y-1006674D01*
X28467642Y-1006674D01*
X28283204Y-987289D01*
X28283202Y-987289D01*
X28277075Y-986645D01*
X28199861Y-993672D01*
X28086251Y-1004011D01*
X28086248Y-1004012D01*
X28080112Y-1004570D01*
X28074206Y-1006308D01*
X28074202Y-1006309D01*
X27896293Y-1058670D01*
X27890381Y-1060410D01*
X27884916Y-1063267D01*
X27884304Y-1063587D01*
X27883950Y-1063657D01*
X27879209Y-1065573D01*
X27878845Y-1064672D01*
X27814668Y-1077422D01*
X27762645Y-1057462D01*
X27761517Y-1059522D01*
X27738054Y-1046676D01*
X27617606Y-1001522D01*
X27602351Y-997895D01*
X27551486Y-992369D01*
X27544672Y-992000D01*
X27272115Y-992000D01*
X27256876Y-996475D01*
X27255671Y-997865D01*
X27254000Y-1005548D01*
X27254000Y-2989884D01*
X27258475Y-3005123D01*
X27259865Y-3006328D01*
X27267548Y-3007999D01*
X27544669Y-3007999D01*
X27551490Y-3007629D01*
X27602352Y-3002105D01*
X27617604Y-2998479D01*
X27738054Y-2953324D01*
X27761517Y-2940478D01*
X27762792Y-2942806D01*
X27816321Y-2922797D01*
X27864333Y-2928637D01*
X28052392Y-2989740D01*
X28248777Y-3013158D01*
X28254912Y-3012686D01*
X28254914Y-3012686D01*
X28439830Y-2998457D01*
X28439834Y-2998456D01*
X28445972Y-2997984D01*
X28636463Y-2944798D01*
X28764762Y-2879990D01*
X28834583Y-2867130D01*
X28900274Y-2894059D01*
X28942568Y-2957305D01*
X28953982Y-2996593D01*
X28958015Y-3003412D01*
X28958017Y-3003417D01*
X28964293Y-3014028D01*
X28972988Y-3031776D01*
X28980448Y-3050617D01*
X28985110Y-3057033D01*
X28985110Y-3057034D01*
X29006436Y-3086387D01*
X29012952Y-3096307D01*
X29035458Y-3134362D01*
X29033156Y-3135723D01*
X29054372Y-3189762D01*
X29040470Y-3259384D01*
X28991134Y-3310438D01*
X28928865Y-3326900D01*
X27380677Y-3326900D01*
X27370125Y-3326402D01*
X27362871Y-3324781D01*
X27306826Y-3326542D01*
X27297405Y-3326838D01*
X27293448Y-3326900D01*
X27266617Y-3326900D01*
X27262690Y-3327396D01*
X27261784Y-3327453D01*
X27251140Y-3328292D01*
X27208801Y-3329622D01*
X27190414Y-3334964D01*
X27171057Y-3338972D01*
X27152068Y-3341371D01*
X27112680Y-3356965D01*
X27101457Y-3360807D01*
X27068390Y-3370415D01*
X27068388Y-3370416D01*
X27060774Y-3372628D01*
X27044293Y-3382375D01*
X27026551Y-3391067D01*
X27008746Y-3398116D01*
X27008745Y-3398117D01*
X27008130Y-3396565D01*
X26957750Y-3409500D01*
X26911213Y-3409500D01*
X26843092Y-3389498D01*
X26796599Y-3335842D01*
X26790218Y-3318658D01*
X26787021Y-3307653D01*
X26783014Y-3288306D01*
X26781468Y-3276068D01*
X26781467Y-3276066D01*
X26780474Y-3268203D01*
X26764194Y-3227086D01*
X26760359Y-3215885D01*
X26748018Y-3173406D01*
X26743985Y-3166587D01*
X26743983Y-3166582D01*
X26737707Y-3155971D01*
X26729004Y-3138206D01*
X26727952Y-3135547D01*
X26724981Y-3128043D01*
X26718506Y-3057342D01*
X26743422Y-3006301D01*
X26746000Y-2994452D01*
X26746000Y-2272115D01*
X26741525Y-2256876D01*
X26740135Y-2255671D01*
X26732452Y-2254000D01*
X26010118Y-2254000D01*
X25985054Y-2261359D01*
X25914057Y-2261358D01*
X25860462Y-2229557D01*
X25358790Y-1727885D01*
X25992000Y-1727885D01*
X25996475Y-1743124D01*
X25997865Y-1744329D01*
X26005548Y-1746000D01*
X26727885Y-1746000D01*
X26743124Y-1741525D01*
X26744329Y-1740135D01*
X26746000Y-1732452D01*
X26746000Y-1010116D01*
X26741525Y-994877D01*
X26740135Y-993672D01*
X26732452Y-992001D01*
X26455331Y-992001D01*
X26448510Y-992371D01*
X26397648Y-997895D01*
X26382396Y-1001521D01*
X26261946Y-1046676D01*
X26246351Y-1055214D01*
X26144276Y-1131715D01*
X26131715Y-1144276D01*
X26055214Y-1246351D01*
X26046676Y-1261946D01*
X26001522Y-1382394D01*
X25997895Y-1397649D01*
X25992369Y-1448514D01*
X25992000Y-1455328D01*
X25992000Y-1727885D01*
X25358790Y-1727885D01*
X25074404Y-1443499D01*
X25040378Y-1381187D01*
X25037499Y-1354404D01*
X25037499Y-1274012D01*
X25034629Y-1237534D01*
X24996230Y-1105365D01*
X24991481Y-1089017D01*
X24991480Y-1089015D01*
X24989269Y-1081404D01*
X24985233Y-1074579D01*
X24985231Y-1074575D01*
X24910188Y-947684D01*
X24892703Y-887491D01*
X24892562Y-882991D01*
X24892500Y-879045D01*
X24892500Y-851144D01*
X24891996Y-847153D01*
X24891063Y-835311D01*
X24891006Y-833478D01*
X24889674Y-791111D01*
X24884021Y-771652D01*
X24880012Y-752293D01*
X24879846Y-750983D01*
X24877474Y-732203D01*
X24874558Y-724837D01*
X24874556Y-724831D01*
X24861200Y-691098D01*
X24857355Y-679868D01*
X24854242Y-669153D01*
X24854445Y-598157D01*
X24892999Y-538540D01*
X24957664Y-509232D01*
X24975239Y-508000D01*
X32179434Y-508000D01*
X32247555Y-528002D01*
G37*
%TD.AperFunction*%
%TD*%
M02*
