M48
METRIC
T1C0.400
T2C0.650
T3C2.200
%
G90
G05
T1
X4.5Y-13.3
X5.8Y-7.6
X9.237Y-17.631
X10.6Y-18.7
X10.7Y-15.431
X10.9Y-13.6
X12.9Y-16.7
X14.1Y-5.0
X16.5Y-11.6
X16.5Y-18.3
X16.7Y-16.3
X17.0Y-1.8
X17.4Y-12.9
X17.9Y-9.5
X20.1Y-0.7
X20.1Y-6.1
X22.3Y-4.0
X22.7Y-5.2
X23.2Y-7.8
X26.4Y-14.4
X26.5Y-7.5
X27.7Y-8.1
X28.6Y-15.0
X30.5Y-13.7
X32.2Y-5.4
X32.4Y-7.7
X33.5Y-5.5
T2
X2.0Y-8.46
X2.0Y-9.73
X2.0Y-11.0
X30.0Y-2.0
X30.0Y-18.0
X31.27Y-2.0
X31.27Y-18.0
X32.54Y-2.0
X32.54Y-18.0
X33.81Y-2.0
X33.81Y-18.0
X35.08Y-2.0
X35.08Y-18.0
T3
X8.0Y-10.0
X21.0Y-10.0
X34.0Y-10.0
T0
M30
