%TF.GenerationSoftware,KiCad,Pcbnew,(6.99.0)*%
%TF.CreationDate,2023-04-20T01:20:36-07:00*%
%TF.ProjectId,emg-analog-front-end,656d672d-616e-4616-9c6f-672d66726f6e,rev?*%
%TF.SameCoordinates,Original*%
%TF.FileFunction,Soldermask,Top*%
%TF.FilePolarity,Negative*%
%FSLAX46Y46*%
G04 Gerber Fmt 4.6, Leading zero omitted, Abs format (unit mm)*
G04 Created by KiCad (PCBNEW (6.99.0)) date 2023-04-20 01:20:36*
%MOMM*%
%LPD*%
G01*
G04 APERTURE LIST*
G04 Aperture macros list*
%AMRoundRect*
0 Rectangle with rounded corners*
0 $1 Rounding radius*
0 $2 $3 $4 $5 $6 $7 $8 $9 X,Y pos of 4 corners*
0 Add a 4 corners polygon primitive as box body*
4,1,4,$2,$3,$4,$5,$6,$7,$8,$9,$2,$3,0*
0 Add four circle primitives for the rounded corners*
1,1,$1+$1,$2,$3*
1,1,$1+$1,$4,$5*
1,1,$1+$1,$6,$7*
1,1,$1+$1,$8,$9*
0 Add four rect primitives between the rounded corners*
20,1,$1+$1,$2,$3,$4,$5,0*
20,1,$1+$1,$4,$5,$6,$7,0*
20,1,$1+$1,$6,$7,$8,$9,0*
20,1,$1+$1,$8,$9,$2,$3,0*%
G04 Aperture macros list end*
%ADD10RoundRect,0.020500X-0.714500X-0.184500X0.714500X-0.184500X0.714500X0.184500X-0.714500X0.184500X0*%
%ADD11RoundRect,0.135000X0.135000X0.185000X-0.135000X0.185000X-0.135000X-0.185000X0.135000X-0.185000X0*%
%ADD12RoundRect,0.135000X-0.135000X-0.185000X0.135000X-0.185000X0.135000X0.185000X-0.135000X0.185000X0*%
%ADD13RoundRect,0.140000X-0.140000X-0.170000X0.140000X-0.170000X0.140000X0.170000X-0.140000X0.170000X0*%
%ADD14RoundRect,0.140000X0.170000X-0.140000X0.170000X0.140000X-0.170000X0.140000X-0.170000X-0.140000X0*%
%ADD15RoundRect,0.200000X-0.200000X-0.275000X0.200000X-0.275000X0.200000X0.275000X-0.200000X0.275000X0*%
%ADD16RoundRect,0.090000X-0.520000X-0.210000X0.520000X-0.210000X0.520000X0.210000X-0.520000X0.210000X0*%
%ADD17RoundRect,0.140000X-0.170000X0.140000X-0.170000X-0.140000X0.170000X-0.140000X0.170000X0.140000X0*%
%ADD18C,2.200000*%
%ADD19R,1.000000X1.000000*%
%ADD20O,1.000000X1.000000*%
%ADD21C,3.500000*%
%ADD22RoundRect,0.140000X0.140000X0.170000X-0.140000X0.170000X-0.140000X-0.170000X0.140000X-0.170000X0*%
%ADD23RoundRect,0.150000X-0.825000X-0.150000X0.825000X-0.150000X0.825000X0.150000X-0.825000X0.150000X0*%
%ADD24RoundRect,0.135000X0.185000X-0.135000X0.185000X0.135000X-0.185000X0.135000X-0.185000X-0.135000X0*%
%ADD25R,1.200000X1.200000*%
%ADD26R,1.500000X1.600000*%
G04 APERTURE END LIST*
D10*
%TO.C,U3*%
X24660000Y-4550000D03*
X24660000Y-5200000D03*
X24660000Y-5850000D03*
X24660000Y-6500000D03*
X24660000Y-7150000D03*
X24660000Y-7800000D03*
X24660000Y-8450000D03*
X30400000Y-8450000D03*
X30400000Y-7800000D03*
X30400000Y-7150000D03*
X30400000Y-6500000D03*
X30400000Y-5850000D03*
X30400000Y-5200000D03*
X30400000Y-4550000D03*
%TD*%
D11*
%TO.C,R17*%
X32810000Y-13000000D03*
X31790000Y-13000000D03*
%TD*%
%TO.C,R16*%
X8010000Y-6900000D03*
X6990000Y-6900000D03*
%TD*%
D12*
%TO.C,R15*%
X23390000Y-11700000D03*
X24410000Y-11700000D03*
%TD*%
D13*
%TO.C,C11*%
X32120000Y-6500000D03*
X33080000Y-6500000D03*
%TD*%
D11*
%TO.C,R4*%
X28810000Y-11100000D03*
X27790000Y-11100000D03*
%TD*%
D14*
%TO.C,C5*%
X12000000Y-9980000D03*
X12000000Y-9020000D03*
%TD*%
D15*
%TO.C,R5*%
X11775000Y-1500000D03*
X13425000Y-1500000D03*
%TD*%
D16*
%TO.C,U4*%
X6675000Y-14481250D03*
X6675000Y-15431250D03*
X6675000Y-16381250D03*
X9165000Y-16381250D03*
X9165000Y-15431250D03*
X9165000Y-14481250D03*
%TD*%
D13*
%TO.C,C2*%
X11920000Y-18700000D03*
X12880000Y-18700000D03*
%TD*%
D12*
%TO.C,R14*%
X12810000Y-14200000D03*
X11790000Y-14200000D03*
%TD*%
%TO.C,R10*%
X20090000Y-1800000D03*
X21110000Y-1800000D03*
%TD*%
%TO.C,R9*%
X34490000Y-4300000D03*
X35510000Y-4300000D03*
%TD*%
D17*
%TO.C,C9*%
X15400000Y-9020000D03*
X15400000Y-9980000D03*
%TD*%
D18*
%TO.C,H2*%
X39000000Y-17000000D03*
%TD*%
D17*
%TO.C,C7*%
X14228500Y-9040000D03*
X14228500Y-10000000D03*
%TD*%
D19*
%TO.C,J2*%
X30000000Y-2000000D03*
D20*
X31270000Y-2000000D03*
X32540000Y-2000000D03*
X33810000Y-2000000D03*
X35080000Y-2000000D03*
%TD*%
D21*
%TO.C,H7*%
X21000000Y-10000000D03*
%TD*%
D22*
%TO.C,C1*%
X20080000Y-12900000D03*
X19120000Y-12900000D03*
%TD*%
D23*
%TO.C,U2*%
X11625000Y-3295000D03*
X11625000Y-4565000D03*
X11625000Y-5835000D03*
X11625000Y-7105000D03*
X16575000Y-7105000D03*
X16575000Y-5835000D03*
X16575000Y-4565000D03*
X16575000Y-3295000D03*
%TD*%
D11*
%TO.C,R13*%
X21110000Y-5100000D03*
X20090000Y-5100000D03*
%TD*%
D24*
%TO.C,R12*%
X19000000Y-4010000D03*
X19000000Y-2990000D03*
%TD*%
D18*
%TO.C,H4*%
X3000000Y-17000000D03*
%TD*%
D22*
%TO.C,C13*%
X21080000Y-2900000D03*
X20120000Y-2900000D03*
%TD*%
D13*
%TO.C,C12*%
X21920000Y-6700000D03*
X22880000Y-6700000D03*
%TD*%
%TO.C,C15*%
X20120000Y-4000000D03*
X21080000Y-4000000D03*
%TD*%
D19*
%TO.C,J1*%
X2000000Y-11000000D03*
D20*
X2000000Y-9730000D03*
X2000000Y-8460000D03*
%TD*%
D11*
%TO.C,R11*%
X32490000Y-4300000D03*
X33510000Y-4300000D03*
%TD*%
D12*
%TO.C,R1*%
X8290000Y-3900000D03*
X9310000Y-3900000D03*
%TD*%
D22*
%TO.C,C17*%
X6642500Y-12900000D03*
X5682500Y-12900000D03*
%TD*%
D12*
%TO.C,R2*%
X8290000Y-5200000D03*
X9310000Y-5200000D03*
%TD*%
D23*
%TO.C,U1*%
X14625000Y-14495000D03*
X14625000Y-15765000D03*
X14625000Y-17035000D03*
X14625000Y-18305000D03*
X19575000Y-18305000D03*
X19575000Y-17035000D03*
X19575000Y-15765000D03*
X19575000Y-14495000D03*
%TD*%
D18*
%TO.C,H1*%
X3000000Y-3000000D03*
%TD*%
D19*
%TO.C,J3*%
X30000000Y-18000000D03*
D20*
X31270000Y-18000000D03*
X32540000Y-18000000D03*
X33810000Y-18000000D03*
X35080000Y-18000000D03*
%TD*%
D11*
%TO.C,R3*%
X26610000Y-9980000D03*
X25590000Y-9980000D03*
%TD*%
D21*
%TO.C,H8*%
X34000000Y-10000000D03*
%TD*%
D25*
%TO.C,R7*%
X26244665Y-18000000D03*
D26*
X22994665Y-17000000D03*
D25*
X26244665Y-16000000D03*
%TD*%
D13*
%TO.C,C14*%
X18120000Y-1800000D03*
X19080000Y-1800000D03*
%TD*%
D17*
%TO.C,C8*%
X13085500Y-9040000D03*
X13085500Y-10000000D03*
%TD*%
D21*
%TO.C,H6*%
X8000000Y-10000000D03*
%TD*%
D13*
%TO.C,C4*%
X27800000Y-10000000D03*
X28760000Y-10000000D03*
%TD*%
D22*
%TO.C,C16*%
X7800000Y-18031250D03*
X6840000Y-18031250D03*
%TD*%
D14*
%TO.C,C3*%
X30000000Y-12060000D03*
X30000000Y-11100000D03*
%TD*%
D24*
%TO.C,R8*%
X11800000Y-15690000D03*
X11800000Y-16710000D03*
%TD*%
D14*
%TO.C,C6*%
X19000000Y-5980000D03*
X19000000Y-5020000D03*
%TD*%
D17*
%TO.C,C10*%
X16500000Y-9020000D03*
X16500000Y-9980000D03*
%TD*%
D15*
%TO.C,R6*%
X13075000Y-11800000D03*
X14725000Y-11800000D03*
%TD*%
D18*
%TO.C,H3*%
X39000000Y-3000000D03*
%TD*%
M02*
