%TF.GenerationSoftware,KiCad,Pcbnew,(6.99.0)*%
%TF.CreationDate,2023-04-20T01:20:35-07:00*%
%TF.ProjectId,emg-analog-front-end,656d672d-616e-4616-9c6f-672d66726f6e,rev?*%
%TF.SameCoordinates,Original*%
%TF.FileFunction,Copper,L2,Bot*%
%TF.FilePolarity,Positive*%
%FSLAX46Y46*%
G04 Gerber Fmt 4.6, Leading zero omitted, Abs format (unit mm)*
G04 Created by KiCad (PCBNEW (6.99.0)) date 2023-04-20 01:20:35*
%MOMM*%
%LPD*%
G01*
G04 APERTURE LIST*
%TA.AperFunction,ComponentPad*%
%ADD10R,1.000000X1.000000*%
%TD*%
%TA.AperFunction,ComponentPad*%
%ADD11O,1.000000X1.000000*%
%TD*%
%TA.AperFunction,ComponentPad*%
%ADD12C,3.500000*%
%TD*%
%TA.AperFunction,ViaPad*%
%ADD13C,0.800000*%
%TD*%
%TA.AperFunction,Conductor*%
%ADD14C,0.254000*%
%TD*%
%TA.AperFunction,Conductor*%
%ADD15C,0.355600*%
%TD*%
%TA.AperFunction,Conductor*%
%ADD16C,0.203200*%
%TD*%
%TA.AperFunction,Conductor*%
%ADD17C,0.250000*%
%TD*%
G04 APERTURE END LIST*
D10*
%TO.P,J2,1,Pin_1*%
%TO.N,GND*%
X30000000Y-2000000D03*
D11*
%TO.P,J2,2,Pin_2*%
%TO.N,VDD*%
X31270000Y-2000000D03*
%TO.P,J2,3,Pin_3*%
%TO.N,AOUT*%
X32540000Y-2000000D03*
%TO.P,J2,4,Pin_4*%
%TO.N,AOUT1*%
X33810000Y-2000000D03*
%TO.P,J2,5,Pin_5*%
%TO.N,-VDD*%
X35080000Y-2000000D03*
%TD*%
D12*
%TO.P,H7,1,1*%
%TO.N,Net-(H7-Pad1)*%
X21000000Y-10000000D03*
%TD*%
D10*
%TO.P,J1,1,Pin_1*%
%TO.N,GND*%
X2000000Y-11000000D03*
D11*
%TO.P,J1,2,Pin_2*%
%TO.N,E+*%
X2000000Y-9730000D03*
%TO.P,J1,3,Pin_3*%
%TO.N,E-*%
X2000000Y-8460000D03*
%TD*%
D10*
%TO.P,J3,1,Pin_1*%
%TO.N,GND*%
X30000000Y-18000000D03*
D11*
%TO.P,J3,2,Pin_2*%
%TO.N,VDD*%
X31270000Y-18000000D03*
%TO.P,J3,3,Pin_3*%
%TO.N,AOUT*%
X32540000Y-18000000D03*
%TO.P,J3,4,Pin_4*%
%TO.N,AOUT1*%
X33810000Y-18000000D03*
%TO.P,J3,5,Pin_5*%
%TO.N,-VDD*%
X35080000Y-18000000D03*
%TD*%
D12*
%TO.P,H8,1,1*%
%TO.N,Net-(H8-Pad1)*%
X34000000Y-10000000D03*
%TD*%
%TO.P,H6,1,1*%
%TO.N,Net-(H6-Pad1)*%
X8000000Y-10000000D03*
%TD*%
D13*
%TO.N,-VDD*%
X10900000Y-13600000D03*
%TO.N,VDD*%
X10700000Y-15431250D03*
%TO.N,GND*%
X4500000Y-13300000D03*
X10600000Y-18700000D03*
%TO.N,-VDD*%
X12900000Y-16700000D03*
%TO.N,GND*%
X9237500Y-17631250D03*
%TO.N,VDD*%
X23200000Y-7800000D03*
%TO.N,E-*%
X5800000Y-7600000D03*
%TO.N,E+*%
X30500000Y-13700000D03*
%TO.N,GND*%
X32200000Y-5400000D03*
%TO.N,VDD*%
X17400000Y-12900000D03*
%TO.N,-VDD*%
X28600000Y-15000000D03*
%TO.N,VDD*%
X14100000Y-5000000D03*
%TO.N,GND*%
X16500000Y-11600000D03*
X17000000Y-1800000D03*
%TO.N,-VDD*%
X16500000Y-18300000D03*
X32400000Y-7700000D03*
%TO.N,HPF_OUT*%
X17900000Y-9500000D03*
X22700000Y-5200000D03*
%TO.N,Net-(C14-Pad2)*%
X20100000Y-6100000D03*
X20100000Y-700000D03*
%TO.N,NOTCH_OUT*%
X26500000Y-7500000D03*
X22300000Y-4000000D03*
%TO.N,AMP_IN*%
X27700000Y-8100000D03*
X16700000Y-16300000D03*
%TO.N,Net-(R7-Pad3)*%
X33500000Y-5500000D03*
X26400000Y-14400000D03*
%TD*%
D14*
%TO.N,VDD*%
X10700000Y-15431250D02*
X10700000Y-14900000D01*
X10700000Y-14900000D02*
X10100000Y-14300000D01*
X10100000Y-14300000D02*
X10100000Y-13200000D01*
X10100000Y-13200000D02*
X10800000Y-12500000D01*
X10800000Y-12500000D02*
X13600000Y-12500000D01*
X13600000Y-12500000D02*
X14100000Y-12000000D01*
X14100000Y-12000000D02*
X14100000Y-5000000D01*
%TO.N,-VDD*%
X10900000Y-13600000D02*
X12900000Y-15600000D01*
X12900000Y-15600000D02*
X12900000Y-16700000D01*
X16500000Y-18300000D02*
X16600000Y-18400000D01*
X16600000Y-18400000D02*
X24300000Y-18400000D01*
X24300000Y-18400000D02*
X27700000Y-15000000D01*
%TO.N,GND*%
X4500000Y-13900000D02*
X8231250Y-17631250D01*
X4500000Y-13300000D02*
X4500000Y-13900000D01*
X8231250Y-17631250D02*
X9237500Y-17631250D01*
X9237500Y-17631250D02*
X10306250Y-18700000D01*
X10306250Y-18700000D02*
X10600000Y-18700000D01*
D15*
%TO.N,E+*%
X30500000Y-13700000D02*
X29500000Y-14700000D01*
X12700000Y-19200000D02*
X3230000Y-9730000D01*
X29500000Y-14700000D02*
X29500000Y-16100000D01*
X29500000Y-16100000D02*
X26400000Y-19200000D01*
X3230000Y-9730000D02*
X2000000Y-9730000D01*
X26400000Y-19200000D02*
X12700000Y-19200000D01*
D16*
%TO.N,VDD*%
X17400000Y-12900000D02*
X22100000Y-12900000D01*
X23200000Y-7900000D02*
X23200000Y-7800000D01*
X22100000Y-12900000D02*
X23400000Y-11600000D01*
X23400000Y-11600000D02*
X23400000Y-8100000D01*
X23400000Y-8100000D02*
X23200000Y-7900000D01*
D17*
%TO.N,HPF_OUT*%
X17900000Y-9500000D02*
X22200000Y-5200000D01*
X22200000Y-5200000D02*
X22700000Y-5200000D01*
D15*
%TO.N,E-*%
X5800000Y-7600000D02*
X4940000Y-8460000D01*
X4940000Y-8460000D02*
X2000000Y-8460000D01*
D17*
%TO.N,AMP_IN*%
X16700000Y-16300000D02*
X17500000Y-15500000D01*
X17500000Y-15500000D02*
X22000000Y-15500000D01*
X22000000Y-15500000D02*
X27700000Y-9800000D01*
X27700000Y-9800000D02*
X27700000Y-8100000D01*
D14*
%TO.N,GND*%
X32200000Y-5400000D02*
X30000000Y-3200000D01*
X30000000Y-3200000D02*
X30000000Y-2000000D01*
%TO.N,Net-(R7-Pad3)*%
X26400000Y-12400000D02*
X26400000Y-14400000D01*
X33300000Y-5500000D02*
X26400000Y-12400000D01*
X33500000Y-5500000D02*
X33300000Y-5500000D01*
%TO.N,-VDD*%
X27700000Y-15000000D02*
X28600000Y-15000000D01*
D16*
%TO.N,NOTCH_OUT*%
X26500000Y-7500000D02*
X26500000Y-5900000D01*
X26500000Y-5900000D02*
X24600000Y-4000000D01*
X24600000Y-4000000D02*
X22300000Y-4000000D01*
D17*
%TO.N,GND*%
X17000000Y-11100000D02*
X16500000Y-11600000D01*
X17000000Y-1800000D02*
X17000000Y-11100000D01*
D16*
%TO.N,Net-(C14-Pad2)*%
X20100000Y-6100000D02*
X20100000Y-700000D01*
D15*
%TO.N,AOUT*%
X32540000Y-18000000D02*
X32540000Y-16560000D01*
X32540000Y-16560000D02*
X36600000Y-12500000D01*
X36600000Y-12500000D02*
X36600000Y-7400000D01*
X36600000Y-7400000D02*
X32540000Y-3340000D01*
X32540000Y-3340000D02*
X32540000Y-2000000D01*
%TO.N,AOUT1*%
X33810000Y-2000000D02*
X33810000Y-3610000D01*
X33810000Y-3610000D02*
X37300000Y-7100000D01*
X37300000Y-7100000D02*
X37300000Y-12900000D01*
X37300000Y-12900000D02*
X33810000Y-16390000D01*
X33810000Y-16390000D02*
X33810000Y-18000000D01*
D14*
%TO.N,-VDD*%
X27700000Y-12400000D02*
X27700000Y-15000000D01*
X32400000Y-7700000D02*
X27700000Y-12400000D01*
%TD*%
%TA.AperFunction,Conductor*%
%TO.N,VDD*%
G36*
X41434121Y-528002D02*
G01*
X41480614Y-581658D01*
X41492000Y-634000D01*
X41492000Y-19366000D01*
X41471998Y-19434121D01*
X41418342Y-19480614D01*
X41366000Y-19492000D01*
X27382765Y-19492000D01*
X27314644Y-19471998D01*
X27268151Y-19418342D01*
X27258047Y-19348068D01*
X27287541Y-19283488D01*
X27293670Y-19276905D01*
X28776405Y-17794169D01*
X28838717Y-17760144D01*
X28909532Y-17765208D01*
X28966368Y-17807755D01*
X28991179Y-17874275D01*
X28991500Y-17883264D01*
X28991500Y-18548134D01*
X28998255Y-18610316D01*
X29049385Y-18746705D01*
X29136739Y-18863261D01*
X29253295Y-18950615D01*
X29389684Y-19001745D01*
X29451866Y-19008500D01*
X30548134Y-19008500D01*
X30610316Y-19001745D01*
X30746705Y-18950615D01*
X30753892Y-18945229D01*
X30761760Y-18940921D01*
X30762891Y-18942987D01*
X30817418Y-18922618D01*
X30865408Y-18928459D01*
X30998769Y-18971790D01*
X31012867Y-18972193D01*
X31016000Y-18965821D01*
X31016000Y-17042076D01*
X31012027Y-17028545D01*
X31004232Y-17027425D01*
X30896479Y-17059138D01*
X30879396Y-17066040D01*
X30878941Y-17064914D01*
X30815604Y-17077498D01*
X30762772Y-17057230D01*
X30761760Y-17059079D01*
X30753892Y-17054771D01*
X30746705Y-17049385D01*
X30610316Y-16998255D01*
X30548134Y-16991500D01*
X29883264Y-16991500D01*
X29815143Y-16971498D01*
X29768650Y-16917842D01*
X29758546Y-16847568D01*
X29788040Y-16782988D01*
X29794169Y-16776405D01*
X29965366Y-16605208D01*
X29971631Y-16599354D01*
X29997558Y-16576736D01*
X30013766Y-16562597D01*
X30049291Y-16512050D01*
X30053224Y-16506754D01*
X30086661Y-16464110D01*
X30091348Y-16458133D01*
X30094475Y-16451208D01*
X30096947Y-16447126D01*
X30102658Y-16437114D01*
X30104912Y-16432910D01*
X30109281Y-16426694D01*
X30112040Y-16419618D01*
X30112042Y-16419614D01*
X30131722Y-16369137D01*
X30134278Y-16363056D01*
X30156580Y-16313662D01*
X30159706Y-16306739D01*
X30161091Y-16299265D01*
X30162521Y-16294702D01*
X30165672Y-16283644D01*
X30166864Y-16279002D01*
X30169621Y-16271930D01*
X30177685Y-16210678D01*
X30178717Y-16204163D01*
X30180251Y-16195890D01*
X30189977Y-16143410D01*
X30189377Y-16132995D01*
X30186509Y-16083264D01*
X30186300Y-16076011D01*
X30186300Y-15036465D01*
X30206302Y-14968344D01*
X30223205Y-14947370D01*
X30527375Y-14643200D01*
X30589687Y-14609174D01*
X30593879Y-14608500D01*
X30595487Y-14608500D01*
X30600478Y-14607439D01*
X30600485Y-14607438D01*
X30682861Y-14589928D01*
X30782288Y-14568794D01*
X30872786Y-14528502D01*
X30950722Y-14493803D01*
X30950724Y-14493802D01*
X30956752Y-14491118D01*
X31111253Y-14378866D01*
X31143061Y-14343540D01*
X31234621Y-14241852D01*
X31234622Y-14241851D01*
X31239040Y-14236944D01*
X31334527Y-14071556D01*
X31393542Y-13889928D01*
X31395766Y-13868774D01*
X31412814Y-13706565D01*
X31413504Y-13700000D01*
X31402137Y-13591852D01*
X31394232Y-13516635D01*
X31394232Y-13516633D01*
X31393542Y-13510072D01*
X31334527Y-13328444D01*
X31239040Y-13163056D01*
X31197243Y-13116635D01*
X31115675Y-13026045D01*
X31115674Y-13026044D01*
X31111253Y-13021134D01*
X30975800Y-12922721D01*
X30962094Y-12912763D01*
X30962093Y-12912762D01*
X30956752Y-12908882D01*
X30950724Y-12906198D01*
X30950722Y-12906197D01*
X30788319Y-12833891D01*
X30788318Y-12833891D01*
X30782288Y-12831206D01*
X30688888Y-12811353D01*
X30601944Y-12792872D01*
X30601939Y-12792872D01*
X30595487Y-12791500D01*
X30404513Y-12791500D01*
X30398061Y-12792872D01*
X30398056Y-12792872D01*
X30311112Y-12811353D01*
X30217712Y-12831206D01*
X30211682Y-12833891D01*
X30211681Y-12833891D01*
X30049278Y-12906197D01*
X30049276Y-12906198D01*
X30043248Y-12908882D01*
X30037907Y-12912762D01*
X30037906Y-12912763D01*
X30024200Y-12922721D01*
X29888747Y-13021134D01*
X29884326Y-13026044D01*
X29884325Y-13026045D01*
X29802758Y-13116635D01*
X29760960Y-13163056D01*
X29665473Y-13328444D01*
X29606458Y-13510072D01*
X29605768Y-13516633D01*
X29605768Y-13516635D01*
X29597863Y-13591852D01*
X29570850Y-13657509D01*
X29561648Y-13667778D01*
X29092931Y-14136494D01*
X29030619Y-14170519D01*
X28959803Y-14165454D01*
X28952588Y-14162505D01*
X28888324Y-14133893D01*
X28888321Y-14133892D01*
X28882288Y-14131206D01*
X28840660Y-14122358D01*
X28701944Y-14092872D01*
X28701939Y-14092872D01*
X28695487Y-14091500D01*
X28504513Y-14091500D01*
X28498058Y-14092872D01*
X28498049Y-14092873D01*
X28487694Y-14095074D01*
X28416904Y-14089671D01*
X28360272Y-14046853D01*
X28335780Y-13980215D01*
X28335500Y-13971827D01*
X28335500Y-12715422D01*
X28355502Y-12647301D01*
X28372405Y-12626327D01*
X31576990Y-9421742D01*
X31639302Y-9387716D01*
X31710117Y-9392781D01*
X31766953Y-9435328D01*
X31791764Y-9501848D01*
X31789664Y-9535418D01*
X31756821Y-9700532D01*
X31756017Y-9704574D01*
X31755748Y-9708679D01*
X31755747Y-9708686D01*
X31741972Y-9918858D01*
X31736654Y-10000000D01*
X31736924Y-10004119D01*
X31755735Y-10291118D01*
X31756017Y-10295426D01*
X31756819Y-10299459D01*
X31756820Y-10299465D01*
X31788679Y-10459627D01*
X31813776Y-10585797D01*
X31815103Y-10589706D01*
X31815104Y-10589710D01*
X31864047Y-10733891D01*
X31908941Y-10866145D01*
X31970852Y-10991687D01*
X32034157Y-11120057D01*
X32039885Y-11131673D01*
X32042179Y-11135106D01*
X32180422Y-11342001D01*
X32204367Y-11377838D01*
X32207081Y-11380932D01*
X32207085Y-11380938D01*
X32347387Y-11540921D01*
X32399573Y-11600427D01*
X32402662Y-11603136D01*
X32619062Y-11792915D01*
X32619068Y-11792919D01*
X32622162Y-11795633D01*
X32625588Y-11797922D01*
X32625593Y-11797926D01*
X32731428Y-11868642D01*
X32868327Y-11960115D01*
X32872026Y-11961939D01*
X32872031Y-11961942D01*
X32947119Y-11998971D01*
X33133855Y-12091059D01*
X33137760Y-12092384D01*
X33137761Y-12092385D01*
X33410290Y-12184896D01*
X33410294Y-12184897D01*
X33414203Y-12186224D01*
X33418247Y-12187028D01*
X33418253Y-12187030D01*
X33700535Y-12243180D01*
X33700541Y-12243181D01*
X33704574Y-12243983D01*
X33708679Y-12244252D01*
X33708686Y-12244253D01*
X33995881Y-12263076D01*
X34000000Y-12263346D01*
X34004119Y-12263076D01*
X34291314Y-12244253D01*
X34291321Y-12244252D01*
X34295426Y-12243983D01*
X34299459Y-12243181D01*
X34299465Y-12243180D01*
X34581747Y-12187030D01*
X34581753Y-12187028D01*
X34585797Y-12186224D01*
X34589706Y-12184897D01*
X34589710Y-12184896D01*
X34862239Y-12092385D01*
X34862240Y-12092384D01*
X34866145Y-12091059D01*
X35052881Y-11998971D01*
X35127969Y-11961942D01*
X35127974Y-11961939D01*
X35131673Y-11960115D01*
X35268572Y-11868642D01*
X35374407Y-11797926D01*
X35374412Y-11797922D01*
X35377838Y-11795633D01*
X35380932Y-11792919D01*
X35380938Y-11792915D01*
X35597338Y-11603136D01*
X35600427Y-11600427D01*
X35652613Y-11540921D01*
X35692968Y-11494905D01*
X35752922Y-11456878D01*
X35823917Y-11457300D01*
X35883414Y-11496039D01*
X35912522Y-11560794D01*
X35913700Y-11577983D01*
X35913700Y-12163535D01*
X35893698Y-12231656D01*
X35876795Y-12252630D01*
X32074634Y-16054792D01*
X32068369Y-16060646D01*
X32026234Y-16097403D01*
X32001875Y-16132062D01*
X31990709Y-16147950D01*
X31986776Y-16153246D01*
X31948652Y-16201867D01*
X31945525Y-16208792D01*
X31943053Y-16212874D01*
X31937342Y-16222886D01*
X31935088Y-16227090D01*
X31930719Y-16233306D01*
X31927960Y-16240382D01*
X31927958Y-16240386D01*
X31908278Y-16290863D01*
X31905722Y-16296944D01*
X31880294Y-16353261D01*
X31878909Y-16360735D01*
X31877479Y-16365298D01*
X31874328Y-16376356D01*
X31873136Y-16380998D01*
X31870379Y-16388070D01*
X31869388Y-16395598D01*
X31862315Y-16449321D01*
X31861285Y-16455824D01*
X31850023Y-16516590D01*
X31850460Y-16524170D01*
X31850460Y-16524171D01*
X31853491Y-16576736D01*
X31853700Y-16583989D01*
X31853700Y-16958277D01*
X31833698Y-17026398D01*
X31780042Y-17072891D01*
X31709768Y-17082995D01*
X31673812Y-17071109D01*
X31673611Y-17071586D01*
X31656619Y-17064444D01*
X31541308Y-17028750D01*
X31527205Y-17028544D01*
X31524000Y-17035299D01*
X31524000Y-18957564D01*
X31527973Y-18971095D01*
X31536188Y-18972276D01*
X31630337Y-18945989D01*
X31641787Y-18941548D01*
X31807226Y-18857979D01*
X31817588Y-18851403D01*
X31826074Y-18844773D01*
X31892068Y-18818595D01*
X31965117Y-18834074D01*
X32134294Y-18928624D01*
X32322392Y-18989740D01*
X32518777Y-19013158D01*
X32524912Y-19012686D01*
X32524914Y-19012686D01*
X32709830Y-18998457D01*
X32709834Y-18998456D01*
X32715972Y-18997984D01*
X32906463Y-18944798D01*
X32911967Y-18942018D01*
X32911969Y-18942017D01*
X33077493Y-18858405D01*
X33077495Y-18858404D01*
X33082996Y-18855625D01*
X33087850Y-18851833D01*
X33087859Y-18851827D01*
X33096548Y-18845038D01*
X33162542Y-18818860D01*
X33235592Y-18834339D01*
X33404294Y-18928624D01*
X33592392Y-18989740D01*
X33788777Y-19013158D01*
X33794912Y-19012686D01*
X33794914Y-19012686D01*
X33979830Y-18998457D01*
X33979834Y-18998456D01*
X33985972Y-18997984D01*
X34176463Y-18944798D01*
X34181967Y-18942018D01*
X34181969Y-18942017D01*
X34347493Y-18858405D01*
X34347495Y-18858404D01*
X34352996Y-18855625D01*
X34357850Y-18851833D01*
X34357859Y-18851827D01*
X34366548Y-18845038D01*
X34432542Y-18818860D01*
X34505592Y-18834339D01*
X34674294Y-18928624D01*
X34862392Y-18989740D01*
X35058777Y-19013158D01*
X35064912Y-19012686D01*
X35064914Y-19012686D01*
X35249830Y-18998457D01*
X35249834Y-18998456D01*
X35255972Y-18997984D01*
X35446463Y-18944798D01*
X35451967Y-18942018D01*
X35451969Y-18942017D01*
X35617495Y-18858404D01*
X35617497Y-18858403D01*
X35622996Y-18855625D01*
X35778847Y-18733861D01*
X35885488Y-18610316D01*
X35904049Y-18588813D01*
X35904050Y-18588811D01*
X35908078Y-18584145D01*
X36005769Y-18412179D01*
X36068197Y-18224513D01*
X36092985Y-18028295D01*
X36093380Y-18000000D01*
X36074080Y-17803167D01*
X36071364Y-17794169D01*
X36022175Y-17631250D01*
X36016916Y-17613831D01*
X35924066Y-17439204D01*
X35831890Y-17326185D01*
X35802960Y-17290713D01*
X35802957Y-17290710D01*
X35799065Y-17285938D01*
X35794316Y-17282009D01*
X35651425Y-17163799D01*
X35651421Y-17163797D01*
X35646675Y-17159870D01*
X35472701Y-17065802D01*
X35283768Y-17007318D01*
X35277643Y-17006674D01*
X35277642Y-17006674D01*
X35214142Y-17000000D01*
X37386526Y-17000000D01*
X37406391Y-17252403D01*
X37407545Y-17257210D01*
X37407546Y-17257216D01*
X37414442Y-17285938D01*
X37465495Y-17498591D01*
X37467388Y-17503162D01*
X37467389Y-17503164D01*
X37515968Y-17620443D01*
X37562384Y-17732502D01*
X37694672Y-17948376D01*
X37859102Y-18140898D01*
X38051624Y-18305328D01*
X38267498Y-18437616D01*
X38272068Y-18439509D01*
X38272072Y-18439511D01*
X38444228Y-18510820D01*
X38501409Y-18534505D01*
X38572328Y-18551531D01*
X38742784Y-18592454D01*
X38742790Y-18592455D01*
X38747597Y-18593609D01*
X38847416Y-18601465D01*
X38934345Y-18608307D01*
X38934352Y-18608307D01*
X38936801Y-18608500D01*
X39063199Y-18608500D01*
X39065648Y-18608307D01*
X39065655Y-18608307D01*
X39152584Y-18601465D01*
X39252403Y-18593609D01*
X39257210Y-18592455D01*
X39257216Y-18592454D01*
X39427672Y-18551531D01*
X39498591Y-18534505D01*
X39555772Y-18510820D01*
X39727928Y-18439511D01*
X39727932Y-18439509D01*
X39732502Y-18437616D01*
X39948376Y-18305328D01*
X40140898Y-18140898D01*
X40305328Y-17948376D01*
X40437616Y-17732502D01*
X40484033Y-17620443D01*
X40532611Y-17503164D01*
X40532612Y-17503162D01*
X40534505Y-17498591D01*
X40585558Y-17285938D01*
X40592454Y-17257216D01*
X40592455Y-17257210D01*
X40593609Y-17252403D01*
X40613474Y-17000000D01*
X40593609Y-16747597D01*
X40589219Y-16729309D01*
X40543613Y-16539346D01*
X40534505Y-16501409D01*
X40532350Y-16496206D01*
X40439511Y-16272072D01*
X40439509Y-16272068D01*
X40437616Y-16267498D01*
X40305328Y-16051624D01*
X40140898Y-15859102D01*
X39948376Y-15694672D01*
X39732502Y-15562384D01*
X39727932Y-15560491D01*
X39727928Y-15560489D01*
X39503164Y-15467389D01*
X39503162Y-15467388D01*
X39498591Y-15465495D01*
X39366950Y-15433891D01*
X39257216Y-15407546D01*
X39257210Y-15407545D01*
X39252403Y-15406391D01*
X39152584Y-15398535D01*
X39065655Y-15391693D01*
X39065648Y-15391693D01*
X39063199Y-15391500D01*
X38936801Y-15391500D01*
X38934352Y-15391693D01*
X38934345Y-15391693D01*
X38847416Y-15398535D01*
X38747597Y-15406391D01*
X38742790Y-15407545D01*
X38742784Y-15407546D01*
X38633050Y-15433891D01*
X38501409Y-15465495D01*
X38496838Y-15467388D01*
X38496836Y-15467389D01*
X38272072Y-15560489D01*
X38272068Y-15560491D01*
X38267498Y-15562384D01*
X38051624Y-15694672D01*
X37859102Y-15859102D01*
X37694672Y-16051624D01*
X37562384Y-16267498D01*
X37560491Y-16272068D01*
X37560489Y-16272072D01*
X37467650Y-16496206D01*
X37465495Y-16501409D01*
X37456387Y-16539346D01*
X37410782Y-16729309D01*
X37406391Y-16747597D01*
X37386526Y-17000000D01*
X35214142Y-17000000D01*
X35093204Y-16987289D01*
X35093202Y-16987289D01*
X35087075Y-16986645D01*
X35004576Y-16994153D01*
X34896251Y-17004011D01*
X34896248Y-17004012D01*
X34890112Y-17004570D01*
X34884206Y-17006308D01*
X34884202Y-17006309D01*
X34807954Y-17028750D01*
X34700381Y-17060410D01*
X34694916Y-17063267D01*
X34680677Y-17070711D01*
X34611042Y-17084546D01*
X34544981Y-17058537D01*
X34503468Y-17000942D01*
X34496300Y-16959050D01*
X34496300Y-16726465D01*
X34516302Y-16658344D01*
X34533205Y-16637370D01*
X37765374Y-13405201D01*
X37771639Y-13399347D01*
X37772026Y-13399010D01*
X37813766Y-13362597D01*
X37818134Y-13356383D01*
X37818136Y-13356380D01*
X37849283Y-13312064D01*
X37853213Y-13306772D01*
X37886660Y-13264114D01*
X37886663Y-13264109D01*
X37891348Y-13258134D01*
X37894475Y-13251210D01*
X37896956Y-13247112D01*
X37902651Y-13237127D01*
X37904911Y-13232911D01*
X37909281Y-13226694D01*
X37931727Y-13169125D01*
X37934283Y-13163046D01*
X37956578Y-13113666D01*
X37959706Y-13106739D01*
X37961091Y-13099265D01*
X37962525Y-13094690D01*
X37965672Y-13083644D01*
X37966864Y-13079002D01*
X37969621Y-13071930D01*
X37977685Y-13010678D01*
X37978717Y-13004163D01*
X37988593Y-12950876D01*
X37989977Y-12943410D01*
X37989477Y-12934729D01*
X37986509Y-12883264D01*
X37986300Y-12876011D01*
X37986300Y-7128144D01*
X37986592Y-7119574D01*
X37989877Y-7071394D01*
X37989877Y-7071390D01*
X37990393Y-7063818D01*
X37979769Y-7002947D01*
X37978807Y-6996425D01*
X37972297Y-6942632D01*
X37971385Y-6935092D01*
X37968700Y-6927987D01*
X37967568Y-6923377D01*
X37964519Y-6912229D01*
X37963139Y-6907661D01*
X37961834Y-6900181D01*
X37936998Y-6843603D01*
X37934517Y-6837523D01*
X37915353Y-6786806D01*
X37915352Y-6786803D01*
X37912669Y-6779704D01*
X37908368Y-6773446D01*
X37906168Y-6769238D01*
X37900560Y-6759162D01*
X37898120Y-6755035D01*
X37895066Y-6748079D01*
X37890443Y-6742054D01*
X37890440Y-6742049D01*
X37857466Y-6699076D01*
X37853590Y-6693741D01*
X37822890Y-6649073D01*
X37822885Y-6649067D01*
X37818583Y-6642808D01*
X37773587Y-6602718D01*
X37768312Y-6597738D01*
X34533205Y-3362631D01*
X34499179Y-3300319D01*
X34496300Y-3273536D01*
X34496300Y-3042752D01*
X34516302Y-2974631D01*
X34569958Y-2928138D01*
X34640232Y-2918034D01*
X34671041Y-2926806D01*
X34674294Y-2928624D01*
X34862392Y-2989740D01*
X35058777Y-3013158D01*
X35064912Y-3012686D01*
X35064914Y-3012686D01*
X35229778Y-3000000D01*
X37386526Y-3000000D01*
X37406391Y-3252403D01*
X37407545Y-3257210D01*
X37407546Y-3257216D01*
X37438607Y-3386594D01*
X37465495Y-3498591D01*
X37467388Y-3503162D01*
X37467389Y-3503164D01*
X37545575Y-3691921D01*
X37562384Y-3732502D01*
X37694672Y-3948376D01*
X37859102Y-4140898D01*
X38051624Y-4305328D01*
X38267498Y-4437616D01*
X38272068Y-4439509D01*
X38272072Y-4439511D01*
X38496836Y-4532611D01*
X38501409Y-4534505D01*
X38586032Y-4554821D01*
X38742784Y-4592454D01*
X38742790Y-4592455D01*
X38747597Y-4593609D01*
X38847416Y-4601465D01*
X38934345Y-4608307D01*
X38934352Y-4608307D01*
X38936801Y-4608500D01*
X39063199Y-4608500D01*
X39065648Y-4608307D01*
X39065655Y-4608307D01*
X39152584Y-4601465D01*
X39252403Y-4593609D01*
X39257210Y-4592455D01*
X39257216Y-4592454D01*
X39413968Y-4554821D01*
X39498591Y-4534505D01*
X39503164Y-4532611D01*
X39727928Y-4439511D01*
X39727932Y-4439509D01*
X39732502Y-4437616D01*
X39948376Y-4305328D01*
X40140898Y-4140898D01*
X40305328Y-3948376D01*
X40437616Y-3732502D01*
X40454426Y-3691921D01*
X40532611Y-3503164D01*
X40532612Y-3503162D01*
X40534505Y-3498591D01*
X40561393Y-3386594D01*
X40592454Y-3257216D01*
X40592455Y-3257210D01*
X40593609Y-3252403D01*
X40613474Y-3000000D01*
X40613077Y-2994949D01*
X40601812Y-2851829D01*
X40593609Y-2747597D01*
X40591377Y-2738297D01*
X40545920Y-2548956D01*
X40534505Y-2501409D01*
X40497545Y-2412179D01*
X40439511Y-2272072D01*
X40439509Y-2272068D01*
X40437616Y-2267498D01*
X40305328Y-2051624D01*
X40140898Y-1859102D01*
X39948376Y-1694672D01*
X39732502Y-1562384D01*
X39727932Y-1560491D01*
X39727928Y-1560489D01*
X39503164Y-1467389D01*
X39503162Y-1467388D01*
X39498591Y-1465495D01*
X39389080Y-1439204D01*
X39257216Y-1407546D01*
X39257210Y-1407545D01*
X39252403Y-1406391D01*
X39139943Y-1397540D01*
X39065655Y-1391693D01*
X39065648Y-1391693D01*
X39063199Y-1391500D01*
X38936801Y-1391500D01*
X38934352Y-1391693D01*
X38934345Y-1391693D01*
X38860057Y-1397540D01*
X38747597Y-1406391D01*
X38742790Y-1407545D01*
X38742784Y-1407546D01*
X38610920Y-1439204D01*
X38501409Y-1465495D01*
X38496838Y-1467388D01*
X38496836Y-1467389D01*
X38272072Y-1560489D01*
X38272068Y-1560491D01*
X38267498Y-1562384D01*
X38051624Y-1694672D01*
X37859102Y-1859102D01*
X37694672Y-2051624D01*
X37562384Y-2267498D01*
X37560491Y-2272068D01*
X37560489Y-2272072D01*
X37502455Y-2412179D01*
X37465495Y-2501409D01*
X37454080Y-2548956D01*
X37408624Y-2738297D01*
X37406391Y-2747597D01*
X37398188Y-2851829D01*
X37386924Y-2994949D01*
X37386526Y-3000000D01*
X35229778Y-3000000D01*
X35249830Y-2998457D01*
X35249834Y-2998456D01*
X35255972Y-2997984D01*
X35446463Y-2944798D01*
X35451967Y-2942018D01*
X35451969Y-2942017D01*
X35617495Y-2858404D01*
X35617497Y-2858403D01*
X35622996Y-2855625D01*
X35778847Y-2733861D01*
X35908078Y-2584145D01*
X36005769Y-2412179D01*
X36068197Y-2224513D01*
X36092985Y-2028295D01*
X36093380Y-2000000D01*
X36074080Y-1803167D01*
X36016916Y-1613831D01*
X35924066Y-1439204D01*
X35846585Y-1344203D01*
X35802960Y-1290713D01*
X35802957Y-1290710D01*
X35799065Y-1285938D01*
X35794316Y-1282009D01*
X35651425Y-1163799D01*
X35651421Y-1163797D01*
X35646675Y-1159870D01*
X35472701Y-1065802D01*
X35283768Y-1007318D01*
X35277643Y-1006674D01*
X35277642Y-1006674D01*
X35093204Y-987289D01*
X35093202Y-987289D01*
X35087075Y-986645D01*
X35004576Y-994153D01*
X34896251Y-1004011D01*
X34896248Y-1004012D01*
X34890112Y-1004570D01*
X34884206Y-1006308D01*
X34884202Y-1006309D01*
X34807954Y-1028750D01*
X34700381Y-1060410D01*
X34694923Y-1063263D01*
X34694919Y-1063265D01*
X34599135Y-1113340D01*
X34525110Y-1152040D01*
X34520310Y-1155900D01*
X34515153Y-1159274D01*
X34513769Y-1157158D01*
X34458365Y-1180027D01*
X34388512Y-1167334D01*
X34378898Y-1161709D01*
X34376675Y-1159870D01*
X34202701Y-1065802D01*
X34013768Y-1007318D01*
X34007643Y-1006674D01*
X34007642Y-1006674D01*
X33823204Y-987289D01*
X33823202Y-987289D01*
X33817075Y-986645D01*
X33734576Y-994153D01*
X33626251Y-1004011D01*
X33626248Y-1004012D01*
X33620112Y-1004570D01*
X33614206Y-1006308D01*
X33614202Y-1006309D01*
X33537954Y-1028750D01*
X33430381Y-1060410D01*
X33424923Y-1063263D01*
X33424919Y-1063265D01*
X33329135Y-1113340D01*
X33255110Y-1152040D01*
X33250310Y-1155900D01*
X33245153Y-1159274D01*
X33243769Y-1157158D01*
X33188365Y-1180027D01*
X33118512Y-1167334D01*
X33108898Y-1161709D01*
X33106675Y-1159870D01*
X32932701Y-1065802D01*
X32743768Y-1007318D01*
X32737643Y-1006674D01*
X32737642Y-1006674D01*
X32553204Y-987289D01*
X32553202Y-987289D01*
X32547075Y-986645D01*
X32464576Y-994153D01*
X32356251Y-1004011D01*
X32356248Y-1004012D01*
X32350112Y-1004570D01*
X32344206Y-1006308D01*
X32344202Y-1006309D01*
X32267954Y-1028750D01*
X32160381Y-1060410D01*
X32154923Y-1063263D01*
X32154919Y-1063265D01*
X32059135Y-1113340D01*
X31985110Y-1152040D01*
X31980310Y-1155900D01*
X31975153Y-1159274D01*
X31973849Y-1157281D01*
X31917977Y-1180354D01*
X31848122Y-1167674D01*
X31834186Y-1159522D01*
X31830980Y-1157360D01*
X31667924Y-1069196D01*
X31656619Y-1064444D01*
X31541308Y-1028750D01*
X31527205Y-1028544D01*
X31524000Y-1035299D01*
X31524000Y-2957564D01*
X31527973Y-2971095D01*
X31536188Y-2972276D01*
X31630337Y-2945989D01*
X31641788Y-2941547D01*
X31670890Y-2926847D01*
X31740712Y-2913987D01*
X31806403Y-2940917D01*
X31847106Y-2999087D01*
X31853700Y-3039313D01*
X31853700Y-3311856D01*
X31853408Y-3320426D01*
X31850256Y-3366668D01*
X31849607Y-3376182D01*
X31858348Y-3426263D01*
X31860230Y-3437049D01*
X31861192Y-3443571D01*
X31868615Y-3504908D01*
X31871300Y-3512013D01*
X31872432Y-3516623D01*
X31875481Y-3527771D01*
X31876861Y-3532339D01*
X31878166Y-3539819D01*
X31903002Y-3596397D01*
X31905483Y-3602477D01*
X31913133Y-3622721D01*
X31927331Y-3660296D01*
X31931632Y-3666554D01*
X31933832Y-3670762D01*
X31939436Y-3680832D01*
X31941881Y-3684966D01*
X31944934Y-3691921D01*
X31979311Y-3736722D01*
X31982541Y-3740932D01*
X31986407Y-3746253D01*
X32021417Y-3797192D01*
X32027084Y-3802241D01*
X32027090Y-3802248D01*
X32066412Y-3837282D01*
X32071688Y-3842263D01*
X32534984Y-4305559D01*
X32569010Y-4367871D01*
X32563945Y-4438686D01*
X32521398Y-4495522D01*
X32454878Y-4520333D01*
X32419694Y-4517901D01*
X32378126Y-4509066D01*
X32301944Y-4492872D01*
X32301939Y-4492872D01*
X32295487Y-4491500D01*
X32242422Y-4491500D01*
X32174301Y-4471498D01*
X32153327Y-4454595D01*
X30883645Y-3184912D01*
X30849619Y-3122600D01*
X30854684Y-3051784D01*
X30897231Y-2994949D01*
X30963751Y-2970138D01*
X30980635Y-2972197D01*
X30980661Y-2971273D01*
X31012867Y-2972193D01*
X31016000Y-2965821D01*
X31016000Y-1042076D01*
X31012027Y-1028545D01*
X31004232Y-1027425D01*
X30896479Y-1059138D01*
X30879396Y-1066040D01*
X30878941Y-1064914D01*
X30815604Y-1077498D01*
X30762772Y-1057230D01*
X30761760Y-1059079D01*
X30753892Y-1054771D01*
X30746705Y-1049385D01*
X30610316Y-998255D01*
X30548134Y-991500D01*
X29451866Y-991500D01*
X29389684Y-998255D01*
X29253295Y-1049385D01*
X29136739Y-1136739D01*
X29049385Y-1253295D01*
X28998255Y-1389684D01*
X28991500Y-1451866D01*
X28991500Y-2548134D01*
X28998255Y-2610316D01*
X29049385Y-2746705D01*
X29136739Y-2863261D01*
X29253295Y-2950615D01*
X29282731Y-2961650D01*
X29339495Y-3004292D01*
X29364194Y-3070854D01*
X29364500Y-3079632D01*
X29364500Y-3120980D01*
X29363970Y-3132214D01*
X29362292Y-3139719D01*
X29362541Y-3147638D01*
X29364438Y-3208012D01*
X29364500Y-3211969D01*
X29364500Y-3239983D01*
X29364996Y-3243908D01*
X29364996Y-3243909D01*
X29365008Y-3244004D01*
X29365941Y-3255849D01*
X29367335Y-3300205D01*
X29373013Y-3319748D01*
X29377023Y-3339112D01*
X29379573Y-3359299D01*
X29382489Y-3366663D01*
X29382490Y-3366668D01*
X29395907Y-3400556D01*
X29399752Y-3411785D01*
X29404531Y-3428235D01*
X29412131Y-3454393D01*
X29416169Y-3461220D01*
X29416170Y-3461223D01*
X29422488Y-3471906D01*
X29431188Y-3489664D01*
X29435761Y-3501215D01*
X29435765Y-3501221D01*
X29438681Y-3508588D01*
X29443339Y-3514999D01*
X29443340Y-3515001D01*
X29464764Y-3544488D01*
X29471281Y-3554410D01*
X29489826Y-3585768D01*
X29489829Y-3585772D01*
X29493866Y-3592598D01*
X29508250Y-3606982D01*
X29521091Y-3622016D01*
X29533058Y-3638487D01*
X29539166Y-3643540D01*
X29567255Y-3666777D01*
X29576035Y-3674767D01*
X31253210Y-5351943D01*
X31287236Y-5414255D01*
X31289425Y-5427868D01*
X31305129Y-5577279D01*
X31306458Y-5589928D01*
X31365473Y-5771556D01*
X31460960Y-5936944D01*
X31465378Y-5941851D01*
X31465379Y-5941852D01*
X31579678Y-6068794D01*
X31588747Y-6078866D01*
X31594092Y-6082749D01*
X31594096Y-6082753D01*
X31604728Y-6090478D01*
X31648081Y-6146701D01*
X31654155Y-6217437D01*
X31619760Y-6281507D01*
X28548595Y-9352672D01*
X28486283Y-9386698D01*
X28415468Y-9381633D01*
X28358632Y-9339086D01*
X28333821Y-9272566D01*
X28333500Y-9263577D01*
X28333500Y-8802524D01*
X28353502Y-8734403D01*
X28365858Y-8718221D01*
X28439040Y-8636944D01*
X28497314Y-8536010D01*
X28531223Y-8477279D01*
X28531224Y-8477277D01*
X28534527Y-8471556D01*
X28593542Y-8289928D01*
X28597169Y-8255425D01*
X28612814Y-8106565D01*
X28613504Y-8100000D01*
X28607427Y-8042179D01*
X28594232Y-7916635D01*
X28594232Y-7916633D01*
X28593542Y-7910072D01*
X28534527Y-7728444D01*
X28439040Y-7563056D01*
X28434047Y-7557510D01*
X28315675Y-7426045D01*
X28315674Y-7426044D01*
X28311253Y-7421134D01*
X28156752Y-7308882D01*
X28150724Y-7306198D01*
X28150722Y-7306197D01*
X27988319Y-7233891D01*
X27988318Y-7233891D01*
X27982288Y-7231206D01*
X27888888Y-7211353D01*
X27801944Y-7192872D01*
X27801939Y-7192872D01*
X27795487Y-7191500D01*
X27604513Y-7191500D01*
X27598061Y-7192872D01*
X27598056Y-7192872D01*
X27519506Y-7209569D01*
X27482104Y-7217519D01*
X27411314Y-7212117D01*
X27354682Y-7169300D01*
X27339835Y-7140500D01*
X27339254Y-7140758D01*
X27336568Y-7134725D01*
X27334527Y-7128444D01*
X27239040Y-6963056D01*
X27203313Y-6923377D01*
X27142464Y-6855797D01*
X27111746Y-6791790D01*
X27110100Y-6771487D01*
X27110100Y-5975681D01*
X27110597Y-5965132D01*
X27112220Y-5957872D01*
X27110521Y-5903794D01*
X27110162Y-5892387D01*
X27110100Y-5888429D01*
X27110100Y-5861617D01*
X27109604Y-5857691D01*
X27109550Y-5856835D01*
X27108708Y-5846139D01*
X27107627Y-5811726D01*
X27107378Y-5803801D01*
X27102036Y-5785414D01*
X27098028Y-5766057D01*
X27096623Y-5754935D01*
X27096623Y-5754934D01*
X27095629Y-5747068D01*
X27089357Y-5731226D01*
X27080036Y-5707682D01*
X27076192Y-5696455D01*
X27066584Y-5663387D01*
X27066583Y-5663384D01*
X27064372Y-5655775D01*
X27054630Y-5639301D01*
X27045934Y-5621550D01*
X27041804Y-5611119D01*
X27041801Y-5611114D01*
X27038884Y-5603746D01*
X27013983Y-5569473D01*
X27007474Y-5559565D01*
X26985906Y-5523094D01*
X26972374Y-5509562D01*
X26959532Y-5494527D01*
X26948279Y-5479038D01*
X26915633Y-5452031D01*
X26906853Y-5444041D01*
X25084920Y-3622108D01*
X25077810Y-3614295D01*
X25073826Y-3608017D01*
X25026069Y-3563170D01*
X25023227Y-3560415D01*
X25004265Y-3541453D01*
X25001138Y-3539027D01*
X25000497Y-3538462D01*
X24992337Y-3531493D01*
X24961458Y-3502496D01*
X24944681Y-3493272D01*
X24928168Y-3482425D01*
X24919302Y-3475548D01*
X24919297Y-3475545D01*
X24913034Y-3470687D01*
X24874150Y-3453861D01*
X24863505Y-3448646D01*
X24826378Y-3428235D01*
X24807838Y-3423475D01*
X24789141Y-3417074D01*
X24771565Y-3409468D01*
X24729722Y-3402841D01*
X24718103Y-3400435D01*
X24677074Y-3389900D01*
X24657936Y-3389900D01*
X24638225Y-3388349D01*
X24619316Y-3385354D01*
X24606199Y-3386594D01*
X24577139Y-3389341D01*
X24565281Y-3389900D01*
X23029268Y-3389900D01*
X22961147Y-3369898D01*
X22935636Y-3348215D01*
X22911253Y-3321134D01*
X22756752Y-3208882D01*
X22750724Y-3206198D01*
X22750722Y-3206197D01*
X22588319Y-3133891D01*
X22588318Y-3133891D01*
X22582288Y-3131206D01*
X22488888Y-3111353D01*
X22401944Y-3092872D01*
X22401939Y-3092872D01*
X22395487Y-3091500D01*
X22204513Y-3091500D01*
X22198061Y-3092872D01*
X22198056Y-3092872D01*
X22111113Y-3111353D01*
X22017712Y-3131206D01*
X22011682Y-3133891D01*
X22011681Y-3133891D01*
X21849278Y-3206197D01*
X21849276Y-3206198D01*
X21843248Y-3208882D01*
X21688747Y-3321134D01*
X21684326Y-3326044D01*
X21684325Y-3326045D01*
X21594089Y-3426263D01*
X21560960Y-3463056D01*
X21530033Y-3516623D01*
X21477267Y-3608017D01*
X21465473Y-3628444D01*
X21406458Y-3810072D01*
X21405768Y-3816633D01*
X21405768Y-3816635D01*
X21392365Y-3944162D01*
X21386496Y-4000000D01*
X21406458Y-4189928D01*
X21465473Y-4371556D01*
X21560960Y-4536944D01*
X21673407Y-4661829D01*
X21704122Y-4725833D01*
X21695359Y-4796286D01*
X21668864Y-4835231D01*
X20981253Y-5522842D01*
X20918941Y-5556868D01*
X20848126Y-5551803D01*
X20798523Y-5518058D01*
X20742463Y-5455796D01*
X20711746Y-5391789D01*
X20710100Y-5371487D01*
X20710100Y-1428513D01*
X20730102Y-1360392D01*
X20742464Y-1344203D01*
X20834621Y-1241852D01*
X20834622Y-1241851D01*
X20839040Y-1236944D01*
X20908145Y-1117251D01*
X20931223Y-1077279D01*
X20931224Y-1077278D01*
X20934527Y-1071556D01*
X20993542Y-889928D01*
X21013504Y-700000D01*
X21007951Y-647169D01*
X21020723Y-577333D01*
X21069224Y-525486D01*
X21133261Y-508000D01*
X41366000Y-508000D01*
X41434121Y-528002D01*
G37*
%TD.AperFunction*%
%TA.AperFunction,Conductor*%
G36*
X19134860Y-528002D02*
G01*
X19181353Y-581658D01*
X19192049Y-647169D01*
X19186496Y-700000D01*
X19206458Y-889928D01*
X19265473Y-1071556D01*
X19268776Y-1077278D01*
X19268777Y-1077279D01*
X19291855Y-1117251D01*
X19360960Y-1236944D01*
X19365378Y-1241851D01*
X19365379Y-1241852D01*
X19457536Y-1344203D01*
X19488254Y-1408210D01*
X19489900Y-1428513D01*
X19489900Y-5371487D01*
X19469898Y-5439608D01*
X19457536Y-5455797D01*
X19409126Y-5509562D01*
X19360960Y-5563056D01*
X19265473Y-5728444D01*
X19206458Y-5910072D01*
X19205768Y-5916633D01*
X19205768Y-5916635D01*
X19189233Y-6073955D01*
X19186496Y-6100000D01*
X19187186Y-6106565D01*
X19197522Y-6204902D01*
X19206458Y-6289928D01*
X19265473Y-6471556D01*
X19360960Y-6636944D01*
X19365378Y-6641851D01*
X19365379Y-6641852D01*
X19416904Y-6699076D01*
X19488747Y-6778866D01*
X19506366Y-6791667D01*
X19549719Y-6847890D01*
X19555793Y-6918627D01*
X19521398Y-6982697D01*
X17949500Y-8554595D01*
X17887188Y-8588621D01*
X17860405Y-8591500D01*
X17804513Y-8591500D01*
X17798058Y-8592872D01*
X17798049Y-8592873D01*
X17785694Y-8595499D01*
X17714903Y-8590096D01*
X17658272Y-8547278D01*
X17633779Y-8480639D01*
X17633500Y-8472252D01*
X17633500Y-2502524D01*
X17653502Y-2434403D01*
X17665858Y-2418221D01*
X17739040Y-2336944D01*
X17834527Y-2171556D01*
X17893542Y-1989928D01*
X17906898Y-1862858D01*
X17912814Y-1806565D01*
X17913504Y-1800000D01*
X17893542Y-1610072D01*
X17834527Y-1428444D01*
X17739040Y-1263056D01*
X17664281Y-1180027D01*
X17615675Y-1126045D01*
X17615674Y-1126044D01*
X17611253Y-1121134D01*
X17456752Y-1008882D01*
X17450724Y-1006198D01*
X17450722Y-1006197D01*
X17288319Y-933891D01*
X17288318Y-933891D01*
X17282288Y-931206D01*
X17188887Y-911353D01*
X17101944Y-892872D01*
X17101939Y-892872D01*
X17095487Y-891500D01*
X16904513Y-891500D01*
X16898061Y-892872D01*
X16898056Y-892872D01*
X16811113Y-911353D01*
X16717712Y-931206D01*
X16711682Y-933891D01*
X16711681Y-933891D01*
X16549278Y-1006197D01*
X16549276Y-1006198D01*
X16543248Y-1008882D01*
X16388747Y-1121134D01*
X16384326Y-1126044D01*
X16384325Y-1126045D01*
X16335720Y-1180027D01*
X16260960Y-1263056D01*
X16165473Y-1428444D01*
X16106458Y-1610072D01*
X16086496Y-1800000D01*
X16087186Y-1806565D01*
X16093103Y-1862858D01*
X16106458Y-1989928D01*
X16165473Y-2171556D01*
X16260960Y-2336944D01*
X16334137Y-2418215D01*
X16364853Y-2482221D01*
X16366500Y-2502524D01*
X16366500Y-10597547D01*
X16346498Y-10665668D01*
X16292842Y-10712161D01*
X16266698Y-10720794D01*
X16217712Y-10731206D01*
X16211682Y-10733891D01*
X16211681Y-10733891D01*
X16049278Y-10806197D01*
X16049276Y-10806198D01*
X16043248Y-10808882D01*
X15888747Y-10921134D01*
X15760960Y-11063056D01*
X15665473Y-11228444D01*
X15606458Y-11410072D01*
X15605768Y-11416633D01*
X15605768Y-11416635D01*
X15595257Y-11516644D01*
X15586496Y-11600000D01*
X15587186Y-11606565D01*
X15605407Y-11779925D01*
X15606458Y-11789928D01*
X15665473Y-11971556D01*
X15760960Y-12136944D01*
X15765378Y-12141851D01*
X15765379Y-12141852D01*
X15831895Y-12215725D01*
X15888747Y-12278866D01*
X16043248Y-12391118D01*
X16049276Y-12393802D01*
X16049278Y-12393803D01*
X16139318Y-12433891D01*
X16217712Y-12468794D01*
X16311112Y-12488647D01*
X16398056Y-12507128D01*
X16398061Y-12507128D01*
X16404513Y-12508500D01*
X16595487Y-12508500D01*
X16601939Y-12507128D01*
X16601944Y-12507128D01*
X16688888Y-12488647D01*
X16782288Y-12468794D01*
X16860682Y-12433891D01*
X16950722Y-12393803D01*
X16950724Y-12393802D01*
X16956752Y-12391118D01*
X17111253Y-12278866D01*
X17168105Y-12215725D01*
X17234621Y-12141852D01*
X17234622Y-12141851D01*
X17239040Y-12136944D01*
X17334527Y-11971556D01*
X17393542Y-11789928D01*
X17394594Y-11779925D01*
X17410836Y-11625385D01*
X17437849Y-11559729D01*
X17444295Y-11552305D01*
X17453644Y-11542349D01*
X17456400Y-11539505D01*
X17476135Y-11519770D01*
X17478615Y-11516573D01*
X17486320Y-11507551D01*
X17516586Y-11475321D01*
X17520405Y-11468375D01*
X17520407Y-11468372D01*
X17526348Y-11457566D01*
X17537199Y-11441047D01*
X17544758Y-11431301D01*
X17549614Y-11425041D01*
X17552759Y-11417772D01*
X17552762Y-11417768D01*
X17567174Y-11384463D01*
X17572391Y-11373813D01*
X17593695Y-11335060D01*
X17598733Y-11315437D01*
X17605137Y-11296734D01*
X17610033Y-11285420D01*
X17610033Y-11285419D01*
X17613181Y-11278145D01*
X17614420Y-11270322D01*
X17614423Y-11270312D01*
X17620099Y-11234476D01*
X17622505Y-11222856D01*
X17631528Y-11187711D01*
X17631528Y-11187710D01*
X17633500Y-11180030D01*
X17633500Y-11159776D01*
X17635051Y-11140065D01*
X17636980Y-11127886D01*
X17638220Y-11120057D01*
X17634059Y-11076038D01*
X17633500Y-11064181D01*
X17633500Y-10527748D01*
X17653502Y-10459627D01*
X17707158Y-10413134D01*
X17777432Y-10403030D01*
X17785694Y-10404501D01*
X17798049Y-10407127D01*
X17798058Y-10407128D01*
X17804513Y-10408500D01*
X17995487Y-10408500D01*
X18001939Y-10407128D01*
X18001944Y-10407128D01*
X18088887Y-10388647D01*
X18182288Y-10368794D01*
X18188319Y-10366109D01*
X18350722Y-10293803D01*
X18350724Y-10293802D01*
X18356752Y-10291118D01*
X18511253Y-10178866D01*
X18532456Y-10155318D01*
X18592900Y-10118080D01*
X18663884Y-10119432D01*
X18722868Y-10158946D01*
X18751126Y-10224076D01*
X18751820Y-10231390D01*
X18755735Y-10291118D01*
X18756017Y-10295426D01*
X18756819Y-10299459D01*
X18756820Y-10299465D01*
X18788679Y-10459627D01*
X18813776Y-10585797D01*
X18815103Y-10589706D01*
X18815104Y-10589710D01*
X18864047Y-10733891D01*
X18908941Y-10866145D01*
X18970852Y-10991687D01*
X19034157Y-11120057D01*
X19039885Y-11131673D01*
X19042179Y-11135106D01*
X19180422Y-11342001D01*
X19204367Y-11377838D01*
X19207081Y-11380932D01*
X19207085Y-11380938D01*
X19347387Y-11540921D01*
X19399573Y-11600427D01*
X19402662Y-11603136D01*
X19619062Y-11792915D01*
X19619068Y-11792919D01*
X19622162Y-11795633D01*
X19625588Y-11797922D01*
X19625593Y-11797926D01*
X19731428Y-11868642D01*
X19868327Y-11960115D01*
X19872026Y-11961939D01*
X19872031Y-11961942D01*
X19947119Y-11998971D01*
X20133855Y-12091059D01*
X20137760Y-12092384D01*
X20137761Y-12092385D01*
X20410290Y-12184896D01*
X20410294Y-12184897D01*
X20414203Y-12186224D01*
X20418247Y-12187028D01*
X20418253Y-12187030D01*
X20700535Y-12243180D01*
X20700541Y-12243181D01*
X20704574Y-12243983D01*
X20708679Y-12244252D01*
X20708686Y-12244253D01*
X20995881Y-12263076D01*
X21000000Y-12263346D01*
X21004119Y-12263076D01*
X21291314Y-12244253D01*
X21291321Y-12244252D01*
X21295426Y-12243983D01*
X21299459Y-12243181D01*
X21299465Y-12243180D01*
X21581747Y-12187030D01*
X21581753Y-12187028D01*
X21585797Y-12186224D01*
X21589706Y-12184897D01*
X21589710Y-12184896D01*
X21862239Y-12092385D01*
X21862240Y-12092384D01*
X21866145Y-12091059D01*
X22052881Y-11998971D01*
X22127969Y-11961942D01*
X22127974Y-11961939D01*
X22131673Y-11960115D01*
X22268572Y-11868642D01*
X22374407Y-11797926D01*
X22374412Y-11797922D01*
X22377838Y-11795633D01*
X22380932Y-11792919D01*
X22380938Y-11792915D01*
X22597338Y-11603136D01*
X22600427Y-11600427D01*
X22652613Y-11540921D01*
X22792915Y-11380938D01*
X22792919Y-11380932D01*
X22795633Y-11377838D01*
X22819579Y-11342001D01*
X22957821Y-11135106D01*
X22960115Y-11131673D01*
X22965844Y-11120057D01*
X23029148Y-10991687D01*
X23091059Y-10866145D01*
X23135953Y-10733891D01*
X23184896Y-10589710D01*
X23184897Y-10589706D01*
X23186224Y-10585797D01*
X23211321Y-10459627D01*
X23243180Y-10299465D01*
X23243181Y-10299459D01*
X23243983Y-10295426D01*
X23244266Y-10291118D01*
X23263076Y-10004119D01*
X23263346Y-10000000D01*
X23258028Y-9918858D01*
X23244253Y-9708686D01*
X23244252Y-9708679D01*
X23243983Y-9704574D01*
X23218110Y-9574500D01*
X23187030Y-9418253D01*
X23187028Y-9418247D01*
X23186224Y-9414203D01*
X23178953Y-9392781D01*
X23092385Y-9137761D01*
X23092384Y-9137760D01*
X23091059Y-9133855D01*
X22990969Y-8930892D01*
X22961942Y-8872031D01*
X22961939Y-8872026D01*
X22960115Y-8868327D01*
X22828162Y-8670845D01*
X22797926Y-8625593D01*
X22797922Y-8625588D01*
X22795633Y-8622162D01*
X22792919Y-8619068D01*
X22792915Y-8619062D01*
X22603136Y-8402662D01*
X22600427Y-8399573D01*
X22566895Y-8370166D01*
X22380938Y-8207085D01*
X22380932Y-8207081D01*
X22377838Y-8204367D01*
X22374412Y-8202078D01*
X22374407Y-8202074D01*
X22160186Y-8058937D01*
X22131673Y-8039885D01*
X22127974Y-8038061D01*
X22127969Y-8038058D01*
X21921088Y-7936036D01*
X21866145Y-7908941D01*
X21862239Y-7907615D01*
X21589710Y-7815104D01*
X21589706Y-7815103D01*
X21585797Y-7813776D01*
X21581753Y-7812972D01*
X21581747Y-7812970D01*
X21299465Y-7756820D01*
X21299459Y-7756819D01*
X21295426Y-7756017D01*
X21291321Y-7755748D01*
X21291314Y-7755747D01*
X21004119Y-7736924D01*
X21000000Y-7736654D01*
X20995881Y-7736924D01*
X20995880Y-7736924D01*
X20862392Y-7745673D01*
X20793108Y-7730169D01*
X20743206Y-7679669D01*
X20728528Y-7610206D01*
X20753734Y-7543835D01*
X20765056Y-7530848D01*
X22224595Y-6071309D01*
X22286907Y-6037283D01*
X22357722Y-6042348D01*
X22364923Y-6045291D01*
X22393826Y-6058159D01*
X22411676Y-6066107D01*
X22411679Y-6066108D01*
X22417712Y-6068794D01*
X22459340Y-6077642D01*
X22598056Y-6107128D01*
X22598061Y-6107128D01*
X22604513Y-6108500D01*
X22795487Y-6108500D01*
X22801939Y-6107128D01*
X22801944Y-6107128D01*
X22888887Y-6088647D01*
X22982288Y-6068794D01*
X22988323Y-6066107D01*
X23150722Y-5993803D01*
X23150724Y-5993802D01*
X23156752Y-5991118D01*
X23189458Y-5967356D01*
X23213422Y-5949945D01*
X23311253Y-5878866D01*
X23335370Y-5852081D01*
X23434621Y-5741852D01*
X23434622Y-5741851D01*
X23439040Y-5736944D01*
X23534527Y-5571556D01*
X23593542Y-5389928D01*
X23597535Y-5351943D01*
X23612814Y-5206565D01*
X23613504Y-5200000D01*
X23593542Y-5010072D01*
X23534527Y-4828444D01*
X23517584Y-4799099D01*
X23500847Y-4730105D01*
X23524067Y-4663013D01*
X23579874Y-4619126D01*
X23626704Y-4610100D01*
X24295099Y-4610100D01*
X24363220Y-4630102D01*
X24384194Y-4647005D01*
X25852995Y-6115807D01*
X25887021Y-6178119D01*
X25889900Y-6204902D01*
X25889900Y-6771487D01*
X25869898Y-6839608D01*
X25857536Y-6855797D01*
X25796687Y-6923377D01*
X25760960Y-6963056D01*
X25665473Y-7128444D01*
X25606458Y-7310072D01*
X25605768Y-7316633D01*
X25605768Y-7316635D01*
X25595948Y-7410072D01*
X25586496Y-7500000D01*
X25587186Y-7506565D01*
X25592608Y-7558148D01*
X25606458Y-7689928D01*
X25665473Y-7871556D01*
X25760960Y-8036944D01*
X25765378Y-8041851D01*
X25765379Y-8041852D01*
X25782428Y-8060787D01*
X25888747Y-8178866D01*
X25920690Y-8202074D01*
X26026385Y-8278866D01*
X26043248Y-8291118D01*
X26049276Y-8293802D01*
X26049278Y-8293803D01*
X26211681Y-8366109D01*
X26217712Y-8368794D01*
X26307518Y-8387883D01*
X26398056Y-8407128D01*
X26398061Y-8407128D01*
X26404513Y-8408500D01*
X26595487Y-8408500D01*
X26601939Y-8407128D01*
X26601944Y-8407128D01*
X26680494Y-8390431D01*
X26717896Y-8382481D01*
X26788686Y-8387883D01*
X26845318Y-8430700D01*
X26860165Y-8459500D01*
X26860746Y-8459242D01*
X26863432Y-8465275D01*
X26865473Y-8471556D01*
X26960960Y-8636944D01*
X27034137Y-8718215D01*
X27064853Y-8782221D01*
X27066500Y-8802524D01*
X27066500Y-9485405D01*
X27046498Y-9553526D01*
X27029595Y-9574500D01*
X21774500Y-14829595D01*
X21712188Y-14863621D01*
X21685405Y-14866500D01*
X17578767Y-14866500D01*
X17567584Y-14865973D01*
X17560091Y-14864298D01*
X17552165Y-14864547D01*
X17552164Y-14864547D01*
X17492001Y-14866438D01*
X17488043Y-14866500D01*
X17460144Y-14866500D01*
X17456154Y-14867004D01*
X17444320Y-14867936D01*
X17400111Y-14869326D01*
X17392497Y-14871538D01*
X17392492Y-14871539D01*
X17380659Y-14874977D01*
X17361296Y-14878988D01*
X17341203Y-14881526D01*
X17333836Y-14884443D01*
X17333831Y-14884444D01*
X17300092Y-14897802D01*
X17288865Y-14901646D01*
X17246407Y-14913982D01*
X17239581Y-14918019D01*
X17228972Y-14924293D01*
X17211224Y-14932988D01*
X17192383Y-14940448D01*
X17185967Y-14945110D01*
X17185966Y-14945110D01*
X17156613Y-14966436D01*
X17146693Y-14972952D01*
X17115465Y-14991420D01*
X17115462Y-14991422D01*
X17108638Y-14995458D01*
X17094317Y-15009779D01*
X17079284Y-15022619D01*
X17062893Y-15034528D01*
X17057842Y-15040633D01*
X17057837Y-15040638D01*
X17034706Y-15068598D01*
X17026719Y-15077376D01*
X16749501Y-15354595D01*
X16687188Y-15388620D01*
X16660405Y-15391500D01*
X16604513Y-15391500D01*
X16598061Y-15392872D01*
X16598056Y-15392872D01*
X16511112Y-15411353D01*
X16417712Y-15431206D01*
X16411682Y-15433891D01*
X16411681Y-15433891D01*
X16249278Y-15506197D01*
X16249276Y-15506198D01*
X16243248Y-15508882D01*
X16088747Y-15621134D01*
X16084326Y-15626044D01*
X16084325Y-15626045D01*
X16020424Y-15697015D01*
X15960960Y-15763056D01*
X15865473Y-15928444D01*
X15806458Y-16110072D01*
X15805768Y-16116633D01*
X15805768Y-16116635D01*
X15803989Y-16133562D01*
X15786496Y-16300000D01*
X15787186Y-16306565D01*
X15793763Y-16369137D01*
X15806458Y-16489928D01*
X15865473Y-16671556D01*
X15960960Y-16836944D01*
X15965378Y-16841851D01*
X15965379Y-16841852D01*
X16082113Y-16971498D01*
X16088747Y-16978866D01*
X16157123Y-17028544D01*
X16232068Y-17082995D01*
X16243248Y-17091118D01*
X16249276Y-17093802D01*
X16249278Y-17093803D01*
X16397753Y-17159908D01*
X16451849Y-17205888D01*
X16472498Y-17273815D01*
X16453146Y-17342124D01*
X16399935Y-17389125D01*
X16372702Y-17398262D01*
X16217712Y-17431206D01*
X16211682Y-17433891D01*
X16211681Y-17433891D01*
X16049278Y-17506197D01*
X16049276Y-17506198D01*
X16043248Y-17508882D01*
X15888747Y-17621134D01*
X15884326Y-17626044D01*
X15884325Y-17626045D01*
X15797198Y-17722810D01*
X15760960Y-17763056D01*
X15665473Y-17928444D01*
X15606458Y-18110072D01*
X15605768Y-18116633D01*
X15605768Y-18116635D01*
X15593980Y-18228792D01*
X15586496Y-18300000D01*
X15587186Y-18306565D01*
X15594329Y-18374530D01*
X15581557Y-18444368D01*
X15533054Y-18496215D01*
X15469019Y-18513700D01*
X13036464Y-18513700D01*
X12968343Y-18493698D01*
X12947369Y-18476795D01*
X8070574Y-13600000D01*
X9986496Y-13600000D01*
X9987186Y-13606565D01*
X10005597Y-13781732D01*
X10006458Y-13789928D01*
X10065473Y-13971556D01*
X10068776Y-13977278D01*
X10068777Y-13977279D01*
X10086408Y-14007817D01*
X10160960Y-14136944D01*
X10165378Y-14141851D01*
X10165379Y-14141852D01*
X10176671Y-14154393D01*
X10288747Y-14278866D01*
X10348138Y-14322016D01*
X10426385Y-14378866D01*
X10443248Y-14391118D01*
X10449276Y-14393802D01*
X10449278Y-14393803D01*
X10611681Y-14466109D01*
X10617712Y-14468794D01*
X10704479Y-14487237D01*
X10798056Y-14507128D01*
X10798061Y-14507128D01*
X10804513Y-14508500D01*
X10857578Y-14508500D01*
X10925699Y-14528502D01*
X10946673Y-14545405D01*
X12227595Y-15826328D01*
X12261621Y-15888640D01*
X12264500Y-15915423D01*
X12264500Y-15999697D01*
X12244498Y-16067818D01*
X12232136Y-16084007D01*
X12172129Y-16150652D01*
X12160960Y-16163056D01*
X12133465Y-16210679D01*
X12083660Y-16296944D01*
X12065473Y-16328444D01*
X12006458Y-16510072D01*
X12005768Y-16516633D01*
X12005768Y-16516635D01*
X12000937Y-16562597D01*
X11986496Y-16700000D01*
X11987186Y-16706565D01*
X11993343Y-16765141D01*
X12006458Y-16889928D01*
X12065473Y-17071556D01*
X12068776Y-17077278D01*
X12068777Y-17077279D01*
X12072077Y-17082995D01*
X12160960Y-17236944D01*
X12288747Y-17378866D01*
X12443248Y-17491118D01*
X12449276Y-17493802D01*
X12449278Y-17493803D01*
X12611681Y-17566109D01*
X12617712Y-17568794D01*
X12711113Y-17588647D01*
X12798056Y-17607128D01*
X12798061Y-17607128D01*
X12804513Y-17608500D01*
X12995487Y-17608500D01*
X13001939Y-17607128D01*
X13001944Y-17607128D01*
X13088887Y-17588647D01*
X13182288Y-17568794D01*
X13188319Y-17566109D01*
X13350722Y-17493803D01*
X13350724Y-17493802D01*
X13356752Y-17491118D01*
X13511253Y-17378866D01*
X13639040Y-17236944D01*
X13727923Y-17082995D01*
X13731223Y-17077279D01*
X13731224Y-17077278D01*
X13734527Y-17071556D01*
X13793542Y-16889928D01*
X13806658Y-16765141D01*
X13812814Y-16706565D01*
X13813504Y-16700000D01*
X13799063Y-16562597D01*
X13794232Y-16516635D01*
X13794232Y-16516633D01*
X13793542Y-16510072D01*
X13734527Y-16328444D01*
X13716341Y-16296944D01*
X13666535Y-16210679D01*
X13639040Y-16163056D01*
X13627872Y-16150652D01*
X13567864Y-16084007D01*
X13537146Y-16020000D01*
X13535500Y-15999697D01*
X13535500Y-15679020D01*
X13536030Y-15667786D01*
X13537708Y-15660281D01*
X13535562Y-15591988D01*
X13535500Y-15588031D01*
X13535500Y-15560017D01*
X13534992Y-15555996D01*
X13534058Y-15544144D01*
X13532914Y-15507718D01*
X13532914Y-15507717D01*
X13532665Y-15499795D01*
X13526987Y-15480251D01*
X13522977Y-15460888D01*
X13521420Y-15448560D01*
X13521420Y-15448558D01*
X13520427Y-15440701D01*
X13517511Y-15433337D01*
X13517510Y-15433332D01*
X13504093Y-15399444D01*
X13500248Y-15388215D01*
X13490080Y-15353219D01*
X13487869Y-15345607D01*
X13477510Y-15328091D01*
X13468813Y-15310341D01*
X13461319Y-15291412D01*
X13435240Y-15255517D01*
X13428722Y-15245595D01*
X13410170Y-15214224D01*
X13410166Y-15214219D01*
X13406134Y-15207401D01*
X13391747Y-15193014D01*
X13378906Y-15177980D01*
X13371602Y-15167927D01*
X13366942Y-15161513D01*
X13332750Y-15133227D01*
X13323971Y-15125238D01*
X11846790Y-13648057D01*
X11812764Y-13585745D01*
X11810575Y-13572132D01*
X11794232Y-13416635D01*
X11794232Y-13416633D01*
X11793542Y-13410072D01*
X11734527Y-13228444D01*
X11639040Y-13063056D01*
X11531311Y-12943410D01*
X11515675Y-12926045D01*
X11515674Y-12926044D01*
X11511253Y-12921134D01*
X11356752Y-12808882D01*
X11350724Y-12806198D01*
X11350722Y-12806197D01*
X11188319Y-12733891D01*
X11188318Y-12733891D01*
X11182288Y-12731206D01*
X11088888Y-12711353D01*
X11001944Y-12692872D01*
X11001939Y-12692872D01*
X10995487Y-12691500D01*
X10804513Y-12691500D01*
X10798061Y-12692872D01*
X10798056Y-12692872D01*
X10711113Y-12711353D01*
X10617712Y-12731206D01*
X10611682Y-12733891D01*
X10611681Y-12733891D01*
X10449278Y-12806197D01*
X10449276Y-12806198D01*
X10443248Y-12808882D01*
X10288747Y-12921134D01*
X10284326Y-12926044D01*
X10284325Y-12926045D01*
X10268690Y-12943410D01*
X10160960Y-13063056D01*
X10065473Y-13228444D01*
X10006458Y-13410072D01*
X10005768Y-13416633D01*
X10005768Y-13416635D01*
X9995948Y-13510072D01*
X9986496Y-13600000D01*
X8070574Y-13600000D01*
X6450182Y-11979608D01*
X6416156Y-11917296D01*
X6421221Y-11846481D01*
X6463768Y-11789645D01*
X6530288Y-11764834D01*
X6599662Y-11779925D01*
X6615979Y-11790549D01*
X6619063Y-11792915D01*
X6622162Y-11795633D01*
X6868327Y-11960115D01*
X6872026Y-11961939D01*
X6872031Y-11961942D01*
X6947119Y-11998971D01*
X7133855Y-12091059D01*
X7137760Y-12092384D01*
X7137761Y-12092385D01*
X7410290Y-12184896D01*
X7410294Y-12184897D01*
X7414203Y-12186224D01*
X7418247Y-12187028D01*
X7418253Y-12187030D01*
X7700535Y-12243180D01*
X7700541Y-12243181D01*
X7704574Y-12243983D01*
X7708679Y-12244252D01*
X7708686Y-12244253D01*
X7995881Y-12263076D01*
X8000000Y-12263346D01*
X8004119Y-12263076D01*
X8291314Y-12244253D01*
X8291321Y-12244252D01*
X8295426Y-12243983D01*
X8299459Y-12243181D01*
X8299465Y-12243180D01*
X8581747Y-12187030D01*
X8581753Y-12187028D01*
X8585797Y-12186224D01*
X8589706Y-12184897D01*
X8589710Y-12184896D01*
X8862239Y-12092385D01*
X8862240Y-12092384D01*
X8866145Y-12091059D01*
X9052881Y-11998971D01*
X9127969Y-11961942D01*
X9127974Y-11961939D01*
X9131673Y-11960115D01*
X9268572Y-11868642D01*
X9374407Y-11797926D01*
X9374412Y-11797922D01*
X9377838Y-11795633D01*
X9380932Y-11792919D01*
X9380938Y-11792915D01*
X9597338Y-11603136D01*
X9600427Y-11600427D01*
X9652613Y-11540921D01*
X9792915Y-11380938D01*
X9792919Y-11380932D01*
X9795633Y-11377838D01*
X9819579Y-11342001D01*
X9957821Y-11135106D01*
X9960115Y-11131673D01*
X9965844Y-11120057D01*
X10029148Y-10991687D01*
X10091059Y-10866145D01*
X10135953Y-10733891D01*
X10184896Y-10589710D01*
X10184897Y-10589706D01*
X10186224Y-10585797D01*
X10211321Y-10459627D01*
X10243180Y-10299465D01*
X10243181Y-10299459D01*
X10243983Y-10295426D01*
X10244266Y-10291118D01*
X10263076Y-10004119D01*
X10263346Y-10000000D01*
X10258028Y-9918858D01*
X10244253Y-9708686D01*
X10244252Y-9708679D01*
X10243983Y-9704574D01*
X10218110Y-9574500D01*
X10187030Y-9418253D01*
X10187028Y-9418247D01*
X10186224Y-9414203D01*
X10178953Y-9392781D01*
X10092385Y-9137761D01*
X10092384Y-9137760D01*
X10091059Y-9133855D01*
X9990969Y-8930892D01*
X9961942Y-8872031D01*
X9961939Y-8872026D01*
X9960115Y-8868327D01*
X9828162Y-8670845D01*
X9797926Y-8625593D01*
X9797922Y-8625588D01*
X9795633Y-8622162D01*
X9792919Y-8619068D01*
X9792915Y-8619062D01*
X9603136Y-8402662D01*
X9600427Y-8399573D01*
X9566895Y-8370166D01*
X9380938Y-8207085D01*
X9380932Y-8207081D01*
X9377838Y-8204367D01*
X9374412Y-8202078D01*
X9374407Y-8202074D01*
X9160186Y-8058937D01*
X9131673Y-8039885D01*
X9127974Y-8038061D01*
X9127969Y-8038058D01*
X8921088Y-7936036D01*
X8866145Y-7908941D01*
X8862239Y-7907615D01*
X8589710Y-7815104D01*
X8589706Y-7815103D01*
X8585797Y-7813776D01*
X8581753Y-7812972D01*
X8581747Y-7812970D01*
X8299465Y-7756820D01*
X8299459Y-7756819D01*
X8295426Y-7756017D01*
X8291321Y-7755748D01*
X8291314Y-7755747D01*
X8004119Y-7736924D01*
X8000000Y-7736654D01*
X7995881Y-7736924D01*
X7708686Y-7755747D01*
X7708679Y-7755748D01*
X7704574Y-7756017D01*
X7700541Y-7756819D01*
X7700535Y-7756820D01*
X7418253Y-7812970D01*
X7418247Y-7812972D01*
X7414203Y-7813776D01*
X7410294Y-7815103D01*
X7410290Y-7815104D01*
X7137761Y-7907615D01*
X7133855Y-7908941D01*
X7078912Y-7936036D01*
X6872031Y-8038058D01*
X6872026Y-8038061D01*
X6868327Y-8039885D01*
X6864894Y-8042179D01*
X6864889Y-8042182D01*
X6843449Y-8056507D01*
X6775696Y-8077721D01*
X6707229Y-8058937D01*
X6659787Y-8006119D01*
X6648432Y-7936036D01*
X6653614Y-7912812D01*
X6693542Y-7789928D01*
X6698166Y-7745938D01*
X6712814Y-7606565D01*
X6713504Y-7600000D01*
X6703684Y-7506565D01*
X6694232Y-7416635D01*
X6694232Y-7416633D01*
X6693542Y-7410072D01*
X6634527Y-7228444D01*
X6628220Y-7217519D01*
X6596775Y-7163056D01*
X6539040Y-7063056D01*
X6411253Y-6921134D01*
X6296173Y-6837523D01*
X6262094Y-6812763D01*
X6262093Y-6812762D01*
X6256752Y-6808882D01*
X6250724Y-6806198D01*
X6250722Y-6806197D01*
X6088319Y-6733891D01*
X6088318Y-6733891D01*
X6082288Y-6731206D01*
X5988888Y-6711353D01*
X5901944Y-6692872D01*
X5901939Y-6692872D01*
X5895487Y-6691500D01*
X5704513Y-6691500D01*
X5698061Y-6692872D01*
X5698056Y-6692872D01*
X5611113Y-6711353D01*
X5517712Y-6731206D01*
X5511682Y-6733891D01*
X5511681Y-6733891D01*
X5349278Y-6806197D01*
X5349276Y-6806198D01*
X5343248Y-6808882D01*
X5337907Y-6812762D01*
X5337906Y-6812763D01*
X5303827Y-6837523D01*
X5188747Y-6921134D01*
X5060960Y-7063056D01*
X5003225Y-7163056D01*
X4971781Y-7217519D01*
X4965473Y-7228444D01*
X4906458Y-7410072D01*
X4900548Y-7466309D01*
X4897863Y-7491853D01*
X4870850Y-7557510D01*
X4861648Y-7567778D01*
X4692631Y-7736795D01*
X4630319Y-7770821D01*
X4603536Y-7773700D01*
X2797986Y-7773700D01*
X2729865Y-7753698D01*
X2717681Y-7744793D01*
X2566675Y-7619870D01*
X2392701Y-7525802D01*
X2203768Y-7467318D01*
X2197643Y-7466674D01*
X2197642Y-7466674D01*
X2013204Y-7447289D01*
X2013202Y-7447289D01*
X2007075Y-7446645D01*
X1924576Y-7454153D01*
X1816251Y-7464011D01*
X1816248Y-7464012D01*
X1810112Y-7464570D01*
X1804206Y-7466308D01*
X1804202Y-7466309D01*
X1699076Y-7497249D01*
X1620381Y-7520410D01*
X1614923Y-7523263D01*
X1614919Y-7523265D01*
X1548195Y-7558148D01*
X1445110Y-7612040D01*
X1290975Y-7735968D01*
X1287011Y-7740692D01*
X1282609Y-7745938D01*
X1163846Y-7887474D01*
X1160879Y-7892872D01*
X1160875Y-7892877D01*
X1137149Y-7936036D01*
X1068567Y-8060787D01*
X1066706Y-8066654D01*
X1066705Y-8066656D01*
X1022158Y-8207085D01*
X1008765Y-8249306D01*
X986719Y-8445851D01*
X987865Y-8459500D01*
X1001524Y-8622162D01*
X1003268Y-8642934D01*
X1024854Y-8718213D01*
X1049030Y-8802524D01*
X1057783Y-8833050D01*
X1148187Y-9008956D01*
X1152016Y-9013787D01*
X1153839Y-9016088D01*
X1154414Y-9017509D01*
X1155353Y-9018966D01*
X1155076Y-9019144D01*
X1180474Y-9081898D01*
X1167301Y-9151662D01*
X1163846Y-9157474D01*
X1068567Y-9330787D01*
X1066706Y-9336654D01*
X1066705Y-9336656D01*
X1019519Y-9485405D01*
X1008765Y-9519306D01*
X986719Y-9715851D01*
X987235Y-9721995D01*
X999794Y-9871556D01*
X1003268Y-9912934D01*
X1057783Y-10103050D01*
X1064150Y-10115438D01*
X1077496Y-10185165D01*
X1057300Y-10237266D01*
X1059079Y-10238240D01*
X1054771Y-10246108D01*
X1049385Y-10253295D01*
X998255Y-10389684D01*
X991500Y-10451866D01*
X991500Y-11548134D01*
X998255Y-11610316D01*
X1049385Y-11746705D01*
X1136739Y-11863261D01*
X1253295Y-11950615D01*
X1389684Y-12001745D01*
X1451866Y-12008500D01*
X2548134Y-12008500D01*
X2610316Y-12001745D01*
X2746705Y-11950615D01*
X2863261Y-11863261D01*
X2950615Y-11746705D01*
X3001745Y-11610316D01*
X3008500Y-11548134D01*
X3008500Y-10783265D01*
X3028502Y-10715144D01*
X3082158Y-10668651D01*
X3152432Y-10658547D01*
X3217012Y-10688041D01*
X3223595Y-10694170D01*
X4708325Y-12178900D01*
X4742351Y-12241212D01*
X4737286Y-12312027D01*
X4694739Y-12368863D01*
X4628219Y-12393674D01*
X4606062Y-12393305D01*
X4601942Y-12392872D01*
X4595487Y-12391500D01*
X4404513Y-12391500D01*
X4398061Y-12392872D01*
X4398056Y-12392872D01*
X4311112Y-12411353D01*
X4217712Y-12431206D01*
X4211682Y-12433891D01*
X4211681Y-12433891D01*
X4049278Y-12506197D01*
X4049276Y-12506198D01*
X4043248Y-12508882D01*
X3888747Y-12621134D01*
X3884326Y-12626044D01*
X3884325Y-12626045D01*
X3876954Y-12634232D01*
X3760960Y-12763056D01*
X3665473Y-12928444D01*
X3606458Y-13110072D01*
X3586496Y-13300000D01*
X3606458Y-13489928D01*
X3665473Y-13671556D01*
X3760960Y-13836944D01*
X3835013Y-13919188D01*
X3865729Y-13983194D01*
X3865859Y-13984534D01*
X3867086Y-13992280D01*
X3867335Y-14000205D01*
X3869547Y-14007817D01*
X3873013Y-14019748D01*
X3877023Y-14039112D01*
X3879573Y-14059299D01*
X3882489Y-14066663D01*
X3882490Y-14066668D01*
X3895907Y-14100556D01*
X3899752Y-14111785D01*
X3912131Y-14154393D01*
X3916169Y-14161220D01*
X3916170Y-14161223D01*
X3922488Y-14171906D01*
X3931188Y-14189664D01*
X3935761Y-14201215D01*
X3935765Y-14201221D01*
X3938681Y-14208588D01*
X3943339Y-14214999D01*
X3943340Y-14215001D01*
X3964764Y-14244488D01*
X3971281Y-14254410D01*
X3989826Y-14285768D01*
X3989829Y-14285772D01*
X3993866Y-14292598D01*
X4008250Y-14306982D01*
X4021091Y-14322016D01*
X4033058Y-14338487D01*
X4039166Y-14343540D01*
X4067255Y-14366777D01*
X4076035Y-14374767D01*
X7725995Y-18024727D01*
X7733572Y-18033053D01*
X7737697Y-18039553D01*
X7743475Y-18044979D01*
X7743476Y-18044980D01*
X7787531Y-18086350D01*
X7790373Y-18089105D01*
X7810156Y-18108888D01*
X7813364Y-18111376D01*
X7822393Y-18119087D01*
X7854744Y-18149467D01*
X7861693Y-18153287D01*
X7872579Y-18159272D01*
X7889103Y-18170126D01*
X7905183Y-18182599D01*
X7912460Y-18185748D01*
X7945900Y-18200219D01*
X7956561Y-18205442D01*
X7988497Y-18222999D01*
X7988502Y-18223001D01*
X7995447Y-18226819D01*
X8003121Y-18228789D01*
X8003128Y-18228792D01*
X8015163Y-18231882D01*
X8033868Y-18238286D01*
X8045263Y-18243217D01*
X8052542Y-18246367D01*
X8079592Y-18250651D01*
X8096377Y-18253310D01*
X8107990Y-18255715D01*
X8150968Y-18266750D01*
X8171315Y-18266750D01*
X8191027Y-18268301D01*
X8211129Y-18271485D01*
X8219021Y-18270739D01*
X8255306Y-18267309D01*
X8267164Y-18266750D01*
X8531101Y-18266750D01*
X8599222Y-18286752D01*
X8616408Y-18301359D01*
X8616920Y-18300790D01*
X8621832Y-18305213D01*
X8626247Y-18310116D01*
X8631586Y-18313995D01*
X8774106Y-18417542D01*
X8780748Y-18422368D01*
X8786776Y-18425052D01*
X8786778Y-18425053D01*
X8946612Y-18496215D01*
X8955212Y-18500044D01*
X9048612Y-18519897D01*
X9135556Y-18538378D01*
X9135561Y-18538378D01*
X9142013Y-18539750D01*
X9195077Y-18539750D01*
X9263198Y-18559752D01*
X9284173Y-18576655D01*
X9739408Y-19031891D01*
X9764400Y-19068254D01*
X9765473Y-19071556D01*
X9860960Y-19236944D01*
X9901251Y-19281691D01*
X9931967Y-19345698D01*
X9923202Y-19416151D01*
X9877739Y-19470682D01*
X9807613Y-19492000D01*
X634000Y-19492000D01*
X565879Y-19471998D01*
X519386Y-19418342D01*
X508000Y-19366000D01*
X508000Y-17000000D01*
X1386526Y-17000000D01*
X1406391Y-17252403D01*
X1407545Y-17257210D01*
X1407546Y-17257216D01*
X1414442Y-17285938D01*
X1465495Y-17498591D01*
X1467388Y-17503162D01*
X1467389Y-17503164D01*
X1515968Y-17620443D01*
X1562384Y-17732502D01*
X1694672Y-17948376D01*
X1859102Y-18140898D01*
X2051624Y-18305328D01*
X2267498Y-18437616D01*
X2272068Y-18439509D01*
X2272072Y-18439511D01*
X2444228Y-18510820D01*
X2501409Y-18534505D01*
X2572328Y-18551531D01*
X2742784Y-18592454D01*
X2742790Y-18592455D01*
X2747597Y-18593609D01*
X2847416Y-18601465D01*
X2934345Y-18608307D01*
X2934352Y-18608307D01*
X2936801Y-18608500D01*
X3063199Y-18608500D01*
X3065648Y-18608307D01*
X3065655Y-18608307D01*
X3152584Y-18601465D01*
X3252403Y-18593609D01*
X3257210Y-18592455D01*
X3257216Y-18592454D01*
X3427672Y-18551531D01*
X3498591Y-18534505D01*
X3555772Y-18510820D01*
X3727928Y-18439511D01*
X3727932Y-18439509D01*
X3732502Y-18437616D01*
X3948376Y-18305328D01*
X4140898Y-18140898D01*
X4305328Y-17948376D01*
X4437616Y-17732502D01*
X4484033Y-17620443D01*
X4532611Y-17503164D01*
X4532612Y-17503162D01*
X4534505Y-17498591D01*
X4585558Y-17285938D01*
X4592454Y-17257216D01*
X4592455Y-17257210D01*
X4593609Y-17252403D01*
X4613474Y-17000000D01*
X4593609Y-16747597D01*
X4589219Y-16729309D01*
X4543613Y-16539346D01*
X4534505Y-16501409D01*
X4532350Y-16496206D01*
X4439511Y-16272072D01*
X4439509Y-16272068D01*
X4437616Y-16267498D01*
X4305328Y-16051624D01*
X4140898Y-15859102D01*
X3948376Y-15694672D01*
X3732502Y-15562384D01*
X3727932Y-15560491D01*
X3727928Y-15560489D01*
X3503164Y-15467389D01*
X3503162Y-15467388D01*
X3498591Y-15465495D01*
X3366950Y-15433891D01*
X3257216Y-15407546D01*
X3257210Y-15407545D01*
X3252403Y-15406391D01*
X3152584Y-15398535D01*
X3065655Y-15391693D01*
X3065648Y-15391693D01*
X3063199Y-15391500D01*
X2936801Y-15391500D01*
X2934352Y-15391693D01*
X2934345Y-15391693D01*
X2847416Y-15398535D01*
X2747597Y-15406391D01*
X2742790Y-15407545D01*
X2742784Y-15407546D01*
X2633050Y-15433891D01*
X2501409Y-15465495D01*
X2496838Y-15467388D01*
X2496836Y-15467389D01*
X2272072Y-15560489D01*
X2272068Y-15560491D01*
X2267498Y-15562384D01*
X2051624Y-15694672D01*
X1859102Y-15859102D01*
X1694672Y-16051624D01*
X1562384Y-16267498D01*
X1560491Y-16272068D01*
X1560489Y-16272072D01*
X1467650Y-16496206D01*
X1465495Y-16501409D01*
X1456387Y-16539346D01*
X1410782Y-16729309D01*
X1406391Y-16747597D01*
X1386526Y-17000000D01*
X508000Y-17000000D01*
X508000Y-3000000D01*
X1386526Y-3000000D01*
X1406391Y-3252403D01*
X1407545Y-3257210D01*
X1407546Y-3257216D01*
X1438607Y-3386594D01*
X1465495Y-3498591D01*
X1467388Y-3503162D01*
X1467389Y-3503164D01*
X1545575Y-3691921D01*
X1562384Y-3732502D01*
X1694672Y-3948376D01*
X1859102Y-4140898D01*
X2051624Y-4305328D01*
X2267498Y-4437616D01*
X2272068Y-4439509D01*
X2272072Y-4439511D01*
X2496836Y-4532611D01*
X2501409Y-4534505D01*
X2586032Y-4554821D01*
X2742784Y-4592454D01*
X2742790Y-4592455D01*
X2747597Y-4593609D01*
X2847416Y-4601465D01*
X2934345Y-4608307D01*
X2934352Y-4608307D01*
X2936801Y-4608500D01*
X3063199Y-4608500D01*
X3065648Y-4608307D01*
X3065655Y-4608307D01*
X3152584Y-4601465D01*
X3252403Y-4593609D01*
X3257210Y-4592455D01*
X3257216Y-4592454D01*
X3413968Y-4554821D01*
X3498591Y-4534505D01*
X3503164Y-4532611D01*
X3727928Y-4439511D01*
X3727932Y-4439509D01*
X3732502Y-4437616D01*
X3948376Y-4305328D01*
X4140898Y-4140898D01*
X4305328Y-3948376D01*
X4437616Y-3732502D01*
X4454426Y-3691921D01*
X4532611Y-3503164D01*
X4532612Y-3503162D01*
X4534505Y-3498591D01*
X4561393Y-3386594D01*
X4592454Y-3257216D01*
X4592455Y-3257210D01*
X4593609Y-3252403D01*
X4613474Y-3000000D01*
X4613077Y-2994949D01*
X4601812Y-2851829D01*
X4593609Y-2747597D01*
X4591377Y-2738297D01*
X4545920Y-2548956D01*
X4534505Y-2501409D01*
X4497545Y-2412179D01*
X4439511Y-2272072D01*
X4439509Y-2272068D01*
X4437616Y-2267498D01*
X4305328Y-2051624D01*
X4140898Y-1859102D01*
X3948376Y-1694672D01*
X3732502Y-1562384D01*
X3727932Y-1560491D01*
X3727928Y-1560489D01*
X3503164Y-1467389D01*
X3503162Y-1467388D01*
X3498591Y-1465495D01*
X3389080Y-1439204D01*
X3257216Y-1407546D01*
X3257210Y-1407545D01*
X3252403Y-1406391D01*
X3139943Y-1397540D01*
X3065655Y-1391693D01*
X3065648Y-1391693D01*
X3063199Y-1391500D01*
X2936801Y-1391500D01*
X2934352Y-1391693D01*
X2934345Y-1391693D01*
X2860057Y-1397540D01*
X2747597Y-1406391D01*
X2742790Y-1407545D01*
X2742784Y-1407546D01*
X2610920Y-1439204D01*
X2501409Y-1465495D01*
X2496838Y-1467388D01*
X2496836Y-1467389D01*
X2272072Y-1560489D01*
X2272068Y-1560491D01*
X2267498Y-1562384D01*
X2051624Y-1694672D01*
X1859102Y-1859102D01*
X1694672Y-2051624D01*
X1562384Y-2267498D01*
X1560491Y-2272068D01*
X1560489Y-2272072D01*
X1502455Y-2412179D01*
X1465495Y-2501409D01*
X1454080Y-2548956D01*
X1408624Y-2738297D01*
X1406391Y-2747597D01*
X1398188Y-2851829D01*
X1386924Y-2994949D01*
X1386526Y-3000000D01*
X508000Y-3000000D01*
X508000Y-634000D01*
X528002Y-565879D01*
X581658Y-519386D01*
X634000Y-508000D01*
X19066739Y-508000D01*
X19134860Y-528002D01*
G37*
%TD.AperFunction*%
%TD*%
M02*
