%TF.GenerationSoftware,KiCad,Pcbnew,(6.99.0)*%
%TF.CreationDate,2023-04-20T01:20:35-07:00*%
%TF.ProjectId,emg-analog-front-end,656d672d-616e-4616-9c6f-672d66726f6e,rev?*%
%TF.SameCoordinates,Original*%
%TF.FileFunction,Copper,L1,Top*%
%TF.FilePolarity,Positive*%
%FSLAX46Y46*%
G04 Gerber Fmt 4.6, Leading zero omitted, Abs format (unit mm)*
G04 Created by KiCad (PCBNEW (6.99.0)) date 2023-04-20 01:20:35*
%MOMM*%
%LPD*%
G01*
G04 APERTURE LIST*
G04 Aperture macros list*
%AMRoundRect*
0 Rectangle with rounded corners*
0 $1 Rounding radius*
0 $2 $3 $4 $5 $6 $7 $8 $9 X,Y pos of 4 corners*
0 Add a 4 corners polygon primitive as box body*
4,1,4,$2,$3,$4,$5,$6,$7,$8,$9,$2,$3,0*
0 Add four circle primitives for the rounded corners*
1,1,$1+$1,$2,$3*
1,1,$1+$1,$4,$5*
1,1,$1+$1,$6,$7*
1,1,$1+$1,$8,$9*
0 Add four rect primitives between the rounded corners*
20,1,$1+$1,$2,$3,$4,$5,0*
20,1,$1+$1,$4,$5,$6,$7,0*
20,1,$1+$1,$6,$7,$8,$9,0*
20,1,$1+$1,$8,$9,$2,$3,0*%
G04 Aperture macros list end*
%TA.AperFunction,SMDPad,CuDef*%
%ADD10RoundRect,0.020500X-0.714500X-0.184500X0.714500X-0.184500X0.714500X0.184500X-0.714500X0.184500X0*%
%TD*%
%TA.AperFunction,SMDPad,CuDef*%
%ADD11RoundRect,0.135000X0.135000X0.185000X-0.135000X0.185000X-0.135000X-0.185000X0.135000X-0.185000X0*%
%TD*%
%TA.AperFunction,SMDPad,CuDef*%
%ADD12RoundRect,0.135000X-0.135000X-0.185000X0.135000X-0.185000X0.135000X0.185000X-0.135000X0.185000X0*%
%TD*%
%TA.AperFunction,SMDPad,CuDef*%
%ADD13RoundRect,0.140000X-0.140000X-0.170000X0.140000X-0.170000X0.140000X0.170000X-0.140000X0.170000X0*%
%TD*%
%TA.AperFunction,SMDPad,CuDef*%
%ADD14RoundRect,0.140000X0.170000X-0.140000X0.170000X0.140000X-0.170000X0.140000X-0.170000X-0.140000X0*%
%TD*%
%TA.AperFunction,SMDPad,CuDef*%
%ADD15RoundRect,0.200000X-0.200000X-0.275000X0.200000X-0.275000X0.200000X0.275000X-0.200000X0.275000X0*%
%TD*%
%TA.AperFunction,SMDPad,CuDef*%
%ADD16RoundRect,0.090000X-0.520000X-0.210000X0.520000X-0.210000X0.520000X0.210000X-0.520000X0.210000X0*%
%TD*%
%TA.AperFunction,SMDPad,CuDef*%
%ADD17RoundRect,0.140000X-0.170000X0.140000X-0.170000X-0.140000X0.170000X-0.140000X0.170000X0.140000X0*%
%TD*%
%TA.AperFunction,ComponentPad*%
%ADD18R,1.000000X1.000000*%
%TD*%
%TA.AperFunction,ComponentPad*%
%ADD19O,1.000000X1.000000*%
%TD*%
%TA.AperFunction,ComponentPad*%
%ADD20C,3.500000*%
%TD*%
%TA.AperFunction,SMDPad,CuDef*%
%ADD21RoundRect,0.140000X0.140000X0.170000X-0.140000X0.170000X-0.140000X-0.170000X0.140000X-0.170000X0*%
%TD*%
%TA.AperFunction,SMDPad,CuDef*%
%ADD22RoundRect,0.150000X-0.825000X-0.150000X0.825000X-0.150000X0.825000X0.150000X-0.825000X0.150000X0*%
%TD*%
%TA.AperFunction,SMDPad,CuDef*%
%ADD23RoundRect,0.135000X0.185000X-0.135000X0.185000X0.135000X-0.185000X0.135000X-0.185000X-0.135000X0*%
%TD*%
%TA.AperFunction,SMDPad,CuDef*%
%ADD24R,1.200000X1.200000*%
%TD*%
%TA.AperFunction,SMDPad,CuDef*%
%ADD25R,1.500000X1.600000*%
%TD*%
%TA.AperFunction,ViaPad*%
%ADD26C,0.800000*%
%TD*%
%TA.AperFunction,Conductor*%
%ADD27C,0.250000*%
%TD*%
%TA.AperFunction,Conductor*%
%ADD28C,0.254000*%
%TD*%
%TA.AperFunction,Conductor*%
%ADD29C,0.203200*%
%TD*%
%TA.AperFunction,Conductor*%
%ADD30C,0.355600*%
%TD*%
G04 APERTURE END LIST*
D10*
%TO.P,U3,1,OUT_A*%
%TO.N,NOTCH_IN*%
X24660000Y-4550000D03*
%TO.P,U3,2,-IN_A*%
X24660000Y-5200000D03*
%TO.P,U3,3,+IN_A*%
%TO.N,HPF_OUT*%
X24660000Y-5850000D03*
%TO.P,U3,4,V+*%
%TO.N,VDD*%
X24660000Y-6500000D03*
%TO.P,U3,5,+IN_B*%
%TO.N,NOTCH_OUT*%
X24660000Y-7150000D03*
%TO.P,U3,6,-IN_B*%
%TO.N,SK00*%
X24660000Y-7800000D03*
%TO.P,U3,7,OUT_B*%
X24660000Y-8450000D03*
%TO.P,U3,8,OUT_C*%
%TO.N,LPF_OUT*%
X30400000Y-8450000D03*
%TO.P,U3,9,-IN_C*%
X30400000Y-7800000D03*
%TO.P,U3,10,+IN_C*%
%TO.N,LPF_IN*%
X30400000Y-7150000D03*
%TO.P,U3,11,V-*%
%TO.N,-VDD*%
X30400000Y-6500000D03*
%TO.P,U3,12,+IN_D*%
%TO.N,LPF_OUT*%
X30400000Y-5850000D03*
%TO.P,U3,13,-IN_D*%
%TO.N,AMP_IN*%
X30400000Y-5200000D03*
%TO.P,U3,14,OUT_D*%
X30400000Y-4550000D03*
%TD*%
D11*
%TO.P,R17,1*%
%TO.N,Net-(H8-Pad1)*%
X32810000Y-13000000D03*
%TO.P,R17,2*%
%TO.N,E+*%
X31790000Y-13000000D03*
%TD*%
%TO.P,R16,1*%
%TO.N,Net-(H6-Pad1)*%
X8010000Y-6900000D03*
%TO.P,R16,2*%
%TO.N,E-*%
X6990000Y-6900000D03*
%TD*%
D12*
%TO.P,R15,1*%
%TO.N,Net-(H7-Pad1)*%
X23390000Y-11700000D03*
%TO.P,R15,2*%
%TO.N,GND*%
X24410000Y-11700000D03*
%TD*%
D13*
%TO.P,C11,1*%
%TO.N,-VDD*%
X32120000Y-6500000D03*
%TO.P,C11,2*%
%TO.N,GND*%
X33080000Y-6500000D03*
%TD*%
D11*
%TO.P,R4,1*%
%TO.N,LPF_IN*%
X28810000Y-11100000D03*
%TO.P,R4,2*%
%TO.N,SK01*%
X27790000Y-11100000D03*
%TD*%
D14*
%TO.P,C5,1*%
%TO.N,GND*%
X12000000Y-9980000D03*
%TO.P,C5,2*%
%TO.N,-VDD*%
X12000000Y-9020000D03*
%TD*%
D15*
%TO.P,R5,1*%
%TO.N,Net-(R5-Pad1)*%
X11775000Y-1500000D03*
%TO.P,R5,2*%
%TO.N,Net-(R5-Pad2)*%
X13425000Y-1500000D03*
%TD*%
D16*
%TO.P,U4,1,OUT*%
%TO.N,-VDD*%
X6675000Y-14481250D03*
%TO.P,U4,2,IN*%
%TO.N,VDD*%
X6675000Y-15431250D03*
%TO.P,U4,3,C1-*%
%TO.N,Net-(C16-Pad2)*%
X6675000Y-16381250D03*
%TO.P,U4,4,GND*%
%TO.N,GND*%
X9165000Y-16381250D03*
%TO.P,U4,5,~{SHDN}*%
%TO.N,VDD*%
X9165000Y-15431250D03*
%TO.P,U4,6,C1+*%
%TO.N,Net-(C16-Pad1)*%
X9165000Y-14481250D03*
%TD*%
D13*
%TO.P,C2,1*%
%TO.N,GND*%
X11920000Y-18700000D03*
%TO.P,C2,2*%
%TO.N,-VDD*%
X12880000Y-18700000D03*
%TD*%
D12*
%TO.P,R14,2*%
%TO.N,Net-(R14-Pad2)*%
X12810000Y-14200000D03*
%TO.P,R14,1*%
%TO.N,Net-(R14-Pad1)*%
X11790000Y-14200000D03*
%TD*%
%TO.P,R10,1*%
%TO.N,Net-(C14-Pad2)*%
X20090000Y-1800000D03*
%TO.P,R10,2*%
%TO.N,NOTCH_IN*%
X21110000Y-1800000D03*
%TD*%
%TO.P,R9,1*%
%TO.N,AOUT*%
X34490000Y-4300000D03*
%TO.P,R9,2*%
%TO.N,Net-(R7-Pad3)*%
X35510000Y-4300000D03*
%TD*%
D17*
%TO.P,C9,1*%
%TO.N,/HPF_IN*%
X15400000Y-9020000D03*
%TO.P,C9,2*%
%TO.N,HPF_OUT*%
X15400000Y-9980000D03*
%TD*%
%TO.P,C7,1*%
%TO.N,/HPF_IN*%
X14228500Y-9040000D03*
%TO.P,C7,2*%
%TO.N,HPF_OUT*%
X14228500Y-10000000D03*
%TD*%
D18*
%TO.P,J2,1,Pin_1*%
%TO.N,GND*%
X30000000Y-2000000D03*
D19*
%TO.P,J2,2,Pin_2*%
%TO.N,VDD*%
X31270000Y-2000000D03*
%TO.P,J2,3,Pin_3*%
%TO.N,AOUT*%
X32540000Y-2000000D03*
%TO.P,J2,4,Pin_4*%
%TO.N,AOUT1*%
X33810000Y-2000000D03*
%TO.P,J2,5,Pin_5*%
%TO.N,-VDD*%
X35080000Y-2000000D03*
%TD*%
D20*
%TO.P,H7,1,1*%
%TO.N,Net-(H7-Pad1)*%
X21000000Y-10000000D03*
%TD*%
D21*
%TO.P,C1,1*%
%TO.N,GND*%
X20080000Y-12900000D03*
%TO.P,C1,2*%
%TO.N,VDD*%
X19120000Y-12900000D03*
%TD*%
D22*
%TO.P,U2,1,Rg*%
%TO.N,Net-(R5-Pad1)*%
X11625000Y-3295000D03*
%TO.P,U2,2,-*%
%TO.N,/IA_IN-*%
X11625000Y-4565000D03*
%TO.P,U2,3,+*%
%TO.N,/IA_IN+*%
X11625000Y-5835000D03*
%TO.P,U2,4,Vs-*%
%TO.N,-VDD*%
X11625000Y-7105000D03*
%TO.P,U2,5,Ref*%
%TO.N,GND*%
X16575000Y-7105000D03*
%TO.P,U2,6*%
%TO.N,/HPF_IN*%
X16575000Y-5835000D03*
%TO.P,U2,7,Vs+*%
%TO.N,VDD*%
X16575000Y-4565000D03*
%TO.P,U2,8,Rg*%
%TO.N,Net-(R5-Pad2)*%
X16575000Y-3295000D03*
%TD*%
D11*
%TO.P,R13,1*%
%TO.N,NOTCH_OUT*%
X21110000Y-5100000D03*
%TO.P,R13,2*%
%TO.N,Net-(C14-Pad2)*%
X20090000Y-5100000D03*
%TD*%
D23*
%TO.P,R12,1*%
%TO.N,Net-(C13-Pad2)*%
X19000000Y-4010000D03*
%TO.P,R12,2*%
%TO.N,GND*%
X19000000Y-2990000D03*
%TD*%
D21*
%TO.P,C13,1*%
%TO.N,NOTCH_IN*%
X21080000Y-2900000D03*
%TO.P,C13,2*%
%TO.N,Net-(C13-Pad2)*%
X20120000Y-2900000D03*
%TD*%
D13*
%TO.P,C12,1*%
%TO.N,GND*%
X21920000Y-6700000D03*
%TO.P,C12,2*%
%TO.N,VDD*%
X22880000Y-6700000D03*
%TD*%
%TO.P,C15,1*%
%TO.N,Net-(C13-Pad2)*%
X20120000Y-4000000D03*
%TO.P,C15,2*%
%TO.N,NOTCH_OUT*%
X21080000Y-4000000D03*
%TD*%
D18*
%TO.P,J1,1,Pin_1*%
%TO.N,GND*%
X2000000Y-11000000D03*
D19*
%TO.P,J1,2,Pin_2*%
%TO.N,E+*%
X2000000Y-9730000D03*
%TO.P,J1,3,Pin_3*%
%TO.N,E-*%
X2000000Y-8460000D03*
%TD*%
D11*
%TO.P,R11,2*%
%TO.N,VDD*%
X32490000Y-4300000D03*
%TO.P,R11,1*%
%TO.N,AOUT*%
X33510000Y-4300000D03*
%TD*%
D12*
%TO.P,R1,1*%
%TO.N,E-*%
X8290000Y-3900000D03*
%TO.P,R1,2*%
%TO.N,/IA_IN-*%
X9310000Y-3900000D03*
%TD*%
D21*
%TO.P,C17,1*%
%TO.N,-VDD*%
X6642500Y-12900000D03*
%TO.P,C17,2*%
%TO.N,GND*%
X5682500Y-12900000D03*
%TD*%
D12*
%TO.P,R2,1*%
%TO.N,E+*%
X8290000Y-5200000D03*
%TO.P,R2,2*%
%TO.N,/IA_IN+*%
X9310000Y-5200000D03*
%TD*%
D22*
%TO.P,U1,1*%
%TO.N,Net-(R14-Pad2)*%
X14625000Y-14495000D03*
%TO.P,U1,2,-*%
%TO.N,Net-(R14-Pad1)*%
X14625000Y-15765000D03*
%TO.P,U1,3,+*%
%TO.N,AMP_IN*%
X14625000Y-17035000D03*
%TO.P,U1,4,V-*%
%TO.N,-VDD*%
X14625000Y-18305000D03*
%TO.P,U1,5,+*%
%TO.N,Net-(R14-Pad2)*%
X19575000Y-18305000D03*
%TO.P,U1,6,-*%
%TO.N,Net-(R7-Pad2)*%
X19575000Y-17035000D03*
%TO.P,U1,7*%
%TO.N,Net-(R7-Pad3)*%
X19575000Y-15765000D03*
%TO.P,U1,8,V+*%
%TO.N,VDD*%
X19575000Y-14495000D03*
%TD*%
D18*
%TO.P,J3,1,Pin_1*%
%TO.N,GND*%
X30000000Y-18000000D03*
D19*
%TO.P,J3,2,Pin_2*%
%TO.N,VDD*%
X31270000Y-18000000D03*
%TO.P,J3,3,Pin_3*%
%TO.N,AOUT*%
X32540000Y-18000000D03*
%TO.P,J3,4,Pin_4*%
%TO.N,AOUT1*%
X33810000Y-18000000D03*
%TO.P,J3,5,Pin_5*%
%TO.N,-VDD*%
X35080000Y-18000000D03*
%TD*%
D11*
%TO.P,R3,1*%
%TO.N,SK01*%
X26610000Y-9980000D03*
%TO.P,R3,2*%
%TO.N,SK00*%
X25590000Y-9980000D03*
%TD*%
D20*
%TO.P,H8,1,1*%
%TO.N,Net-(H8-Pad1)*%
X34000000Y-10000000D03*
%TD*%
D24*
%TO.P,R7,1*%
%TO.N,GND*%
X26244665Y-18000000D03*
D25*
%TO.P,R7,2*%
%TO.N,Net-(R7-Pad2)*%
X22994665Y-17000000D03*
D24*
%TO.P,R7,3*%
%TO.N,Net-(R7-Pad3)*%
X26244665Y-16000000D03*
%TD*%
D13*
%TO.P,C14,1*%
%TO.N,GND*%
X18120000Y-1800000D03*
%TO.P,C14,2*%
%TO.N,Net-(C14-Pad2)*%
X19080000Y-1800000D03*
%TD*%
D17*
%TO.P,C8,1*%
%TO.N,/HPF_IN*%
X13085500Y-9040000D03*
%TO.P,C8,2*%
%TO.N,HPF_OUT*%
X13085500Y-10000000D03*
%TD*%
D20*
%TO.P,H6,1,1*%
%TO.N,Net-(H6-Pad1)*%
X8000000Y-10000000D03*
%TD*%
D13*
%TO.P,C4,1*%
%TO.N,SK01*%
X27800000Y-10000000D03*
%TO.P,C4,2*%
%TO.N,LPF_OUT*%
X28760000Y-10000000D03*
%TD*%
D21*
%TO.P,C16,1*%
%TO.N,Net-(C16-Pad1)*%
X7800000Y-18031250D03*
%TO.P,C16,2*%
%TO.N,Net-(C16-Pad2)*%
X6840000Y-18031250D03*
%TD*%
D14*
%TO.P,C3,1*%
%TO.N,GND*%
X30000000Y-12060000D03*
%TO.P,C3,2*%
%TO.N,LPF_IN*%
X30000000Y-11100000D03*
%TD*%
D23*
%TO.P,R8,2*%
%TO.N,Net-(R14-Pad1)*%
X11800000Y-15690000D03*
%TO.P,R8,1*%
%TO.N,GND*%
X11800000Y-16710000D03*
%TD*%
D14*
%TO.P,C6,1*%
%TO.N,GND*%
X19000000Y-5980000D03*
%TO.P,C6,2*%
%TO.N,VDD*%
X19000000Y-5020000D03*
%TD*%
D17*
%TO.P,C10,1*%
%TO.N,/HPF_IN*%
X16500000Y-9020000D03*
%TO.P,C10,2*%
%TO.N,HPF_OUT*%
X16500000Y-9980000D03*
%TD*%
D15*
%TO.P,R6,1*%
%TO.N,HPF_OUT*%
X13075000Y-11800000D03*
%TO.P,R6,2*%
%TO.N,GND*%
X14725000Y-11800000D03*
%TD*%
D26*
%TO.N,-VDD*%
X10900000Y-13600000D03*
%TO.N,VDD*%
X10700000Y-15431250D03*
%TO.N,GND*%
X4500000Y-13300000D03*
X10600000Y-18700000D03*
%TO.N,-VDD*%
X12900000Y-16700000D03*
%TO.N,GND*%
X9237500Y-17631250D03*
%TO.N,VDD*%
X23200000Y-7800000D03*
%TO.N,E-*%
X5800000Y-7600000D03*
%TO.N,E+*%
X30500000Y-13700000D03*
%TO.N,GND*%
X32200000Y-5400000D03*
%TO.N,VDD*%
X17400000Y-12900000D03*
%TO.N,-VDD*%
X28600000Y-15000000D03*
%TO.N,VDD*%
X14100000Y-5000000D03*
%TO.N,GND*%
X16500000Y-11600000D03*
X17000000Y-1800000D03*
%TO.N,-VDD*%
X16500000Y-18300000D03*
X32400000Y-7700000D03*
%TO.N,HPF_OUT*%
X17900000Y-9500000D03*
X22700000Y-5200000D03*
%TO.N,Net-(C14-Pad2)*%
X20100000Y-6100000D03*
X20100000Y-700000D03*
%TO.N,NOTCH_OUT*%
X26500000Y-7500000D03*
X22300000Y-4000000D03*
%TO.N,AMP_IN*%
X27700000Y-8100000D03*
X16700000Y-16300000D03*
%TO.N,Net-(R7-Pad3)*%
X33500000Y-5500000D03*
X26400000Y-14400000D03*
%TD*%
D27*
%TO.N,-VDD*%
X12000000Y-9020000D02*
X11380000Y-9020000D01*
X11380000Y-9020000D02*
X10900000Y-9500000D01*
X10900000Y-9500000D02*
X10900000Y-13600000D01*
X6642500Y-12900000D02*
X10200000Y-12900000D01*
X10200000Y-12900000D02*
X10900000Y-13600000D01*
D28*
%TO.N,GND*%
X11920000Y-19020000D02*
X12400000Y-19500000D01*
X11920000Y-18700000D02*
X11920000Y-19020000D01*
X12400000Y-19500000D02*
X24744665Y-19500000D01*
X24744665Y-19500000D02*
X26244665Y-18000000D01*
%TO.N,-VDD*%
X16500000Y-18300000D02*
X16495000Y-18305000D01*
X16495000Y-18305000D02*
X14625000Y-18305000D01*
%TO.N,VDD*%
X6675000Y-15431250D02*
X6068750Y-15431250D01*
X10700000Y-17268750D02*
X10700000Y-15431250D01*
X6068750Y-15431250D02*
X5500000Y-16000000D01*
X5500000Y-16000000D02*
X5500000Y-18193750D01*
X5500000Y-18193750D02*
X6137500Y-18831250D01*
X6137500Y-18831250D02*
X9137500Y-18831250D01*
X9137500Y-18831250D02*
X10700000Y-17268750D01*
X9165000Y-15431250D02*
X10700000Y-15431250D01*
%TO.N,GND*%
X4500000Y-13300000D02*
X4900000Y-12900000D01*
X4900000Y-12900000D02*
X5682500Y-12900000D01*
%TO.N,-VDD*%
X12900000Y-16700000D02*
X12880000Y-16720000D01*
X12880000Y-16720000D02*
X12880000Y-18700000D01*
%TO.N,GND*%
X11800000Y-16710000D02*
X11800000Y-18580000D01*
X11800000Y-18580000D02*
X11920000Y-18700000D01*
%TO.N,Net-(R14-Pad1)*%
X11790000Y-14200000D02*
X11790000Y-15680000D01*
X11790000Y-15680000D02*
X11800000Y-15690000D01*
X11800000Y-15690000D02*
X14550000Y-15690000D01*
X14550000Y-15690000D02*
X14625000Y-15765000D01*
%TO.N,GND*%
X11920000Y-18700000D02*
X10600000Y-18700000D01*
D27*
%TO.N,-VDD*%
X6675000Y-14481250D02*
X6675000Y-12932500D01*
X6675000Y-12932500D02*
X6642500Y-12900000D01*
D28*
%TO.N,Net-(R14-Pad2)*%
X14625000Y-14495000D02*
X13105000Y-14495000D01*
X13105000Y-14495000D02*
X12810000Y-14200000D01*
%TO.N,-VDD*%
X12880000Y-18700000D02*
X13275000Y-18305000D01*
X13275000Y-18305000D02*
X14625000Y-18305000D01*
%TO.N,GND*%
X9237500Y-17631250D02*
X9165000Y-17558750D01*
X9165000Y-17558750D02*
X9165000Y-16381250D01*
D27*
X17400000Y-11600000D02*
X17800000Y-11200000D01*
X17800000Y-11200000D02*
X18700000Y-11200000D01*
X19000000Y-5980000D02*
X19000000Y-8300000D01*
X19000000Y-8300000D02*
X18700000Y-8600000D01*
X18700000Y-8600000D02*
X18700000Y-11200000D01*
X18700000Y-11200000D02*
X19100000Y-11600000D01*
D28*
X20080000Y-12900000D02*
X20080000Y-12580000D01*
X20080000Y-12580000D02*
X19100000Y-11600000D01*
D29*
%TO.N,VDD*%
X19575000Y-14495000D02*
X19100000Y-14020000D01*
X19100000Y-14020000D02*
X19100000Y-12920000D01*
X19100000Y-12920000D02*
X19120000Y-12900000D01*
X19120000Y-12900000D02*
X17400000Y-12900000D01*
D27*
%TO.N,GND*%
X17400000Y-11600000D02*
X16500000Y-11600000D01*
%TO.N,HPF_OUT*%
X17900000Y-9500000D02*
X17420000Y-9980000D01*
X17420000Y-9980000D02*
X16500000Y-9980000D01*
D29*
%TO.N,VDD*%
X22880000Y-6700000D02*
X22880000Y-7480000D01*
X22880000Y-7480000D02*
X23200000Y-7800000D01*
X24660000Y-6500000D02*
X23080000Y-6500000D01*
X23080000Y-6500000D02*
X22880000Y-6700000D01*
D28*
%TO.N,HPF_OUT*%
X22700000Y-5200000D02*
X23350000Y-5850000D01*
X23350000Y-5850000D02*
X24660000Y-5850000D01*
D30*
%TO.N,E-*%
X6500000Y-6900000D02*
X5800000Y-7600000D01*
X6990000Y-6900000D02*
X6500000Y-6900000D01*
%TO.N,Net-(H6-Pad1)*%
X8010000Y-6900000D02*
X8010000Y-9990000D01*
X8010000Y-9990000D02*
X8000000Y-10000000D01*
D28*
%TO.N,E+*%
X8290000Y-5200000D02*
X6863000Y-5200000D01*
X6863000Y-5200000D02*
X5713000Y-6350000D01*
X5713000Y-6350000D02*
X5713000Y-6352000D01*
X5713000Y-6352000D02*
X2335000Y-9730000D01*
X2335000Y-9730000D02*
X2000000Y-9730000D01*
%TO.N,/IA_IN+*%
X11625000Y-5835000D02*
X9945000Y-5835000D01*
X9945000Y-5835000D02*
X9310000Y-5200000D01*
%TO.N,/IA_IN-*%
X11625000Y-4565000D02*
X9975000Y-4565000D01*
X9975000Y-4565000D02*
X9310000Y-3900000D01*
%TO.N,E-*%
X8290000Y-3900000D02*
X6600000Y-3900000D01*
X6600000Y-3900000D02*
X2040000Y-8460000D01*
X2040000Y-8460000D02*
X2000000Y-8460000D01*
D30*
%TO.N,Net-(H7-Pad1)*%
X23390000Y-11700000D02*
X22700000Y-11700000D01*
X22700000Y-11700000D02*
X21000000Y-10000000D01*
%TO.N,E+*%
X31790000Y-13000000D02*
X31200000Y-13000000D01*
X31200000Y-13000000D02*
X30500000Y-13700000D01*
%TO.N,Net-(H8-Pad1)*%
X34000000Y-10000000D02*
X34000000Y-11810000D01*
X34000000Y-11810000D02*
X32810000Y-13000000D01*
D27*
%TO.N,Net-(R7-Pad3)*%
X33500000Y-5500000D02*
X35000000Y-5500000D01*
X35000000Y-5500000D02*
X35510000Y-4990000D01*
X35510000Y-4990000D02*
X35510000Y-4300000D01*
D28*
%TO.N,GND*%
X33080000Y-6280000D02*
X32200000Y-5400000D01*
X33080000Y-6500000D02*
X33080000Y-6280000D01*
%TO.N,-VDD*%
X35080000Y-18000000D02*
X35100000Y-17980000D01*
X34200000Y-15000000D02*
X28600000Y-15000000D01*
X35100000Y-15900000D02*
X34200000Y-15000000D01*
X35100000Y-17980000D02*
X35100000Y-15900000D01*
X35080000Y-2000000D02*
X35100000Y-2000000D01*
X36300000Y-5200000D02*
X33800000Y-7700000D01*
X33800000Y-7700000D02*
X32400000Y-7700000D01*
X35100000Y-2000000D02*
X36300000Y-3200000D01*
X36300000Y-3200000D02*
X36300000Y-5200000D01*
%TO.N,Net-(C16-Pad1)*%
X7800000Y-18031250D02*
X7800000Y-15168750D01*
X7800000Y-15168750D02*
X8487500Y-14481250D01*
X8487500Y-14481250D02*
X9165000Y-14481250D01*
%TO.N,VDD*%
X14535000Y-4565000D02*
X14100000Y-5000000D01*
X16575000Y-4565000D02*
X14535000Y-4565000D01*
D29*
X24660000Y-6500000D02*
X26200000Y-6500000D01*
X26200000Y-6500000D02*
X29630000Y-3070000D01*
X29630000Y-3070000D02*
X31270000Y-3070000D01*
%TO.N,NOTCH_OUT*%
X26500000Y-7500000D02*
X26150000Y-7150000D01*
X26150000Y-7150000D02*
X24660000Y-7150000D01*
D27*
%TO.N,Net-(C16-Pad2)*%
X6675000Y-17866250D02*
X6840000Y-18031250D01*
X6675000Y-16381250D02*
X6675000Y-17866250D01*
D28*
%TO.N,VDD*%
X32490000Y-4300000D02*
X32490000Y-4290000D01*
X32490000Y-4290000D02*
X31270000Y-3070000D01*
X31270000Y-3070000D02*
X31270000Y-2000000D01*
%TO.N,AOUT*%
X33510000Y-4300000D02*
X34490000Y-4300000D01*
X33510000Y-4300000D02*
X33510000Y-3910000D01*
X33510000Y-3910000D02*
X32540000Y-2940000D01*
X32540000Y-2940000D02*
X32540000Y-2000000D01*
D27*
%TO.N,GND*%
X14725000Y-11800000D02*
X16300000Y-11800000D01*
X16300000Y-11800000D02*
X16500000Y-11600000D01*
X17000000Y-1800000D02*
X18120000Y-1800000D01*
D29*
%TO.N,Net-(C14-Pad2)*%
X20100000Y-700000D02*
X20090000Y-710000D01*
X20090000Y-710000D02*
X20090000Y-1800000D01*
D27*
%TO.N,GND*%
X16575000Y-7105000D02*
X18295000Y-7105000D01*
X18295000Y-7105000D02*
X19000000Y-6400000D01*
X19000000Y-6400000D02*
X19000000Y-5980000D01*
D28*
%TO.N,VDD*%
X16575000Y-4565000D02*
X17665000Y-4565000D01*
X17665000Y-4565000D02*
X18120000Y-5020000D01*
X18120000Y-5020000D02*
X19000000Y-5020000D01*
D27*
%TO.N,GND*%
X18120000Y-1800000D02*
X18120000Y-2110000D01*
X18120000Y-2110000D02*
X19000000Y-2990000D01*
D28*
%TO.N,SK01*%
X27790000Y-10010000D02*
X27790000Y-11100000D01*
X27800000Y-10000000D02*
X27790000Y-10010000D01*
X26610000Y-9980000D02*
X27780000Y-9980000D01*
X27780000Y-9980000D02*
X27800000Y-10000000D01*
%TO.N,SK00*%
X24660000Y-9050000D02*
X24660000Y-8450000D01*
D27*
X24660000Y-8450000D02*
X24660000Y-7800000D01*
D28*
X25590000Y-9980000D02*
X24660000Y-9050000D01*
%TO.N,-VDD*%
X32120000Y-6500000D02*
X30400000Y-6500000D01*
D27*
X12000000Y-9020000D02*
X12000000Y-7480000D01*
X12000000Y-7480000D02*
X11625000Y-7105000D01*
D28*
X32120000Y-7420000D02*
X32400000Y-7700000D01*
X32120000Y-6500000D02*
X32120000Y-7420000D01*
D29*
%TO.N,LPF_OUT*%
X29250000Y-5850000D02*
X28700000Y-6400000D01*
D28*
X29700000Y-10000000D02*
X30400000Y-9300000D01*
D29*
X30400000Y-5850000D02*
X29250000Y-5850000D01*
X28700000Y-6400000D02*
X28700000Y-9940000D01*
X28700000Y-9940000D02*
X28760000Y-10000000D01*
D28*
X30400000Y-9300000D02*
X30400000Y-8450000D01*
D27*
X30400000Y-7800000D02*
X30400000Y-8450000D01*
D28*
X28760000Y-10000000D02*
X29700000Y-10000000D01*
D27*
%TO.N,/HPF_IN*%
X14228500Y-9040000D02*
X15380000Y-9040000D01*
D28*
X14200000Y-9011500D02*
X14228500Y-9040000D01*
X14200000Y-6700000D02*
X14200000Y-9011500D01*
X15065000Y-5835000D02*
X14200000Y-6700000D01*
D27*
X14228500Y-9040000D02*
X13085500Y-9040000D01*
D28*
X16575000Y-5835000D02*
X15065000Y-5835000D01*
D27*
X15380000Y-9040000D02*
X15400000Y-9020000D01*
X15400000Y-9020000D02*
X16500000Y-9020000D01*
%TO.N,HPF_OUT*%
X13085500Y-10000000D02*
X13085500Y-11789500D01*
X15380000Y-10000000D02*
X15400000Y-9980000D01*
X15400000Y-9980000D02*
X16500000Y-9980000D01*
X13085500Y-11789500D02*
X13075000Y-11800000D01*
X13085500Y-10000000D02*
X14228500Y-10000000D01*
X14228500Y-10000000D02*
X15380000Y-10000000D01*
D29*
%TO.N,NOTCH_IN*%
X22810000Y-2700000D02*
X24660000Y-4550000D01*
X21110000Y-2870000D02*
X21080000Y-2900000D01*
X21110000Y-2700000D02*
X22810000Y-2700000D01*
X21110000Y-1800000D02*
X21110000Y-2870000D01*
D27*
X24660000Y-4550000D02*
X24660000Y-5200000D01*
D29*
%TO.N,Net-(C13-Pad2)*%
X19010000Y-4000000D02*
X19000000Y-4010000D01*
X20120000Y-4000000D02*
X19010000Y-4000000D01*
X20120000Y-2900000D02*
X20120000Y-4000000D01*
%TO.N,Net-(C14-Pad2)*%
X20100000Y-6100000D02*
X20100000Y-6000000D01*
X20090000Y-5990000D02*
X20090000Y-5100000D01*
X20100000Y-6000000D02*
X20090000Y-5990000D01*
X19020000Y-1800000D02*
X20090000Y-1800000D01*
%TO.N,NOTCH_OUT*%
X21110000Y-4030000D02*
X21080000Y-4000000D01*
X21110000Y-5100000D02*
X21110000Y-4030000D01*
X21080000Y-4000000D02*
X22300000Y-4000000D01*
D28*
%TO.N,Net-(R5-Pad1)*%
X11625000Y-3295000D02*
X11625000Y-1650000D01*
X11625000Y-1650000D02*
X11775000Y-1500000D01*
%TO.N,Net-(R5-Pad2)*%
X15220000Y-3295000D02*
X16575000Y-3295000D01*
X13425000Y-1500000D02*
X15220000Y-3295000D01*
D29*
%TO.N,LPF_IN*%
X31450000Y-7150000D02*
X31600000Y-7300000D01*
X31600000Y-7300000D02*
X31600000Y-10200000D01*
X30400000Y-7150000D02*
X31450000Y-7150000D01*
X31600000Y-10200000D02*
X30700000Y-11100000D01*
X30700000Y-11100000D02*
X30000000Y-11100000D01*
D28*
X28810000Y-11100000D02*
X30000000Y-11100000D01*
D27*
%TO.N,AMP_IN*%
X30400000Y-4550000D02*
X30400000Y-5200000D01*
X28900000Y-5200000D02*
X27900000Y-6200000D01*
X27700000Y-6400000D02*
X27700000Y-8100000D01*
D28*
X15965000Y-17035000D02*
X14625000Y-17035000D01*
D27*
X27900000Y-6200000D02*
X27700000Y-6400000D01*
D28*
X16700000Y-16300000D02*
X15965000Y-17035000D01*
D27*
X30400000Y-5200000D02*
X28900000Y-5200000D01*
D28*
%TO.N,Net-(R7-Pad2)*%
X19575000Y-17035000D02*
X22959665Y-17035000D01*
X22959665Y-17035000D02*
X22994665Y-17000000D01*
%TO.N,Net-(R7-Pad3)*%
X26244665Y-16000000D02*
X26244665Y-14555335D01*
X21335000Y-15765000D02*
X22100000Y-15000000D01*
X25244665Y-15000000D02*
X26244665Y-16000000D01*
X26244665Y-14555335D02*
X26400000Y-14400000D01*
X19575000Y-15765000D02*
X21335000Y-15765000D01*
X22100000Y-15000000D02*
X25244665Y-15000000D01*
%TO.N,Net-(R14-Pad2)*%
X16495000Y-14495000D02*
X17500000Y-15500000D01*
X17500000Y-18100000D02*
X17705000Y-18305000D01*
X17705000Y-18305000D02*
X19575000Y-18305000D01*
X17500000Y-15500000D02*
X17500000Y-18100000D01*
X14625000Y-14495000D02*
X16495000Y-14495000D01*
%TD*%
%TA.AperFunction,Conductor*%
%TO.N,GND*%
G36*
X41434121Y-528002D02*
G01*
X41480614Y-581658D01*
X41492000Y-634000D01*
X41492000Y-19366000D01*
X41471998Y-19434121D01*
X41418342Y-19480614D01*
X41366000Y-19492000D01*
X13619307Y-19492000D01*
X13551186Y-19471998D01*
X13504693Y-19418342D01*
X13494589Y-19348068D01*
X13524083Y-19283488D01*
X13530212Y-19276905D01*
X13536488Y-19270629D01*
X13540521Y-19263809D01*
X13540526Y-19263803D01*
X13594043Y-19173311D01*
X13645936Y-19124858D01*
X13712383Y-19111838D01*
X13721326Y-19112542D01*
X13731044Y-19113307D01*
X13731048Y-19113307D01*
X13733498Y-19113500D01*
X15516502Y-19113500D01*
X15518950Y-19113307D01*
X15518958Y-19113307D01*
X15547421Y-19111067D01*
X15547426Y-19111066D01*
X15553831Y-19110562D01*
X15653769Y-19081528D01*
X15705988Y-19066357D01*
X15705990Y-19066356D01*
X15713601Y-19064145D01*
X15803621Y-19010907D01*
X15872435Y-18993448D01*
X15941819Y-19017425D01*
X16009168Y-19066357D01*
X16043248Y-19091118D01*
X16049276Y-19093802D01*
X16049278Y-19093803D01*
X16144549Y-19136220D01*
X16217712Y-19168794D01*
X16311113Y-19188647D01*
X16398056Y-19207128D01*
X16398061Y-19207128D01*
X16404513Y-19208500D01*
X16595487Y-19208500D01*
X16601939Y-19207128D01*
X16601944Y-19207128D01*
X16688887Y-19188647D01*
X16782288Y-19168794D01*
X16855451Y-19136220D01*
X16950722Y-19093803D01*
X16950724Y-19093802D01*
X16956752Y-19091118D01*
X16990833Y-19066357D01*
X17064704Y-19012686D01*
X17111253Y-18978866D01*
X17115775Y-18973844D01*
X17207933Y-18871492D01*
X17268379Y-18834252D01*
X17339363Y-18835604D01*
X17364934Y-18849001D01*
X17365847Y-18847456D01*
X17372665Y-18851488D01*
X17378933Y-18856350D01*
X17419666Y-18873976D01*
X17430314Y-18879193D01*
X17469197Y-18900569D01*
X17476872Y-18902540D01*
X17476878Y-18902542D01*
X17488911Y-18905631D01*
X17507613Y-18912034D01*
X17526292Y-18920117D01*
X17560128Y-18925476D01*
X17570127Y-18927060D01*
X17581740Y-18929465D01*
X17624718Y-18940500D01*
X17645065Y-18940500D01*
X17664777Y-18942051D01*
X17684879Y-18945235D01*
X17692771Y-18944489D01*
X17729056Y-18941059D01*
X17740914Y-18940500D01*
X18252050Y-18940500D01*
X18320171Y-18960502D01*
X18331085Y-18969298D01*
X18331325Y-18968989D01*
X18337584Y-18973844D01*
X18343193Y-18979453D01*
X18350017Y-18983489D01*
X18350020Y-18983491D01*
X18407400Y-19017425D01*
X18486399Y-19064145D01*
X18494010Y-19066356D01*
X18494012Y-19066357D01*
X18546231Y-19081528D01*
X18646169Y-19110562D01*
X18652574Y-19111066D01*
X18652579Y-19111067D01*
X18681042Y-19113307D01*
X18681050Y-19113307D01*
X18683498Y-19113500D01*
X20466502Y-19113500D01*
X20468950Y-19113307D01*
X20468958Y-19113307D01*
X20497421Y-19111067D01*
X20497426Y-19111066D01*
X20503831Y-19110562D01*
X20603769Y-19081528D01*
X20655988Y-19066357D01*
X20655990Y-19066356D01*
X20663601Y-19064145D01*
X20742600Y-19017425D01*
X20799980Y-18983491D01*
X20799983Y-18983489D01*
X20806807Y-18979453D01*
X20924453Y-18861807D01*
X20928489Y-18854983D01*
X20928491Y-18854980D01*
X21000120Y-18733861D01*
X21009145Y-18718601D01*
X21030624Y-18644669D01*
X25136666Y-18644669D01*
X25137036Y-18651490D01*
X25142560Y-18702352D01*
X25146186Y-18717604D01*
X25191341Y-18838054D01*
X25199879Y-18853649D01*
X25276380Y-18955724D01*
X25288941Y-18968285D01*
X25391016Y-19044786D01*
X25406611Y-19053324D01*
X25527059Y-19098478D01*
X25542314Y-19102105D01*
X25593179Y-19107631D01*
X25599993Y-19108000D01*
X25972550Y-19108000D01*
X25987789Y-19103525D01*
X25988994Y-19102135D01*
X25990665Y-19094452D01*
X25990665Y-19089884D01*
X26498665Y-19089884D01*
X26503140Y-19105123D01*
X26504530Y-19106328D01*
X26512213Y-19107999D01*
X26889334Y-19107999D01*
X26896155Y-19107629D01*
X26947017Y-19102105D01*
X26962269Y-19098479D01*
X27082719Y-19053324D01*
X27098314Y-19044786D01*
X27200389Y-18968285D01*
X27212950Y-18955724D01*
X27289451Y-18853649D01*
X27297989Y-18838054D01*
X27343143Y-18717606D01*
X27346770Y-18702351D01*
X27352296Y-18651486D01*
X27352665Y-18644672D01*
X27352665Y-18544669D01*
X28992001Y-18544669D01*
X28992371Y-18551490D01*
X28997895Y-18602352D01*
X29001521Y-18617604D01*
X29046676Y-18738054D01*
X29055214Y-18753649D01*
X29131715Y-18855724D01*
X29144276Y-18868285D01*
X29246351Y-18944786D01*
X29261946Y-18953324D01*
X29382394Y-18998478D01*
X29397649Y-19002105D01*
X29448514Y-19007631D01*
X29455328Y-19008000D01*
X29727885Y-19008000D01*
X29743124Y-19003525D01*
X29744329Y-19002135D01*
X29746000Y-18994452D01*
X29746000Y-18272115D01*
X29741525Y-18256876D01*
X29740135Y-18255671D01*
X29732452Y-18254000D01*
X29010116Y-18254000D01*
X28994877Y-18258475D01*
X28993672Y-18259865D01*
X28992001Y-18267548D01*
X28992001Y-18544669D01*
X27352665Y-18544669D01*
X27352665Y-18272115D01*
X27348190Y-18256876D01*
X27346800Y-18255671D01*
X27339117Y-18254000D01*
X26516780Y-18254000D01*
X26501541Y-18258475D01*
X26500336Y-18259865D01*
X26498665Y-18267548D01*
X26498665Y-19089884D01*
X25990665Y-19089884D01*
X25990665Y-18272115D01*
X25986190Y-18256876D01*
X25984800Y-18255671D01*
X25977117Y-18254000D01*
X25154781Y-18254000D01*
X25139542Y-18258475D01*
X25138337Y-18259865D01*
X25136666Y-18267548D01*
X25136666Y-18644669D01*
X21030624Y-18644669D01*
X21055562Y-18558831D01*
X21056340Y-18548956D01*
X21058307Y-18523958D01*
X21058307Y-18523950D01*
X21058500Y-18521502D01*
X21058500Y-18088498D01*
X21058307Y-18086042D01*
X21056067Y-18057579D01*
X21056066Y-18057574D01*
X21055562Y-18051169D01*
X21019882Y-17928357D01*
X21011357Y-17899012D01*
X21011356Y-17899010D01*
X21009145Y-17891399D01*
X20990953Y-17860638D01*
X20973494Y-17791822D01*
X20996011Y-17724491D01*
X21051356Y-17680022D01*
X21099407Y-17670500D01*
X21610165Y-17670500D01*
X21678286Y-17690502D01*
X21724779Y-17744158D01*
X21736165Y-17796500D01*
X21736165Y-17848134D01*
X21742920Y-17910316D01*
X21794050Y-18046705D01*
X21881404Y-18163261D01*
X21997960Y-18250615D01*
X22134349Y-18301745D01*
X22196531Y-18308500D01*
X23792799Y-18308500D01*
X23854981Y-18301745D01*
X23991370Y-18250615D01*
X24107926Y-18163261D01*
X24195280Y-18046705D01*
X24246410Y-17910316D01*
X24253165Y-17848134D01*
X24253165Y-16151866D01*
X24246410Y-16089684D01*
X24195280Y-15953295D01*
X24108170Y-15837064D01*
X24083322Y-15770559D01*
X24098375Y-15701176D01*
X24148549Y-15650946D01*
X24208996Y-15635500D01*
X24929243Y-15635500D01*
X24997364Y-15655502D01*
X25018338Y-15672405D01*
X25099260Y-15753327D01*
X25133286Y-15815639D01*
X25136165Y-15842422D01*
X25136165Y-16648134D01*
X25142920Y-16710316D01*
X25194050Y-16846705D01*
X25199436Y-16853891D01*
X25252618Y-16924852D01*
X25277466Y-16991358D01*
X25262413Y-17060741D01*
X25252618Y-17075982D01*
X25199879Y-17146352D01*
X25191341Y-17161946D01*
X25146187Y-17282394D01*
X25142560Y-17297649D01*
X25137034Y-17348514D01*
X25136665Y-17355328D01*
X25136665Y-17727885D01*
X25141140Y-17743124D01*
X25142530Y-17744329D01*
X25150213Y-17746000D01*
X27334549Y-17746000D01*
X27349788Y-17741525D01*
X27350993Y-17740135D01*
X27352664Y-17732452D01*
X27352664Y-17727885D01*
X28992000Y-17727885D01*
X28996475Y-17743124D01*
X28997865Y-17744329D01*
X29005548Y-17746000D01*
X29727885Y-17746000D01*
X29743124Y-17741525D01*
X29744329Y-17740135D01*
X29746000Y-17732452D01*
X29746000Y-17010116D01*
X29741525Y-16994877D01*
X29740135Y-16993672D01*
X29732452Y-16992001D01*
X29455331Y-16992001D01*
X29448510Y-16992371D01*
X29397648Y-16997895D01*
X29382396Y-17001521D01*
X29261946Y-17046676D01*
X29246351Y-17055214D01*
X29144276Y-17131715D01*
X29131715Y-17144276D01*
X29055214Y-17246351D01*
X29046676Y-17261946D01*
X29001522Y-17382394D01*
X28997895Y-17397649D01*
X28992369Y-17448514D01*
X28992000Y-17455328D01*
X28992000Y-17727885D01*
X27352664Y-17727885D01*
X27352664Y-17355331D01*
X27352294Y-17348510D01*
X27346770Y-17297648D01*
X27343144Y-17282396D01*
X27297989Y-17161946D01*
X27289451Y-17146352D01*
X27236712Y-17075982D01*
X27211864Y-17009476D01*
X27226917Y-16940093D01*
X27236712Y-16924852D01*
X27289894Y-16853891D01*
X27295280Y-16846705D01*
X27346410Y-16710316D01*
X27353165Y-16648134D01*
X27353165Y-15351866D01*
X27346410Y-15289684D01*
X27295280Y-15153295D01*
X27207926Y-15036739D01*
X27200746Y-15031358D01*
X27195433Y-15026045D01*
X27161407Y-14963733D01*
X27166472Y-14892918D01*
X27175403Y-14873961D01*
X27234527Y-14771556D01*
X27293542Y-14589928D01*
X27296430Y-14562456D01*
X27312814Y-14406565D01*
X27313504Y-14400000D01*
X27302031Y-14290842D01*
X27294232Y-14216635D01*
X27294232Y-14216633D01*
X27293542Y-14210072D01*
X27234527Y-14028444D01*
X27224585Y-14011223D01*
X27185571Y-13943650D01*
X27139040Y-13863056D01*
X27132247Y-13855511D01*
X27015675Y-13726045D01*
X27015674Y-13726044D01*
X27011253Y-13721134D01*
X26879018Y-13625059D01*
X26862094Y-13612763D01*
X26862093Y-13612762D01*
X26856752Y-13608882D01*
X26850724Y-13606198D01*
X26850722Y-13606197D01*
X26688319Y-13533891D01*
X26688318Y-13533891D01*
X26682288Y-13531206D01*
X26582861Y-13510072D01*
X26501944Y-13492872D01*
X26501939Y-13492872D01*
X26495487Y-13491500D01*
X26304513Y-13491500D01*
X26298061Y-13492872D01*
X26298056Y-13492872D01*
X26217139Y-13510072D01*
X26117712Y-13531206D01*
X26111682Y-13533891D01*
X26111681Y-13533891D01*
X25949278Y-13606197D01*
X25949276Y-13606198D01*
X25943248Y-13608882D01*
X25937907Y-13612762D01*
X25937906Y-13612763D01*
X25920982Y-13625059D01*
X25788747Y-13721134D01*
X25784326Y-13726044D01*
X25784325Y-13726045D01*
X25667754Y-13855511D01*
X25660960Y-13863056D01*
X25614429Y-13943650D01*
X25575416Y-14011223D01*
X25565473Y-14028444D01*
X25506458Y-14210072D01*
X25505768Y-14216633D01*
X25505768Y-14216635D01*
X25501142Y-14260650D01*
X25474129Y-14326307D01*
X25415907Y-14366936D01*
X25344498Y-14369520D01*
X25324947Y-14364500D01*
X25304600Y-14364500D01*
X25284889Y-14362949D01*
X25272615Y-14361005D01*
X25264786Y-14359765D01*
X25256894Y-14360511D01*
X25220609Y-14363941D01*
X25208751Y-14364500D01*
X22179020Y-14364500D01*
X22167791Y-14363971D01*
X22160281Y-14362292D01*
X22152355Y-14362541D01*
X22152354Y-14362541D01*
X22092002Y-14364438D01*
X22088044Y-14364500D01*
X22060017Y-14364500D01*
X22055971Y-14365011D01*
X22044143Y-14365942D01*
X21999795Y-14367336D01*
X21992177Y-14369549D01*
X21992178Y-14369549D01*
X21980254Y-14373013D01*
X21960894Y-14377022D01*
X21948566Y-14378579D01*
X21948563Y-14378580D01*
X21940701Y-14379573D01*
X21933335Y-14382490D01*
X21933329Y-14382491D01*
X21899439Y-14395909D01*
X21888212Y-14399753D01*
X21845607Y-14412131D01*
X21838788Y-14416164D01*
X21838783Y-14416166D01*
X21828091Y-14422490D01*
X21810341Y-14431187D01*
X21791412Y-14438681D01*
X21784996Y-14443342D01*
X21784995Y-14443343D01*
X21755519Y-14464759D01*
X21745595Y-14471278D01*
X21714224Y-14489830D01*
X21714219Y-14489834D01*
X21707401Y-14493866D01*
X21693014Y-14508253D01*
X21677980Y-14521094D01*
X21661513Y-14533058D01*
X21656460Y-14539166D01*
X21633228Y-14567249D01*
X21625238Y-14576029D01*
X21240047Y-14961220D01*
X21177735Y-14995246D01*
X21106920Y-14990181D01*
X21050084Y-14947634D01*
X21025273Y-14881114D01*
X21029955Y-14836973D01*
X21053767Y-14755011D01*
X21053768Y-14755007D01*
X21055562Y-14748831D01*
X21057332Y-14726351D01*
X21058307Y-14713958D01*
X21058307Y-14713950D01*
X21058500Y-14711502D01*
X21058500Y-14278498D01*
X21058307Y-14276042D01*
X21056067Y-14247579D01*
X21056066Y-14247574D01*
X21055562Y-14241169D01*
X21014990Y-14101517D01*
X21011357Y-14089012D01*
X21011356Y-14089010D01*
X21009145Y-14081399D01*
X20992107Y-14052589D01*
X20928491Y-13945020D01*
X20928489Y-13945017D01*
X20924453Y-13938193D01*
X20806807Y-13820547D01*
X20682111Y-13746802D01*
X20633659Y-13694909D01*
X20620954Y-13625059D01*
X20648030Y-13559428D01*
X20657156Y-13549254D01*
X20730484Y-13475926D01*
X20740124Y-13463499D01*
X20815396Y-13336220D01*
X20821643Y-13321784D01*
X20863312Y-13178359D01*
X20864768Y-13170391D01*
X20861948Y-13156969D01*
X20850487Y-13154000D01*
X20034500Y-13154000D01*
X19966379Y-13133998D01*
X19919886Y-13080342D01*
X19908500Y-13028000D01*
X19908500Y-12772000D01*
X19928502Y-12703879D01*
X19982158Y-12657386D01*
X20034500Y-12646000D01*
X20848424Y-12646000D01*
X20863219Y-12641656D01*
X20865063Y-12631225D01*
X20863312Y-12621641D01*
X20821643Y-12478216D01*
X20815396Y-12463780D01*
X20806159Y-12448162D01*
X20788698Y-12379346D01*
X20811213Y-12312014D01*
X20866557Y-12267543D01*
X20922851Y-12258290D01*
X20995879Y-12263076D01*
X20995881Y-12263076D01*
X21000000Y-12263346D01*
X21004119Y-12263076D01*
X21291314Y-12244253D01*
X21291321Y-12244252D01*
X21295426Y-12243983D01*
X21299459Y-12243181D01*
X21299465Y-12243180D01*
X21581747Y-12187030D01*
X21581753Y-12187028D01*
X21585797Y-12186224D01*
X21589706Y-12184897D01*
X21589710Y-12184896D01*
X21862230Y-12092388D01*
X21862231Y-12092388D01*
X21866145Y-12091059D01*
X21869854Y-12089230D01*
X21869861Y-12089227D01*
X21955504Y-12046992D01*
X22025446Y-12034801D01*
X22090876Y-12062360D01*
X22100328Y-12070902D01*
X22194792Y-12165366D01*
X22200646Y-12171631D01*
X22237403Y-12213766D01*
X22280782Y-12244253D01*
X22287950Y-12249291D01*
X22293246Y-12253224D01*
X22341867Y-12291348D01*
X22348792Y-12294475D01*
X22352874Y-12296947D01*
X22362886Y-12302658D01*
X22367090Y-12304912D01*
X22373306Y-12309281D01*
X22380382Y-12312040D01*
X22380386Y-12312042D01*
X22430863Y-12331722D01*
X22436944Y-12334278D01*
X22445555Y-12338166D01*
X22493261Y-12359706D01*
X22500735Y-12361091D01*
X22505298Y-12362521D01*
X22516356Y-12365672D01*
X22520998Y-12366864D01*
X22528070Y-12369621D01*
X22589321Y-12377685D01*
X22595824Y-12378715D01*
X22656590Y-12389977D01*
X22664170Y-12389540D01*
X22664171Y-12389540D01*
X22716736Y-12386509D01*
X22723989Y-12386300D01*
X22804040Y-12386300D01*
X22868179Y-12403846D01*
X22989798Y-12475771D01*
X22997404Y-12480269D01*
X23005015Y-12482480D01*
X23005017Y-12482481D01*
X23071858Y-12501900D01*
X23153534Y-12525629D01*
X23159941Y-12526133D01*
X23159945Y-12526134D01*
X23187556Y-12528307D01*
X23187562Y-12528307D01*
X23190011Y-12528500D01*
X23389878Y-12528500D01*
X23589988Y-12528499D01*
X23626466Y-12525629D01*
X23723270Y-12497505D01*
X23774983Y-12482481D01*
X23774985Y-12482480D01*
X23782596Y-12480269D01*
X23836353Y-12448477D01*
X23905166Y-12431018D01*
X23964630Y-12448478D01*
X24010780Y-12475771D01*
X24025217Y-12482019D01*
X24138605Y-12514961D01*
X24152705Y-12514921D01*
X24156000Y-12507651D01*
X24156000Y-12501900D01*
X24664000Y-12501900D01*
X24667973Y-12515431D01*
X24675871Y-12516566D01*
X24794783Y-12482019D01*
X24809222Y-12475770D01*
X24935405Y-12401146D01*
X24947841Y-12391499D01*
X25051499Y-12287841D01*
X25061146Y-12275405D01*
X25135770Y-12149222D01*
X25142019Y-12134783D01*
X25183338Y-11992564D01*
X25185637Y-11979977D01*
X25186260Y-11972057D01*
X25183090Y-11956970D01*
X25171626Y-11954000D01*
X24682115Y-11954000D01*
X24666876Y-11958475D01*
X24665671Y-11959865D01*
X24664000Y-11967548D01*
X24664000Y-12501900D01*
X24156000Y-12501900D01*
X24156000Y-12037542D01*
X24161003Y-12002390D01*
X24163834Y-11992647D01*
X24163835Y-11992640D01*
X24165629Y-11986466D01*
X24167418Y-11963743D01*
X24168307Y-11952444D01*
X24168307Y-11952438D01*
X24168500Y-11949989D01*
X24168499Y-11450012D01*
X24166758Y-11427885D01*
X24664000Y-11427885D01*
X24668475Y-11443124D01*
X24669865Y-11444329D01*
X24677548Y-11446000D01*
X25169566Y-11446000D01*
X25184361Y-11441656D01*
X25186421Y-11429997D01*
X25185637Y-11420023D01*
X25183338Y-11407436D01*
X25142019Y-11265217D01*
X25135770Y-11250778D01*
X25061146Y-11124595D01*
X25051499Y-11112159D01*
X24947841Y-11008501D01*
X24935405Y-10998854D01*
X24809222Y-10924230D01*
X24794783Y-10917981D01*
X24681395Y-10885039D01*
X24667295Y-10885079D01*
X24664000Y-10892349D01*
X24664000Y-11427885D01*
X24166758Y-11427885D01*
X24165629Y-11413534D01*
X24162163Y-11401601D01*
X24161003Y-11397610D01*
X24156000Y-11362458D01*
X24156000Y-10898100D01*
X24152027Y-10884569D01*
X24144129Y-10883434D01*
X24025217Y-10917981D01*
X24010780Y-10924229D01*
X23964630Y-10951522D01*
X23895813Y-10968982D01*
X23836354Y-10951523D01*
X23782596Y-10919731D01*
X23774985Y-10917520D01*
X23774983Y-10917519D01*
X23657661Y-10883434D01*
X23626466Y-10874371D01*
X23620059Y-10873867D01*
X23620055Y-10873866D01*
X23592444Y-10871693D01*
X23592438Y-10871693D01*
X23589989Y-10871500D01*
X23577251Y-10871500D01*
X23265072Y-10871501D01*
X23196953Y-10851499D01*
X23150460Y-10797844D01*
X23140355Y-10727570D01*
X23145760Y-10705000D01*
X23184896Y-10589710D01*
X23184897Y-10589706D01*
X23186224Y-10585797D01*
X23187030Y-10581747D01*
X23243180Y-10299465D01*
X23243181Y-10299459D01*
X23243983Y-10295426D01*
X23244266Y-10291118D01*
X23263076Y-10004119D01*
X23263346Y-10000000D01*
X23258028Y-9918858D01*
X23244253Y-9708686D01*
X23244252Y-9708679D01*
X23243983Y-9704574D01*
X23219183Y-9579894D01*
X23187030Y-9418253D01*
X23187028Y-9418247D01*
X23186224Y-9414203D01*
X23167346Y-9358588D01*
X23092385Y-9137761D01*
X23092384Y-9137760D01*
X23091059Y-9133855D01*
X22969790Y-8887946D01*
X22957600Y-8818004D01*
X22985159Y-8752575D01*
X23043717Y-8712431D01*
X23095963Y-8706908D01*
X23098060Y-8707128D01*
X23104513Y-8708500D01*
X23295487Y-8708500D01*
X23301939Y-8707129D01*
X23306027Y-8706699D01*
X23375865Y-8719473D01*
X23427710Y-8767976D01*
X23436346Y-8785625D01*
X23480295Y-8896629D01*
X23567924Y-9012076D01*
X23683371Y-9099705D01*
X23818130Y-9153059D01*
X23904407Y-9163500D01*
X23935810Y-9163500D01*
X24003931Y-9183502D01*
X24052963Y-9243121D01*
X24055908Y-9250560D01*
X24059752Y-9261785D01*
X24072131Y-9304393D01*
X24076169Y-9311220D01*
X24076170Y-9311223D01*
X24082488Y-9321906D01*
X24091188Y-9339664D01*
X24095761Y-9351215D01*
X24095765Y-9351221D01*
X24098681Y-9358588D01*
X24103339Y-9364999D01*
X24103340Y-9365001D01*
X24124764Y-9394488D01*
X24131281Y-9404410D01*
X24149826Y-9435768D01*
X24149829Y-9435772D01*
X24153866Y-9442598D01*
X24168250Y-9456982D01*
X24181091Y-9472016D01*
X24193058Y-9488487D01*
X24199166Y-9493540D01*
X24227255Y-9516777D01*
X24236035Y-9524767D01*
X24774596Y-10063328D01*
X24808622Y-10125640D01*
X24811501Y-10152423D01*
X24811501Y-10229988D01*
X24814371Y-10266466D01*
X24816168Y-10272650D01*
X24856246Y-10410599D01*
X24859731Y-10422596D01*
X24863766Y-10429418D01*
X24863766Y-10429419D01*
X24879090Y-10455331D01*
X24942494Y-10562541D01*
X25057459Y-10677506D01*
X25064280Y-10681540D01*
X25165710Y-10741525D01*
X25197404Y-10760269D01*
X25205015Y-10762480D01*
X25205017Y-10762481D01*
X25225735Y-10768500D01*
X25353534Y-10805629D01*
X25359941Y-10806133D01*
X25359945Y-10806134D01*
X25387556Y-10808307D01*
X25387562Y-10808307D01*
X25390011Y-10808500D01*
X25589878Y-10808500D01*
X25789988Y-10808499D01*
X25826466Y-10805629D01*
X25954265Y-10768500D01*
X25974983Y-10762481D01*
X25974985Y-10762480D01*
X25982596Y-10760269D01*
X25989421Y-10756233D01*
X25989425Y-10756231D01*
X26035861Y-10728769D01*
X26104677Y-10711309D01*
X26164139Y-10728769D01*
X26210575Y-10756231D01*
X26210579Y-10756233D01*
X26217404Y-10760269D01*
X26225015Y-10762480D01*
X26225017Y-10762481D01*
X26245735Y-10768500D01*
X26373534Y-10805629D01*
X26379941Y-10806133D01*
X26379945Y-10806134D01*
X26407556Y-10808307D01*
X26407562Y-10808307D01*
X26410011Y-10808500D01*
X26609878Y-10808500D01*
X26809988Y-10808499D01*
X26846466Y-10805629D01*
X26852650Y-10803832D01*
X26858982Y-10802676D01*
X26859321Y-10804530D01*
X26921330Y-10804700D01*
X26980951Y-10843247D01*
X27010266Y-10907909D01*
X27011500Y-10925498D01*
X27011501Y-11224804D01*
X27011501Y-11349988D01*
X27014371Y-11386466D01*
X27027018Y-11429997D01*
X27051898Y-11515633D01*
X27059731Y-11542596D01*
X27063766Y-11549418D01*
X27063766Y-11549419D01*
X27120842Y-11645929D01*
X27142494Y-11682541D01*
X27257459Y-11797506D01*
X27264280Y-11801540D01*
X27355901Y-11855724D01*
X27397404Y-11880269D01*
X27405015Y-11882480D01*
X27405017Y-11882481D01*
X27483258Y-11905212D01*
X27553534Y-11925629D01*
X27559941Y-11926133D01*
X27559945Y-11926134D01*
X27587556Y-11928307D01*
X27587562Y-11928307D01*
X27590011Y-11928500D01*
X27789878Y-11928500D01*
X27989988Y-11928499D01*
X28026466Y-11925629D01*
X28123270Y-11897505D01*
X28174983Y-11882481D01*
X28174985Y-11882480D01*
X28182596Y-11880269D01*
X28189421Y-11876233D01*
X28189425Y-11876231D01*
X28235861Y-11848769D01*
X28304677Y-11831309D01*
X28364139Y-11848769D01*
X28410575Y-11876231D01*
X28410579Y-11876233D01*
X28417404Y-11880269D01*
X28425015Y-11882480D01*
X28425017Y-11882481D01*
X28503258Y-11905212D01*
X28573534Y-11925629D01*
X28579941Y-11926133D01*
X28579945Y-11926134D01*
X28607556Y-11928307D01*
X28607562Y-11928307D01*
X28610011Y-11928500D01*
X28809878Y-11928500D01*
X29009988Y-11928499D01*
X29046466Y-11925629D01*
X29143270Y-11897505D01*
X29194983Y-11882481D01*
X29194985Y-11882480D01*
X29202596Y-11880269D01*
X29298511Y-11823545D01*
X29362647Y-11806000D01*
X29478621Y-11806000D01*
X29542760Y-11823546D01*
X29555887Y-11831309D01*
X29570403Y-11839894D01*
X29578014Y-11842105D01*
X29578016Y-11842106D01*
X29600951Y-11848769D01*
X29727746Y-11885606D01*
X29734151Y-11886110D01*
X29734156Y-11886111D01*
X29762060Y-11888307D01*
X29762068Y-11888307D01*
X29764516Y-11888500D01*
X30235484Y-11888500D01*
X30237932Y-11888307D01*
X30237940Y-11888307D01*
X30265844Y-11886111D01*
X30265849Y-11886110D01*
X30272254Y-11885606D01*
X30399049Y-11848769D01*
X30421984Y-11842106D01*
X30421986Y-11842105D01*
X30429597Y-11839894D01*
X30444114Y-11831309D01*
X30457240Y-11823546D01*
X30521379Y-11806000D01*
X30793558Y-11806000D01*
X30807088Y-11802027D01*
X30810143Y-11780776D01*
X30839636Y-11716195D01*
X30888501Y-11681547D01*
X30891335Y-11680424D01*
X30892342Y-11680026D01*
X30903545Y-11676192D01*
X30936609Y-11666585D01*
X30936611Y-11666584D01*
X30944225Y-11664372D01*
X30960705Y-11654626D01*
X30978445Y-11645935D01*
X30996254Y-11638884D01*
X31030532Y-11613980D01*
X31040452Y-11607464D01*
X31070079Y-11589943D01*
X31070082Y-11589941D01*
X31076906Y-11585905D01*
X31090433Y-11572378D01*
X31105467Y-11559537D01*
X31114547Y-11552940D01*
X31114548Y-11552939D01*
X31120962Y-11548279D01*
X31147969Y-11515633D01*
X31155959Y-11506852D01*
X31747528Y-10915284D01*
X31809840Y-10881259D01*
X31880656Y-10886324D01*
X31937491Y-10928871D01*
X31949629Y-10948652D01*
X32036395Y-11124595D01*
X32039885Y-11131673D01*
X32042179Y-11135106D01*
X32184107Y-11347516D01*
X32204367Y-11377838D01*
X32207081Y-11380932D01*
X32207085Y-11380938D01*
X32390379Y-11589943D01*
X32399573Y-11600427D01*
X32402662Y-11603136D01*
X32619062Y-11792915D01*
X32619068Y-11792919D01*
X32622162Y-11795633D01*
X32625588Y-11797922D01*
X32625593Y-11797926D01*
X32747255Y-11879218D01*
X32792783Y-11933695D01*
X32801631Y-12004138D01*
X32766348Y-12073078D01*
X32704830Y-12134596D01*
X32642518Y-12168622D01*
X32615735Y-12171501D01*
X32610012Y-12171501D01*
X32573534Y-12174371D01*
X32491149Y-12198306D01*
X32425017Y-12217519D01*
X32425015Y-12217520D01*
X32417404Y-12219731D01*
X32410579Y-12223767D01*
X32410575Y-12223769D01*
X32364139Y-12251231D01*
X32295323Y-12268691D01*
X32235861Y-12251231D01*
X32189425Y-12223769D01*
X32189421Y-12223767D01*
X32182596Y-12219731D01*
X32174985Y-12217520D01*
X32174983Y-12217519D01*
X32074269Y-12188259D01*
X32026466Y-12174371D01*
X32020059Y-12173867D01*
X32020055Y-12173866D01*
X31992444Y-12171693D01*
X31992438Y-12171693D01*
X31989989Y-12171500D01*
X31790122Y-12171500D01*
X31590012Y-12171501D01*
X31553534Y-12174371D01*
X31471149Y-12198306D01*
X31405017Y-12217519D01*
X31405015Y-12217520D01*
X31397404Y-12219731D01*
X31390579Y-12223767D01*
X31390575Y-12223769D01*
X31270671Y-12294680D01*
X31197962Y-12311935D01*
X31163818Y-12309607D01*
X31156341Y-12310912D01*
X31156339Y-12310912D01*
X31118471Y-12317521D01*
X31102946Y-12320231D01*
X31096428Y-12321192D01*
X31035092Y-12328615D01*
X31027991Y-12331298D01*
X31023362Y-12332435D01*
X31012265Y-12335471D01*
X31007665Y-12336860D01*
X31000180Y-12338166D01*
X30993226Y-12341218D01*
X30993221Y-12341220D01*
X30958997Y-12356243D01*
X30888581Y-12365308D01*
X30824443Y-12334864D01*
X30811191Y-12319386D01*
X30799309Y-12314000D01*
X29206442Y-12314000D01*
X29192911Y-12317973D01*
X29191776Y-12325871D01*
X29228357Y-12451784D01*
X29234604Y-12466220D01*
X29309876Y-12593499D01*
X29319516Y-12605926D01*
X29424074Y-12710484D01*
X29436501Y-12720124D01*
X29563780Y-12795396D01*
X29578216Y-12801643D01*
X29721641Y-12843312D01*
X29734244Y-12845614D01*
X29762104Y-12847807D01*
X29766675Y-12847986D01*
X29833960Y-12870642D01*
X29878314Y-12926079D01*
X29885656Y-12996695D01*
X29855375Y-13058198D01*
X29760960Y-13163056D01*
X29757659Y-13168774D01*
X29690881Y-13284437D01*
X29665473Y-13328444D01*
X29606458Y-13510072D01*
X29605768Y-13516633D01*
X29605768Y-13516635D01*
X29593721Y-13631254D01*
X29586496Y-13700000D01*
X29587186Y-13706565D01*
X29604673Y-13872940D01*
X29606458Y-13889928D01*
X29665473Y-14071556D01*
X29668776Y-14077278D01*
X29668777Y-14077279D01*
X29725485Y-14175500D01*
X29742223Y-14244495D01*
X29719003Y-14311587D01*
X29663195Y-14355474D01*
X29616366Y-14364500D01*
X29306399Y-14364500D01*
X29238278Y-14344498D01*
X29221092Y-14329891D01*
X29220580Y-14330460D01*
X29215668Y-14326037D01*
X29211253Y-14321134D01*
X29169560Y-14290842D01*
X29062094Y-14212763D01*
X29062093Y-14212762D01*
X29056752Y-14208882D01*
X29050724Y-14206198D01*
X29050722Y-14206197D01*
X28888319Y-14133891D01*
X28888318Y-14133891D01*
X28882288Y-14131206D01*
X28770215Y-14107384D01*
X28701944Y-14092872D01*
X28701939Y-14092872D01*
X28695487Y-14091500D01*
X28504513Y-14091500D01*
X28498061Y-14092872D01*
X28498056Y-14092872D01*
X28429785Y-14107384D01*
X28317712Y-14131206D01*
X28311682Y-14133891D01*
X28311681Y-14133891D01*
X28149278Y-14206197D01*
X28149276Y-14206198D01*
X28143248Y-14208882D01*
X28137907Y-14212762D01*
X28137906Y-14212763D01*
X28111393Y-14232026D01*
X27988747Y-14321134D01*
X27984326Y-14326044D01*
X27984325Y-14326045D01*
X27878710Y-14443343D01*
X27860960Y-14463056D01*
X27828124Y-14519929D01*
X27769072Y-14622211D01*
X27765473Y-14628444D01*
X27706458Y-14810072D01*
X27705768Y-14816633D01*
X27705768Y-14816635D01*
X27696378Y-14905978D01*
X27686496Y-15000000D01*
X27687186Y-15006565D01*
X27691368Y-15046350D01*
X27706458Y-15189928D01*
X27765473Y-15371556D01*
X27860960Y-15536944D01*
X27865378Y-15541851D01*
X27865379Y-15541852D01*
X27963608Y-15650946D01*
X27988747Y-15678866D01*
X28010502Y-15694672D01*
X28116767Y-15771878D01*
X28143248Y-15791118D01*
X28149276Y-15793802D01*
X28149278Y-15793803D01*
X28311681Y-15866109D01*
X28317712Y-15868794D01*
X28411113Y-15888647D01*
X28498056Y-15907128D01*
X28498061Y-15907128D01*
X28504513Y-15908500D01*
X28695487Y-15908500D01*
X28701939Y-15907128D01*
X28701944Y-15907128D01*
X28788887Y-15888647D01*
X28882288Y-15868794D01*
X28888319Y-15866109D01*
X29050722Y-15793803D01*
X29050724Y-15793802D01*
X29056752Y-15791118D01*
X29083234Y-15771878D01*
X29198385Y-15688215D01*
X29211253Y-15678866D01*
X29215668Y-15673963D01*
X29220580Y-15669540D01*
X29222221Y-15671362D01*
X29273210Y-15639950D01*
X29306399Y-15635500D01*
X33884578Y-15635500D01*
X33952699Y-15655502D01*
X33973673Y-15672405D01*
X34427595Y-16126327D01*
X34461621Y-16188639D01*
X34464500Y-16215422D01*
X34464500Y-16995989D01*
X34444498Y-17064110D01*
X34390842Y-17110603D01*
X34320568Y-17120707D01*
X34278571Y-17106825D01*
X34269176Y-17101745D01*
X34202701Y-17065802D01*
X34013768Y-17007318D01*
X34007643Y-17006674D01*
X34007642Y-17006674D01*
X33823204Y-16987289D01*
X33823202Y-16987289D01*
X33817075Y-16986645D01*
X33754179Y-16992369D01*
X33626251Y-17004011D01*
X33626248Y-17004012D01*
X33620112Y-17004570D01*
X33614206Y-17006308D01*
X33614202Y-17006309D01*
X33509076Y-17037249D01*
X33430381Y-17060410D01*
X33424923Y-17063263D01*
X33424919Y-17063265D01*
X33397840Y-17077422D01*
X33255110Y-17152040D01*
X33250310Y-17155900D01*
X33245153Y-17159274D01*
X33243769Y-17157158D01*
X33188365Y-17180027D01*
X33118512Y-17167334D01*
X33108898Y-17161709D01*
X33106675Y-17159870D01*
X32932701Y-17065802D01*
X32743768Y-17007318D01*
X32737643Y-17006674D01*
X32737642Y-17006674D01*
X32553204Y-16987289D01*
X32553202Y-16987289D01*
X32547075Y-16986645D01*
X32484179Y-16992369D01*
X32356251Y-17004011D01*
X32356248Y-17004012D01*
X32350112Y-17004570D01*
X32344206Y-17006308D01*
X32344202Y-17006309D01*
X32239076Y-17037249D01*
X32160381Y-17060410D01*
X32154923Y-17063263D01*
X32154919Y-17063265D01*
X32127840Y-17077422D01*
X31985110Y-17152040D01*
X31980310Y-17155900D01*
X31975153Y-17159274D01*
X31973769Y-17157158D01*
X31918365Y-17180027D01*
X31848512Y-17167334D01*
X31838898Y-17161709D01*
X31836675Y-17159870D01*
X31662701Y-17065802D01*
X31473768Y-17007318D01*
X31467643Y-17006674D01*
X31467642Y-17006674D01*
X31283204Y-16987289D01*
X31283202Y-16987289D01*
X31277075Y-16986645D01*
X31214179Y-16992369D01*
X31086251Y-17004011D01*
X31086248Y-17004012D01*
X31080112Y-17004570D01*
X31074206Y-17006308D01*
X31074202Y-17006309D01*
X30896293Y-17058670D01*
X30890381Y-17060410D01*
X30884916Y-17063267D01*
X30884304Y-17063587D01*
X30883950Y-17063657D01*
X30879209Y-17065573D01*
X30878845Y-17064672D01*
X30814668Y-17077422D01*
X30762645Y-17057462D01*
X30761517Y-17059522D01*
X30738054Y-17046676D01*
X30617606Y-17001522D01*
X30602351Y-16997895D01*
X30551486Y-16992369D01*
X30544672Y-16992000D01*
X30272115Y-16992000D01*
X30256876Y-16996475D01*
X30255671Y-16997865D01*
X30254000Y-17005548D01*
X30254000Y-18989884D01*
X30258475Y-19005123D01*
X30259865Y-19006328D01*
X30267548Y-19007999D01*
X30544669Y-19007999D01*
X30551490Y-19007629D01*
X30602352Y-19002105D01*
X30617604Y-18998479D01*
X30738054Y-18953324D01*
X30761517Y-18940478D01*
X30762792Y-18942806D01*
X30816321Y-18922797D01*
X30864333Y-18928637D01*
X31052392Y-18989740D01*
X31248777Y-19013158D01*
X31254912Y-19012686D01*
X31254914Y-19012686D01*
X31439830Y-18998457D01*
X31439834Y-18998456D01*
X31445972Y-18997984D01*
X31636463Y-18944798D01*
X31641967Y-18942018D01*
X31641969Y-18942017D01*
X31807493Y-18858405D01*
X31807495Y-18858404D01*
X31812996Y-18855625D01*
X31817850Y-18851833D01*
X31817859Y-18851827D01*
X31826548Y-18845038D01*
X31892542Y-18818860D01*
X31965592Y-18834339D01*
X32134294Y-18928624D01*
X32322392Y-18989740D01*
X32518777Y-19013158D01*
X32524912Y-19012686D01*
X32524914Y-19012686D01*
X32709830Y-18998457D01*
X32709834Y-18998456D01*
X32715972Y-18997984D01*
X32906463Y-18944798D01*
X32911967Y-18942018D01*
X32911969Y-18942017D01*
X33077493Y-18858405D01*
X33077495Y-18858404D01*
X33082996Y-18855625D01*
X33087850Y-18851833D01*
X33087859Y-18851827D01*
X33096548Y-18845038D01*
X33162542Y-18818860D01*
X33235592Y-18834339D01*
X33404294Y-18928624D01*
X33592392Y-18989740D01*
X33788777Y-19013158D01*
X33794912Y-19012686D01*
X33794914Y-19012686D01*
X33979830Y-18998457D01*
X33979834Y-18998456D01*
X33985972Y-18997984D01*
X34176463Y-18944798D01*
X34181967Y-18942018D01*
X34181969Y-18942017D01*
X34347493Y-18858405D01*
X34347495Y-18858404D01*
X34352996Y-18855625D01*
X34357850Y-18851833D01*
X34357859Y-18851827D01*
X34366548Y-18845038D01*
X34432542Y-18818860D01*
X34505592Y-18834339D01*
X34674294Y-18928624D01*
X34862392Y-18989740D01*
X35058777Y-19013158D01*
X35064912Y-19012686D01*
X35064914Y-19012686D01*
X35249830Y-18998457D01*
X35249834Y-18998456D01*
X35255972Y-18997984D01*
X35446463Y-18944798D01*
X35451967Y-18942018D01*
X35451969Y-18942017D01*
X35617495Y-18858404D01*
X35617497Y-18858403D01*
X35622996Y-18855625D01*
X35778847Y-18733861D01*
X35880784Y-18615766D01*
X35904049Y-18588813D01*
X35904050Y-18588811D01*
X35908078Y-18584145D01*
X36005769Y-18412179D01*
X36068197Y-18224513D01*
X36092985Y-18028295D01*
X36093380Y-18000000D01*
X36074080Y-17803167D01*
X36067160Y-17780245D01*
X36039866Y-17689844D01*
X36016916Y-17613831D01*
X35924066Y-17439204D01*
X35850098Y-17348510D01*
X35802960Y-17290713D01*
X35802957Y-17290710D01*
X35799065Y-17285938D01*
X35794317Y-17282010D01*
X35794314Y-17282007D01*
X35781183Y-17271144D01*
X35741446Y-17212310D01*
X35735500Y-17174061D01*
X35735500Y-17000000D01*
X37386526Y-17000000D01*
X37406391Y-17252403D01*
X37407545Y-17257210D01*
X37407546Y-17257216D01*
X37442592Y-17403191D01*
X37465495Y-17498591D01*
X37467388Y-17503162D01*
X37467389Y-17503164D01*
X37560472Y-17727885D01*
X37562384Y-17732502D01*
X37564970Y-17736722D01*
X37567913Y-17741525D01*
X37694672Y-17948376D01*
X37859102Y-18140898D01*
X38051624Y-18305328D01*
X38267498Y-18437616D01*
X38272068Y-18439509D01*
X38272072Y-18439511D01*
X38475946Y-18523958D01*
X38501409Y-18534505D01*
X38572157Y-18551490D01*
X38742784Y-18592454D01*
X38742790Y-18592455D01*
X38747597Y-18593609D01*
X38847416Y-18601465D01*
X38934345Y-18608307D01*
X38934352Y-18608307D01*
X38936801Y-18608500D01*
X39063199Y-18608500D01*
X39065648Y-18608307D01*
X39065655Y-18608307D01*
X39152584Y-18601465D01*
X39252403Y-18593609D01*
X39257210Y-18592455D01*
X39257216Y-18592454D01*
X39427843Y-18551490D01*
X39498591Y-18534505D01*
X39524054Y-18523958D01*
X39727928Y-18439511D01*
X39727932Y-18439509D01*
X39732502Y-18437616D01*
X39948376Y-18305328D01*
X40140898Y-18140898D01*
X40305328Y-17948376D01*
X40432087Y-17741525D01*
X40435030Y-17736722D01*
X40437616Y-17732502D01*
X40439529Y-17727885D01*
X40532611Y-17503164D01*
X40532612Y-17503162D01*
X40534505Y-17498591D01*
X40557408Y-17403191D01*
X40592454Y-17257216D01*
X40592455Y-17257210D01*
X40593609Y-17252403D01*
X40613474Y-17000000D01*
X40593609Y-16747597D01*
X40583759Y-16706565D01*
X40535660Y-16506221D01*
X40534505Y-16501409D01*
X40532611Y-16496836D01*
X40439511Y-16272072D01*
X40439509Y-16272068D01*
X40437616Y-16267498D01*
X40305328Y-16051624D01*
X40140898Y-15859102D01*
X40130341Y-15850085D01*
X40096628Y-15821292D01*
X39948376Y-15694672D01*
X39732502Y-15562384D01*
X39727932Y-15560491D01*
X39727928Y-15560489D01*
X39503164Y-15467389D01*
X39503162Y-15467388D01*
X39498591Y-15465495D01*
X39413968Y-15445179D01*
X39257216Y-15407546D01*
X39257210Y-15407545D01*
X39252403Y-15406391D01*
X39152584Y-15398535D01*
X39065655Y-15391693D01*
X39065648Y-15391693D01*
X39063199Y-15391500D01*
X38936801Y-15391500D01*
X38934352Y-15391693D01*
X38934345Y-15391693D01*
X38847416Y-15398535D01*
X38747597Y-15406391D01*
X38742790Y-15407545D01*
X38742784Y-15407546D01*
X38586032Y-15445179D01*
X38501409Y-15465495D01*
X38496838Y-15467388D01*
X38496836Y-15467389D01*
X38272072Y-15560489D01*
X38272068Y-15560491D01*
X38267498Y-15562384D01*
X38051624Y-15694672D01*
X37903372Y-15821292D01*
X37869660Y-15850085D01*
X37859102Y-15859102D01*
X37694672Y-16051624D01*
X37562384Y-16267498D01*
X37560491Y-16272068D01*
X37560489Y-16272072D01*
X37467389Y-16496836D01*
X37465495Y-16501409D01*
X37464340Y-16506221D01*
X37416242Y-16706565D01*
X37406391Y-16747597D01*
X37386526Y-17000000D01*
X35735500Y-17000000D01*
X35735500Y-15979020D01*
X35736030Y-15967786D01*
X35737708Y-15960281D01*
X35735562Y-15891988D01*
X35735500Y-15888031D01*
X35735500Y-15860017D01*
X35734992Y-15855996D01*
X35734058Y-15844144D01*
X35733826Y-15836739D01*
X35732665Y-15799795D01*
X35726987Y-15780251D01*
X35722977Y-15760888D01*
X35721420Y-15748560D01*
X35721420Y-15748558D01*
X35720427Y-15740701D01*
X35717511Y-15733337D01*
X35717510Y-15733332D01*
X35704093Y-15699444D01*
X35700248Y-15688215D01*
X35694822Y-15669540D01*
X35687869Y-15645607D01*
X35677510Y-15628091D01*
X35668813Y-15610341D01*
X35661319Y-15591412D01*
X35654573Y-15582126D01*
X35635241Y-15555519D01*
X35628722Y-15545595D01*
X35610170Y-15514224D01*
X35610166Y-15514219D01*
X35606134Y-15507401D01*
X35591747Y-15493014D01*
X35578906Y-15477980D01*
X35571602Y-15467927D01*
X35566942Y-15461513D01*
X35560496Y-15456180D01*
X35532751Y-15433228D01*
X35523971Y-15425238D01*
X34705250Y-14606517D01*
X34697674Y-14598191D01*
X34693553Y-14591697D01*
X34643734Y-14544914D01*
X34640893Y-14542160D01*
X34621094Y-14522361D01*
X34617969Y-14519937D01*
X34617960Y-14519929D01*
X34617874Y-14519863D01*
X34608849Y-14512155D01*
X34582285Y-14487210D01*
X34576506Y-14481783D01*
X34558669Y-14471977D01*
X34542153Y-14461127D01*
X34526067Y-14448650D01*
X34485334Y-14431024D01*
X34474686Y-14425807D01*
X34445789Y-14409921D01*
X34435803Y-14404431D01*
X34428128Y-14402460D01*
X34428122Y-14402458D01*
X34416089Y-14399369D01*
X34397387Y-14392966D01*
X34378708Y-14384883D01*
X34338907Y-14378579D01*
X34334873Y-14377940D01*
X34323260Y-14375535D01*
X34280282Y-14364500D01*
X34259935Y-14364500D01*
X34240224Y-14362949D01*
X34227950Y-14361005D01*
X34220121Y-14359765D01*
X34212229Y-14360511D01*
X34175944Y-14363941D01*
X34164086Y-14364500D01*
X31383634Y-14364500D01*
X31315513Y-14344498D01*
X31269020Y-14290842D01*
X31258916Y-14220568D01*
X31274515Y-14175500D01*
X31331223Y-14077279D01*
X31331224Y-14077278D01*
X31334527Y-14071556D01*
X31388701Y-13904828D01*
X31428773Y-13846223D01*
X31494170Y-13818586D01*
X31543685Y-13822768D01*
X31547353Y-13823834D01*
X31547360Y-13823835D01*
X31553534Y-13825629D01*
X31559941Y-13826133D01*
X31559945Y-13826134D01*
X31587556Y-13828307D01*
X31587562Y-13828307D01*
X31590011Y-13828500D01*
X31789878Y-13828500D01*
X31989988Y-13828499D01*
X32026466Y-13825629D01*
X32143395Y-13791658D01*
X32174983Y-13782481D01*
X32174985Y-13782480D01*
X32182596Y-13780269D01*
X32189421Y-13776233D01*
X32189425Y-13776231D01*
X32235861Y-13748769D01*
X32304677Y-13731309D01*
X32364139Y-13748769D01*
X32410575Y-13776231D01*
X32410579Y-13776233D01*
X32417404Y-13780269D01*
X32425015Y-13782480D01*
X32425017Y-13782481D01*
X32456605Y-13791658D01*
X32573534Y-13825629D01*
X32579941Y-13826133D01*
X32579945Y-13826134D01*
X32607556Y-13828307D01*
X32607562Y-13828307D01*
X32610011Y-13828500D01*
X32809878Y-13828500D01*
X33009988Y-13828499D01*
X33046466Y-13825629D01*
X33163395Y-13791658D01*
X33194983Y-13782481D01*
X33194985Y-13782480D01*
X33202596Y-13780269D01*
X33281437Y-13733643D01*
X33335720Y-13701540D01*
X33342541Y-13697506D01*
X33457506Y-13582541D01*
X33484989Y-13536070D01*
X33536234Y-13449419D01*
X33536234Y-13449418D01*
X33540269Y-13442596D01*
X33543573Y-13431226D01*
X33583834Y-13292644D01*
X33585629Y-13286466D01*
X33587298Y-13265271D01*
X33588307Y-13252444D01*
X33588307Y-13252438D01*
X33588500Y-13249989D01*
X33588500Y-13244265D01*
X33608502Y-13176144D01*
X33625405Y-13155170D01*
X34465374Y-12315201D01*
X34471639Y-12309347D01*
X34508045Y-12277588D01*
X34508046Y-12277587D01*
X34513766Y-12272597D01*
X34547278Y-12224914D01*
X34602809Y-12180686D01*
X34609849Y-12178059D01*
X34866145Y-12091059D01*
X35036484Y-12007057D01*
X35127969Y-11961942D01*
X35127974Y-11961939D01*
X35131673Y-11960115D01*
X35238853Y-11888500D01*
X35374407Y-11797926D01*
X35374412Y-11797922D01*
X35377838Y-11795633D01*
X35380932Y-11792919D01*
X35380938Y-11792915D01*
X35597338Y-11603136D01*
X35600427Y-11600427D01*
X35609621Y-11589943D01*
X35792915Y-11380938D01*
X35792919Y-11380932D01*
X35795633Y-11377838D01*
X35815894Y-11347516D01*
X35957821Y-11135106D01*
X35960115Y-11131673D01*
X35963606Y-11124595D01*
X36062121Y-10924826D01*
X36091059Y-10866145D01*
X36111917Y-10804700D01*
X36184896Y-10589710D01*
X36184897Y-10589706D01*
X36186224Y-10585797D01*
X36187030Y-10581747D01*
X36243180Y-10299465D01*
X36243181Y-10299459D01*
X36243983Y-10295426D01*
X36244266Y-10291118D01*
X36263076Y-10004119D01*
X36263346Y-10000000D01*
X36258028Y-9918858D01*
X36244253Y-9708686D01*
X36244252Y-9708679D01*
X36243983Y-9704574D01*
X36219183Y-9579894D01*
X36187030Y-9418253D01*
X36187028Y-9418247D01*
X36186224Y-9414203D01*
X36167346Y-9358588D01*
X36092385Y-9137761D01*
X36092384Y-9137760D01*
X36091059Y-9133855D01*
X36026328Y-9002593D01*
X35961942Y-8872031D01*
X35961939Y-8872026D01*
X35960115Y-8868327D01*
X35855949Y-8712431D01*
X35797926Y-8625593D01*
X35797922Y-8625588D01*
X35795633Y-8622162D01*
X35792919Y-8619068D01*
X35792915Y-8619062D01*
X35603136Y-8402662D01*
X35600427Y-8399573D01*
X35587097Y-8387883D01*
X35380938Y-8207085D01*
X35380932Y-8207081D01*
X35377838Y-8204367D01*
X35374412Y-8202078D01*
X35374407Y-8202074D01*
X35160186Y-8058937D01*
X35131673Y-8039885D01*
X35127974Y-8038061D01*
X35127969Y-8038058D01*
X34921088Y-7936036D01*
X34866145Y-7908941D01*
X34858336Y-7906290D01*
X34777040Y-7878694D01*
X34718964Y-7837857D01*
X34692185Y-7772104D01*
X34705206Y-7702312D01*
X34728446Y-7670286D01*
X35644733Y-6754000D01*
X36693483Y-5705250D01*
X36701809Y-5697674D01*
X36708303Y-5693553D01*
X36755086Y-5643734D01*
X36757840Y-5640893D01*
X36777639Y-5621094D01*
X36780063Y-5617969D01*
X36780071Y-5617960D01*
X36780137Y-5617874D01*
X36787845Y-5608849D01*
X36812790Y-5582285D01*
X36818217Y-5576506D01*
X36828023Y-5558669D01*
X36838873Y-5542153D01*
X36851350Y-5526067D01*
X36868976Y-5485334D01*
X36874193Y-5474686D01*
X36891749Y-5442751D01*
X36895569Y-5435803D01*
X36897540Y-5428128D01*
X36897542Y-5428122D01*
X36900631Y-5416089D01*
X36907034Y-5397387D01*
X36915117Y-5378708D01*
X36922060Y-5334873D01*
X36924467Y-5323251D01*
X36935500Y-5280282D01*
X36935500Y-5259935D01*
X36937051Y-5240224D01*
X36938995Y-5227950D01*
X36940235Y-5220121D01*
X36938537Y-5202156D01*
X36936059Y-5175944D01*
X36935500Y-5164086D01*
X36935500Y-3279020D01*
X36936030Y-3267786D01*
X36937708Y-3260281D01*
X36935562Y-3191988D01*
X36935500Y-3188031D01*
X36935500Y-3160017D01*
X36934992Y-3155996D01*
X36934058Y-3144144D01*
X36932914Y-3107718D01*
X36932914Y-3107717D01*
X36932665Y-3099795D01*
X36926987Y-3080251D01*
X36922977Y-3060888D01*
X36921420Y-3048560D01*
X36921420Y-3048558D01*
X36920427Y-3040701D01*
X36917511Y-3033337D01*
X36917510Y-3033332D01*
X36904313Y-3000000D01*
X37386526Y-3000000D01*
X37406391Y-3252403D01*
X37407545Y-3257210D01*
X37407546Y-3257216D01*
X37424429Y-3327539D01*
X37465495Y-3498591D01*
X37467388Y-3503162D01*
X37467389Y-3503164D01*
X37528216Y-3650012D01*
X37562384Y-3732502D01*
X37694672Y-3948376D01*
X37859102Y-4140898D01*
X38051624Y-4305328D01*
X38267498Y-4437616D01*
X38272068Y-4439509D01*
X38272072Y-4439511D01*
X38496836Y-4532611D01*
X38501409Y-4534505D01*
X38565901Y-4549988D01*
X38742784Y-4592454D01*
X38742790Y-4592455D01*
X38747597Y-4593609D01*
X38847416Y-4601465D01*
X38934345Y-4608307D01*
X38934352Y-4608307D01*
X38936801Y-4608500D01*
X39063199Y-4608500D01*
X39065648Y-4608307D01*
X39065655Y-4608307D01*
X39152584Y-4601465D01*
X39252403Y-4593609D01*
X39257210Y-4592455D01*
X39257216Y-4592454D01*
X39434099Y-4549988D01*
X39498591Y-4534505D01*
X39503164Y-4532611D01*
X39727928Y-4439511D01*
X39727932Y-4439509D01*
X39732502Y-4437616D01*
X39948376Y-4305328D01*
X40140898Y-4140898D01*
X40305328Y-3948376D01*
X40437616Y-3732502D01*
X40471785Y-3650012D01*
X40532611Y-3503164D01*
X40532612Y-3503162D01*
X40534505Y-3498591D01*
X40575571Y-3327539D01*
X40592454Y-3257216D01*
X40592455Y-3257210D01*
X40593609Y-3252403D01*
X40613474Y-3000000D01*
X40593609Y-2747597D01*
X40591352Y-2738193D01*
X40542775Y-2535855D01*
X40534505Y-2501409D01*
X40529562Y-2489475D01*
X40439511Y-2272072D01*
X40439509Y-2272068D01*
X40437616Y-2267498D01*
X40432939Y-2259865D01*
X40403092Y-2211160D01*
X40305328Y-2051624D01*
X40140898Y-1859102D01*
X39948376Y-1694672D01*
X39732502Y-1562384D01*
X39727932Y-1560491D01*
X39727928Y-1560489D01*
X39503164Y-1467389D01*
X39503162Y-1467388D01*
X39498591Y-1465495D01*
X39369187Y-1434428D01*
X39257216Y-1407546D01*
X39257210Y-1407545D01*
X39252403Y-1406391D01*
X39141328Y-1397649D01*
X39065655Y-1391693D01*
X39065648Y-1391693D01*
X39063199Y-1391500D01*
X38936801Y-1391500D01*
X38934352Y-1391693D01*
X38934345Y-1391693D01*
X38858672Y-1397649D01*
X38747597Y-1406391D01*
X38742790Y-1407545D01*
X38742784Y-1407546D01*
X38630813Y-1434428D01*
X38501409Y-1465495D01*
X38496838Y-1467388D01*
X38496836Y-1467389D01*
X38272072Y-1560489D01*
X38272068Y-1560491D01*
X38267498Y-1562384D01*
X38051624Y-1694672D01*
X37859102Y-1859102D01*
X37694672Y-2051624D01*
X37596908Y-2211160D01*
X37567062Y-2259865D01*
X37562384Y-2267498D01*
X37560491Y-2272068D01*
X37560489Y-2272072D01*
X37470438Y-2489475D01*
X37465495Y-2501409D01*
X37457225Y-2535855D01*
X37408649Y-2738193D01*
X37406391Y-2747597D01*
X37386526Y-3000000D01*
X36904313Y-3000000D01*
X36904093Y-2999444D01*
X36900248Y-2988215D01*
X36890080Y-2953219D01*
X36887869Y-2945607D01*
X36877510Y-2928091D01*
X36868813Y-2910341D01*
X36861319Y-2891412D01*
X36835240Y-2855517D01*
X36828722Y-2845595D01*
X36810170Y-2814224D01*
X36810166Y-2814219D01*
X36806134Y-2807401D01*
X36791747Y-2793014D01*
X36778906Y-2777980D01*
X36771602Y-2767927D01*
X36766942Y-2761513D01*
X36732750Y-2733227D01*
X36723971Y-2725238D01*
X36129093Y-2130360D01*
X36095067Y-2068048D01*
X36092496Y-2032464D01*
X36092543Y-2031795D01*
X36092985Y-2028295D01*
X36093380Y-2000000D01*
X36074080Y-1803167D01*
X36055050Y-1740135D01*
X36018697Y-1619731D01*
X36016916Y-1613831D01*
X35924066Y-1439204D01*
X35845408Y-1342760D01*
X35802960Y-1290713D01*
X35802957Y-1290710D01*
X35799065Y-1285938D01*
X35794316Y-1282009D01*
X35651425Y-1163799D01*
X35651421Y-1163797D01*
X35646675Y-1159870D01*
X35472701Y-1065802D01*
X35283768Y-1007318D01*
X35277643Y-1006674D01*
X35277642Y-1006674D01*
X35093204Y-987289D01*
X35093202Y-987289D01*
X35087075Y-986645D01*
X35013059Y-993381D01*
X34896251Y-1004011D01*
X34896248Y-1004012D01*
X34890112Y-1004570D01*
X34884206Y-1006308D01*
X34884202Y-1006309D01*
X34789630Y-1034143D01*
X34700381Y-1060410D01*
X34694923Y-1063263D01*
X34694919Y-1063265D01*
X34621590Y-1101601D01*
X34525110Y-1152040D01*
X34520310Y-1155900D01*
X34515153Y-1159274D01*
X34513769Y-1157158D01*
X34458365Y-1180027D01*
X34388512Y-1167334D01*
X34378898Y-1161709D01*
X34376675Y-1159870D01*
X34202701Y-1065802D01*
X34013768Y-1007318D01*
X34007643Y-1006674D01*
X34007642Y-1006674D01*
X33823204Y-987289D01*
X33823202Y-987289D01*
X33817075Y-986645D01*
X33743059Y-993381D01*
X33626251Y-1004011D01*
X33626248Y-1004012D01*
X33620112Y-1004570D01*
X33614206Y-1006308D01*
X33614202Y-1006309D01*
X33519630Y-1034143D01*
X33430381Y-1060410D01*
X33424923Y-1063263D01*
X33424919Y-1063265D01*
X33351590Y-1101601D01*
X33255110Y-1152040D01*
X33250310Y-1155900D01*
X33245153Y-1159274D01*
X33243769Y-1157158D01*
X33188365Y-1180027D01*
X33118512Y-1167334D01*
X33108898Y-1161709D01*
X33106675Y-1159870D01*
X32932701Y-1065802D01*
X32743768Y-1007318D01*
X32737643Y-1006674D01*
X32737642Y-1006674D01*
X32553204Y-987289D01*
X32553202Y-987289D01*
X32547075Y-986645D01*
X32473059Y-993381D01*
X32356251Y-1004011D01*
X32356248Y-1004012D01*
X32350112Y-1004570D01*
X32344206Y-1006308D01*
X32344202Y-1006309D01*
X32249630Y-1034143D01*
X32160381Y-1060410D01*
X32154923Y-1063263D01*
X32154919Y-1063265D01*
X32081590Y-1101601D01*
X31985110Y-1152040D01*
X31980310Y-1155900D01*
X31975153Y-1159274D01*
X31973769Y-1157158D01*
X31918365Y-1180027D01*
X31848512Y-1167334D01*
X31838898Y-1161709D01*
X31836675Y-1159870D01*
X31662701Y-1065802D01*
X31473768Y-1007318D01*
X31467643Y-1006674D01*
X31467642Y-1006674D01*
X31283204Y-987289D01*
X31283202Y-987289D01*
X31277075Y-986645D01*
X31203059Y-993381D01*
X31086251Y-1004011D01*
X31086248Y-1004012D01*
X31080112Y-1004570D01*
X31074206Y-1006308D01*
X31074202Y-1006309D01*
X30900357Y-1057474D01*
X30890381Y-1060410D01*
X30884916Y-1063267D01*
X30884304Y-1063587D01*
X30883950Y-1063657D01*
X30879209Y-1065573D01*
X30878845Y-1064672D01*
X30814668Y-1077422D01*
X30762645Y-1057462D01*
X30761517Y-1059522D01*
X30738054Y-1046676D01*
X30617606Y-1001522D01*
X30602351Y-997895D01*
X30551486Y-992369D01*
X30544672Y-992000D01*
X30272115Y-992000D01*
X30256876Y-996475D01*
X30255671Y-997865D01*
X30254000Y-1005548D01*
X30254000Y-2128000D01*
X30233998Y-2196121D01*
X30180342Y-2242614D01*
X30128000Y-2254000D01*
X29010116Y-2254000D01*
X28994877Y-2258475D01*
X28993672Y-2259865D01*
X28992001Y-2267548D01*
X28992001Y-2544669D01*
X28992371Y-2551490D01*
X28997895Y-2602352D01*
X29001521Y-2617603D01*
X29032503Y-2700247D01*
X29037686Y-2771054D01*
X29003616Y-2833572D01*
X26118594Y-5718594D01*
X26056282Y-5752620D01*
X25985467Y-5747555D01*
X25928631Y-5705008D01*
X25903820Y-5638488D01*
X25903499Y-5629499D01*
X25903499Y-5624408D01*
X25903044Y-5620648D01*
X25903043Y-5620631D01*
X25893302Y-5540134D01*
X25893302Y-5509859D01*
X25896929Y-5479888D01*
X25903500Y-5425593D01*
X25903499Y-4974408D01*
X25903044Y-4970648D01*
X25903043Y-4970631D01*
X25893302Y-4890134D01*
X25893302Y-4859859D01*
X25899327Y-4810072D01*
X25903500Y-4775593D01*
X25903499Y-4324408D01*
X25903044Y-4320643D01*
X25894031Y-4246163D01*
X25893059Y-4238130D01*
X25839705Y-4103371D01*
X25752076Y-3987924D01*
X25636629Y-3900295D01*
X25501870Y-3846941D01*
X25415593Y-3836500D01*
X24861502Y-3836500D01*
X24793381Y-3816498D01*
X24772407Y-3799595D01*
X23294922Y-2322110D01*
X23287810Y-2314295D01*
X23283826Y-2308017D01*
X23236069Y-2263170D01*
X23233227Y-2260415D01*
X23214265Y-2241453D01*
X23211138Y-2239027D01*
X23210497Y-2238462D01*
X23202337Y-2231493D01*
X23177239Y-2207925D01*
X23171458Y-2202496D01*
X23154681Y-2193272D01*
X23138168Y-2182425D01*
X23129302Y-2175548D01*
X23129297Y-2175545D01*
X23123034Y-2170687D01*
X23084150Y-2153861D01*
X23073505Y-2148646D01*
X23036378Y-2128235D01*
X23017838Y-2123475D01*
X22999141Y-2117074D01*
X22981565Y-2109468D01*
X22939722Y-2102841D01*
X22928103Y-2100435D01*
X22887074Y-2089900D01*
X22867936Y-2089900D01*
X22848225Y-2088349D01*
X22829316Y-2085354D01*
X22801050Y-2088026D01*
X22787139Y-2089341D01*
X22775281Y-2089900D01*
X22014500Y-2089900D01*
X21946379Y-2069898D01*
X21899886Y-2016242D01*
X21888500Y-1963900D01*
X21888499Y-1727885D01*
X28992000Y-1727885D01*
X28996475Y-1743124D01*
X28997865Y-1744329D01*
X29005548Y-1746000D01*
X29727885Y-1746000D01*
X29743124Y-1741525D01*
X29744329Y-1740135D01*
X29746000Y-1732452D01*
X29746000Y-1010116D01*
X29741525Y-994877D01*
X29740135Y-993672D01*
X29732452Y-992001D01*
X29455331Y-992001D01*
X29448510Y-992371D01*
X29397648Y-997895D01*
X29382396Y-1001521D01*
X29261946Y-1046676D01*
X29246351Y-1055214D01*
X29144276Y-1131715D01*
X29131715Y-1144276D01*
X29055214Y-1246351D01*
X29046676Y-1261946D01*
X29001522Y-1382394D01*
X28997895Y-1397649D01*
X28992369Y-1448514D01*
X28992000Y-1455328D01*
X28992000Y-1727885D01*
X21888499Y-1727885D01*
X21888499Y-1552484D01*
X21888499Y-1550012D01*
X21885629Y-1513534D01*
X21847529Y-1382394D01*
X21842481Y-1365017D01*
X21842480Y-1365015D01*
X21840269Y-1357404D01*
X21783816Y-1261946D01*
X21761540Y-1224280D01*
X21757506Y-1217459D01*
X21642541Y-1102494D01*
X21635720Y-1098460D01*
X21509419Y-1023766D01*
X21509418Y-1023766D01*
X21502596Y-1019731D01*
X21494985Y-1017520D01*
X21494983Y-1017519D01*
X21352644Y-976166D01*
X21352645Y-976166D01*
X21346466Y-974371D01*
X21340059Y-973867D01*
X21340055Y-973866D01*
X21312444Y-971693D01*
X21312438Y-971693D01*
X21309989Y-971500D01*
X21304708Y-971500D01*
X21124905Y-971501D01*
X21056786Y-951499D01*
X21010293Y-897844D01*
X20999596Y-832331D01*
X21012814Y-706565D01*
X21013504Y-700000D01*
X21007951Y-647169D01*
X21020723Y-577333D01*
X21069224Y-525486D01*
X21133261Y-508000D01*
X41366000Y-508000D01*
X41434121Y-528002D01*
G37*
%TD.AperFunction*%
%TA.AperFunction,Conductor*%
G36*
X11053911Y-528002D02*
G01*
X11100404Y-581658D01*
X11110508Y-651932D01*
X11081014Y-716512D01*
X11074885Y-723095D01*
X11013361Y-784619D01*
X10924528Y-931301D01*
X10922257Y-938548D01*
X10922256Y-938550D01*
X10907327Y-986189D01*
X10873247Y-1094938D01*
X10866500Y-1168365D01*
X10866501Y-1831634D01*
X10866764Y-1834492D01*
X10866764Y-1834501D01*
X10869370Y-1862858D01*
X10873247Y-1905062D01*
X10875246Y-1911440D01*
X10875246Y-1911441D01*
X10920498Y-2055838D01*
X10924528Y-2068699D01*
X10959390Y-2126263D01*
X10971276Y-2145889D01*
X10989500Y-2211160D01*
X10989500Y-2360500D01*
X10969498Y-2428621D01*
X10915842Y-2475114D01*
X10863500Y-2486500D01*
X10733498Y-2486500D01*
X10731050Y-2486693D01*
X10731042Y-2486693D01*
X10702579Y-2488933D01*
X10702574Y-2488934D01*
X10696169Y-2489438D01*
X10610641Y-2514286D01*
X10544012Y-2533643D01*
X10544010Y-2533644D01*
X10536399Y-2535855D01*
X10529572Y-2539892D01*
X10529573Y-2539892D01*
X10400020Y-2616509D01*
X10400017Y-2616511D01*
X10393193Y-2620547D01*
X10275547Y-2738193D01*
X10271511Y-2745017D01*
X10271509Y-2745020D01*
X10219989Y-2832136D01*
X10190855Y-2881399D01*
X10144438Y-3041169D01*
X10143934Y-3047574D01*
X10143933Y-3047579D01*
X10141825Y-3074371D01*
X10141500Y-3078498D01*
X10141500Y-3197263D01*
X10121498Y-3265384D01*
X10067842Y-3311877D01*
X9997568Y-3321981D01*
X9932988Y-3292487D01*
X9926405Y-3286358D01*
X9842541Y-3202494D01*
X9821440Y-3190015D01*
X9709419Y-3123766D01*
X9709418Y-3123766D01*
X9702596Y-3119731D01*
X9694985Y-3117520D01*
X9694983Y-3117519D01*
X9569173Y-3080968D01*
X9546466Y-3074371D01*
X9540059Y-3073867D01*
X9540055Y-3073866D01*
X9512444Y-3071693D01*
X9512438Y-3071693D01*
X9509989Y-3071500D01*
X9310122Y-3071500D01*
X9110012Y-3071501D01*
X9073534Y-3074371D01*
X8986024Y-3099795D01*
X8925017Y-3117519D01*
X8925015Y-3117520D01*
X8917404Y-3119731D01*
X8910579Y-3123767D01*
X8910575Y-3123769D01*
X8864139Y-3151231D01*
X8795323Y-3168691D01*
X8735861Y-3151231D01*
X8689425Y-3123769D01*
X8689421Y-3123767D01*
X8682596Y-3119731D01*
X8674985Y-3117520D01*
X8674983Y-3117519D01*
X8549173Y-3080968D01*
X8526466Y-3074371D01*
X8520059Y-3073867D01*
X8520055Y-3073866D01*
X8492444Y-3071693D01*
X8492438Y-3071693D01*
X8489989Y-3071500D01*
X8290122Y-3071500D01*
X8090012Y-3071501D01*
X8053534Y-3074371D01*
X7966024Y-3099795D01*
X7905017Y-3117519D01*
X7905015Y-3117520D01*
X7897404Y-3119731D01*
X7890582Y-3123766D01*
X7890581Y-3123766D01*
X7778560Y-3190015D01*
X7757459Y-3202494D01*
X7732358Y-3227595D01*
X7670046Y-3261621D01*
X7643263Y-3264500D01*
X6679032Y-3264500D01*
X6667793Y-3263970D01*
X6660281Y-3262291D01*
X6652356Y-3262540D01*
X6652355Y-3262540D01*
X6591970Y-3264438D01*
X6588012Y-3264500D01*
X6560017Y-3264500D01*
X6556083Y-3264997D01*
X6556081Y-3264997D01*
X6555994Y-3265008D01*
X6544160Y-3265940D01*
X6499795Y-3267335D01*
X6492182Y-3269547D01*
X6492181Y-3269547D01*
X6480252Y-3273013D01*
X6460888Y-3277023D01*
X6448560Y-3278580D01*
X6448558Y-3278580D01*
X6440701Y-3279573D01*
X6433337Y-3282489D01*
X6433332Y-3282490D01*
X6399444Y-3295907D01*
X6388215Y-3299752D01*
X6371535Y-3304598D01*
X6345607Y-3312131D01*
X6338780Y-3316169D01*
X6338777Y-3316170D01*
X6328094Y-3322488D01*
X6310336Y-3331188D01*
X6298785Y-3335761D01*
X6298779Y-3335765D01*
X6291412Y-3338681D01*
X6285001Y-3343339D01*
X6284999Y-3343340D01*
X6255512Y-3364764D01*
X6245590Y-3371281D01*
X6214232Y-3389826D01*
X6214228Y-3389829D01*
X6207402Y-3393866D01*
X6193018Y-3408250D01*
X6177984Y-3421091D01*
X6161513Y-3433058D01*
X6156460Y-3439166D01*
X6133223Y-3467255D01*
X6125233Y-3476035D01*
X2183086Y-7418181D01*
X2120774Y-7452207D01*
X2080820Y-7454396D01*
X2013203Y-7447289D01*
X2013202Y-7447289D01*
X2007075Y-7446645D01*
X1945959Y-7452207D01*
X1816251Y-7464011D01*
X1816248Y-7464012D01*
X1810112Y-7464570D01*
X1804206Y-7466308D01*
X1804202Y-7466309D01*
X1711618Y-7493558D01*
X1620381Y-7520410D01*
X1614923Y-7523263D01*
X1614919Y-7523265D01*
X1524147Y-7570720D01*
X1445110Y-7612040D01*
X1290975Y-7735968D01*
X1163846Y-7887474D01*
X1160879Y-7892872D01*
X1160875Y-7892877D01*
X1108315Y-7988485D01*
X1068567Y-8060787D01*
X1066706Y-8066654D01*
X1066705Y-8066656D01*
X1013495Y-8234394D01*
X1008765Y-8249306D01*
X986719Y-8445851D01*
X987865Y-8459500D01*
X1002509Y-8633892D01*
X1003268Y-8642934D01*
X1022069Y-8708500D01*
X1053469Y-8818004D01*
X1057783Y-8833050D01*
X1060602Y-8838535D01*
X1125559Y-8964926D01*
X1148187Y-9008956D01*
X1152016Y-9013787D01*
X1153839Y-9016088D01*
X1154414Y-9017509D01*
X1155353Y-9018966D01*
X1155076Y-9019144D01*
X1180474Y-9081898D01*
X1167301Y-9151662D01*
X1163846Y-9157474D01*
X1068567Y-9330787D01*
X1066706Y-9336654D01*
X1066705Y-9336656D01*
X1045212Y-9404410D01*
X1008765Y-9519306D01*
X986719Y-9715851D01*
X987235Y-9721995D01*
X1000684Y-9882158D01*
X1003268Y-9912934D01*
X1057783Y-10103050D01*
X1060602Y-10108535D01*
X1064402Y-10115929D01*
X1077750Y-10185660D01*
X1057667Y-10237468D01*
X1059521Y-10238483D01*
X1046677Y-10261942D01*
X1001522Y-10382394D01*
X997895Y-10397649D01*
X992369Y-10448514D01*
X992000Y-10455328D01*
X992000Y-10727885D01*
X996475Y-10743124D01*
X997865Y-10744329D01*
X1005548Y-10746000D01*
X2989884Y-10746000D01*
X3005123Y-10741525D01*
X3006328Y-10740135D01*
X3007999Y-10732452D01*
X3007999Y-10455331D01*
X3007629Y-10448510D01*
X3002105Y-10397648D01*
X2998479Y-10382396D01*
X2953324Y-10261946D01*
X2940478Y-10238483D01*
X2942602Y-10237320D01*
X2922313Y-10183007D01*
X2928429Y-10134183D01*
X2968317Y-10014275D01*
X2998780Y-9964952D01*
X4859136Y-8104596D01*
X4921448Y-8070570D01*
X4992263Y-8075635D01*
X5049099Y-8118182D01*
X5057351Y-8130693D01*
X5060960Y-8136944D01*
X5065378Y-8141851D01*
X5065379Y-8141852D01*
X5164280Y-8251693D01*
X5188747Y-8278866D01*
X5269787Y-8337745D01*
X5333779Y-8384238D01*
X5343248Y-8391118D01*
X5349276Y-8393802D01*
X5349278Y-8393803D01*
X5496837Y-8459500D01*
X5517712Y-8468794D01*
X5611113Y-8488647D01*
X5698056Y-8507128D01*
X5698061Y-8507128D01*
X5704513Y-8508500D01*
X5895487Y-8508500D01*
X5901940Y-8507128D01*
X5901953Y-8507127D01*
X6040876Y-8477597D01*
X6111666Y-8482998D01*
X6168299Y-8525815D01*
X6192793Y-8592452D01*
X6177372Y-8661754D01*
X6171838Y-8670845D01*
X6163986Y-8682597D01*
X6039885Y-8868327D01*
X6038061Y-8872026D01*
X6038058Y-8872031D01*
X5973672Y-9002593D01*
X5908941Y-9133855D01*
X5907616Y-9137760D01*
X5907615Y-9137761D01*
X5832655Y-9358588D01*
X5813776Y-9414203D01*
X5812972Y-9418247D01*
X5812970Y-9418253D01*
X5780818Y-9579894D01*
X5756017Y-9704574D01*
X5755748Y-9708679D01*
X5755747Y-9708686D01*
X5741972Y-9918858D01*
X5736654Y-10000000D01*
X5736924Y-10004119D01*
X5755735Y-10291118D01*
X5756017Y-10295426D01*
X5756819Y-10299459D01*
X5756820Y-10299465D01*
X5812970Y-10581747D01*
X5813776Y-10585797D01*
X5815103Y-10589706D01*
X5815104Y-10589710D01*
X5888083Y-10804700D01*
X5908941Y-10866145D01*
X5937879Y-10924826D01*
X6036395Y-11124595D01*
X6039885Y-11131673D01*
X6042179Y-11135106D01*
X6184107Y-11347516D01*
X6204367Y-11377838D01*
X6207081Y-11380932D01*
X6207085Y-11380938D01*
X6390379Y-11589943D01*
X6399573Y-11600427D01*
X6402662Y-11603136D01*
X6619062Y-11792915D01*
X6619068Y-11792919D01*
X6622162Y-11795633D01*
X6625588Y-11797922D01*
X6625593Y-11797926D01*
X6704628Y-11850735D01*
X6750156Y-11905212D01*
X6759004Y-11975655D01*
X6728363Y-12039699D01*
X6667961Y-12077010D01*
X6634626Y-12081500D01*
X6437016Y-12081500D01*
X6434568Y-12081693D01*
X6434560Y-12081693D01*
X6406656Y-12083889D01*
X6406651Y-12083890D01*
X6400246Y-12084394D01*
X6325199Y-12106197D01*
X6250516Y-12127894D01*
X6250514Y-12127895D01*
X6242903Y-12130106D01*
X6235311Y-12134596D01*
X6226147Y-12140015D01*
X6157330Y-12157474D01*
X6097872Y-12140016D01*
X6088722Y-12134605D01*
X6074284Y-12128357D01*
X5953895Y-12093381D01*
X5939795Y-12093421D01*
X5936500Y-12100691D01*
X5936500Y-12378621D01*
X5918954Y-12442760D01*
X5902606Y-12470403D01*
X5900395Y-12478014D01*
X5900394Y-12478016D01*
X5888068Y-12520443D01*
X5856894Y-12627746D01*
X5856390Y-12634151D01*
X5856389Y-12634156D01*
X5855799Y-12641656D01*
X5854000Y-12664516D01*
X5854000Y-13028000D01*
X5833998Y-13096121D01*
X5780342Y-13142614D01*
X5728000Y-13154000D01*
X4914076Y-13154000D01*
X4899281Y-13158344D01*
X4897437Y-13168775D01*
X4899188Y-13178359D01*
X4940857Y-13321784D01*
X4947104Y-13336220D01*
X5022376Y-13463499D01*
X5032016Y-13475926D01*
X5136574Y-13580484D01*
X5149001Y-13590124D01*
X5276280Y-13665396D01*
X5290716Y-13671643D01*
X5434141Y-13713312D01*
X5446744Y-13715614D01*
X5474602Y-13717807D01*
X5479531Y-13718000D01*
X5569628Y-13718000D01*
X5637749Y-13738002D01*
X5684242Y-13791658D01*
X5694346Y-13861932D01*
X5669591Y-13920703D01*
X5637241Y-13962863D01*
X5637239Y-13962867D01*
X5632212Y-13969418D01*
X5629053Y-13977044D01*
X5629052Y-13977046D01*
X5610133Y-14022721D01*
X5571905Y-14115010D01*
X5570828Y-14123194D01*
X5570827Y-14123196D01*
X5559900Y-14206197D01*
X5556500Y-14232025D01*
X5556501Y-14730474D01*
X5557039Y-14734558D01*
X5557039Y-14734564D01*
X5570827Y-14839303D01*
X5571905Y-14847490D01*
X5575065Y-14855120D01*
X5575066Y-14855122D01*
X5592956Y-14898314D01*
X5600545Y-14968904D01*
X5565642Y-15035626D01*
X5106518Y-15494750D01*
X5098197Y-15502322D01*
X5091697Y-15506447D01*
X5058450Y-15541852D01*
X5044914Y-15556266D01*
X5042159Y-15559108D01*
X5022361Y-15578906D01*
X5019937Y-15582031D01*
X5019929Y-15582040D01*
X5019863Y-15582126D01*
X5012155Y-15591151D01*
X4981783Y-15623494D01*
X4977965Y-15630438D01*
X4977964Y-15630440D01*
X4971978Y-15641329D01*
X4961127Y-15657847D01*
X4948650Y-15673933D01*
X4931024Y-15714666D01*
X4925807Y-15725314D01*
X4904431Y-15764197D01*
X4902460Y-15771872D01*
X4902458Y-15771878D01*
X4899369Y-15783911D01*
X4892966Y-15802613D01*
X4884883Y-15821292D01*
X4882385Y-15837065D01*
X4877940Y-15865127D01*
X4875535Y-15876740D01*
X4864500Y-15919718D01*
X4864500Y-15940065D01*
X4862949Y-15959776D01*
X4859765Y-15979879D01*
X4860511Y-15987771D01*
X4863941Y-16024056D01*
X4864500Y-16035914D01*
X4864500Y-16982668D01*
X4861840Y-16991727D01*
X4864500Y-17017332D01*
X4864500Y-18114730D01*
X4863970Y-18125964D01*
X4862292Y-18133469D01*
X4863228Y-18163261D01*
X4864438Y-18201762D01*
X4864500Y-18205719D01*
X4864500Y-18233733D01*
X4864996Y-18237658D01*
X4864996Y-18237659D01*
X4865008Y-18237754D01*
X4865941Y-18249599D01*
X4867335Y-18293955D01*
X4871454Y-18308131D01*
X4873013Y-18313498D01*
X4877023Y-18332862D01*
X4879573Y-18353049D01*
X4882489Y-18360413D01*
X4882490Y-18360418D01*
X4895907Y-18394306D01*
X4899752Y-18405535D01*
X4904598Y-18422215D01*
X4912131Y-18448143D01*
X4916169Y-18454970D01*
X4916170Y-18454973D01*
X4922488Y-18465656D01*
X4931188Y-18483414D01*
X4935761Y-18494965D01*
X4935765Y-18494971D01*
X4938681Y-18502338D01*
X4943339Y-18508749D01*
X4943340Y-18508751D01*
X4964764Y-18538238D01*
X4971281Y-18548160D01*
X4989826Y-18579518D01*
X4989829Y-18579522D01*
X4993866Y-18586348D01*
X5008250Y-18600732D01*
X5021091Y-18615766D01*
X5026839Y-18623678D01*
X5033058Y-18632237D01*
X5056326Y-18651486D01*
X5067250Y-18660523D01*
X5076031Y-18668513D01*
X5632255Y-19224738D01*
X5639825Y-19233057D01*
X5643947Y-19239553D01*
X5649725Y-19244979D01*
X5649726Y-19244980D01*
X5680789Y-19274150D01*
X5716754Y-19335363D01*
X5713916Y-19406303D01*
X5673176Y-19464447D01*
X5607468Y-19491335D01*
X5594536Y-19492000D01*
X634000Y-19492000D01*
X565879Y-19471998D01*
X519386Y-19418342D01*
X508000Y-19366000D01*
X508000Y-17000000D01*
X1386526Y-17000000D01*
X1406391Y-17252403D01*
X1407545Y-17257210D01*
X1407546Y-17257216D01*
X1442592Y-17403191D01*
X1465495Y-17498591D01*
X1467388Y-17503162D01*
X1467389Y-17503164D01*
X1560472Y-17727885D01*
X1562384Y-17732502D01*
X1564970Y-17736722D01*
X1567913Y-17741525D01*
X1694672Y-17948376D01*
X1859102Y-18140898D01*
X2051624Y-18305328D01*
X2267498Y-18437616D01*
X2272068Y-18439509D01*
X2272072Y-18439511D01*
X2475946Y-18523958D01*
X2501409Y-18534505D01*
X2572157Y-18551490D01*
X2742784Y-18592454D01*
X2742790Y-18592455D01*
X2747597Y-18593609D01*
X2847416Y-18601465D01*
X2934345Y-18608307D01*
X2934352Y-18608307D01*
X2936801Y-18608500D01*
X3063199Y-18608500D01*
X3065648Y-18608307D01*
X3065655Y-18608307D01*
X3152584Y-18601465D01*
X3252403Y-18593609D01*
X3257210Y-18592455D01*
X3257216Y-18592454D01*
X3427843Y-18551490D01*
X3498591Y-18534505D01*
X3524054Y-18523958D01*
X3727928Y-18439511D01*
X3727932Y-18439509D01*
X3732502Y-18437616D01*
X3948376Y-18305328D01*
X4140898Y-18140898D01*
X4305328Y-17948376D01*
X4432087Y-17741525D01*
X4435030Y-17736722D01*
X4437616Y-17732502D01*
X4439529Y-17727885D01*
X4532611Y-17503164D01*
X4532612Y-17503162D01*
X4534505Y-17498591D01*
X4557408Y-17403191D01*
X4592454Y-17257216D01*
X4592455Y-17257210D01*
X4593609Y-17252403D01*
X4612888Y-17007446D01*
X4614737Y-17002595D01*
X4612888Y-16992554D01*
X4611467Y-16974502D01*
X4593609Y-16747597D01*
X4583759Y-16706565D01*
X4535660Y-16506221D01*
X4534505Y-16501409D01*
X4532611Y-16496836D01*
X4439511Y-16272072D01*
X4439509Y-16272068D01*
X4437616Y-16267498D01*
X4305328Y-16051624D01*
X4140898Y-15859102D01*
X4130341Y-15850085D01*
X4096628Y-15821292D01*
X3948376Y-15694672D01*
X3732502Y-15562384D01*
X3727932Y-15560491D01*
X3727928Y-15560489D01*
X3503164Y-15467389D01*
X3503162Y-15467388D01*
X3498591Y-15465495D01*
X3413968Y-15445179D01*
X3257216Y-15407546D01*
X3257210Y-15407545D01*
X3252403Y-15406391D01*
X3152584Y-15398535D01*
X3065655Y-15391693D01*
X3065648Y-15391693D01*
X3063199Y-15391500D01*
X2936801Y-15391500D01*
X2934352Y-15391693D01*
X2934345Y-15391693D01*
X2847416Y-15398535D01*
X2747597Y-15406391D01*
X2742790Y-15407545D01*
X2742784Y-15407546D01*
X2586032Y-15445179D01*
X2501409Y-15465495D01*
X2496838Y-15467388D01*
X2496836Y-15467389D01*
X2272072Y-15560489D01*
X2272068Y-15560491D01*
X2267498Y-15562384D01*
X2051624Y-15694672D01*
X1903372Y-15821292D01*
X1869660Y-15850085D01*
X1859102Y-15859102D01*
X1694672Y-16051624D01*
X1562384Y-16267498D01*
X1560491Y-16272068D01*
X1560489Y-16272072D01*
X1467389Y-16496836D01*
X1465495Y-16501409D01*
X1464340Y-16506221D01*
X1416242Y-16706565D01*
X1406391Y-16747597D01*
X1386526Y-17000000D01*
X508000Y-17000000D01*
X508000Y-12629609D01*
X4897732Y-12629609D01*
X4900552Y-12643031D01*
X4912013Y-12646000D01*
X5410385Y-12646000D01*
X5425624Y-12641525D01*
X5426829Y-12640135D01*
X5428500Y-12632452D01*
X5428500Y-12106442D01*
X5424527Y-12092911D01*
X5416629Y-12091776D01*
X5290716Y-12128357D01*
X5276280Y-12134604D01*
X5149001Y-12209876D01*
X5136574Y-12219516D01*
X5032016Y-12324074D01*
X5022376Y-12336501D01*
X4947104Y-12463780D01*
X4940857Y-12478216D01*
X4899188Y-12621641D01*
X4897732Y-12629609D01*
X508000Y-12629609D01*
X508000Y-11544669D01*
X992001Y-11544669D01*
X992371Y-11551490D01*
X997895Y-11602352D01*
X1001521Y-11617604D01*
X1046676Y-11738054D01*
X1055214Y-11753649D01*
X1131715Y-11855724D01*
X1144276Y-11868285D01*
X1246351Y-11944786D01*
X1261946Y-11953324D01*
X1382394Y-11998478D01*
X1397649Y-12002105D01*
X1448514Y-12007631D01*
X1455328Y-12008000D01*
X1727885Y-12008000D01*
X1743124Y-12003525D01*
X1744329Y-12002135D01*
X1746000Y-11994452D01*
X1746000Y-11989884D01*
X2254000Y-11989884D01*
X2258475Y-12005123D01*
X2259865Y-12006328D01*
X2267548Y-12007999D01*
X2544669Y-12007999D01*
X2551490Y-12007629D01*
X2602352Y-12002105D01*
X2617604Y-11998479D01*
X2738054Y-11953324D01*
X2753649Y-11944786D01*
X2855724Y-11868285D01*
X2868285Y-11855724D01*
X2944786Y-11753649D01*
X2953324Y-11738054D01*
X2998478Y-11617606D01*
X3002105Y-11602351D01*
X3007631Y-11551486D01*
X3008000Y-11544672D01*
X3008000Y-11272115D01*
X3003525Y-11256876D01*
X3002135Y-11255671D01*
X2994452Y-11254000D01*
X2272115Y-11254000D01*
X2256876Y-11258475D01*
X2255671Y-11259865D01*
X2254000Y-11267548D01*
X2254000Y-11989884D01*
X1746000Y-11989884D01*
X1746000Y-11272115D01*
X1741525Y-11256876D01*
X1740135Y-11255671D01*
X1732452Y-11254000D01*
X1010116Y-11254000D01*
X994877Y-11258475D01*
X993672Y-11259865D01*
X992001Y-11267548D01*
X992001Y-11544669D01*
X508000Y-11544669D01*
X508000Y-3000000D01*
X1386526Y-3000000D01*
X1406391Y-3252403D01*
X1407545Y-3257210D01*
X1407546Y-3257216D01*
X1424429Y-3327539D01*
X1465495Y-3498591D01*
X1467388Y-3503162D01*
X1467389Y-3503164D01*
X1528216Y-3650012D01*
X1562384Y-3732502D01*
X1694672Y-3948376D01*
X1859102Y-4140898D01*
X2051624Y-4305328D01*
X2267498Y-4437616D01*
X2272068Y-4439509D01*
X2272072Y-4439511D01*
X2496836Y-4532611D01*
X2501409Y-4534505D01*
X2565901Y-4549988D01*
X2742784Y-4592454D01*
X2742790Y-4592455D01*
X2747597Y-4593609D01*
X2847416Y-4601465D01*
X2934345Y-4608307D01*
X2934352Y-4608307D01*
X2936801Y-4608500D01*
X3063199Y-4608500D01*
X3065648Y-4608307D01*
X3065655Y-4608307D01*
X3152584Y-4601465D01*
X3252403Y-4593609D01*
X3257210Y-4592455D01*
X3257216Y-4592454D01*
X3434099Y-4549988D01*
X3498591Y-4534505D01*
X3503164Y-4532611D01*
X3727928Y-4439511D01*
X3727932Y-4439509D01*
X3732502Y-4437616D01*
X3948376Y-4305328D01*
X4140898Y-4140898D01*
X4305328Y-3948376D01*
X4437616Y-3732502D01*
X4471785Y-3650012D01*
X4532611Y-3503164D01*
X4532612Y-3503162D01*
X4534505Y-3498591D01*
X4575571Y-3327539D01*
X4592454Y-3257216D01*
X4592455Y-3257210D01*
X4593609Y-3252403D01*
X4613474Y-3000000D01*
X4593609Y-2747597D01*
X4591352Y-2738193D01*
X4542775Y-2535855D01*
X4534505Y-2501409D01*
X4529562Y-2489475D01*
X4439511Y-2272072D01*
X4439509Y-2272068D01*
X4437616Y-2267498D01*
X4432939Y-2259865D01*
X4403092Y-2211160D01*
X4305328Y-2051624D01*
X4140898Y-1859102D01*
X3948376Y-1694672D01*
X3732502Y-1562384D01*
X3727932Y-1560491D01*
X3727928Y-1560489D01*
X3503164Y-1467389D01*
X3503162Y-1467388D01*
X3498591Y-1465495D01*
X3369187Y-1434428D01*
X3257216Y-1407546D01*
X3257210Y-1407545D01*
X3252403Y-1406391D01*
X3141328Y-1397649D01*
X3065655Y-1391693D01*
X3065648Y-1391693D01*
X3063199Y-1391500D01*
X2936801Y-1391500D01*
X2934352Y-1391693D01*
X2934345Y-1391693D01*
X2858672Y-1397649D01*
X2747597Y-1406391D01*
X2742790Y-1407545D01*
X2742784Y-1407546D01*
X2630813Y-1434428D01*
X2501409Y-1465495D01*
X2496838Y-1467388D01*
X2496836Y-1467389D01*
X2272072Y-1560489D01*
X2272068Y-1560491D01*
X2267498Y-1562384D01*
X2051624Y-1694672D01*
X1859102Y-1859102D01*
X1694672Y-2051624D01*
X1596908Y-2211160D01*
X1567062Y-2259865D01*
X1562384Y-2267498D01*
X1560491Y-2272068D01*
X1560489Y-2272072D01*
X1470438Y-2489475D01*
X1465495Y-2501409D01*
X1457225Y-2535855D01*
X1408649Y-2738193D01*
X1406391Y-2747597D01*
X1386526Y-3000000D01*
X508000Y-3000000D01*
X508000Y-634000D01*
X528002Y-565879D01*
X581658Y-519386D01*
X634000Y-508000D01*
X10985790Y-508000D01*
X11053911Y-528002D01*
G37*
%TD.AperFunction*%
%TA.AperFunction,Conductor*%
G36*
X11939010Y-16488501D02*
G01*
X11985503Y-16542156D01*
X11996200Y-16607669D01*
X11986496Y-16700000D01*
X12006458Y-16889928D01*
X12040167Y-16993672D01*
X12047833Y-17017266D01*
X12054000Y-17056202D01*
X12054000Y-17469566D01*
X12058344Y-17484361D01*
X12070003Y-17486421D01*
X12079972Y-17485637D01*
X12095859Y-17482735D01*
X12166465Y-17490171D01*
X12221843Y-17534599D01*
X12244500Y-17606684D01*
X12244500Y-17780245D01*
X12224498Y-17848366D01*
X12186923Y-17886048D01*
X12178030Y-17891799D01*
X12174000Y-17900691D01*
X12174000Y-18178621D01*
X12156454Y-18242760D01*
X12140106Y-18270403D01*
X12137895Y-18278014D01*
X12137894Y-18278016D01*
X12129959Y-18305328D01*
X12094394Y-18427746D01*
X12093890Y-18434151D01*
X12093889Y-18434156D01*
X12092251Y-18454973D01*
X12091500Y-18464516D01*
X12091500Y-18828000D01*
X12071498Y-18896121D01*
X12017842Y-18942614D01*
X11965500Y-18954000D01*
X11151576Y-18954000D01*
X11136781Y-18958344D01*
X11134937Y-18968775D01*
X11136688Y-18978359D01*
X11178357Y-19121784D01*
X11184604Y-19136220D01*
X11259876Y-19263499D01*
X11269516Y-19275926D01*
X11270495Y-19276905D01*
X11271017Y-19277861D01*
X11274372Y-19282186D01*
X11273674Y-19282727D01*
X11304521Y-19339217D01*
X11299456Y-19410032D01*
X11256909Y-19466868D01*
X11190389Y-19491679D01*
X11181400Y-19492000D01*
X9683419Y-19492000D01*
X9615298Y-19471998D01*
X9568805Y-19418342D01*
X9558701Y-19348068D01*
X9586333Y-19285686D01*
X9604276Y-19263996D01*
X9612267Y-19255215D01*
X10437874Y-18429609D01*
X11135232Y-18429609D01*
X11138052Y-18443031D01*
X11149513Y-18446000D01*
X11647885Y-18446000D01*
X11663124Y-18441525D01*
X11664329Y-18440135D01*
X11666000Y-18432452D01*
X11666000Y-17906442D01*
X11662027Y-17892911D01*
X11654129Y-17891776D01*
X11528216Y-17928357D01*
X11513780Y-17934604D01*
X11386501Y-18009876D01*
X11374074Y-18019516D01*
X11269516Y-18124074D01*
X11259876Y-18136501D01*
X11184604Y-18263780D01*
X11178357Y-18278216D01*
X11136688Y-18421641D01*
X11135232Y-18429609D01*
X10437874Y-18429609D01*
X11093483Y-17774000D01*
X11101809Y-17766424D01*
X11108303Y-17762303D01*
X11155086Y-17712484D01*
X11157840Y-17709643D01*
X11177639Y-17689844D01*
X11180063Y-17686719D01*
X11180071Y-17686710D01*
X11180137Y-17686624D01*
X11187845Y-17677599D01*
X11212790Y-17651035D01*
X11218217Y-17645256D01*
X11228023Y-17627419D01*
X11238873Y-17610903D01*
X11251350Y-17594817D01*
X11268976Y-17554084D01*
X11274193Y-17543437D01*
X11286175Y-17521642D01*
X11336520Y-17471583D01*
X11405937Y-17456690D01*
X11431742Y-17461346D01*
X11507436Y-17483338D01*
X11520023Y-17485637D01*
X11527943Y-17486260D01*
X11543030Y-17483090D01*
X11546000Y-17471626D01*
X11546000Y-16594500D01*
X11566002Y-16526379D01*
X11619658Y-16479886D01*
X11671999Y-16468500D01*
X11761506Y-16468500D01*
X11870890Y-16468499D01*
X11939010Y-16488501D01*
G37*
%TD.AperFunction*%
%TA.AperFunction,Conductor*%
G36*
X9361120Y-16259751D02*
G01*
X9407613Y-16313406D01*
X9419000Y-16365749D01*
X9419000Y-17171135D01*
X9423475Y-17186374D01*
X9424865Y-17187579D01*
X9432548Y-17189250D01*
X9576577Y-17189250D01*
X9644698Y-17209252D01*
X9691191Y-17262908D01*
X9701295Y-17333182D01*
X9671801Y-17397762D01*
X9665672Y-17404345D01*
X8911172Y-18158845D01*
X8848860Y-18192871D01*
X8822077Y-18195750D01*
X8714500Y-18195750D01*
X8646379Y-18175748D01*
X8599886Y-18122092D01*
X8588500Y-18069750D01*
X8588500Y-17795766D01*
X8587992Y-17789306D01*
X8586111Y-17765406D01*
X8586110Y-17765401D01*
X8585606Y-17758996D01*
X8539894Y-17601653D01*
X8456488Y-17460621D01*
X8458158Y-17459634D01*
X8435994Y-17403191D01*
X8435500Y-17392045D01*
X8435500Y-17310504D01*
X8455502Y-17242383D01*
X8509158Y-17195890D01*
X8577947Y-17185582D01*
X8601721Y-17188712D01*
X8609928Y-17189250D01*
X8892885Y-17189250D01*
X8908124Y-17184775D01*
X8909329Y-17183385D01*
X8911000Y-17175702D01*
X8911000Y-16365750D01*
X8931002Y-16297629D01*
X8984658Y-16251136D01*
X9037000Y-16239750D01*
X9165000Y-16239749D01*
X9293001Y-16239749D01*
X9361120Y-16259751D01*
G37*
%TD.AperFunction*%
%TA.AperFunction,Conductor*%
G36*
X12196121Y-9828502D02*
G01*
X12242614Y-9882158D01*
X12254000Y-9934500D01*
X12254000Y-10748424D01*
X12258344Y-10763219D01*
X12268775Y-10765063D01*
X12278353Y-10763314D01*
X12290845Y-10759684D01*
X12361842Y-10759886D01*
X12421459Y-10798440D01*
X12450768Y-10863104D01*
X12452000Y-10880681D01*
X12452000Y-10893790D01*
X12431998Y-10961911D01*
X12415095Y-10982885D01*
X12313361Y-11084619D01*
X12224528Y-11231301D01*
X12222257Y-11238548D01*
X12222256Y-11238550D01*
X12201483Y-11304836D01*
X12173247Y-11394938D01*
X12166500Y-11468365D01*
X12166501Y-12131634D01*
X12166764Y-12134492D01*
X12166764Y-12134501D01*
X12167508Y-12142596D01*
X12173247Y-12205062D01*
X12175246Y-12211440D01*
X12175246Y-12211441D01*
X12221710Y-12359706D01*
X12224528Y-12368699D01*
X12313361Y-12515381D01*
X12434619Y-12636639D01*
X12581301Y-12725472D01*
X12588548Y-12727743D01*
X12588550Y-12727744D01*
X12654836Y-12748517D01*
X12744938Y-12776753D01*
X12818365Y-12783500D01*
X12821263Y-12783500D01*
X13075665Y-12783499D01*
X13331634Y-12783499D01*
X13334492Y-12783236D01*
X13334501Y-12783236D01*
X13370004Y-12779974D01*
X13405062Y-12776753D01*
X13420229Y-12772000D01*
X13561450Y-12727744D01*
X13561452Y-12727743D01*
X13568699Y-12725472D01*
X13715381Y-12636639D01*
X13811259Y-12540761D01*
X13873571Y-12506735D01*
X13944386Y-12511800D01*
X13989449Y-12540761D01*
X14079557Y-12630869D01*
X14091426Y-12640176D01*
X14225012Y-12721079D01*
X14238757Y-12727285D01*
X14388644Y-12774256D01*
X14401694Y-12776869D01*
X14456586Y-12781913D01*
X14468124Y-12778525D01*
X14469329Y-12777135D01*
X14471000Y-12769452D01*
X14471000Y-12764884D01*
X14979000Y-12764884D01*
X14983475Y-12780123D01*
X14984865Y-12781328D01*
X14989294Y-12782291D01*
X15048315Y-12776868D01*
X15061351Y-12774257D01*
X15211243Y-12727285D01*
X15224988Y-12721079D01*
X15358574Y-12640176D01*
X15370443Y-12630869D01*
X15480869Y-12520443D01*
X15490176Y-12508574D01*
X15571079Y-12374988D01*
X15577285Y-12361243D01*
X15624256Y-12211356D01*
X15626869Y-12198306D01*
X15632734Y-12134479D01*
X15633000Y-12128691D01*
X15633000Y-12072115D01*
X15628525Y-12056876D01*
X15627135Y-12055671D01*
X15619452Y-12054000D01*
X14997115Y-12054000D01*
X14981876Y-12058475D01*
X14980671Y-12059865D01*
X14979000Y-12067548D01*
X14979000Y-12764884D01*
X14471000Y-12764884D01*
X14471000Y-11672000D01*
X14491002Y-11603879D01*
X14544658Y-11557386D01*
X14597000Y-11546000D01*
X15614884Y-11546000D01*
X15630123Y-11541525D01*
X15631328Y-11540135D01*
X15632999Y-11532452D01*
X15632999Y-11471295D01*
X15632736Y-11465546D01*
X15626868Y-11401685D01*
X15624257Y-11388649D01*
X15577285Y-11238757D01*
X15571079Y-11225012D01*
X15490176Y-11091426D01*
X15480869Y-11079557D01*
X15384907Y-10983595D01*
X15350881Y-10921283D01*
X15355946Y-10850468D01*
X15398493Y-10793632D01*
X15465013Y-10768821D01*
X15474002Y-10768500D01*
X15635484Y-10768500D01*
X15637932Y-10768307D01*
X15637940Y-10768307D01*
X15665844Y-10766111D01*
X15665849Y-10766110D01*
X15672254Y-10765606D01*
X15803176Y-10727570D01*
X15821984Y-10722106D01*
X15821986Y-10722105D01*
X15829597Y-10719894D01*
X15836420Y-10715859D01*
X15885861Y-10686620D01*
X15954678Y-10669161D01*
X16014139Y-10686620D01*
X16063580Y-10715859D01*
X16070403Y-10719894D01*
X16078014Y-10722105D01*
X16078016Y-10722106D01*
X16096824Y-10727570D01*
X16227746Y-10765606D01*
X16234151Y-10766110D01*
X16234156Y-10766111D01*
X16262060Y-10768307D01*
X16262068Y-10768307D01*
X16264516Y-10768500D01*
X16735484Y-10768500D01*
X16737932Y-10768307D01*
X16737940Y-10768307D01*
X16765844Y-10766111D01*
X16765849Y-10766110D01*
X16772254Y-10765606D01*
X16903176Y-10727570D01*
X16921984Y-10722106D01*
X16921986Y-10722105D01*
X16929597Y-10719894D01*
X16936420Y-10715859D01*
X17063805Y-10640524D01*
X17063807Y-10640523D01*
X17070629Y-10636488D01*
X17071143Y-10637356D01*
X17130635Y-10613994D01*
X17141783Y-10613500D01*
X17341233Y-10613500D01*
X17352416Y-10614027D01*
X17359909Y-10615702D01*
X17367835Y-10615453D01*
X17367836Y-10615453D01*
X17427986Y-10613562D01*
X17431945Y-10613500D01*
X17459856Y-10613500D01*
X17463791Y-10613003D01*
X17463856Y-10612995D01*
X17475693Y-10612062D01*
X17507951Y-10611048D01*
X17511970Y-10610922D01*
X17519889Y-10610673D01*
X17539343Y-10605021D01*
X17558700Y-10601013D01*
X17570930Y-10599468D01*
X17570931Y-10599468D01*
X17578797Y-10598474D01*
X17586168Y-10595555D01*
X17586170Y-10595555D01*
X17619912Y-10582196D01*
X17631142Y-10578351D01*
X17665983Y-10568229D01*
X17665984Y-10568229D01*
X17673593Y-10566018D01*
X17680412Y-10561985D01*
X17680417Y-10561983D01*
X17691028Y-10555707D01*
X17708776Y-10547012D01*
X17727617Y-10539552D01*
X17763387Y-10513564D01*
X17773307Y-10507048D01*
X17804535Y-10488580D01*
X17804538Y-10488578D01*
X17811362Y-10484542D01*
X17825683Y-10470221D01*
X17840717Y-10457380D01*
X17850694Y-10450132D01*
X17850697Y-10450129D01*
X17857107Y-10445472D01*
X17860004Y-10441970D01*
X17922013Y-10410599D01*
X17944914Y-10408500D01*
X17995487Y-10408500D01*
X18001939Y-10407128D01*
X18001944Y-10407128D01*
X18088887Y-10388647D01*
X18182288Y-10368794D01*
X18298364Y-10317114D01*
X18350722Y-10293803D01*
X18350724Y-10293802D01*
X18356752Y-10291118D01*
X18373492Y-10278956D01*
X18424007Y-10242254D01*
X18511253Y-10178866D01*
X18532456Y-10155318D01*
X18592900Y-10118080D01*
X18663884Y-10119432D01*
X18722868Y-10158946D01*
X18751126Y-10224076D01*
X18751820Y-10231390D01*
X18755735Y-10291118D01*
X18756017Y-10295426D01*
X18756819Y-10299459D01*
X18756820Y-10299465D01*
X18812970Y-10581747D01*
X18813776Y-10585797D01*
X18815103Y-10589706D01*
X18815104Y-10589710D01*
X18888083Y-10804700D01*
X18908941Y-10866145D01*
X18937879Y-10924826D01*
X19036395Y-11124595D01*
X19039885Y-11131673D01*
X19042179Y-11135106D01*
X19184107Y-11347516D01*
X19204367Y-11377838D01*
X19207081Y-11380932D01*
X19207085Y-11380938D01*
X19390379Y-11589943D01*
X19399573Y-11600427D01*
X19402662Y-11603136D01*
X19619062Y-11792915D01*
X19619068Y-11792919D01*
X19622162Y-11795633D01*
X19764310Y-11890613D01*
X19809836Y-11945088D01*
X19818685Y-12015532D01*
X19788044Y-12079576D01*
X19729462Y-12116374D01*
X19688213Y-12128359D01*
X19673778Y-12134605D01*
X19664628Y-12140016D01*
X19595812Y-12157474D01*
X19536353Y-12140015D01*
X19527189Y-12134596D01*
X19519597Y-12130106D01*
X19511986Y-12127895D01*
X19511984Y-12127894D01*
X19437301Y-12106197D01*
X19362254Y-12084394D01*
X19355849Y-12083890D01*
X19355844Y-12083889D01*
X19327940Y-12081693D01*
X19327932Y-12081693D01*
X19325484Y-12081500D01*
X18914516Y-12081500D01*
X18912068Y-12081693D01*
X18912060Y-12081693D01*
X18884156Y-12083889D01*
X18884151Y-12083890D01*
X18877746Y-12084394D01*
X18802699Y-12106197D01*
X18728016Y-12127894D01*
X18728014Y-12127895D01*
X18720403Y-12130106D01*
X18713581Y-12134141D01*
X18713580Y-12134141D01*
X18587641Y-12208621D01*
X18579371Y-12213512D01*
X18539888Y-12252995D01*
X18477576Y-12287021D01*
X18450793Y-12289900D01*
X18129268Y-12289900D01*
X18061147Y-12269898D01*
X18035636Y-12248215D01*
X18011253Y-12221134D01*
X17892144Y-12134596D01*
X17862094Y-12112763D01*
X17862093Y-12112762D01*
X17856752Y-12108882D01*
X17850724Y-12106198D01*
X17850722Y-12106197D01*
X17688319Y-12033891D01*
X17688318Y-12033891D01*
X17682288Y-12031206D01*
X17573113Y-12008000D01*
X17501944Y-11992872D01*
X17501939Y-11992872D01*
X17495487Y-11991500D01*
X17304513Y-11991500D01*
X17298061Y-11992872D01*
X17298056Y-11992872D01*
X17226887Y-12008000D01*
X17117712Y-12031206D01*
X17111682Y-12033891D01*
X17111681Y-12033891D01*
X16949278Y-12106197D01*
X16949276Y-12106198D01*
X16943248Y-12108882D01*
X16937907Y-12112762D01*
X16937906Y-12112763D01*
X16907856Y-12134596D01*
X16788747Y-12221134D01*
X16784326Y-12226044D01*
X16784325Y-12226045D01*
X16685798Y-12335471D01*
X16660960Y-12363056D01*
X16609733Y-12451784D01*
X16573281Y-12514921D01*
X16565473Y-12528444D01*
X16506458Y-12710072D01*
X16505768Y-12716633D01*
X16505768Y-12716635D01*
X16498740Y-12783500D01*
X16486496Y-12900000D01*
X16487186Y-12906565D01*
X16504235Y-13068774D01*
X16506458Y-13089928D01*
X16565473Y-13271556D01*
X16660960Y-13436944D01*
X16665378Y-13441851D01*
X16665379Y-13441852D01*
X16744598Y-13529834D01*
X16788747Y-13578866D01*
X16851261Y-13624285D01*
X16937158Y-13686693D01*
X16943248Y-13691118D01*
X16949276Y-13693802D01*
X16949278Y-13693803D01*
X17111681Y-13766109D01*
X17117712Y-13768794D01*
X17211113Y-13788647D01*
X17298056Y-13807128D01*
X17298061Y-13807128D01*
X17304513Y-13808500D01*
X17495487Y-13808500D01*
X17501939Y-13807128D01*
X17501944Y-13807128D01*
X17588888Y-13788647D01*
X17682288Y-13768794D01*
X17688319Y-13766109D01*
X17850722Y-13693803D01*
X17850724Y-13693802D01*
X17856752Y-13691118D01*
X17862843Y-13686693D01*
X17948739Y-13624285D01*
X18011253Y-13578866D01*
X18035634Y-13551788D01*
X18096077Y-13514550D01*
X18129268Y-13510100D01*
X18363900Y-13510100D01*
X18432021Y-13530102D01*
X18478514Y-13583758D01*
X18489900Y-13636100D01*
X18489900Y-13661916D01*
X18469898Y-13730037D01*
X18428039Y-13770369D01*
X18350020Y-13816509D01*
X18350017Y-13816511D01*
X18343193Y-13820547D01*
X18225547Y-13938193D01*
X18221511Y-13945017D01*
X18221509Y-13945020D01*
X18157893Y-14052589D01*
X18140855Y-14081399D01*
X18138644Y-14089010D01*
X18138643Y-14089012D01*
X18135010Y-14101517D01*
X18094438Y-14241169D01*
X18093934Y-14247574D01*
X18093933Y-14247579D01*
X18091693Y-14276042D01*
X18091500Y-14278498D01*
X18091500Y-14711502D01*
X18091693Y-14713950D01*
X18091693Y-14713958D01*
X18092669Y-14726351D01*
X18094438Y-14748831D01*
X18120722Y-14839303D01*
X18140093Y-14905978D01*
X18139890Y-14976975D01*
X18101336Y-15036591D01*
X18036671Y-15065899D01*
X17966426Y-15055595D01*
X17938785Y-15038219D01*
X17932755Y-15033231D01*
X17923971Y-15025238D01*
X17000250Y-14101517D01*
X16992674Y-14093191D01*
X16988553Y-14086697D01*
X16938734Y-14039914D01*
X16935893Y-14037160D01*
X16916094Y-14017361D01*
X16912969Y-14014937D01*
X16912960Y-14014929D01*
X16912874Y-14014863D01*
X16903849Y-14007155D01*
X16898723Y-14002341D01*
X16871506Y-13976783D01*
X16853669Y-13966977D01*
X16837153Y-13956127D01*
X16821067Y-13943650D01*
X16780334Y-13926024D01*
X16769686Y-13920807D01*
X16758058Y-13914415D01*
X16730803Y-13899431D01*
X16723128Y-13897460D01*
X16723122Y-13897458D01*
X16711089Y-13894369D01*
X16692387Y-13887966D01*
X16673708Y-13879883D01*
X16639872Y-13874524D01*
X16629873Y-13872940D01*
X16618260Y-13870535D01*
X16575282Y-13859500D01*
X16554935Y-13859500D01*
X16535224Y-13857949D01*
X16522950Y-13856005D01*
X16515121Y-13854765D01*
X16507229Y-13855511D01*
X16470944Y-13858941D01*
X16459086Y-13859500D01*
X15947950Y-13859500D01*
X15879829Y-13839498D01*
X15868915Y-13830702D01*
X15868675Y-13831011D01*
X15862415Y-13826155D01*
X15856807Y-13820547D01*
X15849983Y-13816511D01*
X15849980Y-13816509D01*
X15720427Y-13739892D01*
X15720428Y-13739892D01*
X15713601Y-13735855D01*
X15705990Y-13733644D01*
X15705988Y-13733643D01*
X15643930Y-13715614D01*
X15553831Y-13689438D01*
X15547426Y-13688934D01*
X15547421Y-13688933D01*
X15518958Y-13686693D01*
X15518950Y-13686693D01*
X15516502Y-13686500D01*
X13733498Y-13686500D01*
X13731050Y-13686693D01*
X13731042Y-13686693D01*
X13702579Y-13688933D01*
X13702574Y-13688934D01*
X13696169Y-13689438D01*
X13689997Y-13691231D01*
X13689992Y-13691232D01*
X13644517Y-13704444D01*
X13622681Y-13710788D01*
X13551686Y-13710585D01*
X13492069Y-13672031D01*
X13479076Y-13653930D01*
X13461544Y-13624285D01*
X13461539Y-13624279D01*
X13457506Y-13617459D01*
X13342541Y-13502494D01*
X13323951Y-13491500D01*
X13209419Y-13423766D01*
X13209418Y-13423766D01*
X13202596Y-13419731D01*
X13194985Y-13417520D01*
X13194983Y-13417519D01*
X13052644Y-13376166D01*
X13052645Y-13376166D01*
X13046466Y-13374371D01*
X13040059Y-13373867D01*
X13040055Y-13373866D01*
X13012444Y-13371693D01*
X13012438Y-13371693D01*
X13009989Y-13371500D01*
X12810122Y-13371500D01*
X12610012Y-13371501D01*
X12573534Y-13374371D01*
X12476730Y-13402495D01*
X12425017Y-13417519D01*
X12425015Y-13417520D01*
X12417404Y-13419731D01*
X12410579Y-13423767D01*
X12410575Y-13423769D01*
X12364139Y-13451231D01*
X12295323Y-13468691D01*
X12235861Y-13451231D01*
X12189425Y-13423769D01*
X12189421Y-13423767D01*
X12182596Y-13419731D01*
X12174985Y-13417520D01*
X12174983Y-13417519D01*
X12032644Y-13376166D01*
X12032645Y-13376166D01*
X12026466Y-13374371D01*
X12020059Y-13373867D01*
X12020055Y-13373866D01*
X11992444Y-13371693D01*
X11992438Y-13371693D01*
X11989989Y-13371500D01*
X11984503Y-13371500D01*
X11872553Y-13371501D01*
X11804433Y-13351500D01*
X11757940Y-13297844D01*
X11752720Y-13284437D01*
X11736569Y-13234728D01*
X11736568Y-13234726D01*
X11734527Y-13228444D01*
X11639040Y-13063056D01*
X11565863Y-12981785D01*
X11535147Y-12917779D01*
X11533500Y-12897476D01*
X11533500Y-10876468D01*
X11553502Y-10808347D01*
X11607158Y-10761854D01*
X11677432Y-10751750D01*
X11694655Y-10755472D01*
X11721638Y-10763312D01*
X11729609Y-10764768D01*
X11743031Y-10761948D01*
X11746000Y-10750487D01*
X11746000Y-9934500D01*
X11766002Y-9866379D01*
X11819658Y-9819886D01*
X11872000Y-9808500D01*
X12128000Y-9808500D01*
X12196121Y-9828502D01*
G37*
%TD.AperFunction*%
%TA.AperFunction,Conductor*%
G36*
X19145317Y-5828502D02*
G01*
X19191810Y-5882158D01*
X19202506Y-5947670D01*
X19187670Y-6088831D01*
X19186496Y-6100000D01*
X19187186Y-6106565D01*
X19205300Y-6278906D01*
X19206458Y-6289928D01*
X19244280Y-6406332D01*
X19247833Y-6417266D01*
X19254000Y-6456202D01*
X19254000Y-6748424D01*
X19258344Y-6763219D01*
X19268775Y-6765063D01*
X19278359Y-6763312D01*
X19358121Y-6740139D01*
X19429117Y-6740342D01*
X19477955Y-6771171D01*
X19479423Y-6769541D01*
X19484325Y-6773954D01*
X19488747Y-6778866D01*
X19564525Y-6833922D01*
X19636262Y-6886042D01*
X19643248Y-6891118D01*
X19649276Y-6893802D01*
X19649278Y-6893803D01*
X19805219Y-6963232D01*
X19817712Y-6968794D01*
X19911112Y-6988647D01*
X19998056Y-7007128D01*
X19998061Y-7007128D01*
X20004513Y-7008500D01*
X20195487Y-7008500D01*
X20201939Y-7007128D01*
X20201944Y-7007128D01*
X20288887Y-6988647D01*
X20382288Y-6968794D01*
X20382331Y-6968775D01*
X21134937Y-6968775D01*
X21136688Y-6978359D01*
X21178357Y-7121784D01*
X21184604Y-7136220D01*
X21259876Y-7263499D01*
X21269516Y-7275926D01*
X21374074Y-7380484D01*
X21386501Y-7390124D01*
X21513780Y-7465396D01*
X21528216Y-7471643D01*
X21648605Y-7506619D01*
X21662705Y-7506579D01*
X21666000Y-7499309D01*
X21666000Y-6972115D01*
X21661525Y-6956876D01*
X21660135Y-6955671D01*
X21652452Y-6954000D01*
X21151576Y-6954000D01*
X21136781Y-6958344D01*
X21134937Y-6968775D01*
X20382331Y-6968775D01*
X20394781Y-6963232D01*
X20550722Y-6893803D01*
X20550724Y-6893802D01*
X20556752Y-6891118D01*
X20563739Y-6886042D01*
X20635475Y-6833922D01*
X20711253Y-6778866D01*
X20715675Y-6773955D01*
X20834621Y-6641852D01*
X20834622Y-6641851D01*
X20839040Y-6636944D01*
X20934527Y-6471556D01*
X20935815Y-6472300D01*
X20976811Y-6424072D01*
X21044740Y-6403426D01*
X21113047Y-6422782D01*
X21135661Y-6440961D01*
X21137582Y-6442909D01*
X21149513Y-6446000D01*
X21965500Y-6446000D01*
X22033621Y-6466002D01*
X22080114Y-6519658D01*
X22091500Y-6572000D01*
X22091500Y-6935484D01*
X22091693Y-6937932D01*
X22091693Y-6937940D01*
X22093684Y-6963232D01*
X22094394Y-6972254D01*
X22140106Y-7129597D01*
X22144141Y-7136419D01*
X22144141Y-7136420D01*
X22156454Y-7157240D01*
X22174000Y-7221379D01*
X22174000Y-7493558D01*
X22178277Y-7508124D01*
X22239689Y-7536170D01*
X22278072Y-7595897D01*
X22282180Y-7615591D01*
X22284371Y-7632932D01*
X22287288Y-7640300D01*
X22287290Y-7640307D01*
X22288534Y-7643448D01*
X22289034Y-7647097D01*
X22289261Y-7647982D01*
X22289159Y-7648008D01*
X22296691Y-7702998D01*
X22291147Y-7755747D01*
X22286496Y-7800000D01*
X22287186Y-7806565D01*
X22297667Y-7906290D01*
X22284895Y-7976128D01*
X22236392Y-8027975D01*
X22167559Y-8045369D01*
X22116629Y-8032466D01*
X22011234Y-7980491D01*
X21866145Y-7908941D01*
X21860825Y-7907135D01*
X21589710Y-7815104D01*
X21589706Y-7815103D01*
X21585797Y-7813776D01*
X21581753Y-7812972D01*
X21581747Y-7812970D01*
X21299465Y-7756820D01*
X21299459Y-7756819D01*
X21295426Y-7756017D01*
X21291321Y-7755748D01*
X21291314Y-7755747D01*
X21004119Y-7736924D01*
X21000000Y-7736654D01*
X20995881Y-7736924D01*
X20708686Y-7755747D01*
X20708679Y-7755748D01*
X20704574Y-7756017D01*
X20700541Y-7756819D01*
X20700535Y-7756820D01*
X20418253Y-7812970D01*
X20418247Y-7812972D01*
X20414203Y-7813776D01*
X20410294Y-7815103D01*
X20410290Y-7815104D01*
X20139175Y-7907135D01*
X20133855Y-7908941D01*
X20078912Y-7936036D01*
X19872031Y-8038058D01*
X19872026Y-8038061D01*
X19868327Y-8039885D01*
X19839814Y-8058937D01*
X19625593Y-8202074D01*
X19625588Y-8202078D01*
X19622162Y-8204367D01*
X19619068Y-8207081D01*
X19619062Y-8207085D01*
X19412903Y-8387883D01*
X19399573Y-8399573D01*
X19396864Y-8402662D01*
X19207085Y-8619062D01*
X19207081Y-8619068D01*
X19204367Y-8622162D01*
X19202078Y-8625588D01*
X19202074Y-8625593D01*
X19144051Y-8712431D01*
X19039885Y-8868327D01*
X19038061Y-8872026D01*
X19038058Y-8872031D01*
X18934293Y-9082446D01*
X18886225Y-9134695D01*
X18817539Y-9152662D01*
X18750043Y-9130643D01*
X18712168Y-9089718D01*
X18711246Y-9088120D01*
X18639040Y-8963056D01*
X18601067Y-8920882D01*
X18515675Y-8826045D01*
X18515674Y-8826044D01*
X18511253Y-8821134D01*
X18371329Y-8719473D01*
X18362094Y-8712763D01*
X18362093Y-8712762D01*
X18356752Y-8708882D01*
X18350724Y-8706198D01*
X18350722Y-8706197D01*
X18188319Y-8633891D01*
X18188318Y-8633891D01*
X18182288Y-8631206D01*
X18088887Y-8611353D01*
X18001944Y-8592872D01*
X18001939Y-8592872D01*
X17995487Y-8591500D01*
X17804513Y-8591500D01*
X17798061Y-8592872D01*
X17798056Y-8592872D01*
X17711113Y-8611353D01*
X17617712Y-8631206D01*
X17611685Y-8633889D01*
X17611677Y-8633892D01*
X17444459Y-8708342D01*
X17374092Y-8717776D01*
X17309795Y-8687669D01*
X17276301Y-8634835D01*
X17275253Y-8635289D01*
X17272381Y-8628652D01*
X17272215Y-8628390D01*
X17272107Y-8628020D01*
X17272107Y-8628019D01*
X17269894Y-8620403D01*
X17250987Y-8588432D01*
X17190522Y-8486192D01*
X17186488Y-8479371D01*
X17070629Y-8363512D01*
X17063808Y-8359478D01*
X16936420Y-8284141D01*
X16936419Y-8284141D01*
X16929597Y-8280106D01*
X16921986Y-8277895D01*
X16921984Y-8277894D01*
X16859689Y-8259796D01*
X16772254Y-8234394D01*
X16765849Y-8233890D01*
X16765844Y-8233889D01*
X16737940Y-8231693D01*
X16737932Y-8231693D01*
X16735484Y-8231500D01*
X16264516Y-8231500D01*
X16262068Y-8231693D01*
X16262060Y-8231693D01*
X16234156Y-8233889D01*
X16234151Y-8233890D01*
X16227746Y-8234394D01*
X16140311Y-8259796D01*
X16078016Y-8277894D01*
X16078014Y-8277895D01*
X16070403Y-8280106D01*
X16063581Y-8284141D01*
X16063580Y-8284141D01*
X16014139Y-8313380D01*
X15945322Y-8330839D01*
X15885861Y-8313380D01*
X15836420Y-8284141D01*
X15836419Y-8284141D01*
X15829597Y-8280106D01*
X15821986Y-8277895D01*
X15821984Y-8277894D01*
X15759689Y-8259796D01*
X15672254Y-8234394D01*
X15665849Y-8233890D01*
X15665844Y-8233889D01*
X15637940Y-8231693D01*
X15637932Y-8231693D01*
X15635484Y-8231500D01*
X15164516Y-8231500D01*
X15162068Y-8231693D01*
X15162060Y-8231693D01*
X15134156Y-8233889D01*
X15134151Y-8233890D01*
X15127746Y-8234394D01*
X15121574Y-8236187D01*
X15121569Y-8236188D01*
X15055356Y-8255425D01*
X14996652Y-8272480D01*
X14925657Y-8272277D01*
X14866040Y-8233723D01*
X14836732Y-8169058D01*
X14835500Y-8151483D01*
X14835500Y-7370871D01*
X15098456Y-7370871D01*
X15139107Y-7510790D01*
X15145352Y-7525221D01*
X15221911Y-7654678D01*
X15231551Y-7667104D01*
X15337896Y-7773449D01*
X15350322Y-7783089D01*
X15479779Y-7859648D01*
X15494210Y-7865893D01*
X15640065Y-7908269D01*
X15652667Y-7910570D01*
X15681084Y-7912807D01*
X15686014Y-7913000D01*
X16302885Y-7913000D01*
X16318124Y-7908525D01*
X16319329Y-7907135D01*
X16321000Y-7899452D01*
X16321000Y-7894884D01*
X16829000Y-7894884D01*
X16833475Y-7910123D01*
X16834865Y-7911328D01*
X16842548Y-7912999D01*
X17463984Y-7912999D01*
X17468920Y-7912805D01*
X17497336Y-7910570D01*
X17509931Y-7908270D01*
X17655790Y-7865893D01*
X17670221Y-7859648D01*
X17799678Y-7783089D01*
X17812104Y-7773449D01*
X17918449Y-7667104D01*
X17928089Y-7654678D01*
X18004648Y-7525221D01*
X18010893Y-7510790D01*
X18049939Y-7376395D01*
X18049899Y-7362294D01*
X18042630Y-7359000D01*
X16847115Y-7359000D01*
X16831876Y-7363475D01*
X16830671Y-7364865D01*
X16829000Y-7372548D01*
X16829000Y-7894884D01*
X16321000Y-7894884D01*
X16321000Y-7377115D01*
X16316525Y-7361876D01*
X16315135Y-7360671D01*
X16307452Y-7359000D01*
X15113122Y-7359000D01*
X15099591Y-7362973D01*
X15098456Y-7370871D01*
X14835500Y-7370871D01*
X14835500Y-7015422D01*
X14855502Y-6947301D01*
X14872405Y-6926327D01*
X14935849Y-6862883D01*
X14998161Y-6828857D01*
X15068976Y-6833922D01*
X15076960Y-6837216D01*
X15107371Y-6851000D01*
X18036878Y-6851000D01*
X18050409Y-6847027D01*
X18051544Y-6839129D01*
X18010893Y-6699210D01*
X18004648Y-6684779D01*
X17928089Y-6555323D01*
X17922129Y-6547640D01*
X17896180Y-6481556D01*
X17910078Y-6411933D01*
X17920421Y-6395839D01*
X17924453Y-6391807D01*
X17983930Y-6291237D01*
X18035820Y-6242787D01*
X18105671Y-6230082D01*
X18171302Y-6257157D01*
X18213378Y-6320226D01*
X18228357Y-6371784D01*
X18234604Y-6386220D01*
X18309876Y-6513499D01*
X18319516Y-6525926D01*
X18424074Y-6630484D01*
X18436501Y-6640124D01*
X18563780Y-6715396D01*
X18578216Y-6721643D01*
X18721641Y-6763312D01*
X18729609Y-6764768D01*
X18743031Y-6761948D01*
X18746000Y-6750487D01*
X18746000Y-5934500D01*
X18766002Y-5866379D01*
X18819658Y-5819886D01*
X18872000Y-5808500D01*
X19077196Y-5808500D01*
X19145317Y-5828502D01*
G37*
%TD.AperFunction*%
%TA.AperFunction,Conductor*%
G36*
X34102029Y-6291495D02*
G01*
X34145917Y-6347301D01*
X34152667Y-6417976D01*
X34118039Y-6483228D01*
X33884172Y-6717095D01*
X33821860Y-6751121D01*
X33795077Y-6754000D01*
X33034500Y-6754000D01*
X32966379Y-6733998D01*
X32919886Y-6680342D01*
X32908500Y-6628000D01*
X32908500Y-6425148D01*
X32928502Y-6357027D01*
X32982158Y-6310534D01*
X33052432Y-6300430D01*
X33085748Y-6310041D01*
X33211677Y-6366108D01*
X33211685Y-6366111D01*
X33217712Y-6368794D01*
X33300306Y-6386350D01*
X33398056Y-6407128D01*
X33398061Y-6407128D01*
X33404513Y-6408500D01*
X33595487Y-6408500D01*
X33601939Y-6407128D01*
X33601944Y-6407128D01*
X33699694Y-6386350D01*
X33782288Y-6368794D01*
X33788321Y-6366108D01*
X33950722Y-6293803D01*
X33950724Y-6293802D01*
X33956752Y-6291118D01*
X33962094Y-6287237D01*
X33965942Y-6285015D01*
X34034937Y-6268276D01*
X34102029Y-6291495D01*
G37*
%TD.AperFunction*%
%TA.AperFunction,Conductor*%
G36*
X31852011Y-4892511D02*
G01*
X31858594Y-4898641D01*
X31957459Y-4997506D01*
X31964280Y-5001540D01*
X32075551Y-5067345D01*
X32097404Y-5080269D01*
X32105015Y-5082480D01*
X32105017Y-5082481D01*
X32173686Y-5102431D01*
X32253534Y-5125629D01*
X32259941Y-5126133D01*
X32259945Y-5126134D01*
X32287556Y-5128307D01*
X32287562Y-5128307D01*
X32290011Y-5128500D01*
X32295281Y-5128500D01*
X32492032Y-5128499D01*
X32560151Y-5148501D01*
X32606644Y-5202156D01*
X32616749Y-5272430D01*
X32611863Y-5293437D01*
X32608498Y-5303792D01*
X32608497Y-5303797D01*
X32606458Y-5310072D01*
X32605768Y-5316633D01*
X32605768Y-5316635D01*
X32599996Y-5371556D01*
X32586496Y-5500000D01*
X32587186Y-5506565D01*
X32593950Y-5570922D01*
X32581178Y-5640760D01*
X32532676Y-5692607D01*
X32463843Y-5710001D01*
X32433487Y-5705089D01*
X32406539Y-5697260D01*
X32362254Y-5684394D01*
X32355849Y-5683890D01*
X32355844Y-5683889D01*
X32327940Y-5681693D01*
X32327932Y-5681693D01*
X32325484Y-5681500D01*
X31914516Y-5681500D01*
X31912068Y-5681693D01*
X31912060Y-5681693D01*
X31884156Y-5683889D01*
X31884151Y-5683890D01*
X31877746Y-5684394D01*
X31871570Y-5686188D01*
X31871566Y-5686189D01*
X31800890Y-5706722D01*
X31729894Y-5706519D01*
X31670278Y-5667965D01*
X31640651Y-5600862D01*
X31633302Y-5540134D01*
X31633302Y-5509859D01*
X31636929Y-5479888D01*
X31643500Y-5425593D01*
X31643499Y-4987736D01*
X31663501Y-4919615D01*
X31717156Y-4873122D01*
X31787430Y-4863018D01*
X31852011Y-4892511D01*
G37*
%TD.AperFunction*%
%TA.AperFunction,Conductor*%
G36*
X19134860Y-528002D02*
G01*
X19181353Y-581658D01*
X19192049Y-647169D01*
X19186496Y-700000D01*
X19187186Y-706565D01*
X19201455Y-842330D01*
X19188683Y-912168D01*
X19140181Y-964015D01*
X19076145Y-981500D01*
X18874516Y-981500D01*
X18872068Y-981693D01*
X18872060Y-981693D01*
X18844156Y-983889D01*
X18844151Y-983890D01*
X18837746Y-984394D01*
X18752569Y-1009140D01*
X18688016Y-1027894D01*
X18688014Y-1027895D01*
X18680403Y-1030106D01*
X18673576Y-1034143D01*
X18673577Y-1034143D01*
X18663647Y-1040015D01*
X18594830Y-1057474D01*
X18535372Y-1040016D01*
X18526222Y-1034605D01*
X18511784Y-1028357D01*
X18391395Y-993381D01*
X18377295Y-993421D01*
X18374000Y-1000691D01*
X18374000Y-1278621D01*
X18356454Y-1342760D01*
X18340106Y-1370403D01*
X18337895Y-1378014D01*
X18337894Y-1378016D01*
X18329315Y-1407546D01*
X18294394Y-1527746D01*
X18293890Y-1534151D01*
X18293889Y-1534156D01*
X18292447Y-1552484D01*
X18291500Y-1564516D01*
X18291500Y-1928000D01*
X18271498Y-1996121D01*
X18217842Y-2042614D01*
X18165500Y-2054000D01*
X17351576Y-2054000D01*
X17336781Y-2058344D01*
X17334937Y-2068775D01*
X17336688Y-2078359D01*
X17378357Y-2221784D01*
X17384604Y-2236220D01*
X17420171Y-2296361D01*
X17437630Y-2365178D01*
X17415113Y-2432509D01*
X17359768Y-2476978D01*
X17311717Y-2486500D01*
X15683498Y-2486500D01*
X15681050Y-2486693D01*
X15681042Y-2486693D01*
X15652579Y-2488933D01*
X15652574Y-2488934D01*
X15646169Y-2489438D01*
X15560641Y-2514286D01*
X15494012Y-2533643D01*
X15494010Y-2533644D01*
X15486399Y-2535855D01*
X15479574Y-2539891D01*
X15477234Y-2540904D01*
X15406772Y-2549602D01*
X15338096Y-2514363D01*
X14370405Y-1546672D01*
X14361088Y-1529609D01*
X17335232Y-1529609D01*
X17338052Y-1543031D01*
X17349513Y-1546000D01*
X17847885Y-1546000D01*
X17863124Y-1541525D01*
X17864329Y-1540135D01*
X17866000Y-1532452D01*
X17866000Y-1006442D01*
X17862027Y-992911D01*
X17854129Y-991776D01*
X17728216Y-1028357D01*
X17713780Y-1034604D01*
X17586501Y-1109876D01*
X17574074Y-1119516D01*
X17469516Y-1224074D01*
X17459876Y-1236501D01*
X17384604Y-1363780D01*
X17378357Y-1378216D01*
X17336688Y-1521641D01*
X17335232Y-1529609D01*
X14361088Y-1529609D01*
X14336379Y-1484360D01*
X14333500Y-1457577D01*
X14333499Y-1171249D01*
X14333499Y-1168366D01*
X14333234Y-1165474D01*
X14327364Y-1101592D01*
X14326753Y-1094938D01*
X14321264Y-1077422D01*
X14277744Y-938550D01*
X14277743Y-938548D01*
X14275472Y-931301D01*
X14186639Y-784619D01*
X14125115Y-723095D01*
X14091089Y-660783D01*
X14096154Y-589968D01*
X14138701Y-533132D01*
X14205221Y-508321D01*
X14214210Y-508000D01*
X19066739Y-508000D01*
X19134860Y-528002D01*
G37*
%TD.AperFunction*%
%TD*%
M02*
