M48
METRIC
T1C0.400
T2C0.650
T3C1.000
%
G90
G05
T1
X10.795Y-6.604
X11.938Y-7.874
X16.002Y-6.322
X17.526Y-10.795
X19.939Y-2.667
X21.209Y-10.795
X23.495Y-11.303
X23.622Y-14.224
X24.003Y-2.667
X24.257Y-3.81
X25.146Y-17.272
X25.273Y-6.096
X25.4Y-8.89
X26.035Y-10.668
X26.035Y-14.097
X26.924Y-4.318
X27.051Y-5.461
X30.607Y-16.764
X31.115Y-4.699
X31.623Y-8.763
X31.75Y-10.668
X33.909Y-3.683
X35.052Y-12.827
X35.306Y-13.97
X35.433Y-3.81
X35.56Y-16.129
X36.322Y-1.524
T2
X2.0Y-8.46
X2.0Y-9.73
X2.0Y-11.0
X27.0Y-2.0
X27.0Y-18.5
X28.27Y-2.0
X28.27Y-18.5
X29.54Y-2.0
X29.54Y-18.5
X30.81Y-2.0
X30.81Y-18.5
T3
X12.573Y-13.081
X12.573Y-15.621
X12.573Y-18.161
X16.368Y-14.478
X16.398Y-18.161
X18.908Y-14.478
X18.938Y-18.161
X21.448Y-14.478
X21.478Y-18.161
X38.989Y-7.508
X38.989Y-10.048
X38.989Y-12.588
T0
M30
